<svg xmlns="http://www.w3.org/2000/svg" width="288" height="288" fill="none" viewBox="0 0 235 235">
  <g filter="url(#a)">
    <path fill="url(#b)" fill-opacity=".1" d="M0 0h235v235H0z"/>
  </g>
  <g clip-path="url(#c)">
    <path fill="#07233C" d="M-10.6074-10.6094H228.472c9.014 0 16.32 7.3062 16.32 16.3195V228.47c0 9.014-7.306 16.32-16.32 16.32H-10.6074V-10.6094Z"/>
    <path fill="#315164" d="M119.564 72.9289 65.0896 89.3715c-3.4514 1.0418-5.4047 4.6842-4.363 8.1356l19.2426 63.7509c1.0418 3.451 4.6842 5.405 8.1356 4.363l54.4742-16.443c3.452-1.042 5.405-4.684 4.363-8.135L127.7 77.2919c-1.042-3.4514-4.685-5.4048-8.136-4.363Z" opacity=".5"/>
    <path fill="#6F939D" stroke="#082642" stroke-width="2.7115" d="M168.826 72.7612 113.51 59.4258c-4.233-1.0204-8.492 1.5838-9.512 5.8167L87.6122 133.212c-1.0204 4.233 1.5838 8.491 5.8167 9.512l55.3161 13.335c4.233 1.021 8.492-1.583 9.512-5.816l16.386-67.9697c1.02-4.2329-1.584-8.4916-5.817-9.5121Z"/>
    <path fill="#082642" d="M166.032 76.278 114.4 63.8308c-3.067-.7393-6.152 1.1474-6.891 4.2141L93.9176 124.421c-.7393 3.067 1.1475 6.152 4.2141 6.891l51.6313 12.447c3.067.74 6.152-1.147 6.892-4.214l13.591-56.3757c.739-3.0667-1.148-6.152-4.214-6.8913Z"/>
    <path fill="#5B808D" d="m155.484 100.439-24.261-23.064-3.307.971-.811 3.361-2.501-2.3712-3.307.971-.81 3.3618-2.501-2.3712-3.306.971-7.845 32.5396 2.501 2.37 3.306-.97-.81 3.361 2.501 2.371 3.307-.971-.81 3.362 2.501 2.37 32.106-9.475.81-3.361-2.501-2.371 3.306-.971.811-3.361-2.501-2.371 3.307-.97.815-3.382Zm-42.051 12.402-3.307.971 7.034-29.1781 2.502 2.3712-6.229 25.8359Zm6.708 10.499.81-3.361 25.488-7.514 2.501 2.37-28.799 8.505Zm1.616-6.703 4.612-19.1336-2.501-2.3712-5.423 22.4958-3.307.971 7.04-29.199 14.261 13.561 3.307-.97-16.763-15.9324.811-3.3618 21.76 20.6942-18.875 5.573-.81 3.361 22.182-6.544 2.5 2.372-28.794 8.484Zm27.109-14.236-19.265-18.3032.811-3.3618 21.76 20.694-3.306.971Z"/>
  </g>
  <defs>
    <linearGradient id="b" x1="-24.4139" x2="326.182" y1="-18.1591" y2="119.854" gradientUnits="userSpaceOnUse">
      <stop offset=".0055" stop-color="#fff" stop-opacity=".4"/>
      <stop offset="1" stop-color="#fff" stop-opacity=".01"/>
    </linearGradient>
    <clipPath id="c">
      <path fill="#fff" d="M0 0h235v235H0z"/>
    </clipPath>
    <filter id="a" width="435" height="435" x="-100" y="-100" color-interpolation-filters="sRGB" filterUnits="userSpaceOnUse">
      <feFlood flood-opacity="0" result="BackgroundImageFix"/>
      <feGaussianBlur in="BackgroundImageFix" stdDeviation="50"/>
      <feComposite in2="SourceAlpha" operator="in" result="effect1_backgroundBlur_4108_113220"/>
      <feBlend in="SourceGraphic" in2="effect1_backgroundBlur_4108_113220" result="shape"/>
    </filter>
  </defs>
</svg>