<svg width="30" height="30" viewBox="0 0 30 30" fill="none" xmlns="http://www.w3.org/2000/svg">
<circle cx="14.9997" cy="15" r="14.6667" fill="white"/>
<path fill-rule="evenodd" clip-rule="evenodd" d="M0 15C0 6.71572 6.71572 0 15 0C23.2842 0 30 6.71572 30 15C30 23.2842 23.2842 30 15 30C6.71572 30 0 23.2842 0 15ZM14.9998 6C11.6862 6 8.99986 8.68629 8.99986 12C8.99986 15.3137 11.6862 18 14.9998 18C18.3135 18 20.9998 15.3137 20.9998 12C20.9998 8.68629 18.3135 6 14.9998 6ZM22.6672 20.9961C23.8039 21.7281 23.7485 23.3236 22.7133 24.1932C20.6276 25.9449 17.9372 27 15.0002 27C12.0827 27 9.40823 25.9589 7.32834 24.2277C6.28397 23.3585 6.22863 21.7548 7.37026 21.018C7.72566 20.7886 8.11269 20.5877 8.53273 20.4146C10.2227 19.7178 12.3813 19.5 15 19.5C17.6319 19.5 19.8027 19.7038 21.4971 20.3931C21.9204 20.5653 22.3101 20.7662 22.6672 20.9961Z" fill="#8B8EA0"/>
</svg>
