<svg xmlns="http://www.w3.org/2000/svg" width="32" height="37" fill="none" viewBox="0 0 32 37">
  <path fill="#fff" d="m0 6.2168 2.1558 1.255v24.157L0 30.3885V6.2168ZM4.3098 8.711l2.1558 1.2403V34.123l-2.1558-1.2551V8.7109Zm4.3145 4.9765 2.1558 1.2403v21.6763l-2.1558-1.2403V13.6875ZM4.3098 3.7363l2.1558 1.2404V7.472L4.3098 6.2318V3.7363Zm4.3145-2.4961L10.78 2.4806V4.976L8.6243 3.7357V1.2402Zm2.1621 35.3658v-2.4807l20.9232-12.0784v2.4806L10.7864 36.606Zm0-4.9755v-2.4954l20.9232-12.0785v2.4955L10.7864 31.6305Zm2.1572-6.2169v-2.4954L31.711 12.0801v2.4806L12.9436 25.4136Z"/>
  <path fill="#fff" d="M6.472 34.1244V31.629l2.1557-1.2403.0148 2.4806-2.1706 1.2551Zm-4.3099-2.4941v-2.4954l2.1558-1.2404.0148 2.4807-2.1706 1.2551Zm29.5412-19.5518-2.1558 1.2403L8.6243 1.2403 10.78 0l20.9232 12.0785Zm-4.3144 2.4804L25.233 15.814 4.3098 3.7356l2.1558-1.2551L27.389 14.5589Zm-6.4657 1.2558-2.1558 1.2403L0 6.2169l2.1558-1.2403 18.7674 10.8381Zm10.7776 1.2392-2.1558 1.2404-2.1558-1.2404 2.1558-1.2551 2.1558 1.2551Zm0 4.9922-2.1558 1.2403-2.1558-1.2403 2.1558-1.2551 2.1558 1.2551Z"/>
</svg>