<svg width="111" height="34" viewBox="0 0 111 34" fill="none" xmlns="http://www.w3.org/2000/svg">
<g id="Superscrypt_Logo" opacity="0.5" clip-path="url(#clip0_4523_31752)">
<g id="Group">
<path id="Vector" d="M17.8978 0H18.1753C19.2853 0.763125 20.4878 1.3875 21.6672 2.08125C21.6672 3.46875 21.6672 4.85625 21.6672 6.24375C19.8634 7.28438 18.0597 8.325 16.2559 9.36563C16.2559 7.97813 16.2559 6.59063 16.2559 5.20312C15.0534 4.50938 13.8509 3.81562 12.6484 3.12188C14.3828 2.05813 16.2328 1.17938 17.8978 0Z" fill="white"/>
</g>
<g id="Group_2">
<g id="Group_3">
<path id="Vector_2" d="M0 10.43C3.58438 8.30246 7.215 6.24434 10.8225 4.16309C12.025 4.85684 13.2044 5.55059 14.4069 6.24434C14.4069 7.63184 14.4069 9.01934 14.4069 10.4068C16.8119 11.7943 19.24 13.1818 21.645 14.5693C21.645 17.3443 21.645 20.1193 21.645 22.8943C15.6094 26.34 9.62 29.8318 3.6075 33.3006C2.405 32.6068 1.2025 31.9131 0 31.2193V27.08C2.38188 25.6462 4.81 24.305 7.19187 22.8943C4.81 21.4837 2.405 20.1193 0 18.7318V10.43ZM7.215 14.5693C7.215 17.3443 7.215 20.1193 7.215 22.8943C9.59688 21.5068 12.025 20.1193 14.4069 18.7318C14.4069 15.9568 14.4069 13.1818 14.4069 10.4068C12.025 11.7943 9.62 13.1818 7.215 14.5693Z" fill="white"/>
</g>
<path id="Vector_3" d="M29.7606 12.6497C30.5237 11.9328 31.6106 11.771 32.605 11.7941C33.6225 11.8172 34.7094 12.141 35.38 12.9503C35.7963 13.4128 35.8887 14.0603 36.0506 14.6385C35.2181 14.6385 34.4087 14.6385 33.5762 14.6385C33.3219 14.0603 32.8594 13.4591 32.1194 13.6672C31.3562 13.6672 31.0788 14.8235 31.7494 15.1935C32.8825 15.8872 34.3394 15.9797 35.3569 16.8585C36.4206 17.7835 36.3513 19.6103 35.38 20.5816C34.2006 21.8072 32.2581 21.8303 30.755 21.2985C29.645 20.9053 28.905 19.8185 28.8125 18.6622C29.645 18.6622 30.4775 18.6622 31.2869 18.6391C31.4025 19.541 32.42 20.0266 33.2294 19.6103C33.8537 19.3328 33.8306 18.3616 33.2063 18.0841C32.1425 17.4828 30.8244 17.3903 29.83 16.6503C28.6044 15.7022 28.5812 13.621 29.7606 12.6497Z" fill="white"/>
<path id="Vector_4" d="M107.093 12.0254C107.879 12.0254 108.642 12.0254 109.429 12.0254C109.429 12.6498 109.429 13.2741 109.429 13.8985C109.937 13.8985 110.446 13.8985 110.955 13.8985C110.955 14.546 110.955 15.1935 110.955 15.841C110.446 15.841 109.937 15.841 109.429 15.841C109.521 17.0435 109.22 18.2923 109.614 19.4485C110.076 19.5179 110.539 19.541 111.001 19.5873V21.5298C109.729 21.5529 108.018 21.6685 107.37 20.281C106.839 18.8704 107.185 17.2979 107.093 15.841C106.792 15.841 106.469 15.841 106.168 15.841C106.168 15.1935 106.168 14.546 106.168 13.8985C106.469 13.8985 106.792 13.8985 107.093 13.8985C107.093 13.2741 107.093 12.6498 107.093 12.0254Z" fill="white"/>
<path id="Vector_5" d="M65.5156 15.0782C66.1169 14.3382 66.9725 13.8526 67.9206 13.7832C67.9438 14.6157 67.9206 15.4482 67.9437 16.2807C67.3194 16.327 66.6487 16.2345 66.0937 16.5813C65.6775 16.8357 65.5388 17.3445 65.5388 17.807C65.5156 19.0557 65.5388 20.3045 65.5388 21.5532C64.7525 21.5532 63.9662 21.5532 63.2031 21.5532C63.2031 19.0095 63.2031 16.4657 63.2031 13.922C63.9894 13.922 64.7756 13.922 65.5619 13.922C65.5388 14.292 65.5156 14.6851 65.5156 15.0782Z" fill="white"/>
<path id="Vector_6" d="M37.16 13.8984C37.9231 13.8984 38.7094 13.8984 39.4725 13.8984C39.4956 15.3553 39.4494 16.8122 39.4956 18.2691C39.5187 19.1016 40.305 19.7953 41.1375 19.6566C41.8775 19.6334 42.4325 18.9628 42.4094 18.2459C42.4325 16.7891 42.4094 15.3553 42.4094 13.8984C43.1956 13.8984 43.9819 13.8984 44.745 13.8984C44.745 16.4422 44.745 18.9859 44.745 21.5297C43.9587 21.5297 43.1725 21.5297 42.3862 21.5297C42.4094 21.2059 42.4094 20.8822 42.4325 20.5584C41.7156 21.2291 40.7675 21.7147 39.7731 21.5759C38.3856 21.5297 37.2756 20.3041 37.1831 18.9397C37.1137 17.2747 37.2062 15.5866 37.16 13.8984Z" fill="white"/>
<g id="Group_4">
<path id="Vector_7" d="M48.4453 14.8934C49.6247 13.3671 52.1453 13.4365 53.3016 14.9165C54.6659 16.674 54.5272 19.5878 52.7234 21.0215C51.4516 21.9928 49.4859 21.7846 48.4684 20.5359C48.4684 22.0621 48.4684 23.6115 48.4684 25.1378C47.6822 25.1378 46.9191 25.1378 46.1328 25.1378C46.1328 21.3915 46.1328 17.6453 46.1328 13.899C46.9191 13.899 47.7053 13.899 48.4916 13.899C48.4684 14.2459 48.4684 14.5696 48.4453 14.8934ZM49.1853 16.119C47.9366 16.9978 48.3066 19.4259 49.9484 19.5878C51.3359 19.7728 52.1684 18.154 51.7059 16.9746C51.4516 15.934 50.0409 15.4484 49.1853 16.119Z" fill="white"/>
</g>
<g id="Group_5">
<path id="Vector_8" d="M55.4079 15.1476C56.911 13.2514 60.3104 13.2976 61.6517 15.3326C62.2298 16.1883 62.3223 17.252 62.276 18.2464C60.4723 18.2695 58.6685 18.2001 56.8648 18.2926C57.0498 18.8939 57.3273 19.5876 58.0442 19.6801C58.7148 19.8883 59.2929 19.472 59.686 18.9633C60.4954 18.9633 61.3048 18.9633 62.1373 18.9864C61.7904 19.9576 61.1198 20.8595 60.1485 21.2758C58.8304 21.8308 57.2117 21.7151 56.0554 20.8595C54.3442 19.5645 54.1823 16.8589 55.4079 15.1476ZM56.8648 16.9514C57.9054 16.9745 58.946 16.9745 59.9867 16.9514C59.8017 16.1651 59.1079 15.4945 58.2523 15.6564C57.5354 15.6795 57.1192 16.3501 56.8648 16.9514Z" fill="white"/>
</g>
<path id="Vector_9" d="M69.1903 14.6155C69.8841 13.9218 70.9478 13.7599 71.8959 13.8061C72.8672 13.8524 73.9078 14.2455 74.4166 15.1011C74.6478 15.4943 74.7634 15.9336 74.9022 16.373C74.2084 16.4193 73.4916 16.3961 72.7978 16.4193C72.5203 15.7486 71.8034 15.3093 71.0866 15.633C70.6009 15.7024 70.6009 16.4886 71.0634 16.6274C72.1041 17.0668 73.3297 17.0899 74.2316 17.8299C75.2028 18.6161 75.0872 20.2811 74.0928 20.998C72.1966 22.4086 68.6584 21.6686 68.2422 19.1018C69.0053 19.0555 69.7453 19.0786 70.5084 19.0786C70.8091 19.9805 72.1734 20.3505 72.7284 19.4949C72.7284 19.1249 72.4972 18.8243 72.1272 18.778C71.1791 18.4311 70.0691 18.408 69.2597 17.7605C68.2653 16.9974 68.3116 15.3786 69.1903 14.6155Z" fill="white"/>
<path id="Vector_10" d="M76.2875 15.2168C77.5825 13.4593 80.4038 13.3205 81.9994 14.708C82.5544 15.2168 82.855 15.9336 83.0863 16.6274C82.2538 16.6505 81.4444 16.6274 80.635 16.6505C80.3575 16.3036 80.08 15.7949 79.5713 15.7718C78.8544 15.633 78.1607 16.188 78.0219 16.9049C77.8138 17.8299 77.86 19.148 78.8775 19.5643C79.6175 19.8418 80.3113 19.4024 80.6119 18.7318C81.4444 18.7549 82.2538 18.7318 83.0863 18.7549C82.8088 19.4949 82.5082 20.2811 81.8838 20.7899C80.5657 21.8768 78.5075 21.8999 77.0969 20.9749C75.27 19.7261 75.0619 16.9511 76.2875 15.2168Z" fill="white"/>
<path id="Vector_11" d="M86.2575 15.1012C86.8819 14.4537 87.7144 13.6675 88.6163 13.8987C88.8013 14.6619 88.6163 15.4712 88.6625 16.2575C87.8069 16.2575 86.4887 16.2575 86.3269 17.3675C86.165 18.755 86.3038 20.1425 86.2575 21.53C85.4713 21.53 84.685 21.53 83.9219 21.53C83.9219 18.9862 83.9219 16.4425 83.9219 13.8987C84.7081 13.8987 85.4944 13.8987 86.2806 13.8987C86.2806 14.2919 86.2806 14.7081 86.2575 15.1012Z" fill="white"/>
<path id="Vector_12" d="M92.9847 18.6852C93.586 17.1127 94.0947 15.4477 94.7885 13.9214C95.621 13.8752 96.4304 13.9214 97.2629 13.9214C95.6672 17.6677 94.0716 21.4139 92.476 25.1602C91.6435 25.1602 90.811 25.1602 89.9785 25.1602C90.5335 23.842 91.1347 22.5702 91.736 21.2752C90.811 19.1939 89.9785 17.0895 89.0535 15.0083C88.9379 14.7308 88.7529 14.4533 88.8454 14.1295C89.4929 13.667 90.4641 14.037 91.2272 13.9214C91.8054 15.4939 92.3835 17.0895 92.9847 18.6852Z" fill="white"/>
<g id="Group_6">
<path id="Vector_13" d="M97.7969 13.8985C98.5831 13.8985 99.3694 13.8985 100.156 13.8985C100.156 14.2222 100.156 14.546 100.156 14.8928C101.196 13.5516 103.324 13.436 104.596 14.546C105.937 15.7022 106.145 17.7141 105.636 19.3097C105.197 20.7435 103.763 21.8072 102.237 21.6453C101.404 21.6453 100.711 21.1366 100.156 20.5816C100.156 22.1078 100.156 23.6572 100.156 25.1835C99.3694 25.1835 98.5831 25.1835 97.82 25.1835C97.7969 21.391 97.7969 17.6447 97.7969 13.8985ZM101.104 15.9566C99.67 16.581 99.7856 19.0785 101.312 19.541C102.491 19.9341 103.648 18.7547 103.463 17.5753C103.532 16.396 102.191 15.4016 101.104 15.9566Z" fill="white"/>
</g>
</g>
</g>
<defs>
<clipPath id="clip0_4523_31752">
<rect width="111" height="33.3" fill="white"/>
</clipPath>
</defs>
</svg>
