<svg width="81" height="33" viewBox="0 0 81 33" fill="none" xmlns="http://www.w3.org/2000/svg">
<g id="SignumCapital_Logo" opacity="0.5" clip-path="url(#clip0_4523_32095)">
<g id="Group">
<path id="Vector" d="M14.3453 0.105469H14.4719C16.6023 2.53125 19.682 3.88125 22.7406 4.70391C22.7406 5.21016 22.7406 5.71641 22.7406 6.22266C19.7875 5.58984 16.982 4.32422 14.6195 2.44688C14.6406 11.6648 14.6195 20.8828 14.6195 30.1219C16.8555 28.5609 18.9648 26.7469 20.3781 24.4055C21.1375 24.4055 21.8758 24.4055 22.6352 24.4055C20.4836 27.5273 17.8469 30.4383 14.5352 32.3789H14.1766C11.2445 30.607 8.77656 28.0969 6.79375 25.3336C2.63828 19.5117 0.760938 12.2977 0.507812 5.21016C1.9 5.14688 3.29219 5.12578 4.66328 4.87266C8.27031 4.32422 11.8141 2.80547 14.3453 0.105469Z" fill="white"/>
<path id="Vector_2" d="M24.5141 5.33691C25.2945 5.33691 26.0539 5.33691 26.8344 5.33691C26.8344 6.11738 26.8344 6.87676 26.8555 7.65723C26.2016 7.7416 25.5266 7.7416 24.8727 7.72051C24.7461 7.91035 24.493 8.0791 24.5352 8.33223C24.5141 9.36582 24.5352 10.3783 24.5352 11.3908C23.3117 11.433 22.0883 11.433 20.8438 11.3908C20.8438 10.1674 20.8438 8.94395 20.8438 7.72051C21.8773 7.61504 22.932 7.69941 23.9867 7.65723C24.1766 7.46738 24.3453 7.25645 24.5352 7.0666C24.493 6.49707 24.493 5.90645 24.5141 5.33691Z" fill="white"/>
<path id="Vector_3" d="M36.0271 5.97011C37.1029 5.52714 38.4107 5.59043 39.4654 6.11777C39.9716 6.30761 40.1193 6.83496 39.9083 7.29902C38.8958 6.70839 37.6091 6.45527 36.4911 6.81386C35.7318 7.06699 35.5208 8.18496 36.1747 8.67011C37.2083 9.47168 38.6638 9.40839 39.6763 10.2311C40.499 10.9061 40.5622 12.2139 40.0138 13.0787C39.4232 13.9225 38.3263 14.1123 37.3771 14.0701C36.5333 14.0279 35.6052 13.8803 34.9302 13.2896C34.6138 13.0576 34.7404 12.6779 34.7614 12.3615C35.8794 13.0998 37.3349 13.374 38.6427 12.9943C39.4864 12.7623 39.7818 11.56 39.1279 10.9693C38.031 10.1045 36.4068 10.2311 35.3943 9.23964C34.5083 8.29043 34.8036 6.49746 36.0271 5.97011Z" fill="white"/>
<path id="Vector_4" d="M42.2295 5.80078C42.5248 5.82188 42.799 5.86406 43.0732 5.90625C43.0943 8.58516 43.0732 11.2641 43.0732 13.9219C42.7779 13.9219 42.5037 13.9219 42.2084 13.8797C42.2084 11.2008 42.1873 8.50078 42.2295 5.80078Z" fill="white"/>
<path id="Vector_5" d="M46.0287 6.70849C47.0623 5.56943 48.8553 5.46396 50.2263 6.03349C50.7326 6.22333 51.4498 6.79286 50.8803 7.32021C49.9521 6.58193 48.6021 6.28661 47.4842 6.72958C46.4506 7.17255 45.9443 8.33271 45.881 9.3874C45.7967 10.5897 45.9654 12.003 46.9779 12.8046C48.1592 13.7327 49.9521 13.2054 50.6904 11.9819C50.6693 11.4968 50.6693 11.0116 50.6693 10.5265C49.931 10.5265 49.1717 10.5265 48.4334 10.5265C48.3701 10.1679 48.4756 9.68271 48.9396 9.76708C49.6568 9.76708 50.3529 9.7249 51.0701 9.78818C51.4709 9.89365 51.4076 10.3155 51.4287 10.6319C51.4287 11.7288 51.4287 12.8257 51.4287 13.9226C51.2388 13.9226 50.8803 13.9226 50.7115 13.9226C50.6904 13.564 50.6904 13.2265 50.6904 12.8679C49.8256 14.028 48.1592 14.4288 46.8724 13.7327C45.7334 13.1632 45.1638 11.8554 45.0584 10.6319C44.9318 9.28193 45.0795 7.76318 46.0287 6.70849Z" fill="white"/>
<path id="Vector_6" d="M53.517 5.82227C53.8123 5.86445 54.2131 5.7168 54.3818 6.0332C55.8373 8.12148 57.2506 10.2309 58.685 12.3191C58.685 10.1465 58.6639 7.99492 58.685 5.82227C58.9803 5.84336 59.2756 5.86445 59.5498 5.90664C59.5709 8.58555 59.5498 11.2645 59.5498 13.9434C59.2756 13.9223 58.8748 14.0488 58.7061 13.7535C57.2295 11.7074 55.8162 9.61914 54.3607 7.55195C54.3607 9.68242 54.4029 11.8129 54.3818 13.9434C54.1076 13.9434 53.8123 13.9223 53.5381 13.9012C53.4959 11.2223 53.517 8.52227 53.517 5.82227Z" fill="white"/>
<path id="Vector_7" d="M61.8674 5.82227C62.1627 5.84336 62.458 5.86445 62.7322 5.88555C62.7533 7.59414 62.7322 9.32383 62.7533 11.0324C62.7533 11.7707 62.9432 12.6566 63.6604 13.0152C64.3564 13.3316 65.2002 13.3105 65.8963 13.0152C66.5502 12.6777 66.7611 11.9184 66.7822 11.2223C66.8033 9.4293 66.7611 7.61523 66.8033 5.82227C67.0775 5.86445 67.7314 5.6957 67.6682 6.18086C67.6893 7.88945 67.6893 9.59805 67.6682 11.3066C67.6682 12.277 67.2674 13.3316 66.3393 13.7746C65.3268 14.2176 64.1033 14.2176 63.1119 13.7535C62.2049 13.3105 61.8674 12.2348 61.8674 11.3066C61.8463 9.47148 61.8463 7.63633 61.8674 5.82227Z" fill="white"/>
<path id="Vector_8" d="M70.2641 6.45429C70.2008 5.84257 70.8336 5.77929 71.2977 5.82148C72.1414 7.99413 73.0273 10.1246 73.85 12.2973C74.6094 10.2512 75.3266 8.20507 76.0859 6.15898C76.2125 5.67382 76.782 5.84257 77.1406 5.82148C77.4992 8.50038 77.7523 11.2004 78.0477 13.8793C77.7523 13.9004 77.4359 13.9004 77.1406 13.8793C76.9297 11.7277 76.7398 9.55507 76.5711 7.40351C75.8117 9.30194 75.1578 11.2426 74.3984 13.141C74.2719 13.6684 73.407 13.584 73.3016 13.0566C72.5211 11.1793 71.7828 9.28085 71.0234 7.40351C70.8336 9.55507 70.7914 11.7277 70.6016 13.8793C70.3906 13.8793 69.9688 13.9004 69.7578 13.9215C69.9266 11.4535 70.0742 8.94335 70.2641 6.45429Z" fill="white"/>
<path id="Vector_9" d="M16.1812 11.3695C16.9828 11.1163 17.8687 11.3273 18.6914 11.264C18.7125 11.8968 18.7125 12.5085 18.6914 13.1202C19.8937 13.0991 21.1172 13.1202 22.3195 13.1202C22.425 14.3648 22.3617 15.6093 22.3617 16.8327C21.3281 16.8749 20.2945 16.8538 19.282 16.8538C19.0922 17.0437 18.9023 17.2335 18.6914 17.4234C18.6703 18.1406 18.6914 18.8577 18.6703 19.5749C17.8266 19.5749 17.0039 19.5749 16.1602 19.5749C16.1602 18.7312 16.1602 17.8663 16.1602 17.0226C16.8141 17.0226 17.4469 17.0226 18.1008 17.0226C18.2906 16.8327 18.4805 16.6429 18.6703 16.4531C18.6703 15.5882 18.6703 14.7023 18.6703 13.8374C17.8477 13.8374 17.0039 13.8374 16.1602 13.8374C16.1813 13.0148 16.1602 12.1921 16.1812 11.3695Z" fill="white"/>
<path id="Vector_10" d="M24.6602 11.5383C25.5461 11.5172 26.432 11.5172 27.318 11.5383C27.318 12.4242 27.318 13.3102 27.318 14.2172C26.432 14.2172 25.5461 14.2383 24.6602 14.2172C24.6602 13.2891 24.6602 12.4031 24.6602 11.5383Z" fill="white"/>
<path id="Vector_11" d="M29.0057 11.9391C29.8917 11.8758 30.7776 11.8969 31.6635 11.8969C31.6635 12.804 31.6635 13.6899 31.6635 14.5969C30.7776 14.618 29.8917 14.618 28.9846 14.5969C29.0057 13.711 29.0057 12.8251 29.0057 11.9391Z" fill="white"/>
<path id="Vector_12" d="M79.8405 12.9096C80.5576 12.6143 80.853 13.9221 80.1147 13.9643C79.4608 14.1752 79.2287 13.0151 79.8405 12.9096Z" fill="white"/>
<path id="Vector_13" d="M28.5828 15.9893C29.1734 15.9893 29.743 15.9893 30.3336 15.9893C30.3336 16.5799 30.3336 17.1705 30.3336 17.7611C29.7641 17.8455 29.0258 17.5291 28.6039 18.0354C28.5617 18.858 28.6039 19.7018 28.5828 20.5244C27.6547 20.6088 26.7266 20.6088 25.7984 20.5244C25.7984 19.5963 25.7773 18.6682 25.7984 17.74C26.5789 17.74 27.3594 17.74 28.1398 17.7189C28.2875 17.5713 28.4141 17.4025 28.5617 17.2549C28.5828 16.8541 28.5617 16.4111 28.5828 15.9893Z" fill="white"/>
<path id="Vector_14" d="M35.3147 17.4452C36.1374 15.7577 38.4366 15.4202 39.9765 16.2639C40.4405 16.5803 41.1999 17.1921 40.5882 17.7616C39.6811 16.6858 37.9936 16.3272 36.7913 17.0866C35.7788 17.8249 35.6101 19.196 35.6733 20.3561C35.6733 21.3686 35.9686 22.5499 36.939 23.0772C38.2046 23.71 39.7655 23.2671 40.7358 22.2968C40.9257 22.5499 41.0733 22.8874 40.7991 23.1616C39.3225 24.7647 36.1374 24.596 35.2304 22.4655C34.5765 20.8835 34.5765 18.985 35.3147 17.4452Z" fill="white"/>
<g id="Group_2">
<path id="Vector_15" d="M44.4867 16.2635C44.6133 15.7994 45.457 15.8205 45.5625 16.2846C46.575 18.8369 47.5664 21.4103 48.5367 23.9838C48.2414 24.0049 47.9039 24.1947 47.6719 23.9205C47.3766 23.3299 47.1656 22.6971 46.9125 22.0853C45.668 22.0853 44.4023 22.0853 43.1578 22.0853C42.9047 22.6971 42.7148 23.351 42.4195 23.9416C42.1664 24.1103 41.85 24.0049 41.5547 24.026C42.5039 21.4525 43.4953 18.858 44.4867 16.2635ZM44.993 17.2127C44.4867 18.6049 43.9594 19.976 43.432 21.3471C44.4867 21.3681 45.5625 21.3681 46.6172 21.3471C46.0687 19.9549 45.5625 18.5838 44.993 17.2127Z" fill="white"/>
</g>
<g id="Group_3">
<path id="Vector_16" d="M49.909 15.9677C51.0059 15.9466 52.1027 15.9255 53.1996 15.9677C54.0855 15.9888 54.8871 16.706 55.0559 17.5919C55.2879 18.6044 55.098 19.9122 54.1277 20.5029C53.1152 21.0724 51.9129 20.7982 50.816 20.8826C50.816 21.9583 50.8371 23.0341 50.7949 24.1099C50.5207 24.1099 50.2254 24.0888 49.9512 24.0677C49.8668 21.3466 49.909 18.6677 49.909 15.9677ZM50.7949 16.706C50.7949 17.8451 50.7949 18.963 50.7949 20.1021C51.5754 20.081 52.3559 20.1654 53.1363 20.0388C54.6762 19.7435 54.6762 17.0857 53.1785 16.7482C52.377 16.6427 51.5965 16.706 50.7949 16.706Z" fill="white"/>
</g>
<path id="Vector_17" d="M57.039 15.9678C57.3554 15.9889 58.0093 15.8412 57.9249 16.3686C57.9249 18.942 57.946 21.5155 57.9038 24.0889C57.714 24.0889 57.3343 24.0678 57.1444 24.0467C56.9757 23.7514 57.039 23.4139 57.039 23.0975C57.039 20.7139 57.0179 18.3514 57.039 15.9678Z" fill="white"/>
<path id="Vector_18" d="M59.3807 16.0521C59.676 15.9256 60.0135 15.9889 60.3299 15.9678C62.144 15.9889 63.958 15.9467 65.7721 15.9889C65.7088 16.2842 65.8565 16.7271 65.4768 16.8115C64.633 16.8537 63.8104 16.8115 62.9666 16.8326C62.9666 19.2584 62.9877 21.6842 62.9666 24.0889C62.7557 24.0889 62.3549 24.0678 62.144 24.0678C62.0174 21.6631 62.1229 19.2373 62.1018 16.8115C61.1737 16.8115 60.2666 16.8115 59.3596 16.8115C59.3385 16.5584 59.2541 16.2842 59.3807 16.0521Z" fill="white"/>
<g id="Group_4">
<path id="Vector_19" d="M68.4695 16.0106C68.807 15.9895 69.3344 15.8418 69.4609 16.3059C70.4734 18.8793 71.4648 21.4528 72.4352 24.0262C72.2453 24.0473 71.8867 24.0684 71.718 24.0895C71.2328 23.5621 71.1273 22.7817 70.832 22.1489C69.5664 22.1489 68.3008 22.1489 67.0563 22.1489C66.8031 22.7817 66.6133 23.4567 66.2969 24.0473C66.0227 24.1528 65.7273 24.0895 65.4531 24.0684C66.4445 21.3684 67.457 18.6895 68.4695 16.0106ZM67.3305 21.3473C68.3852 21.3473 69.4609 21.3473 70.5156 21.3473C69.9672 19.9762 69.4609 18.6051 68.9125 17.2551C68.343 18.584 67.8789 19.9762 67.3305 21.3473Z" fill="white"/>
</g>
<path id="Vector_20" d="M73.9975 15.9893C74.2717 15.9893 74.5459 15.9893 74.8201 15.9893C75.0311 18.3939 74.8623 20.8197 74.9045 23.2455C76.1912 23.2455 77.4779 23.2455 78.7857 23.2455C78.7647 23.5408 78.8912 24.0893 78.4271 24.0893C76.9506 24.0893 75.474 24.1736 74.0186 24.026C73.9764 21.3471 73.9975 18.6682 73.9975 15.9893Z" fill="white"/>
<path id="Vector_21" d="M21.6415 19.7652C22.6962 19.7652 23.7509 19.7441 24.8056 19.7652C24.8056 20.8199 24.8267 21.8957 24.8056 22.9504C23.7509 22.9504 22.6962 22.9715 21.6415 22.9504C21.6205 21.8957 21.5994 20.841 21.6415 19.7652Z" fill="white"/>
<path id="Vector_22" d="M17.6172 21.9795C18.2078 21.9795 18.7984 21.9795 19.368 21.9795C19.368 22.5701 19.368 23.1818 19.368 23.7725C18.7773 23.7725 18.1867 23.7725 17.6172 23.7725C17.6172 23.1818 17.6172 22.5912 17.6172 21.9795Z" fill="white"/>
</g>
</g>
<defs>
<clipPath id="clip0_4523_32095">
<rect width="81" height="32.2734" fill="white"/>
</clipPath>
</defs>
</svg>
