<svg width="80" height="46" viewBox="0 0 80 46" fill="none" xmlns="http://www.w3.org/2000/svg">
<g id="KyberVentures_Logo" opacity="0.5">
<g id="Group">
<path id="Vector" d="M15.231 4.52524C15.6408 4.31144 16.104 4.47179 16.4247 4.75687C19.4359 7.07313 22.4826 9.31812 25.476 11.6522C25.476 11.9016 25.4938 12.1689 25.476 12.4183C24.5495 13.0598 23.5339 13.5765 22.5539 14.1644C18.937 16.2313 15.3557 18.3872 11.7031 20.4005C11.7388 20.2223 11.8278 19.866 11.8635 19.6878C11.9169 19.3849 11.9704 19.0999 12.0417 18.797C12.0951 18.4941 12.1664 18.209 12.2376 17.9061C12.3267 17.3716 12.4515 16.8192 12.5762 16.3025C12.6653 15.768 12.79 15.2157 12.9147 14.6811C12.9682 14.3783 13.0216 14.0932 13.0929 13.7903C13.1463 13.5052 13.1998 13.2023 13.2711 12.9172C13.378 12.3827 13.4849 11.8304 13.6096 11.3137C13.8412 10.1912 14.0907 9.05086 14.3223 7.92836C14.4292 7.39384 14.5361 6.85932 14.6608 6.3248C14.8568 5.71901 14.8033 5.00631 15.231 4.52524Z" fill="white"/>
<path id="Vector_2" d="M10.7426 5.73713C11.0989 5.48769 11.4196 5.09571 11.9185 5.18479C12.1679 5.34515 12.5421 5.59459 12.4352 5.95094C12.1501 7.4476 11.7938 8.92644 11.5087 10.4231C11.384 10.9576 11.2593 11.4921 11.1702 12.0267C11.0989 12.3117 11.0454 12.6146 10.992 12.9175C10.9207 13.2026 10.8673 13.5055 10.8138 13.8084C10.7604 14.0578 10.6891 14.3073 10.6535 14.5567C10.5822 14.8418 10.5287 15.1269 10.4575 15.412C10.3862 15.697 10.3506 15.9999 10.2793 16.285C10.1546 16.8195 10.0299 17.3719 9.94077 17.9242C9.8695 18.2093 9.81605 18.5122 9.7626 18.7973C9.63787 19.3318 9.51315 19.8663 9.42407 20.4008C9.33498 20.7572 9.28153 21.0957 9.19244 21.4521C9.08554 21.9688 8.92518 22.5033 8.97863 23.0378C9.08554 23.3229 9.13899 23.6258 9.21026 23.9287C9.33498 24.4632 9.4597 24.9977 9.56661 25.5501C9.70914 26.0846 9.81605 26.6191 9.92295 27.1714C10.1189 27.991 10.2971 28.8284 10.4575 29.6659C10.5466 30.0222 10.6178 30.3607 10.7069 30.7171C10.7426 30.8953 10.7604 31.0913 10.796 31.2694C10.8851 31.608 10.9742 31.9643 11.0633 32.3028C11.1524 32.8017 11.2593 33.265 11.3662 33.7639C11.4374 34.0489 11.4909 34.3518 11.5622 34.6369C11.8116 35.706 12.0432 36.775 12.257 37.844C12.3639 38.4676 12.6312 39.0913 12.5421 39.7149C12.4708 40.2316 11.8294 40.0712 11.4552 40.1068C8.44411 37.755 5.36171 35.4743 2.33275 33.1581C1.85168 32.8017 1.4597 32.2316 1.49534 31.608C1.42407 25.8173 1.42407 19.991 1.40625 14.1648C1.40625 13.8084 1.42407 13.4521 1.47752 13.0957C1.95859 12.383 2.70692 11.9376 3.38398 11.4031C5.82496 9.51442 8.28375 7.62577 10.7426 5.73713Z" fill="white"/>
<path id="Vector_3" d="M25.8315 14.9127C26.1166 14.6989 26.4907 14.7702 26.8293 14.7702C26.8827 14.8771 27.0253 15.0731 27.0787 15.1622C27.0787 20.1154 27.1143 25.0508 27.1143 30.004C27.15 30.2891 26.8471 30.4317 26.6689 30.6277C26.562 30.6277 26.366 30.6277 26.2591 30.6277C26.0988 30.5207 25.9384 30.4317 25.778 30.3248C21.2881 27.8125 16.8515 25.2112 12.3438 22.6989C16.8159 20.1154 21.3415 17.5319 25.8315 14.9127Z" fill="white"/>
<path id="Vector_4" d="M11.7227 25.0332C16.1235 27.4564 20.471 30.0221 24.8541 32.4809C25.1748 32.6412 25.4242 32.9263 25.638 33.2114C25.5668 33.4074 25.4955 33.6034 25.4242 33.7993C22.3953 36.1334 19.3663 38.4497 16.3552 40.7659C16.1235 40.9798 15.8207 41.0154 15.5178 41.0332C15.4287 40.9619 15.2505 40.8016 15.1614 40.7303C14.5913 38.4319 14.1636 36.0978 13.6113 33.7815C13.4331 32.9441 13.255 32.1067 13.059 31.2693C12.8452 30.1824 12.5957 29.1134 12.3463 28.0443C12.2928 27.7414 12.2215 27.4564 12.1681 27.1713C12.0968 26.8684 12.0434 26.5833 11.9543 26.2982C11.9186 26.1022 11.9008 25.9241 11.8652 25.7459C11.8296 25.4965 11.7761 25.2648 11.7227 25.0332Z" fill="white"/>
</g>
<g id="Group_2">
<g id="Group_3">
<path id="Vector_5" d="M44.8984 11.7234C45.3261 11.7234 45.7537 11.7234 46.1813 11.7055C46.2169 13.024 46.1278 14.3425 46.2526 15.661C46.3595 14.3069 46.2169 12.9528 46.3238 11.5986C46.3416 12.8637 46.306 14.1109 46.3595 15.3759C47.286 14.6989 48.5688 14.4672 49.6022 15.0552C51.5087 16.0173 51.7225 18.9928 50.1546 20.347C49.0321 21.2913 47.1969 21.22 46.1635 20.151C46.1635 20.4182 46.1457 20.6677 46.1457 20.9349C45.7537 20.9349 45.3439 20.9349 44.9519 20.9349C44.8984 17.8882 44.9163 14.8058 44.8984 11.7234ZM47.3751 16.053C46.7693 16.2846 46.2526 16.8726 46.2704 17.5496C46.2526 18.1198 46.1991 18.7969 46.6445 19.2423C47.1256 19.8481 48.0343 19.9728 48.7292 19.7055C49.7269 19.2779 50.1724 17.9238 49.6379 16.9795C49.2815 16.1242 48.2303 15.7501 47.3751 16.053Z" fill="white"/>
</g>
<path id="Vector_6" d="M36.3498 12.8633C36.8486 12.8633 37.3653 12.8633 37.8642 12.8811C36.813 14.1996 35.6727 15.4468 34.5324 16.6762C35.7618 18.1194 37.0446 19.527 38.2562 20.988C37.7217 21.0058 37.1872 21.0058 36.6526 21.0058C35.4232 19.5804 34.1404 18.1907 32.9466 16.7297C32.8932 18.1016 32.9645 19.4735 32.911 20.8633C32.5903 21.2196 31.9845 20.9524 31.5569 21.0415C31.5391 18.3688 31.5569 15.6784 31.5391 13.0058C31.9667 12.9524 32.3943 12.9167 32.8219 12.8633C32.8397 13.7185 32.911 14.5916 32.9288 15.4468C32.9288 15.8566 32.9466 16.2664 32.9823 16.6762C34.0869 15.3755 35.156 14.057 36.3498 12.8633Z" fill="white"/>
<g id="Group_4">
<path id="Vector_7" d="M53.0581 15.6431C54.1628 14.5206 56.1583 14.4671 57.2808 15.6074C57.7975 16.1241 57.94 16.8546 58.0291 17.5495C57.9757 17.8168 57.9222 18.1019 57.8688 18.3869C56.3721 18.3869 54.8755 18.3691 53.3788 18.4048C53.5748 18.8858 53.7886 19.4382 54.3053 19.6698C55.214 20.2043 56.3721 19.9014 57.1383 19.2244C57.3521 19.5273 57.5837 19.8301 57.7975 20.133C56.4968 21.3624 54.234 21.4515 52.9512 20.133C52.3454 19.5629 52.1672 18.7255 52.0781 17.9237C52.1672 17.0685 52.3988 16.2132 53.0581 15.6431ZM53.3788 17.3357C54.4657 17.3714 55.5703 17.3535 56.6572 17.3535C56.6394 17.1575 56.6394 16.9616 56.6394 16.7656C56.2652 16.3023 55.7841 15.8391 55.1249 15.9103C54.2697 15.8569 53.6639 16.5874 53.3788 17.3357Z" fill="white"/>
</g>
<path id="Vector_8" d="M37.7188 14.9485C38.182 14.9485 38.6631 14.9307 39.1441 14.9307C39.7321 16.3917 40.2666 17.8527 40.8902 19.2959C41.4426 17.8349 42.0662 16.3917 42.6363 14.9307C43.1174 14.9485 43.5985 14.9485 44.0617 14.9663C42.9749 17.2647 42.0484 19.6344 40.9793 21.9507C40.6586 22.61 40.0706 23.1801 39.3223 23.287C38.8591 23.3405 38.4136 23.3048 37.9504 23.3048C37.9326 22.895 37.9147 22.4852 37.9147 22.0932C38.4671 22.0576 39.162 22.2536 39.5718 21.7725C39.9459 21.3806 40.2666 20.7748 39.9637 20.2581C39.2154 18.4763 38.4849 16.7124 37.7188 14.9485Z" fill="white"/>
<path id="Vector_9" d="M59.4922 14.8775C59.902 14.8953 60.294 14.8775 60.7038 14.9309C60.7038 15.0735 60.7216 15.3764 60.7394 15.5189C61.3274 14.9666 62.1113 14.7884 62.8953 14.8597C62.8953 15.2516 62.8953 15.6614 62.8953 16.0534C62.0401 16.0178 61.0067 16.3207 60.7929 17.265C60.686 18.4766 60.7929 19.706 60.7572 20.9354C60.3296 20.9354 59.9198 20.9354 59.4922 20.9354C59.4922 18.922 59.4922 16.8908 59.4922 14.8775Z" fill="white"/>
<path id="Vector_10" d="M30.9141 25.5146C31.3951 25.5146 31.8762 25.5146 32.3395 25.5325C33.07 27.4211 33.8896 29.2741 34.6557 31.1628C35.3684 29.2919 36.1524 27.4567 36.9185 25.6037C37.364 25.6394 37.8094 25.6928 38.2548 25.7285C37.7738 25.6572 37.2749 25.6216 36.7938 25.5503C37.3105 25.5325 37.845 25.5325 38.3617 25.5325C38.237 25.9066 38.1123 26.263 37.9519 26.6193C36.9007 29.0069 35.8851 31.4122 34.8517 33.8175C34.6379 33.7463 34.335 33.7641 34.2637 33.479C33.3194 31.3409 32.3929 29.185 31.4486 27.0469C31.2526 26.5302 31.0388 26.0314 30.9141 25.5146Z" fill="white"/>
<path id="Vector_11" d="M52.7387 25.9775C53.1485 25.9775 53.5761 25.9775 54.0038 25.9775C54.0038 26.4942 54.0038 27.0288 54.0038 27.5455C54.6095 27.5455 55.1975 27.5455 55.8033 27.5455C55.8033 27.9196 55.8033 28.2938 55.8033 28.6858C55.1975 28.6858 54.6095 28.6858 54.0216 28.6858C54.0216 29.7548 54.0394 30.8239 54.0038 31.8929C54.4136 32.6056 55.2688 32.57 55.9815 32.5521C55.9815 32.8907 55.9815 33.247 55.9815 33.5856C54.9124 33.8706 53.6474 33.7281 52.9169 32.8194C52.5784 31.4831 52.81 30.0755 52.7209 28.7036C52.3824 28.7036 52.026 28.6858 51.6875 28.6858C51.6875 28.3116 51.6875 27.9374 51.6875 27.5811C52.026 27.5633 52.3824 27.5633 52.7387 27.5633C52.7387 27.0109 52.7387 26.4942 52.7387 25.9775Z" fill="white"/>
<g id="Group_5">
<path id="Vector_12" d="M39.2014 28.3294C40.3061 27.2069 42.2838 27.0822 43.4063 28.2403C44.1546 28.9352 44.2793 30.022 44.1724 31.002C42.6579 31.0376 41.1435 31.0198 39.629 31.0198C39.7537 31.8929 40.5377 32.5877 41.4286 32.5699C42.1412 32.6768 42.7292 32.1601 43.3706 31.9819C43.5845 32.2136 43.7626 32.4808 43.9408 32.7303C42.7114 34.0131 40.4308 34.0844 39.1657 32.8015C37.9542 31.6434 38.0076 29.4875 39.2014 28.3294ZM40.8762 28.6323C40.1992 28.757 39.825 29.3806 39.6112 29.9686C40.6802 30.0042 41.7314 29.9864 42.8005 29.9864C42.7827 29.7726 42.7827 29.5766 42.7827 29.3628C42.3551 28.7748 41.6245 28.3828 40.8762 28.6323Z" fill="white"/>
</g>
<path id="Vector_13" d="M46.5388 28.0623C47.2336 27.6703 48.0176 27.2427 48.8372 27.4565C49.8171 27.6169 50.6367 28.5077 50.6189 29.5055C50.6367 30.8774 50.6189 32.2316 50.6367 33.6035C50.2626 33.6035 49.9062 33.6035 49.5321 33.6035C49.4608 33.55 49.3183 33.461 49.247 33.4253C49.2292 32.0178 49.2826 30.5924 49.1935 29.1848C48.855 28.8997 48.4987 28.5434 48.0176 28.6146C47.2693 28.5612 46.61 29.2917 46.6991 30.0222C46.6991 31.216 46.7169 32.4276 46.7169 33.6213C46.2893 33.6213 45.8439 33.6213 45.4163 33.6213C45.4163 31.608 45.4163 29.5768 45.3984 27.5634C45.7726 27.5634 46.1468 27.5634 46.5209 27.5634C46.5387 27.6881 46.5388 27.9376 46.5388 28.0623Z" fill="white"/>
<g id="Group_6">
<path id="Vector_14" d="M68.2056 28.6855C69.2033 27.1711 71.6621 26.886 72.8737 28.2935C73.6042 28.9884 73.4795 30.0575 73.4261 30.9662C71.9116 30.9662 70.4149 30.9483 68.9004 30.984C69.1855 31.7145 69.7557 32.4628 70.6109 32.4806C71.3771 32.6054 72.0719 32.2668 72.6599 31.8036C72.8737 32.1065 73.0875 32.4094 73.3191 32.7123C72.4461 33.4428 71.2345 33.8882 70.0942 33.5853C68.9895 33.3893 68.0452 32.4984 67.7423 31.4294C67.5998 30.5029 67.6176 29.4695 68.2056 28.6855ZM69.0073 29.9506C70.0764 29.9506 71.1632 29.9506 72.2501 29.9506C72.2323 29.2557 71.7512 28.6143 71.0207 28.543C70.0764 28.3292 69.1499 29.0241 69.0073 29.9506Z" fill="white"/>
</g>
<path id="Vector_15" d="M75.7789 27.5101C76.8301 27.0825 78.006 27.5279 78.79 28.2406C78.5584 28.5079 78.3267 28.7752 78.1129 29.0602C77.4715 28.597 76.6697 28.401 75.9036 28.6683C75.8858 28.9177 75.8858 29.1493 75.8858 29.3988C76.8123 29.9511 78.0417 30.1293 78.7009 31.0736C78.9147 31.7863 78.9147 32.7128 78.2377 33.1761C77.0083 34.1026 75.2087 33.6928 74.2109 32.6059C74.4247 32.2852 74.6564 31.9823 74.9058 31.6794C75.5651 32.3921 76.6519 32.8019 77.5428 32.2496C77.5428 32.0179 77.5428 31.7863 77.5606 31.5725C76.6697 30.9845 75.4582 30.8776 74.8167 29.9867C74.1218 29.0959 74.7455 27.7418 75.7789 27.5101Z" fill="white"/>
<path id="Vector_16" d="M56.804 31.4291C56.7506 30.1106 56.8575 28.7921 56.8575 27.4736C56.8397 28.5783 56.9466 29.683 56.8397 30.7877C56.8575 30.9837 56.8931 31.1796 56.9644 31.3756C57.0178 31.3578 57.1426 31.34 57.196 31.3222L56.9822 31.2687C56.9822 30.0215 56.9822 28.7743 56.9822 27.5271C57.4098 27.5271 57.8374 27.5271 58.2651 27.5271C58.2651 28.8634 58.3007 30.1997 58.2472 31.5182C58.461 31.8389 58.6392 32.2131 59.0134 32.3556C59.6192 32.6941 60.4031 32.3912 60.7417 31.8389C60.8842 30.4313 60.7773 29.0059 60.7951 27.5805C61.2584 27.5449 61.7216 27.5093 62.1849 27.4915C62.1671 28.8634 62.2205 30.2353 62.1671 31.5894C61.9711 33.1039 60.2428 34.0304 58.853 33.585C57.7662 33.4068 57.2138 32.3378 56.804 31.4291Z" fill="white"/>
<path id="Vector_17" d="M63.7891 27.51C64.181 27.5278 64.5908 27.5278 65.0006 27.5813C65.0006 27.7238 65.0185 28.0267 65.0363 28.1692C65.6243 27.5991 66.426 27.4387 67.21 27.51C67.21 27.902 67.21 28.294 67.21 28.6681C66.3726 28.6503 65.3392 28.8997 65.1254 29.8441C64.9828 31.0735 65.1076 32.3385 65.0719 33.5679C64.6443 33.5679 64.2167 33.5679 63.8069 33.5679C63.7891 31.5545 63.7891 29.5234 63.7891 27.51Z" fill="white"/>
</g>
</g>
</svg>
