<svg width="116" height="11" viewBox="0 0 116 11" fill="none" xmlns="http://www.w3.org/2000/svg">
<g id="Group 1057102" opacity="0.5">
<g id="Group">
<path id="Vector" d="M39.7052 0C39.8008 0 39.9017 0 39.9973 0C41.2564 3.33625 42.5208 6.66719 43.7798 9.99813C43.3761 9.99813 42.9723 9.99813 42.5686 9.99813C42.0639 8.70187 41.5645 7.40563 41.0598 6.10938C39.8433 6.10938 38.6267 6.10938 37.4102 6.10938C37.4473 6.00844 37.4845 5.90219 37.527 5.80125C38.6639 5.80125 39.8008 5.80125 40.9377 5.80125C40.3586 4.30844 39.7848 2.81031 39.2005 1.32281C39.3598 0.876563 39.5405 0.440938 39.7052 0Z" fill="white"/>
<path id="Vector_2" d="M0 0.116211C0.3825 0.116211 0.770313 0.116211 1.15813 0.116211C1.15813 3.40996 1.15813 6.70371 1.15813 9.99746C0.775625 9.99746 0.387813 9.99746 0 9.99746C0 6.70371 0 3.40996 0 0.116211Z" fill="white"/>
<path id="Vector_3" d="M2.11719 0.116211C2.91938 0.164023 3.73219 0.270273 4.48125 0.578398C4.98594 0.785586 5.46938 1.12027 5.74563 1.60371C6.075 2.17746 6.08031 2.88934 5.92094 3.52152C5.75625 4.17496 5.27812 4.71684 4.69375 5.03559C3.9075 5.46059 3.00437 5.60934 2.11719 5.66246C2.11719 5.62527 2.11719 5.54559 2.11719 5.5084C2.87156 5.43402 3.68437 5.25871 4.22094 4.67965C4.69375 4.18027 4.81594 3.45777 4.81594 2.7884C4.82125 2.14559 4.68312 1.43902 4.19437 0.982148C3.62594 0.477461 2.845 0.349961 2.11719 0.270273C2.11719 0.233086 2.11719 0.153398 2.11719 0.116211Z" fill="white"/>
<path id="Vector_4" d="M9.07422 0.116211C9.45672 0.116211 9.84453 0.116211 10.2323 0.116211C10.2323 3.40996 10.2323 6.70371 10.2323 9.99746C9.84984 9.99746 9.46203 9.99746 9.07422 9.99746C9.07422 6.70371 9.07422 3.40996 9.07422 0.116211Z" fill="white"/>
<path id="Vector_5" d="M11.0938 0.116211C11.8641 0.137461 12.645 0.233086 13.3675 0.514648C13.9519 0.743086 14.4938 1.15215 14.7381 1.74715C14.9878 2.3634 15.0091 3.11246 14.6531 3.69152C14.1697 4.47777 13.2931 4.9134 12.4378 5.17371C13.5587 6.79402 14.8231 8.3134 16.0237 9.87527C16.0397 9.90184 16.0769 9.95496 16.0928 9.98152C15.6572 10.0293 15.2109 9.98684 14.77 10.0028C13.58 8.38246 12.3209 6.81527 11.1734 5.1684C11.9119 5.01965 12.6769 4.76996 13.2081 4.20684C13.6437 3.74996 13.8084 3.09121 13.7447 2.47496C13.7128 1.90121 13.5003 1.31684 13.0487 0.944961C12.5069 0.493398 11.7844 0.344648 11.1044 0.270273C11.0937 0.233086 11.0938 0.153398 11.0938 0.116211Z" fill="white"/>
<path id="Vector_6" d="M18.7344 0.116211C19.1169 0.116211 19.5047 0.116211 19.8925 0.116211C19.8925 3.40996 19.8925 6.70371 19.8925 9.99746C19.51 9.99746 19.1222 9.99746 18.7344 9.99746C18.7344 6.70371 18.7344 3.40996 18.7344 0.116211Z" fill="white"/>
<path id="Vector_7" d="M23.3828 0.122478C23.7919 0.117166 24.2009 0.122478 24.61 0.122478C25.8638 1.98185 27.1122 3.84123 28.3606 5.7006C29.3859 3.84123 30.4113 1.98185 31.4419 0.122478C31.8191 0.122478 32.2016 0.122478 32.5788 0.122478C32.7594 3.41623 32.8922 6.70998 33.0781 9.99842C32.7009 10.009 32.3238 9.99842 31.9466 10.0037C31.7872 6.91717 31.6278 3.83592 31.4791 0.749353C30.2944 2.8956 29.1044 5.04717 27.9197 7.19873C26.4003 4.83998 24.8969 2.47592 23.3828 0.122478Z" fill="white"/>
<path id="Vector_8" d="M46.625 0.116211C47.0075 0.116211 47.3953 0.116211 47.7831 0.116211C47.7831 3.40996 47.7831 6.70371 47.7831 9.99746C47.4006 9.99746 47.0128 9.99746 46.625 9.99746C46.625 6.70371 46.625 3.40996 46.625 0.116211Z" fill="white"/>
<path id="Vector_9" d="M60.9949 2.81033C61.8555 1.47689 63.4387 0.690638 65.0165 0.727825C65.824 0.749075 66.6474 0.796888 67.423 1.04126C67.423 1.31751 67.423 1.58845 67.423 1.8647C66.9024 1.53001 66.3765 1.1847 65.7762 1.00939C64.7721 0.6747 63.6299 0.998763 62.833 1.66814C61.9512 2.4172 61.5368 3.57001 61.4252 4.69626C61.3137 5.9022 61.4465 7.18251 62.0521 8.25564C62.4877 9.02595 63.2209 9.62095 64.0762 9.8547C64.5702 9.99814 65.1068 10.0406 65.6062 9.88126C66.2968 9.69001 66.9237 9.32345 67.5187 8.93564C67.5187 9.21189 67.5187 9.48814 67.5187 9.7697C66.9449 9.96095 66.3393 10.0406 65.7337 10.0885C64.5171 10.2266 63.2209 10.0353 62.1743 9.37126C61.303 8.82408 60.6815 7.92095 60.4318 6.9222C60.0759 5.54626 60.198 4.00564 60.9949 2.81033Z" fill="white"/>
<path id="Vector_10" d="M73.2709 0.733398C73.3612 0.733398 73.4516 0.733398 73.5419 0.733398C74.7106 3.82527 75.8794 6.91184 77.0481 10.0037C76.6762 10.0037 76.2991 10.0037 75.9272 10.0037C75.4597 8.80309 75.0028 7.60246 74.53 6.40715C73.3984 6.40715 72.2722 6.40715 71.1406 6.40715C71.1778 6.31152 71.2097 6.21059 71.2469 6.11496C72.2988 6.11496 73.3559 6.11496 74.4078 6.11496C73.8766 4.72309 73.3294 3.34184 72.8034 1.94996C72.9628 1.5409 73.1169 1.13715 73.2709 0.733398Z" fill="white"/>
<path id="Vector_11" d="M103.103 1.94996C103.257 1.5409 103.416 1.13715 103.57 0.733398C103.661 0.733398 103.751 0.733398 103.841 0.733398C105.01 3.82527 106.179 6.91184 107.347 10.0037C106.976 10.0037 106.598 10.0037 106.227 10.0037C105.764 8.80309 105.297 7.60777 104.835 6.40184C103.703 6.40184 102.572 6.40184 101.445 6.40184C101.477 6.30621 101.514 6.20527 101.552 6.10965C102.603 6.10434 103.661 6.10965 104.718 6.10965C104.176 4.72309 103.639 3.33652 103.103 1.94996Z" fill="white"/>
<path id="Vector_12" d="M79.6641 0.838867C80.02 0.838867 80.3812 0.838867 80.7372 0.838867C80.7372 3.89355 80.7372 6.94824 80.7372 10.0029C80.3759 10.0029 80.02 10.0029 79.6641 10.0029C79.6641 6.94824 79.6641 3.88824 79.6641 0.838867Z" fill="white"/>
<path id="Vector_13" d="M88.0706 0.833984C88.4318 0.833984 88.7877 0.833984 89.1437 0.833984C89.1437 3.88867 89.1437 6.94336 89.1437 9.99805C88.7824 9.99805 88.4265 9.99805 88.0706 9.99805C88.0706 6.94867 88.0706 3.88867 88.0706 0.833984Z" fill="white"/>
<path id="Vector_14" d="M91.6715 0.838867C94.1524 0.838867 96.628 0.838867 99.109 0.838867C99.109 1.14168 99.109 1.44449 99.109 1.74199C98.2961 1.43918 97.4674 1.17355 96.6174 0.99293C96.389 0.97168 96.1605 0.987617 95.9374 0.982305C95.9374 3.98918 95.9374 6.99605 95.9374 10.0029C95.5761 10.0029 95.2202 10.0029 94.8643 10.0029C94.8643 6.99605 94.8643 3.98918 94.8643 0.982305C94.5827 0.99293 94.2905 0.95043 94.0196 1.0248C93.2227 1.20543 92.4418 1.45512 91.6768 1.74199C91.6661 1.43918 91.6661 1.13637 91.6715 0.838867Z" fill="white"/>
<path id="Vector_15" d="M109.969 0.838867C110.325 0.838867 110.686 0.838867 111.042 0.838867C111.042 3.89355 111.042 6.94824 111.042 10.0029C110.681 10.0029 110.325 10.0029 109.969 10.0029C109.969 6.94824 109.969 3.88824 109.969 0.838867Z" fill="white"/>
<path id="Vector_16" d="M81.6208 0.833984C82.2636 0.887109 82.9117 0.956172 83.528 1.16336C83.9636 1.3068 84.3886 1.52461 84.7127 1.85398C85.0261 2.17805 85.2067 2.61898 85.2333 3.06523C85.2811 3.71336 85.1111 4.4093 84.6595 4.89273C84.1602 5.43992 83.427 5.70023 82.7152 5.84367C82.3539 5.91273 81.9874 5.95523 81.6208 5.97648C81.6208 5.9393 81.6155 5.87023 81.6155 5.83305C82.1574 5.77992 82.7099 5.67367 83.1774 5.3868C83.5652 5.15305 83.8574 4.77055 83.9849 4.33492C84.1336 3.83555 84.1549 3.29898 84.0911 2.78367C84.0274 2.29492 83.8095 1.80617 83.4005 1.51398C82.8852 1.1368 82.2317 1.0518 81.6155 0.966797C81.6102 0.940234 81.6155 0.865859 81.6208 0.833984Z" fill="white"/>
<path id="Vector_17" d="M23.0039 9.99754C23.3864 9.14754 23.7105 8.27098 23.9973 7.38379C24.0398 7.38379 24.1195 7.38379 24.162 7.38379C24.1248 8.25504 24.077 9.12629 24.093 9.99754C23.7317 9.99754 23.3705 10.0029 23.0039 9.99754Z" fill="white"/>
<path id="Vector_18" d="M36.8206 7.77734C36.8737 7.79328 36.9269 7.80922 36.9747 7.82516C36.8472 8.54766 36.7356 9.27016 36.6453 9.99797C36.3 9.99797 35.9547 9.99797 35.6094 9.99797C36.0184 9.26484 36.4434 8.53703 36.8206 7.77734Z" fill="white"/>
<path id="Vector_19" d="M70.6056 7.93652C70.6428 7.94715 70.7119 7.97371 70.7437 7.98434C70.6216 8.65371 70.5206 9.32309 70.4356 9.99777C70.1116 9.99777 69.7928 9.99777 69.4688 9.99777C69.8619 9.31777 70.2497 8.63777 70.6056 7.93652Z" fill="white"/>
<path id="Vector_20" d="M100.905 7.93652C100.953 7.95246 100.995 7.9684 101.043 7.98434C100.926 8.65371 100.82 9.3284 100.735 10.0031C100.416 10.0031 100.092 10.0031 99.7734 10.0031C100.161 9.31777 100.549 8.63777 100.905 7.93652Z" fill="white"/>
<path id="Vector_21" d="M48.7866 9.85977C50.0669 9.67914 51.3206 9.34445 52.5691 9.00977C52.5691 9.33914 52.5691 9.66852 52.5691 9.99789C51.3047 9.99789 50.0456 9.99789 48.7812 9.99789C48.7866 9.96602 48.7866 9.89695 48.7866 9.85977Z" fill="white"/>
<path id="Vector_22" d="M111.977 9.87023C113.172 9.70555 114.335 9.39211 115.493 9.08398C115.493 9.39211 115.493 9.69492 115.493 10.003C114.319 10.003 113.145 10.003 111.977 10.003C111.977 9.96586 111.977 9.90211 111.977 9.87023Z" fill="white"/>
</g>
</g>
</svg>
