<svg width="60" height="46" viewBox="0 0 60 46" fill="none" xmlns="http://www.w3.org/2000/svg">
<g id="Group 1057101" opacity="0.5">
<g id="Group">
<path id="Vector" d="M23.5032 0.579932C24.3455 -0.218823 25.8123 -0.189778 26.6111 0.652546C27.7584 1.82889 28.8912 3.01977 30.0385 4.19611C28.8621 5.40151 27.6422 6.53429 26.4368 7.69611C25.8995 7.24591 25.4493 6.69404 24.9555 6.20026C22.2688 8.78533 19.6111 11.3849 16.9098 13.9555C19.5094 16.6131 22.08 19.3144 24.6795 21.9866C27.3372 19.387 30.053 16.831 32.6961 14.2169C31.999 13.5343 31.3455 12.8227 30.663 12.1256C31.8538 10.9492 33.0447 9.74383 34.3082 8.62558C35.6298 9.96167 36.9223 11.3268 38.2439 12.6774C38.8248 13.2729 39.0571 14.2023 38.7667 15.0011C38.5779 15.6111 38.0696 16.0322 37.6339 16.4389C33.9596 19.9824 30.2854 23.526 26.6256 27.0696C26.2044 27.4907 25.7542 27.9409 25.1588 28.0716C24.4036 28.275 23.5468 28.0426 22.9949 27.4762C19.1173 23.4679 15.2397 19.4451 11.3621 15.4368C10.7522 14.8268 10.5343 13.8538 10.8538 13.0405C11.0571 12.4741 11.5364 12.082 11.9576 11.6754C15.8206 8.00109 19.6547 4.28325 23.5032 0.579932Z" fill="white"/>
<path id="Vector_2" d="M33.6379 1.422C34.1026 0.986317 34.5528 0.448973 35.2064 0.274699C36.0196 0.0132882 36.9491 0.303745 37.53 0.928226C41.3786 4.922 45.2416 8.91578 49.0902 12.895C49.947 13.7374 49.9325 15.2768 49.0321 16.0901C45.2126 19.8224 41.3495 23.5112 37.5155 27.2291C37.1089 27.6066 36.7313 28.0569 36.1939 28.2311C35.3952 28.5216 34.4512 28.3183 33.8557 27.7083C32.7084 26.5174 31.5611 25.3266 30.3993 24.1357C31.5757 22.9739 32.7665 21.8266 33.9574 20.6938C34.001 20.6938 34.0736 20.6938 34.1026 20.6938C34.5819 21.1585 35.0466 21.6378 35.4968 22.1315C38.169 19.532 40.8557 16.9759 43.5134 14.3618C40.9284 11.6896 38.3723 9.00291 35.7728 6.35976C33.086 8.91578 30.4429 11.5299 27.7562 14.0714C28.4097 14.7975 29.1068 15.4801 29.7748 16.1917C28.613 17.3826 27.3931 18.5154 26.2022 19.6627C25.9989 19.5755 25.8537 19.4013 25.6939 19.256C24.7499 18.254 23.7914 17.2954 22.8474 16.2934C22.4698 15.9013 22.0342 15.5382 21.7873 15.0444C21.3661 14.2021 21.5259 13.1129 22.1939 12.4448C25.9989 8.79959 29.8329 5.1108 33.6379 1.422Z" fill="white"/>
<path id="Vector_3" d="M1.84954 31.223C3.75203 29.8578 6.67111 30.0466 8.29767 31.7893C7.89103 32.1815 7.46987 32.5591 7.07775 32.9657C5.79974 31.7022 3.38895 31.7748 2.34331 33.2852C1.53003 34.4761 1.55908 36.2043 2.47402 37.3371C3.63584 38.7022 5.94497 38.6151 7.17941 37.3952C7.60057 37.8163 8.03626 38.223 8.39933 38.6877C7.6151 39.3848 6.64207 39.9366 5.5819 40.0238C4.30389 40.14 2.92422 39.9947 1.86406 39.225C0.58605 38.3391 -0.0529539 36.7561 0.00513734 35.2313C-0.0674768 33.6918 0.615096 32.1379 1.84954 31.223Z" fill="white"/>
<path id="Vector_4" d="M9.71875 30.5402C10.4449 30.5257 11.171 30.5257 11.8972 30.5402C12.6524 31.7892 13.4075 33.0381 14.1773 34.2871C14.9615 33.0381 15.7602 31.7892 16.559 30.5402C17.2997 30.5402 18.0403 30.5257 18.7665 30.5547C17.5756 32.3701 16.3266 34.1709 15.1067 35.9717C15.1067 37.2643 15.1212 38.5713 15.0922 39.8638C14.4822 39.8784 13.8723 39.8784 13.2623 39.8638C13.2333 38.5858 13.3059 37.2933 13.2333 36.0153C12.1295 34.1419 10.837 32.3846 9.71875 30.5402Z" fill="white"/>
<g id="Group_2">
<path id="Vector_5" d="M20.8281 30.5262C22.2223 30.5117 23.631 30.5262 25.0252 30.5117C25.548 30.5117 26.0999 30.5117 26.5937 30.7296C27.6539 31.1362 28.4526 32.1818 28.5397 33.3291C28.5978 34.0117 28.5543 34.7379 28.2348 35.3623C27.7555 36.408 26.6227 37.0906 25.4754 37.1051C24.546 37.1196 23.602 37.1051 22.6725 37.1051C22.6725 38.02 22.687 38.935 22.658 39.8499C22.048 39.8644 21.4381 39.8644 20.8281 39.8499C20.8281 36.742 20.8281 33.6341 20.8281 30.5262ZM22.6725 32.2399C22.6725 33.3146 22.6725 34.3748 22.6725 35.4495C23.4568 35.4495 24.241 35.464 25.0252 35.4495C25.5045 35.4495 26.0418 35.3478 26.3758 34.9557C27.1456 34.186 26.8406 32.6466 25.7659 32.3271C24.7348 32.1383 23.6891 32.269 22.6725 32.2399Z" fill="white"/>
</g>
<path id="Vector_6" d="M31.1267 30.5262C31.7221 30.5262 32.3321 30.5262 32.9275 30.5262C32.9275 31.8188 32.9275 33.1258 32.9275 34.4184C34.4089 34.4184 35.8902 34.4184 37.357 34.4184C37.357 33.1113 37.357 31.8188 37.357 30.5117C37.9379 30.5117 38.5188 30.5117 39.0997 30.5117C39.0997 33.6196 39.0997 36.7275 39.0997 39.8354C38.5188 39.8354 37.9379 39.8354 37.357 39.8354C37.357 38.5864 37.357 37.3229 37.357 36.074C35.8757 36.074 34.3943 36.074 32.913 36.074C32.913 37.3229 32.9275 38.5864 32.8985 39.8354C32.3031 39.8354 31.7076 39.8354 31.0977 39.8354C31.1267 36.742 31.1267 33.6341 31.1267 30.5262Z" fill="white"/>
<path id="Vector_7" d="M42.0773 32.2979C42.0628 31.717 42.0628 31.1215 42.0773 30.5406C44.3864 30.5261 46.681 30.5406 48.9902 30.5406C48.9902 31.1361 48.9902 31.717 48.9902 32.3124C46.681 32.2979 44.3864 32.2979 42.0773 32.2979Z" fill="white"/>
<g id="Group_3">
<path id="Vector_8" d="M51.413 30.5264C52.9233 30.5264 54.4337 30.5264 55.9441 30.5264C56.6993 30.5264 57.4545 30.7442 58.0354 31.2235C59.3715 32.2836 59.5022 34.4766 58.3694 35.7401C57.9773 36.1757 57.3964 36.3791 56.859 36.5679C57.7885 37.628 58.8051 38.6591 59.6329 39.8064C58.9067 39.85 58.1806 39.8355 57.469 39.8355C56.5976 38.8334 55.7553 37.8023 54.8549 36.8293C54.332 36.684 53.7366 36.8002 53.1847 36.7712C53.1847 37.7878 53.1847 38.8189 53.1847 39.8355C52.5893 39.8355 51.9939 39.8355 51.3984 39.8355C51.413 36.7421 51.413 33.6343 51.413 30.5264ZM53.1993 32.2255C53.1993 33.1695 53.1993 34.128 53.1993 35.072C54.1723 35.0575 55.1453 35.1011 56.1038 35.0575C56.9316 34.9849 57.4835 34.099 57.2802 33.3002C57.1785 32.6757 56.5831 32.2255 55.9731 32.2255C55.0437 32.211 54.1287 32.2401 53.1993 32.2255Z" fill="white"/>
</g>
<path id="Vector_9" d="M42.0778 34.3457C44.3289 34.3457 46.5799 34.3457 48.8455 34.3457C48.8455 34.9121 48.8455 35.4785 48.8455 36.0449C47.1899 36.0594 45.5343 36.0449 43.8932 36.0594C43.8932 36.7129 43.8932 37.3664 43.8932 38.02C45.5924 38.02 47.3061 38.02 49.0052 38.02C49.0052 38.6299 49.0052 39.2399 49.0052 39.8644C46.6961 39.8644 44.4015 39.8644 42.0924 39.8644C42.0633 38.0055 42.0778 36.1756 42.0778 34.3457Z" fill="white"/>
<path id="Vector_10" d="M15.0055 41.6212C15.8769 41.1275 17.0242 41.3017 17.7503 41.9843C17.5615 42.1731 17.3727 42.3619 17.1839 42.5507C16.7047 42.1876 16.0076 41.9843 15.4702 42.3474C14.5553 42.8266 14.6279 44.4387 15.6155 44.8017C16.1673 45.0196 16.7773 44.8453 17.213 44.4822C17.4163 44.6856 17.6051 44.8744 17.7939 45.0777C16.8935 45.949 15.2088 45.949 14.4246 44.947C13.6694 43.9449 13.8727 42.2748 15.0055 41.6212Z" fill="white"/>
<g id="Group_4">
<path id="Vector_11" d="M20.4961 41.4619C20.8156 41.4619 21.1206 41.4619 21.4401 41.4619C22.0356 42.8561 22.6746 44.2213 23.2555 45.6154C22.9505 45.6154 22.66 45.6154 22.3551 45.6154C22.2244 45.3831 22.1808 45.0491 21.9484 44.8748C21.2804 44.8312 20.6123 44.8748 19.9588 44.8603C19.8281 45.1071 19.7119 45.3686 19.5812 45.6154C19.2907 45.6154 18.9858 45.6154 18.6953 45.6154C19.2472 44.2067 19.9152 42.8561 20.4961 41.4619ZM20.2638 44.076C20.7285 44.076 21.2078 44.076 21.6725 44.076C21.4256 43.5532 21.2078 43.0159 20.9609 42.4785C20.714 43.0013 20.4961 43.5387 20.2638 44.076Z" fill="white"/>
</g>
<g id="Group_5">
<path id="Vector_12" d="M24.6521 41.4615C25.4653 41.476 26.2786 41.4179 27.0774 41.4905C28.2828 41.752 28.4716 43.5963 27.455 44.1918C26.8595 44.5258 26.1334 44.3951 25.4799 44.4241C25.4799 44.8163 25.4799 45.2229 25.4799 45.615C25.2039 45.615 24.9425 45.615 24.6666 45.6005C24.6375 44.2354 24.6521 42.8412 24.6521 41.4615ZM25.4653 42.2602C25.4653 42.725 25.4653 43.1897 25.4653 43.6399C25.9736 43.5963 26.5691 43.7851 27.0193 43.4656C27.455 43.1752 27.3243 42.4055 26.816 42.2893C26.3658 42.2022 25.9156 42.2602 25.4653 42.2602Z" fill="white"/>
</g>
<path id="Vector_13" d="M29.733 41.4619C30.009 41.4619 30.2849 41.4619 30.5463 41.4619C30.5463 42.8416 30.5463 44.2358 30.5463 45.6154C30.2704 45.6154 30.009 45.6154 29.733 45.6009C29.7185 44.2358 29.733 42.8416 29.733 41.4619Z" fill="white"/>
<path id="Vector_14" d="M32.1562 41.4619C33.3036 41.4619 34.4363 41.4619 35.5691 41.4619C35.5691 41.6943 35.5691 41.9412 35.5691 42.1881C35.1334 42.1881 34.7123 42.1881 34.2766 42.1881C34.2766 43.3354 34.2766 44.4681 34.2766 45.6154C34.0006 45.6154 33.7247 45.63 33.4488 45.63C33.4488 44.4827 33.4488 43.3354 33.4488 42.2026C33.0131 42.2026 32.5919 42.2026 32.1562 42.2026C32.1562 41.9412 32.1562 41.7088 32.1562 41.4619Z" fill="white"/>
<g id="Group_6">
<path id="Vector_15" d="M38.5319 41.4619C38.8369 41.4619 39.1419 41.4619 39.4468 41.4619C40.0568 42.8416 40.6813 44.2213 41.2767 45.6154C40.9717 45.6154 40.6522 45.63 40.3473 45.63C40.2311 45.3831 40.1294 45.1217 40.0132 44.8748C39.3307 44.8748 38.6336 44.8748 37.951 44.8748C37.8348 45.1217 37.7041 45.3831 37.5879 45.63C37.2829 45.63 36.978 45.63 36.6875 45.63C37.2829 44.2213 37.8929 42.8416 38.5319 41.4619ZM38.2995 44.076C38.7643 44.076 39.229 44.076 39.6937 44.076C39.4614 43.5387 39.229 43.0013 38.9966 42.464C38.7497 42.9868 38.5174 43.5242 38.2995 44.076Z" fill="white"/>
</g>
<path id="Vector_16" d="M42.6588 41.4619C42.9347 41.4619 43.2107 41.4619 43.4721 41.4619C43.4721 42.5802 43.4721 43.6984 43.4721 44.8167C44.1692 44.8167 44.8517 44.8167 45.5488 44.8167C45.5488 45.0926 45.5488 45.354 45.5488 45.6154C44.5903 45.6154 43.6318 45.6154 42.6588 45.6154C42.6443 44.2358 42.6588 42.8416 42.6588 41.4619Z" fill="white"/>
<path id="Vector_17" d="M0.0078125 43.2041C4.05968 43.2041 8.09703 43.2041 12.1489 43.2041C12.1489 43.5091 12.1489 43.8141 12.1489 44.119C8.09703 44.119 4.05968 44.119 0.0078125 44.119C0.0078125 43.8141 0.0078125 43.5091 0.0078125 43.2041Z" fill="white"/>
<path id="Vector_18" d="M47.4062 43.2041C51.4581 43.2041 55.5245 43.2041 59.5764 43.2041C59.5764 43.5091 59.5764 43.8141 59.5764 44.119C55.5245 44.1336 51.4581 44.1336 47.4062 44.119C47.4062 43.8141 47.4062 43.5091 47.4062 43.2041Z" fill="white"/>
</g>
</g>
</svg>
