<svg width="99" height="17" viewBox="0 0 99 17" fill="none" xmlns="http://www.w3.org/2000/svg">
<g id="Group" opacity="0.5">
<path id="Vector" d="M11.5149 6.88051C11.5149 8.23795 11.2574 9.38476 10.766 10.3443C10.2511 11.3039 9.57234 12.0528 8.70639 12.5677C7.84043 13.0826 6.85745 13.3401 5.75745 13.3401C4.65745 13.3401 3.67447 13.0826 2.80851 12.5677C1.94255 12.0528 1.26383 11.3273 0.748939 10.3443C0.234045 9.38476 0 8.21455 0 6.88051C0 5.52306 0.25745 4.37625 0.748939 3.41668C1.26383 2.4571 1.94255 1.70817 2.80851 1.21668C3.67447 0.701783 4.65745 0.444336 5.75745 0.444336C6.85745 0.444336 7.84043 0.701783 8.70639 1.21668C9.57234 1.73157 10.2511 2.4571 10.766 3.41668C11.2574 4.37625 11.5149 5.52306 11.5149 6.88051ZM9.22128 6.88051C9.22128 5.92093 9.08085 5.12519 8.7766 4.46987C8.47234 3.81455 8.07447 3.32306 7.53617 2.972C7.02128 2.64434 6.41277 2.4571 5.73404 2.4571C5.05532 2.4571 4.44681 2.62093 3.93192 2.972C3.41702 3.29966 2.99574 3.81455 2.69149 4.46987C2.38723 5.12519 2.24681 5.92093 2.24681 6.88051C2.24681 7.84008 2.38723 8.63583 2.69149 9.29115C2.99574 9.94646 3.39362 10.438 3.93192 10.789C4.44681 11.1167 5.05532 11.3039 5.73404 11.3039C6.41277 11.3039 7.02128 11.1401 7.53617 10.789C8.05107 10.4614 8.47234 9.94646 8.7766 9.29115C9.08085 8.63583 9.22128 7.84008 9.22128 6.88051Z" fill="white"/>
<path id="Vector_2" d="M17.9275 13.153H13.668V0.584961H18.0212C19.2616 0.584961 20.3382 0.842409 21.2275 1.3339C22.1169 1.82539 22.819 2.55092 23.2871 3.48709C23.7786 4.42326 24.0126 5.54666 24.0126 6.8573C24.0126 8.16794 23.7786 9.29134 23.2871 10.2275C22.7956 11.1637 22.0935 11.8892 21.2041 12.4041C20.3148 12.919 19.2148 13.153 17.9275 13.153ZM15.9616 11.1871H17.8339C18.6999 11.1871 19.4488 11.0233 20.0339 10.6956C20.619 10.3679 21.0637 9.89986 21.3446 9.24454C21.6488 8.61262 21.7892 7.79347 21.7892 6.8339C21.7892 5.87432 21.6488 5.07858 21.3446 4.44666C21.0403 3.81475 20.619 3.32326 20.0339 3.019C19.4488 2.69134 18.7467 2.55092 17.9041 2.55092H15.9616V11.1871Z" fill="white"/>
<path id="Vector_3" d="M27.1254 13.1533H24.7147L29.1381 0.585205H31.9466L36.37 13.1533H33.936L30.5892 3.15967H30.4956L27.1254 13.1533ZM27.219 8.2384H33.8424V10.0639H27.219V8.2384Z" fill="white"/>
<path id="Vector_4" d="M53.078 4.84434H50.7844C50.7142 4.46987 50.5971 4.14221 50.4333 3.83795C50.2461 3.5571 50.0354 3.29966 49.778 3.08902C49.5205 2.87838 49.2163 2.73795 48.8886 2.62093C48.561 2.50391 48.1865 2.4571 47.812 2.4571C47.1333 2.4571 46.5248 2.62093 45.9865 2.972C45.4482 3.32306 45.0503 3.81455 44.7461 4.46987C44.4418 5.12519 44.3014 5.92093 44.3014 6.88051C44.3014 7.84008 44.4418 8.65923 44.7461 9.31455C45.0503 9.96987 45.4482 10.4614 45.9865 10.789C46.5014 11.1167 47.1099 11.2805 47.7886 11.2805C48.1631 11.2805 48.5142 11.2337 48.8418 11.1401C49.1695 11.0465 49.4737 10.8826 49.7312 10.6954C49.9886 10.5082 50.2227 10.2507 50.4099 9.96987C50.5971 9.68902 50.7142 9.36136 50.7844 8.98689L53.078 9.0103C52.9844 9.61881 52.7971 10.1571 52.5163 10.6954C52.2354 11.2103 51.861 11.6784 51.3929 12.0763C50.9248 12.4741 50.4099 12.7784 49.778 13.0124C49.1461 13.2465 48.4908 13.3401 47.7418 13.3401C46.6418 13.3401 45.6588 13.0826 44.7929 12.5677C43.9269 12.0528 43.2482 11.3273 42.7333 10.3443C42.2418 9.38476 41.9844 8.21455 41.9844 6.88051C41.9844 5.52306 42.2418 4.37625 42.7333 3.41668C43.2248 2.4571 43.9269 1.70817 44.7929 1.21668C45.6588 0.725188 46.6418 0.444336 47.7418 0.444336C48.444 0.444336 49.0993 0.537954 49.6844 0.748592C50.2695 0.95923 50.8312 1.24008 51.2993 1.61455C51.7674 1.98902 52.1652 2.4571 52.4695 2.9954C52.7737 3.51029 52.961 4.14221 53.078 4.84434Z" fill="white"/>
<path id="Vector_5" d="M57.7846 13.3641C57.1761 13.3641 56.6612 13.2471 56.1697 13.0364C55.7016 12.8258 55.3271 12.4981 55.0463 12.0769C54.7654 11.6556 54.625 11.1407 54.625 10.5088C54.625 9.97048 54.7186 9.5258 54.9293 9.19814C55.1165 8.84708 55.3973 8.56623 55.725 8.35559C56.0761 8.14495 56.4505 7.98112 56.8718 7.88751C57.2931 7.77048 57.7378 7.70027 58.2059 7.65346C58.7676 7.60665 59.2122 7.53644 59.5399 7.48963C59.891 7.44283 60.125 7.37261 60.2888 7.27899C60.4527 7.18538 60.5229 7.02155 60.5229 6.81091V6.7641C60.5229 6.29602 60.3825 5.94495 60.1016 5.6875C59.8208 5.43006 59.4229 5.31304 58.908 5.31304C58.3697 5.31304 57.925 5.43006 57.6207 5.6641C57.2931 5.89814 57.0824 6.17899 56.9888 6.50665L54.9059 6.2024C55.0697 5.6407 55.3505 5.14921 55.725 4.77474C56.0995 4.40027 56.5676 4.09602 57.1059 3.90878C57.6442 3.72155 58.2527 3.62793 58.908 3.62793C59.3527 3.62793 59.8207 3.67474 60.2654 3.79176C60.7101 3.90878 61.1314 4.07261 61.5059 4.30665C61.8803 4.5407 62.1846 4.89176 62.3952 5.28963C62.6293 5.71091 62.7463 6.2258 62.7463 6.85772V13.1535H60.6165V11.8662H60.5463C60.4059 12.1237 60.2186 12.3811 59.9846 12.5918C59.7505 12.8258 59.4463 12.9896 59.0718 13.1301C58.6973 13.2939 58.2761 13.3641 57.7846 13.3641ZM58.3463 11.7258C58.791 11.7258 59.1888 11.6322 59.5165 11.4684C59.8442 11.3045 60.1016 11.0471 60.2654 10.7662C60.4527 10.462 60.5229 10.1577 60.5229 9.80665V8.70665C60.4527 8.75346 60.3356 8.82367 60.1718 8.87048C60.008 8.91729 59.8207 8.9641 59.6101 9.01091C59.3995 9.05772 59.2122 9.08112 59.0016 9.10453C58.791 9.12793 58.6271 9.15134 58.4867 9.17474C58.159 9.22155 57.8548 9.29176 57.5973 9.38538C57.3399 9.47899 57.1293 9.61942 56.9888 9.80665C56.8484 9.99389 56.7548 10.2279 56.7548 10.5088C56.7548 10.9067 56.8952 11.2343 57.1995 11.445C57.5037 11.6088 57.8782 11.7258 58.3463 11.7258Z" fill="white"/>
<path id="Vector_6" d="M64.9922 16.6875V3.72151H67.1688V5.2896H67.3092C67.4262 5.05556 67.5901 4.82151 67.8007 4.56407C68.0113 4.30662 68.2922 4.07258 68.6433 3.88534C68.9943 3.69811 69.4624 3.60449 70.0007 3.60449C70.7262 3.60449 71.3815 3.79173 71.9667 4.16619C72.5518 4.54066 73.0198 5.07896 73.3709 5.80449C73.722 6.53002 73.8858 7.41939 73.8858 8.44917C73.8858 9.47896 73.722 10.3683 73.3709 11.0939C73.0198 11.8194 72.5752 12.3811 71.9901 12.7556C71.405 13.13 70.7496 13.3173 70.0007 13.3173C69.4624 13.3173 69.0177 13.2236 68.6667 13.0364C68.3156 12.8492 68.0347 12.6385 67.8007 12.3811C67.5901 12.1236 67.4262 11.8896 67.3092 11.6556H67.2156V16.6641H64.9922V16.6875ZM67.1688 8.44917C67.1688 9.05768 67.2624 9.59598 67.4262 10.0407C67.5901 10.4853 67.8475 10.8598 68.1752 11.1173C68.5028 11.3747 68.9007 11.4917 69.3688 11.4917C69.8603 11.4917 70.2815 11.3513 70.6092 11.0939C70.9369 10.8364 71.1943 10.4619 71.3581 10.0173C71.522 9.54917 71.6156 9.03428 71.6156 8.44917C71.6156 7.86407 71.522 7.34917 71.3581 6.88109C71.1943 6.43641 70.9369 6.06194 70.6092 5.80449C70.2815 5.54705 69.8603 5.40662 69.3688 5.40662C68.9007 5.40662 68.4794 5.52364 68.1518 5.78109C67.8241 6.03854 67.5667 6.3896 67.4028 6.83428C67.2624 7.30237 67.1688 7.84066 67.1688 8.44917Z" fill="white"/>
<path id="Vector_7" d="M76.9083 2.41064C76.5573 2.41064 76.253 2.29362 75.9956 2.05958C75.7381 1.82553 75.6211 1.54468 75.6211 1.21702C75.6211 0.889363 75.7381 0.585106 75.9956 0.351064C76.253 0.117021 76.5573 0 76.9083 0C77.2594 0 77.5636 0.117021 77.8211 0.351064C78.0785 0.585106 78.1956 0.865959 78.1956 1.21702C78.1956 1.54468 78.0785 1.82553 77.8211 2.05958C77.5636 2.29362 77.2594 2.41064 76.9083 2.41064ZM75.7849 13.1532V3.72128H78.0083V13.1532H75.7849Z" fill="white"/>
<path id="Vector_8" d="M84.9806 3.74482V5.45333H79.5742V3.74482H84.9806ZM80.9083 1.47461H83.1317V10.3214C83.1317 10.6257 83.1785 10.8363 83.2721 11.0001C83.3657 11.164 83.4827 11.2576 83.6466 11.3278C83.787 11.3746 83.9742 11.4214 84.138 11.4214C84.2785 11.4214 84.3955 11.4214 84.5125 11.398C84.6295 11.3746 84.7232 11.3512 84.77 11.3512L85.1444 13.0831C85.0274 13.1299 84.8636 13.1767 84.6295 13.2235C84.4189 13.2704 84.1381 13.2938 83.8338 13.3172C83.2721 13.3406 82.7806 13.2469 82.3359 13.0597C81.8912 12.8725 81.5402 12.5916 81.2827 12.1938C81.0253 11.7959 80.8849 11.3044 80.9083 10.7193V1.47461Z" fill="white"/>
<path id="Vector_9" d="M89.5658 13.3641C88.9573 13.3641 88.4424 13.2471 87.9509 13.0364C87.4828 12.8258 87.1084 12.4981 86.8275 12.0769C86.5467 11.6556 86.4062 11.1407 86.4062 10.5088C86.4062 9.97048 86.4999 9.5258 86.7105 9.19814C86.8977 8.84708 87.1786 8.56623 87.5062 8.35559C87.8339 8.14495 88.2318 7.98112 88.6531 7.88751C89.0743 7.79389 89.519 7.70027 89.9871 7.65346C90.5488 7.60665 90.9935 7.53644 91.3211 7.48963C91.6488 7.44283 91.9062 7.37261 92.0701 7.27899C92.2339 7.18538 92.3041 7.02155 92.3041 6.81091V6.7641C92.3041 6.29602 92.1637 5.94495 91.8828 5.6875C91.602 5.43006 91.2041 5.31304 90.6892 5.31304C90.1509 5.31304 89.7063 5.43006 89.402 5.6641C89.0743 5.89814 88.8637 6.17899 88.7701 6.50665L86.6871 6.2024C86.8509 5.6407 87.1318 5.14921 87.5062 4.77474C87.8807 4.40027 88.3488 4.09602 88.8871 3.90878C89.4254 3.72155 90.0339 3.62793 90.6892 3.62793C91.1339 3.62793 91.602 3.67474 92.0467 3.79176C92.4914 3.90878 92.9126 4.07261 93.2871 4.30665C93.6616 4.5407 93.9658 4.89176 94.1765 5.28963C94.4105 5.71091 94.5275 6.2258 94.5275 6.85772V13.1535H92.3977V11.8662H92.3275C92.1871 12.1237 91.9999 12.3811 91.7658 12.5918C91.5318 12.8258 91.2275 12.9896 90.8531 13.1301C90.4786 13.2939 90.0573 13.3641 89.5658 13.3641ZM90.1275 11.7258C90.5722 11.7258 90.9701 11.6322 91.2977 11.4684C91.6254 11.3045 91.8828 11.0471 92.0467 10.7662C92.2339 10.462 92.3041 10.1577 92.3041 9.80665V8.70665C92.2339 8.75346 92.1169 8.82367 91.9531 8.87048C91.7892 8.91729 91.602 8.9641 91.3914 9.01091C91.1807 9.05772 90.9935 9.08112 90.7828 9.10453C90.5722 9.12793 90.4084 9.15134 90.2679 9.17474C89.9403 9.22155 89.636 9.29176 89.3786 9.38538C89.1211 9.47899 88.9105 9.61942 88.7701 9.80665C88.6297 9.99389 88.536 10.2279 88.536 10.5088C88.536 10.9067 88.6765 11.2343 88.9807 11.445C89.285 11.6088 89.6828 11.7258 90.1275 11.7258Z" fill="white"/>
<path id="Vector_10" d="M98.9968 0.608398V13.1765H96.7734V0.608398H98.9968Z" fill="white"/>
</g>
</svg>
