<svg width="101" height="26" viewBox="0 0 101 26" fill="none" xmlns="http://www.w3.org/2000/svg">
<g id="Group" opacity="0.5">
<g id="Group_2">
<path id="Vector" d="M81.3836 0C82.9111 0 84.4758 0.558824 85.5562 1.67647C86.1523 2.36569 86.5807 3.20392 86.8229 4.09804C86.9532 5.2902 86.9346 6.48235 86.8601 7.67451C86.5993 9.2951 85.5003 10.7667 83.9729 11.3814C82.8738 11.9402 81.6258 11.7353 80.4523 11.7539C78.664 11.5676 77.0434 10.2637 76.4474 8.56863C75.9258 7.41373 76.0562 6.14706 76.0748 4.93627C76.2611 3.0549 77.4346 1.17353 79.2601 0.484313C79.9121 0.223529 80.6385 0.0186275 81.3836 0ZM80.4709 2.88725C79.5023 3.31569 78.9807 4.45196 78.9993 5.47647C78.9993 6.33333 78.9062 7.24608 79.3719 7.99118C79.763 8.88529 80.7876 9.31373 81.7003 9.27647C82.4268 9.10882 83.2464 8.81078 83.5817 8.08431C84.1405 7.1902 84.066 6.09118 84.0101 5.08529C83.9356 4.11667 83.3023 3.22255 82.4268 2.81274C81.7934 2.77549 81.0856 2.70098 80.4709 2.88725Z" fill="white"/>
</g>
<path id="Vector_2" d="M90.4188 1.41576C90.512 0.856936 90.959 0.447132 91.462 0.24223C92.0394 0.16772 92.6355 0.223602 93.213 0.204975C94.4983 2.16086 95.6159 4.20988 96.8453 6.20302C97.1434 5.64419 97.0502 4.99223 97.0502 4.39615C97.0688 2.99909 97.0316 1.62066 97.0688 0.223603C98.0561 0.223603 99.0434 0.204975 100.012 0.223603C100.031 4.06086 100.031 7.87949 100.012 11.7167C99.0434 11.7354 98.0747 11.7354 97.1061 11.7167C95.8953 9.79811 94.8149 7.78635 93.5669 5.86772L93.3434 6.05399C93.2688 7.67458 93.3434 9.29517 93.3061 10.9158C93.3061 11.1952 93.1943 11.4746 93.1198 11.7354C92.1512 11.7354 91.1826 11.754 90.2139 11.6981C90.1953 8.88537 90.2139 6.07262 90.1953 3.25988C90.2139 2.64517 90.363 2.03047 90.4188 1.41576Z" fill="white"/>
<g id="Group_3">
<path id="Vector_3" d="M0.0366574 1.7502C-0.0378524 1.07961 0.539598 0.259999 1.26607 0.334509C2.99842 0.334509 4.73077 0.297254 6.46313 0.371764C8.00921 0.688431 9.07097 2.27176 8.99646 3.81784C9.0896 5.23353 8.53078 6.89137 7.15234 7.50608C5.88568 8.23255 4.35823 7.56196 3.03568 8.04627C3.03568 9.27569 3.0543 10.5051 3.01705 11.7345C2.02979 11.7531 1.04254 11.7531 0.0739124 11.7345C-0.000597356 8.4002 0.0366574 5.08451 0.0366574 1.7502ZM3.01705 2.81196C3.01705 3.59431 3.01705 4.39529 3.01705 5.17765C3.76215 5.17765 4.52587 5.23353 5.27097 5.15902C5.88568 4.91686 6.40725 4.11588 5.96019 3.50118C5.41999 2.40216 4.0043 2.9051 3.01705 2.81196Z" fill="white"/>
</g>
<g id="Group_4">
<path id="Vector_4" d="M27.0664 1.75065C27.085 0.949666 27.7742 0.167313 28.6125 0.204568C30.1772 0.204568 31.7419 0.18594 33.3066 0.204568C34.238 0.353588 35.2811 0.595744 35.8772 1.41535C36.6782 2.62614 36.8086 4.32124 35.9703 5.55065C35.8027 5.83006 35.4488 6.14673 35.6909 6.50065C36.5664 8.12123 36.3056 9.98398 36.3988 11.7536C35.5419 11.7163 34.7037 11.7722 33.8468 11.735C33.586 11.5114 33.3811 11.2134 33.3811 10.8595C33.1948 9.90947 33.2507 8.95947 33.2135 7.99084C32.3752 7.283 31.2576 7.52516 30.2703 7.46927C29.8792 8.82908 30.1772 10.282 30.0654 11.6791C29.0782 11.7163 28.0164 11.9026 27.085 11.5301C27.0664 8.25163 27.0664 5.01045 27.0664 1.75065ZM30.1772 2.79378C30.0095 3.46437 30.0095 4.19084 30.1772 4.86143C31.0154 4.8428 31.8723 4.88006 32.7105 4.8428C33.0831 4.86143 33.3066 4.50751 33.5674 4.30261C33.5488 3.98594 33.5674 3.66927 33.5115 3.37123C33.288 3.05457 32.9341 2.77516 32.5242 2.79378C31.7605 2.79378 30.9595 2.81241 30.1772 2.79378Z" fill="white"/>
</g>
<g id="Group_5">
<path id="Vector_5" d="M41.4068 2.1232C41.3881 1.28496 41.8725 0.316333 42.7852 0.204568C44.3499 0.18594 45.896 0.204568 47.4607 0.204568C48.6342 0.279078 49.9754 0.70751 50.5342 1.84378C51.1676 3.20359 51.093 5.04771 49.9195 6.10947C50.2734 6.79869 50.5901 7.52516 50.7019 8.28888C50.7577 9.44378 50.5715 10.6173 50.9813 11.7163C49.9754 11.735 48.9881 11.735 48.0009 11.7163C47.4048 10.431 48.0568 8.94084 47.3303 7.6928C46.4548 7.45065 45.5607 7.45065 44.6666 7.4879C44.4803 7.84182 44.3499 8.25163 44.4244 8.66143C44.5734 9.46241 44.5734 10.282 44.5362 11.083C44.5176 11.3997 44.294 11.7722 43.9401 11.735C43.2509 11.735 42.5803 11.7536 41.8911 11.7163C41.593 11.5859 41.4068 11.2506 41.444 10.9154C41.4068 7.97222 41.4068 5.04771 41.4068 2.1232ZM44.5548 2.79378C44.3313 3.46437 44.3313 4.19084 44.5362 4.86143C45.4862 4.86143 46.4362 4.86143 47.3676 4.8428C47.8519 4.47025 47.9823 3.91143 47.9077 3.31535C47.6656 3.14771 47.4234 2.96143 47.1626 2.83104C46.3058 2.75653 45.4303 2.83104 44.5548 2.79378Z" fill="white"/>
</g>
<path id="Vector_6" d="M56.1965 0.651564C56.8671 -0.0190241 57.8729 0.204506 58.7298 0.260388C58.7484 4.07902 58.7484 7.87902 58.7298 11.6976C57.7984 11.7349 56.8484 11.7349 55.9171 11.6976C55.8798 8.38196 55.9171 5.06627 55.8984 1.76921C55.9171 1.37803 55.8239 0.893721 56.1965 0.651564Z" fill="white"/>
<g id="Group_6">
<path id="Vector_7" d="M63.8916 0.316991C64.2083 0.130716 64.5995 0.223853 64.9348 0.205226C66.8906 0.261108 69.0142 -0.111441 70.7465 1.00621C72.3112 1.90032 72.7769 3.81895 72.8701 5.49542C72.9446 7.33954 72.5348 9.42581 71.0259 10.6366C70.1318 11.4376 68.9024 11.6052 67.7661 11.717C66.2759 11.6984 64.7857 11.7542 63.2955 11.6984C62.923 11.4935 63.0348 11.065 63.0161 10.7297C63.0348 7.67483 63.0161 4.61993 63.0161 1.58366C62.9603 1.00621 63.4446 0.559148 63.8916 0.316991ZM65.8289 2.8317C65.8289 4.86209 65.8289 6.89248 65.8289 8.9415C66.6485 8.97876 67.4681 9.01601 68.2877 8.92287C69.4426 8.62483 69.9269 7.33954 69.8897 6.25915C69.9455 5.25326 69.8152 4.17287 69.1632 3.37189C68.2132 2.58954 66.9465 2.81307 65.8289 2.8317Z" fill="white"/>
</g>
<path id="Vector_8" d="M13.6742 2.16029C13.8604 1.4152 14.3634 0.763235 15.034 0.390686C17.381 0.278921 19.7281 0.353432 22.0752 0.353432C22.0752 1.17304 22.0752 1.99265 22.0752 2.81225C19.4114 2.81225 16.7477 2.81225 14.084 2.81225C13.7301 2.84951 13.5252 2.45833 13.6742 2.16029Z" fill="white"/>
<path id="Vector_9" d="M13.8206 4.6377C16.5216 4.67495 19.2412 4.61907 21.9422 4.65632C21.998 4.7122 22.1284 4.8426 22.1843 4.91711C22.1657 5.69946 22.3333 6.53769 22.0167 7.28279C19.2971 7.26417 16.5588 7.28279 13.8206 7.28279C13.5598 6.42593 13.5598 5.47593 13.8206 4.6377Z" fill="white"/>
<path id="Vector_10" d="M13.8427 9.1277C16.5436 9.1277 19.2446 9.10908 21.9456 9.14633C22.0015 9.20221 22.1319 9.33261 22.2064 9.38849C22.2436 10.0963 22.2064 10.8042 22.225 11.5306C21.6103 11.8287 20.9211 11.7169 20.2691 11.7355C18.1642 11.7169 16.0593 11.7728 13.9544 11.6983C13.8985 11.5865 13.7682 11.3816 13.6936 11.2699C13.6564 10.5434 13.5633 9.79829 13.8427 9.1277Z" fill="white"/>
<path id="Vector_11" d="M93.3627 13.9327C95.0019 13.4111 96.9205 13.4856 98.3921 14.3984C99.3793 15.0131 99.6774 16.2053 99.8636 17.267C99.845 17.4719 99.6774 17.6582 99.5842 17.8445C99.0068 17.8258 98.4107 17.919 97.8705 17.6954C97.0509 17.5092 96.7901 16.5405 96.045 16.2239C95.2999 16.1121 94.4989 16.1121 93.9029 16.6337C93.9029 16.8945 93.9215 17.1553 93.9587 17.416C94.3499 17.77 94.8529 17.9562 95.3558 18.0866C96.6038 18.4033 97.8891 18.6641 99.0254 19.2788C101 20.6386 100.46 24.1033 98.2803 24.9602C97.1627 25.4072 95.9519 25.6121 94.7597 25.4631C93.8097 25.2768 92.7666 25.1278 92.0401 24.42C91.0901 23.6004 90.7734 22.2964 90.7734 21.0856C91.7421 21.0856 92.6921 21.0856 93.6607 21.0856C93.6607 21.7003 93.9215 22.2778 94.3313 22.7249C95.2627 22.7062 96.2313 22.9298 97.1068 22.5386C97.0881 22.1847 97.0882 21.8121 97.0695 21.4582C95.4676 20.8062 93.6421 20.769 92.2264 19.7072C91.2205 19.018 90.7176 17.6582 91.0901 16.4847C91.2764 15.2925 92.2078 14.268 93.3627 13.9327Z" fill="white"/>
<path id="Vector_12" d="M-6.10352e-05 13.8026C1.04308 13.8026 2.08621 13.7839 3.12935 13.8212C3.7068 16.0565 4.41465 18.2731 4.95484 20.5084C5.75582 19.428 5.84896 18.031 6.29602 16.783C6.68719 15.7771 6.63131 14.3986 7.69308 13.8398C8.54994 13.7467 9.42543 13.8212 10.3009 13.8212C10.245 14.1565 10.1705 14.4731 10.0588 14.7898C8.997 17.9192 7.8421 21.0114 6.85484 24.1594C6.72445 24.5692 6.59406 25.0163 6.25876 25.2771C5.56955 25.333 4.89896 25.3143 4.20974 25.2957C3.7068 25.2584 3.59504 24.6996 3.46465 24.3271C2.57053 21.4212 1.41563 18.5898 0.484253 15.7026C0.297979 15.0692 -6.10352e-05 14.4731 -6.10352e-05 13.8026Z" fill="white"/>
<path id="Vector_13" d="M13.6749 13.8213C16.5062 13.7841 19.3562 13.8027 22.1876 13.8213C22.2062 14.6782 22.2062 15.535 22.1876 16.3919C19.3376 16.4292 16.5063 16.4292 13.6563 16.3919C13.6562 15.5164 13.6562 14.6595 13.6749 13.8213Z" fill="white"/>
<path id="Vector_14" d="M33.2894 13.8951C34.2394 13.6902 35.208 13.8393 36.158 13.802C36.2139 17.5834 36.158 21.3647 36.1767 25.1647C35.208 25.202 34.2208 25.1834 33.2335 25.1834C31.9296 23.2089 30.9424 21.0294 29.5267 19.1108C29.4149 21.1785 29.5453 23.2461 29.4522 25.3324C28.5208 25.3324 27.608 25.3324 26.6767 25.3324C26.6394 21.9608 26.658 18.5892 26.658 15.2177C26.5835 14.7334 26.9561 14.3608 27.31 14.0814C27.9247 13.6343 28.6884 13.8765 29.3963 13.802C30.8678 15.7579 31.762 18.1236 33.308 20.0422C33.3453 18.0677 33.3267 16.1118 33.3267 14.1373C34.1649 13.9696 35.0031 14.0069 35.8414 13.9883C35.0031 13.7834 34.1276 14.1 33.2894 13.8951Z" fill="white"/>
<path id="Vector_15" d="M39.4729 14.6036C39.771 14.1938 40.1808 13.7467 40.7396 13.8026C43.3661 13.8212 45.9925 13.784 48.619 13.8212C48.6376 14.6781 48.619 15.535 48.6376 16.4104C47.5572 16.7085 46.421 16.485 45.3033 16.5781C45.3219 19.4467 45.3033 22.3153 45.3033 25.184C44.3533 25.2026 43.4219 25.184 42.4719 25.184C42.4719 22.3153 42.4719 19.4467 42.4719 16.5967C41.3729 16.5595 40.2553 16.5967 39.1562 16.5595C39.1749 15.8889 39.0817 15.1624 39.4729 14.6036Z" fill="white"/>
<path id="Vector_16" d="M51.6347 15.3485C51.5415 14.6406 52.1376 14.0632 52.7337 13.821C53.2925 13.7651 53.8513 13.8024 54.4102 13.8024C54.5033 14.1377 54.6337 14.4544 54.6151 14.7897C54.6151 16.9691 54.6151 19.1298 54.6151 21.3093C54.5778 21.8681 54.9317 22.371 55.3788 22.6877C56.1053 22.7063 57.0366 22.9857 57.5396 22.2965C57.8004 21.9798 58.0053 21.57 57.968 21.1416C57.968 18.7387 57.968 16.3544 57.968 13.9514C58.7131 13.6534 59.5327 13.8024 60.3151 13.7838C60.669 13.7279 61.0229 14.0446 60.9484 14.4171C60.9484 16.7828 60.9484 19.1485 60.9484 21.4955C60.7621 22.7063 60.3337 24.0289 59.216 24.6808C57.5396 25.724 55.3415 25.7053 53.5719 24.8857C52.4729 24.3828 51.8582 23.1906 51.6719 22.0544C51.616 19.8377 51.6533 17.6024 51.6347 15.3485Z" fill="white"/>
<path id="Vector_17" d="M78.4775 15.349C78.4402 14.5294 79.204 13.7284 80.0422 13.7843C82.3706 13.7843 84.6991 13.7843 87.0275 13.7843C87.0461 14.6411 87.0461 15.498 87.0461 16.3548C85.2765 16.4107 83.5069 16.3362 81.7373 16.3921C81.2902 16.6901 81.5138 17.3048 81.5138 17.7519C81.5697 17.8078 81.7 17.9382 81.7746 18.0127C83.0598 18.0686 84.3451 18.0127 85.6304 18.0499C85.854 18.795 85.8167 19.7264 85.1647 20.248C84.103 20.9372 82.7804 20.4901 81.6069 20.6578C81.3275 21.1421 81.5138 21.8313 81.4951 22.4088L81.6069 22.5205C83.153 22.595 84.6804 22.5205 86.2265 22.5578C86.5059 22.5578 86.7853 22.6696 87.0461 22.7254C87.0275 23.5823 87.0461 24.4578 87.0275 25.3146C84.1775 25.3146 81.3461 25.3333 78.4961 25.296C78.4589 21.9803 78.4775 18.6646 78.4775 15.349Z" fill="white"/>
<g id="Group_7">
<path id="Vector_18" d="M65.048 15.3488C65.0107 14.4547 65.9235 13.6909 66.799 13.7841C68.2892 13.8027 69.798 13.7655 71.2882 13.8027C72.3686 13.9704 73.6166 14.3429 74.1009 15.4419C74.548 16.1498 74.3617 17.0253 74.399 17.8076C74.4362 18.6086 73.9146 19.2792 73.3931 19.838C74.3803 20.7694 74.1009 22.1851 74.3431 23.3772C74.3803 24.0292 74.3803 24.6811 74.4176 25.3331C73.5421 25.3331 72.6666 25.3145 71.7911 25.3517C70.7294 24.2155 71.698 22.4645 70.8784 21.2537C69.9284 21.3282 68.9597 20.8439 68.047 21.2909C68.0656 22.5762 68.047 23.8802 68.047 25.1655C67.0597 25.2027 66.0539 25.2027 65.0666 25.1655C65.0666 21.887 65.048 18.6272 65.048 15.3488ZM68.0284 16.5409C68.0284 17.1743 68.047 17.8076 68.047 18.4409C68.9225 18.4596 69.8166 18.4782 70.6921 18.4409C71.046 18.4782 71.2882 18.1615 71.4558 17.9007C71.7911 17.4723 71.3441 17.0066 71.195 16.5968C70.1705 16.336 69.0529 16.2802 68.0284 16.5409Z" fill="white"/>
</g>
<path id="Vector_19" d="M13.8416 18.2549C16.5426 18.2735 19.2622 18.2363 21.9632 18.2735C22.0191 18.348 22.1308 18.4784 22.1867 18.5343C22.224 19.2235 22.224 19.9127 22.2053 20.6206C22.1494 20.6765 22.0191 20.8068 21.9445 20.8627C19.2436 20.9186 16.5426 20.8627 13.8416 20.8814C13.5436 20.0431 13.5622 19.0931 13.8416 18.2549Z" fill="white"/>
<path id="Vector_20" d="M13.7825 23.7314C13.6521 23.3961 13.4658 22.9304 13.8756 22.7442C16.6511 22.7069 19.408 22.7255 22.1834 22.7442C22.2021 23.5451 22.2021 24.3461 22.2021 25.1471C21.9227 25.2216 21.6619 25.352 21.3825 25.3334C19.6315 25.352 17.8805 25.3334 16.1481 25.3334C15.105 25.3893 14.1364 24.6814 13.7825 23.7314Z" fill="white"/>
</g>
</svg>
