<svg width="89" height="29" viewBox="0 0 89 29" fill="none" xmlns="http://www.w3.org/2000/svg">
<g id="HashedEmergent_Logo" opacity="0.5" clip-path="url(#clip0_4523_31742)">
<path id="Vector" d="M50.4549 13.299C47.2237 13.299 46.9969 11.3716 47.6205 9.16079C48.4708 9.16079 49.3778 9.16079 50.2281 9.16079C49.9447 10.3512 49.8313 11.3716 51.2485 11.3716C52.1555 11.3716 52.7224 10.8047 52.8925 9.95442C53.346 7.6869 48.1307 7.51684 48.9243 3.77544C49.3211 1.79136 50.5683 0.204102 53.7995 0.204102C56.3504 0.204102 57.3708 1.33786 56.6339 4.00219C55.7836 4.00219 54.9332 4.00219 54.0829 4.00219C54.3097 3.0385 54.3097 2.0748 53.2893 2.0748C52.439 2.0748 51.8154 2.52831 51.6453 3.43531C51.1352 5.8162 56.4638 5.64614 55.6135 9.61429C54.9332 12.9022 52.439 13.299 50.4549 13.299Z" fill="white"/>
<path id="Vector_2" d="M68.8203 13.3553L71.4846 0.657227H78.3439L77.9471 2.58461H73.6955L73.0152 5.70245H76.9267L76.5299 7.62984H72.6184L71.8248 11.3146H76.1897L75.7929 13.2419H68.8203V13.3553Z" fill="white"/>
<path id="Vector_3" d="M64.7384 5.75914L65.8155 0.657227H68.4231L65.7588 13.3553H63.1512L64.3416 7.68653H61.3371L60.1467 13.3553H57.5391L60.2034 0.657227H62.811L61.734 5.75914H64.7384Z" fill="white"/>
<path id="Vector_4" d="M42.1758 4.28525L42.686 13.3553H45.4637L44.7268 0.657227H41.2688L35.0898 13.3553H37.7542L42.1758 4.28525Z" fill="white"/>
<path id="Vector_5" d="M85.2598 0.657227C83.7859 0.657227 82.312 0.657227 80.8948 0.657227C79.9878 4.90882 79.1375 9.10372 78.2305 13.3553C79.6477 13.3553 81.0649 13.3553 82.5388 13.3553C87.0171 13.3553 87.6973 8.87697 88.0942 6.94958C88.8878 2.98143 88.7177 0.657227 85.2598 0.657227ZM85.3731 7.00627C84.6929 10.1808 84.126 11.3712 82.5388 11.3712C82.1419 11.3712 81.6884 11.3712 81.2916 11.3712C81.9152 8.42347 82.5387 5.53239 83.1623 2.58461C83.6158 2.58461 84.0693 2.58461 84.5228 2.58461C86.2802 2.58461 85.8833 4.68207 85.3731 7.00627Z" fill="white"/>
<path id="Vector_6" d="M32.9952 13.3553L35.6595 0.657227H33.0519L31.9748 5.75914H28.9137L29.9907 0.657227H27.3831L24.7188 13.3553H27.3264L28.5168 7.68653H31.5213L30.3309 13.3553H32.9952Z" fill="white"/>
<path id="Vector_7" d="M22.5618 11.7678L23.1854 8.76336H19.1038L20.7478 0.94043H16.6662L15.0223 8.76336H10.3739L12.0178 0.94043H7.93631L6.29236 8.76336H2.26752L1.64395 11.7678H5.72548L4.7051 16.643H0.623567L0 19.6474H4.08153L2.21083 28.3774H6.29236L8.16306 19.6474H12.8115L10.9408 28.3774H15.0223L16.893 19.6474H20.9745L21.5414 16.643H17.4599L18.4803 11.8245H22.5618V11.7678ZM13.435 16.643H8.78662L9.80701 11.8245H14.4554L13.435 16.643Z" fill="white"/>
<path id="Vector_8" d="M24.3168 14.7158L21.5391 28.4343H83.8957L86.7301 14.7158H24.3168ZM30.3257 20.668C30.3257 20.7247 30.3824 20.7814 30.3824 20.7814C30.2123 22.1986 30.2123 22.1986 28.9085 22.1986C28.3416 22.1986 27.718 22.1986 27.0945 22.1986C26.9244 22.9923 26.7543 23.7859 26.5843 24.6362C27.718 24.6362 28.7951 24.6362 29.9289 24.6362C29.8155 25.2031 29.7588 25.6566 29.6454 26.1668C27.8881 26.1668 26.1875 26.1668 24.4301 26.1668C25.0537 23.1056 25.6773 20.1012 26.3008 17.04C28.0015 17.04 29.6454 17.04 31.3461 17.04C31.2327 17.5502 31.176 18.0037 31.0626 18.5139C29.9856 18.5139 28.9085 18.5139 27.8314 18.5139C27.6614 19.2509 27.548 19.9311 27.3779 20.668C28.3983 20.668 29.362 20.668 30.3257 20.668ZM37.6384 26.1101C38.0919 23.8426 38.5454 21.5184 39.0556 19.2509C38.9989 19.2509 38.9989 19.2509 38.9422 19.1942C38.8856 19.3642 38.7722 19.5343 38.7155 19.7044C37.9219 21.6317 37.0715 23.5591 36.2779 25.4865C36.0512 25.9967 35.8244 26.2235 35.2575 26.1101C35.0308 26.0534 34.804 26.1101 34.5206 26.1101C34.5206 23.7292 34.5206 21.405 34.5206 19.0808C34.4639 19.0808 34.4072 19.0808 34.3505 19.0808C33.897 21.405 33.3868 23.7292 32.9333 26.0534C32.4231 26.0534 31.8563 26.0534 31.2894 26.0534C31.5161 25.0897 31.6862 24.0693 31.9129 23.1056C32.3098 21.1782 32.7066 19.3075 33.1034 17.3802C33.1601 17.04 33.2735 16.9266 33.6136 16.9266C34.3505 16.9266 35.0875 16.9266 35.8811 16.9266C35.8811 19.0241 35.8811 21.1216 35.8811 23.3324C35.9945 23.0489 36.1079 22.9356 36.1645 22.8222C36.9015 21.0082 37.6384 19.2509 38.3754 17.4368C38.5454 17.0967 38.7155 16.9266 39.1123 16.9833C39.8493 17.04 40.5295 16.9833 41.3231 16.9833C40.6996 20.0445 40.076 23.0489 39.4524 26.1101C38.7722 26.1101 38.2053 26.1101 37.6384 26.1101ZM46.5384 21.9719C46.4817 22.0852 46.255 22.1986 46.1416 22.1986C45.2913 22.1986 44.3843 22.1986 43.4773 22.1986C43.3072 23.0489 43.1372 23.7859 42.9671 24.6362C44.1008 24.6362 45.1779 24.6362 46.3117 24.6362C46.1983 25.1464 46.1416 25.6566 46.0282 26.1101C44.3276 26.1101 42.5703 26.1101 40.8129 26.1101C41.4365 23.1056 42.0601 20.0445 42.6836 16.9833C44.3843 16.9833 46.0282 16.9833 47.7289 16.9833C47.6155 17.4935 47.5021 17.947 47.4454 18.4572C46.3684 18.4572 45.2913 18.4572 44.2142 18.4572C44.0442 19.1942 43.9308 19.8744 43.7607 20.6114C44.7811 20.6114 45.7448 20.6114 46.8219 20.6114C46.7085 21.1216 46.6518 21.5751 46.5384 21.9719ZM54.5881 18.684C54.5314 20.0445 54.0779 21.1216 52.6607 21.6317C53.511 22.0286 53.6811 22.312 53.5677 23.2757C53.511 23.8426 53.3977 24.3528 53.341 24.9196C53.2843 25.3165 53.341 25.77 53.341 26.2235C52.7741 26.2235 52.1505 26.2235 51.4136 26.2235C51.4136 25.8266 51.4136 25.4298 51.4703 25.033C51.527 24.4661 51.697 23.8426 51.7537 23.2757C51.8104 22.7088 51.5836 22.4254 50.9601 22.3687C50.9034 22.3687 50.9034 22.3687 50.8467 22.3687C49.883 22.312 49.883 22.312 49.7129 23.219C49.4862 24.1827 49.3161 25.2031 49.0894 26.2235C48.4658 26.2235 47.8989 26.2235 47.2754 26.2235C47.8989 23.1623 48.5225 20.1579 49.1461 17.1534C50.5633 17.1534 51.9238 17.0967 53.341 17.1534C54.1346 17.1534 54.5881 17.8337 54.5881 18.684ZM61.7875 19.7044C61.334 19.7044 60.8805 19.7044 60.3703 19.7044C60.3703 19.4209 60.3703 19.1942 60.3136 18.9674C60.2002 18.1738 59.52 17.8903 58.8964 18.4005C58.6129 18.6273 58.3295 18.9674 58.2728 19.3075C57.9327 20.7247 57.6492 22.1419 57.3658 23.6158C57.3091 24.126 57.3658 24.6929 57.9327 24.863C58.3862 25.033 58.9531 24.6929 59.2932 24.126C59.5199 23.6158 59.69 23.1056 59.8601 22.4821C59.3499 22.4821 59.0098 22.4821 58.6129 22.4821C58.7263 22.0286 58.783 21.6317 58.8397 21.1782C59.8034 21.1782 60.7671 21.1782 61.7875 21.1782C61.4473 22.8222 61.1072 24.4094 60.7671 26.0534C60.3136 26.0534 59.9168 26.0534 59.4633 26.0534C59.52 25.8266 59.5199 25.5999 59.5766 25.2598C58.8397 26.0534 57.9894 26.3368 57.0257 26.2235C56.062 26.1101 55.4951 25.5432 55.4951 24.5795C55.4384 22.4821 55.8352 20.4413 56.7422 18.5706C57.6493 16.8133 59.3499 16.4731 60.9371 16.9266C61.9008 17.2101 62.4677 18.6273 62.0142 19.4776C62.0142 19.6477 61.9008 19.7044 61.7875 19.7044ZM67.9098 21.9152C67.8531 22.0286 67.6263 22.1419 67.4563 22.1419C66.6059 22.1419 65.6989 22.1419 64.7919 22.1419C64.6219 22.9356 64.4518 23.7292 64.2817 24.5795C65.4155 24.5795 66.4926 24.5795 67.6263 24.5795C67.5129 25.1464 67.4563 25.5999 67.3429 26.1101C65.5856 26.1101 63.8849 26.1101 62.1276 26.1101C62.7512 23.0489 63.3747 20.0445 63.9983 16.9833C65.6989 16.9833 67.3429 16.9833 69.1002 16.9833C68.9868 17.4935 68.8735 17.947 68.7601 18.4572C67.683 18.4572 66.6059 18.4572 65.5289 18.4572C65.3588 19.1942 65.2454 19.8744 65.0754 20.6114C66.0957 20.6114 67.0594 20.6114 68.1365 20.6114C68.0798 21.1216 68.0798 21.5184 67.9098 21.9152ZM74.8257 26.1101C74.0887 26.1101 73.4085 26.1101 72.7282 26.1101C72.4448 24.0126 72.1047 21.9719 71.8212 19.9311H71.7645C71.4244 21.5184 71.0843 23.1056 70.8008 24.7496V24.8063C70.5174 26.3368 70.5174 26.3368 68.8735 26.1101C69.497 23.1056 70.1206 20.0445 70.7442 17.04C71.4811 17.04 72.1614 17.04 72.8416 17.04C73.125 19.0808 73.4652 21.0649 73.7486 23.1056C73.8053 23.1056 73.8053 23.1056 73.862 23.1056C74.2588 21.1216 74.7123 19.0808 75.1091 17.04C75.6193 17.04 76.1862 17.04 76.8098 17.04C76.0728 20.0445 75.4492 23.1056 74.8257 26.1101ZM83.7257 18.2872C83.7257 18.4005 83.4989 18.5139 83.3856 18.5139C82.8187 18.5139 82.3085 18.5139 81.7416 18.5139C81.2314 21.0649 80.7212 23.6158 80.1543 26.1668C79.5308 26.1668 78.9639 26.1668 78.3403 26.1668C78.8505 23.6158 79.3607 21.1216 79.8709 18.5139C79.1906 18.5139 78.5671 18.5139 77.8868 18.5139C78.0002 18.0604 78.0569 17.6636 78.1703 17.2668C78.227 17.1534 78.397 17.04 78.5104 17.04C80.3244 17.04 82.1384 17.04 84.0091 17.04C83.8957 17.4368 83.8391 17.8903 83.7257 18.2872Z" fill="white"/>
<path id="Vector_9" d="M52.326 18.5705C51.8725 18.4004 51.3056 18.4571 50.7954 18.4004C50.7388 18.4004 50.6821 18.5138 50.6821 18.5705C50.512 19.3641 50.3419 20.1577 50.1719 20.9513C51.6458 21.1214 52.3827 20.7246 52.5528 19.6475C52.6661 19.2507 52.7795 18.7405 52.326 18.5705Z" fill="white"/>
</g>
<defs>
<clipPath id="clip0_4523_31742">
<rect width="89" height="28.3439" fill="white" transform="translate(0 0.204102)"/>
</clipPath>
</defs>
</svg>
