<svg width="110" height="17" viewBox="0 0 110 17" fill="none" xmlns="http://www.w3.org/2000/svg">
<path opacity="0.5" d="M3.8797 12.4316V2.71421H0.559168V1.03766H9.29997V2.71421H5.96317V12.4316H3.8797ZM13.2549 12.627C12.4411 12.627 11.7195 12.4533 11.0901 12.1061C10.4607 11.7589 9.96695 11.2705 9.60886 10.6412C9.25076 10.0118 9.07171 9.28473 9.07171 8.46003C9.07171 7.62447 9.24534 6.88115 9.59258 6.23006C9.95068 5.57898 10.439 5.07439 11.0575 4.71629C11.6869 4.34734 12.4248 4.16287 13.2712 4.16287C14.0634 4.16287 14.7633 4.33649 15.371 4.68374C15.9786 5.03098 16.4507 5.50844 16.7871 6.11612C17.1343 6.71295 17.3079 7.38031 17.3079 8.11821C17.3079 8.23757 17.3025 8.36236 17.2917 8.49258C17.2917 8.6228 17.2862 8.75844 17.2754 8.89951H11.1389C11.1823 9.52889 11.3993 10.0226 11.79 10.3807C12.1915 10.7388 12.6744 10.9179 13.2387 10.9179C13.6619 10.9179 14.0145 10.8256 14.2967 10.6412C14.5897 10.4458 14.8067 10.1963 14.9477 9.89241H17.0638C16.9119 10.4024 16.6568 10.869 16.2987 11.2922C15.9515 11.7046 15.5174 12.0301 14.9966 12.2689C14.4866 12.5076 13.906 12.627 13.2549 12.627ZM13.2712 5.85569C12.7612 5.85569 12.3109 6.00218 11.9202 6.29517C11.5296 6.57731 11.28 7.01136 11.1715 7.59734H15.1919C15.1594 7.06562 14.964 6.64242 14.6059 6.32772C14.2478 6.01303 13.8029 5.85569 13.2712 5.85569ZM19.0603 12.4316V4.3582H20.8996L21.0623 5.72547C21.3119 5.24801 21.67 4.86821 22.1366 4.58607C22.6141 4.30394 23.1729 4.16287 23.8132 4.16287C24.8115 4.16287 25.5874 4.47756 26.1408 5.10694C26.6942 5.73632 26.9709 6.65869 26.9709 7.87405V12.4316H24.8875V8.06938C24.8875 7.37489 24.7464 6.84317 24.4643 6.47422C24.1821 6.10527 23.7426 5.9208 23.1458 5.9208C22.5598 5.9208 22.077 6.12697 21.6972 6.53933C21.3282 6.95168 21.1437 7.52681 21.1437 8.2647V12.4316H19.0603ZM32.3 12.627C31.5838 12.627 30.9545 12.513 30.4119 12.2851C29.8693 12.0464 29.4353 11.7209 29.1097 11.3085C28.7842 10.8962 28.5889 10.4187 28.5237 9.87613H30.6235C30.6886 10.1908 30.8622 10.4621 31.1444 10.69C31.4373 10.907 31.8117 11.0155 32.2675 11.0155C32.7232 11.0155 33.0542 10.9233 33.2604 10.7388C33.4774 10.5543 33.5859 10.3427 33.5859 10.104C33.5859 9.75677 33.434 9.52346 33.1302 9.4041C32.8263 9.27388 32.4031 9.14909 31.8606 9.02973C31.5133 8.95377 31.1606 8.86153 30.8025 8.75301C30.4444 8.6445 30.1135 8.50886 29.8096 8.34609C29.5166 8.17246 29.2779 7.95544 29.0934 7.695C28.909 7.42372 28.8167 7.09275 28.8167 6.7021C28.8167 5.98591 29.0989 5.38365 29.6631 4.89534C30.2383 4.40703 31.0413 4.16287 32.0722 4.16287C33.0271 4.16287 33.7867 4.38532 34.351 4.83023C34.9261 5.27514 35.2679 5.88824 35.3764 6.66954H33.4069C33.2875 6.07272 32.8372 5.7743 32.0559 5.7743C31.6652 5.7743 31.3614 5.85026 31.1444 6.00218C30.9382 6.1541 30.8351 6.344 30.8351 6.57188C30.8351 6.81061 30.9924 7.00051 31.3071 7.14158C31.6218 7.28265 32.0396 7.41287 32.5605 7.53223C33.1247 7.66245 33.6402 7.80894 34.1068 7.97171C34.5843 8.12363 34.9641 8.35694 35.2462 8.67163C35.5283 8.97547 35.6694 9.41495 35.6694 9.99007C35.6802 10.4892 35.55 10.9396 35.2787 11.3411C35.0075 11.7426 34.6168 12.0573 34.1068 12.2851C33.5968 12.513 32.9945 12.627 32.3 12.627ZM40.2985 12.627C39.604 12.627 39.0343 12.5185 38.5894 12.3014C38.1445 12.0735 37.8135 11.7751 37.5965 11.4062C37.3794 11.0372 37.2709 10.6303 37.2709 10.1854C37.2709 9.43665 37.5639 8.82897 38.1499 8.36236C38.7359 7.89575 39.6148 7.66245 40.7868 7.66245H42.8377V7.46712C42.8377 6.9137 42.6803 6.50677 42.3656 6.24634C42.051 5.98591 41.6603 5.85569 41.1937 5.85569C40.7705 5.85569 40.4015 5.95878 40.0869 6.16495C39.7722 6.36028 39.5768 6.65327 39.5009 7.04392H37.4662C37.5205 6.45794 37.7158 5.94793 38.0522 5.51387C38.3995 5.07981 38.8444 4.74885 39.3869 4.52097C39.9295 4.28224 40.5372 4.16287 41.21 4.16287C42.3602 4.16287 43.2663 4.45043 43.9283 5.02556C44.5902 5.60068 44.9212 6.41454 44.9212 7.46712V12.4316H43.1469L42.9516 11.1295C42.7129 11.5635 42.3765 11.9216 41.9424 12.2038C41.5192 12.4859 40.9712 12.627 40.2985 12.627ZM40.7705 10.9993C41.3673 10.9993 41.8285 10.8039 42.154 10.4133C42.4904 10.0226 42.702 9.53974 42.7889 8.96462H41.0146C40.4612 8.96462 40.0652 9.0677 39.8264 9.27388C39.5877 9.46921 39.4683 9.71336 39.4683 10.0064C39.4683 10.321 39.5877 10.5652 39.8264 10.7388C40.0652 10.9124 40.3798 10.9993 40.7705 10.9993ZM48.0325 3.10486C47.6527 3.10486 47.338 2.99092 47.0884 2.76304C46.8497 2.53516 46.7303 2.2476 46.7303 1.90035C46.7303 1.55311 46.8497 1.27097 47.0884 1.05394C47.338 0.826063 47.6527 0.712123 48.0325 0.712123C48.4123 0.712123 48.7216 0.826063 48.9603 1.05394C49.2099 1.27097 49.3347 1.55311 49.3347 1.90035C49.3347 2.2476 49.2099 2.53516 48.9603 2.76304C48.7216 2.99092 48.4123 3.10486 48.0325 3.10486ZM46.9908 12.4316V4.3582H49.0742V12.4316H46.9908ZM60.3361 12.627C59.1858 12.627 58.1984 12.3828 57.3736 11.8945C56.5489 11.3953 55.9141 10.7063 55.4692 9.8273C55.0243 8.93749 54.8019 7.91203 54.8019 6.75093C54.8019 5.58983 55.0243 4.56437 55.4692 3.67456C55.9141 2.78474 56.5489 2.09025 57.3736 1.59109C58.1984 1.09192 59.1858 0.84234 60.3361 0.84234C61.7034 0.84234 62.8211 1.18416 63.6892 1.8678C64.5681 2.54058 65.1161 3.49008 65.3332 4.71629H63.0381C62.897 4.09776 62.5932 3.61487 62.1266 3.26763C61.6708 2.90953 61.0631 2.73048 60.3035 2.73048C59.2509 2.73048 58.4262 3.08858 57.8294 3.80477C57.2326 4.52097 56.9342 5.50302 56.9342 6.75093C56.9342 7.99884 57.2326 8.98089 57.8294 9.69709C58.4262 10.4024 59.2509 10.7551 60.3035 10.7551C61.0631 10.7551 61.6708 10.5923 62.1266 10.2668C62.5932 9.93039 62.897 9.46921 63.0381 8.88323H65.3332C65.1161 10.0552 64.5681 10.9721 63.6892 11.6341C62.8211 12.296 61.7034 12.627 60.3361 12.627ZM69.912 12.627C69.2175 12.627 68.6478 12.5185 68.2029 12.3014C67.758 12.0735 67.427 11.7751 67.21 11.4062C66.993 11.0372 66.8844 10.6303 66.8844 10.1854C66.8844 9.43665 67.1774 8.82897 67.7634 8.36236C68.3494 7.89575 69.2283 7.66245 70.4003 7.66245H72.4512V7.46712C72.4512 6.9137 72.2939 6.50677 71.9792 6.24634C71.6645 5.98591 71.2738 5.85569 70.8072 5.85569C70.384 5.85569 70.0151 5.95878 69.7004 6.16495C69.3857 6.36028 69.1904 6.65327 69.1144 7.04392H67.0798C67.134 6.45794 67.3294 5.94793 67.6657 5.51387C68.013 5.07981 68.4579 4.74885 69.0005 4.52097C69.543 4.28224 70.1507 4.16287 70.8235 4.16287C71.9738 4.16287 72.8798 4.45043 73.5418 5.02556C74.2037 5.60068 74.5347 6.41454 74.5347 7.46712V12.4316H72.7605L72.5652 11.1295C72.3264 11.5635 71.99 11.9216 71.556 12.2038C71.1328 12.4859 70.5848 12.627 69.912 12.627ZM70.384 10.9993C70.9808 10.9993 71.442 10.8039 71.7676 10.4133C72.104 10.0226 72.3156 9.53974 72.4024 8.96462H70.6282C70.0748 8.96462 69.6787 9.0677 69.4399 9.27388C69.2012 9.46921 69.0819 9.71336 69.0819 10.0064C69.0819 10.321 69.2012 10.5652 69.4399 10.7388C69.6787 10.9124 69.9934 10.9993 70.384 10.9993ZM76.5229 16.0126V4.3582H78.3785L78.6064 5.51387C78.8668 5.15577 79.2086 4.84108 79.6318 4.5698C80.0659 4.29851 80.6247 4.16287 81.3084 4.16287C82.068 4.16287 82.7462 4.34734 83.343 4.71629C83.9398 5.08524 84.4119 5.58983 84.7591 6.23006C85.1064 6.8703 85.28 7.59734 85.28 8.41119C85.28 9.22505 85.1064 9.95209 84.7591 10.5923C84.4119 11.2217 83.9398 11.7209 83.343 12.0898C82.7462 12.4479 82.068 12.627 81.3084 12.627C80.7007 12.627 80.169 12.513 79.7132 12.2851C79.2575 12.0573 78.8885 11.7372 78.6064 11.3248V16.0126H76.5229ZM80.8689 10.8039C81.5308 10.8039 82.0788 10.5815 82.5129 10.1366C82.9469 9.69166 83.164 9.11654 83.164 8.41119C83.164 7.70585 82.9469 7.1253 82.5129 6.66954C82.0788 6.21379 81.5308 5.98591 80.8689 5.98591C80.1961 5.98591 79.6427 6.21379 79.2086 6.66954C78.7854 7.11445 78.5738 7.68958 78.5738 8.39492C78.5738 9.10026 78.7854 9.68081 79.2086 10.1366C79.6427 10.5815 80.1961 10.8039 80.8689 10.8039ZM88.2643 3.10486C87.8845 3.10486 87.5698 2.99092 87.3202 2.76304C87.0815 2.53516 86.9621 2.2476 86.9621 1.90035C86.9621 1.55311 87.0815 1.27097 87.3202 1.05394C87.5698 0.826063 87.8845 0.712123 88.2643 0.712123C88.6441 0.712123 88.9534 0.826063 89.1921 1.05394C89.4417 1.27097 89.5665 1.55311 89.5665 1.90035C89.5665 2.2476 89.4417 2.53516 89.1921 2.76304C88.9534 2.99092 88.6441 3.10486 88.2643 3.10486ZM87.2226 12.4316V4.3582H89.306V12.4316H87.2226ZM95.0779 12.4316C94.2315 12.4316 93.5533 12.2255 93.0433 11.8131C92.5333 11.4008 92.2783 10.6683 92.2783 9.6157V6.09985H90.8947V4.3582H92.2783L92.5224 2.19334H94.3617V4.3582H96.5429V6.09985H94.3617V9.63198C94.3617 10.0226 94.4431 10.2939 94.6059 10.4458C94.7795 10.5869 95.0725 10.6574 95.4848 10.6574H96.494V12.4316H95.0779ZM101.115 12.627C100.421 12.627 99.8509 12.5185 99.406 12.3014C98.9611 12.0735 98.6301 11.7751 98.4131 11.4062C98.196 11.0372 98.0875 10.6303 98.0875 10.1854C98.0875 9.43665 98.3805 8.82897 98.9665 8.36236C99.5525 7.89575 100.431 7.66245 101.603 7.66245H103.654V7.46712C103.654 6.9137 103.497 6.50677 103.182 6.24634C102.868 5.98591 102.477 5.85569 102.01 5.85569C101.587 5.85569 101.218 5.95878 100.903 6.16495C100.589 6.36028 100.393 6.65327 100.317 7.04392H98.2828C98.3371 6.45794 98.5324 5.94793 98.8688 5.51387C99.2161 5.07981 99.661 4.74885 100.204 4.52097C100.746 4.28224 101.354 4.16287 102.027 4.16287C103.177 4.16287 104.083 4.45043 104.745 5.02556C105.407 5.60068 105.738 6.41454 105.738 7.46712V12.4316H103.964L103.768 11.1295C103.53 11.5635 103.193 11.9216 102.759 12.2038C102.336 12.4859 101.788 12.627 101.115 12.627ZM101.587 10.9993C102.184 10.9993 102.645 10.8039 102.971 10.4133C103.307 10.0226 103.519 9.53974 103.605 8.96462H101.831C101.278 8.96462 100.882 9.0677 100.643 9.27388C100.404 9.46921 100.285 9.71336 100.285 10.0064C100.285 10.321 100.404 10.5652 100.643 10.7388C100.882 10.9124 101.196 10.9993 101.587 10.9993ZM107.726 12.4316V0.712123H109.809V12.4316H107.726Z" fill="white"/>
</svg>
