<svg width="50" height="14" viewBox="0 0 50 14" fill="none" xmlns="http://www.w3.org/2000/svg">
<g id="5" opacity="0.5">
<path id="Path 2431" d="M30.7264 13.031L25.9 1.24337C25.8619 1.13582 25.8418 1.02265 25.8406 0.90847C25.8311 0.666731 25.9162 0.430897 26.0776 0.251685C26.1603 0.166423 26.2603 0.0999733 26.3706 0.0567933C26.481 0.0136132 26.5993 -0.00529866 26.7175 0.00132636C26.8967 0.00340144 27.0708 0.0618336 27.2154 0.168449C27.3673 0.281969 27.4862 0.434451 27.5596 0.60999L32.149 12.1473L36.7392 0.60999C36.8121 0.434365 36.9308 0.281823 37.0827 0.168449C37.2273 0.0618336 37.4014 0.00340144 37.5806 0.00132636C37.6989 -0.00539288 37.8173 0.0134729 37.9278 0.0566557C38.0383 0.0998386 38.1383 0.166338 38.2212 0.251685C38.3826 0.430897 38.4677 0.666731 38.4582 0.90847C38.457 1.02244 38.4369 1.1354 38.3988 1.24271L33.5723 13.031C33.3005 13.6403 32.8962 13.9414 32.3628 13.9414H31.9359C31.4025 13.9388 30.9989 13.6403 30.7264 13.031Z" fill="white"/>
<path id="Path 2432" d="M40.5152 13.5772C40.4333 13.4941 40.3689 13.3951 40.3261 13.2863C40.2832 13.1774 40.2628 13.0609 40.2659 12.9438V1.00077C40.2616 0.761305 40.3512 0.52977 40.5152 0.35634C40.5955 0.270431 40.6931 0.202784 40.8015 0.157925C40.9098 0.113066 41.0265 0.0920313 41.1435 0.0962273H48.9825C49.0933 0.0931081 49.2035 0.113826 49.3057 0.156999C49.408 0.200171 49.4999 0.264805 49.5753 0.346586C49.6557 0.423339 49.7194 0.516105 49.7624 0.618989C49.8053 0.721872 49.8265 0.832621 49.8246 0.944195C49.8275 1.05409 49.8067 1.16331 49.7637 1.26435C49.7206 1.36538 49.6564 1.45582 49.5753 1.52945C49.4164 1.68375 49.2032 1.76839 48.9825 1.76485H42.045V6.11329H48.2825C48.3933 6.11029 48.5036 6.13113 48.6058 6.17441C48.708 6.2177 48.7999 6.28243 48.8753 6.3643C48.9549 6.44152 49.0181 6.53429 49.061 6.63692C49.1038 6.73956 49.1255 6.84992 49.1246 6.96125C49.1275 7.07115 49.1067 7.18037 49.0637 7.28141C49.0206 7.38244 48.9564 7.47288 48.8753 7.54651C48.797 7.62376 48.7044 7.68463 48.6026 7.72559C48.5009 7.76656 48.3921 7.7868 48.2825 7.78516H42.045V12.1564H48.9825C49.0934 12.153 49.2037 12.1737 49.306 12.217C49.4083 12.2603 49.5001 12.3252 49.5753 12.4074C49.6558 12.4839 49.7195 12.5766 49.7625 12.6794C49.8054 12.7822 49.8265 12.8928 49.8246 13.0043C49.8275 13.1142 49.8067 13.2234 49.7637 13.3245C49.7206 13.4255 49.6564 13.516 49.5753 13.5896C49.4169 13.7451 49.2037 13.8309 48.9825 13.8282H41.1435C41.0268 13.8369 40.9096 13.8188 40.8008 13.7754C40.6919 13.7319 40.5943 13.6641 40.5152 13.5772Z" fill="white"/>
<path id="Path 2433" d="M26.9866 12.6955L22.1608 0.907143C21.8889 0.298479 21.4827 0 20.9513 0H20.5238C19.9897 0 19.5868 0.298479 19.3142 0.910395L17.2149 6.04762H15.6263C15.397 6.04899 15.1775 6.1413 15.0154 6.30454C14.8533 6.46778 14.7617 6.6888 14.7603 6.91965V6.93136C14.7615 7.16226 14.8531 7.38337 15.0153 7.54665C15.1774 7.70993 15.397 7.80219 15.6263 7.80338H16.48L14.4781 12.7C14.44 12.8073 14.42 12.9203 14.4187 13.0343C14.4091 13.276 14.4942 13.5119 14.6557 13.691C14.7385 13.7765 14.8385 13.8431 14.949 13.8864C15.0595 13.9297 15.1779 13.9486 15.2963 13.942C15.4754 13.9394 15.6493 13.881 15.7942 13.7749C15.946 13.661 16.0648 13.5084 16.1384 13.3327L18.3437 7.80533H19.8606C20.0898 7.80397 20.3093 7.71166 20.4714 7.54841C20.6335 7.38517 20.7252 7.16416 20.7265 6.93331V6.90404C20.7254 6.67314 20.6337 6.45203 20.4716 6.28875C20.3094 6.12547 20.0899 6.03321 19.8606 6.03202H19.0404L20.7369 1.79218L25.3263 13.3295C25.3993 13.5051 25.518 13.6576 25.6699 13.771C25.8147 13.8778 25.989 13.9362 26.1684 13.9381C26.2866 13.9448 26.4049 13.9259 26.5153 13.8827C26.6257 13.8395 26.7256 13.773 26.8084 13.6878C26.9699 13.5084 27.055 13.2723 27.0454 13.0304C27.0505 12.9157 27.0304 12.8014 26.9866 12.6955Z" fill="white"/>
<path id="Path 2434" d="M12.5693 12.6955L7.74348 0.907144C7.47226 0.29848 7.06672 0 6.53267 0H6.10582C5.57242 0 5.16946 0.298479 4.8963 0.910395L2.79756 6.04762H1.20833C0.97913 6.04916 0.75975 6.14152 0.597678 6.30473C0.435605 6.46793 0.34388 6.68885 0.342357 6.91965V6.93136C0.345059 7.16137 0.437305 7.38112 0.599251 7.54335C0.761197 7.70558 0.979905 7.79732 1.20833 7.79883H2.06203L0.0601573 12.6955C0.0220932 12.8028 0.00201595 12.9157 0.000746789 13.0297C-0.00895417 13.2715 0.0761729 13.5074 0.237743 13.6865C0.320563 13.7719 0.420575 13.8385 0.531065 13.8818C0.641555 13.9251 0.759964 13.9441 0.878343 13.9375C1.05745 13.9348 1.23135 13.8764 1.37623 13.7704C1.52801 13.6565 1.64684 13.5038 1.72042 13.3282L3.92571 7.80078H5.4536C5.68285 7.79942 5.90232 7.70711 6.06443 7.54386C6.22654 7.38062 6.31821 7.15961 6.31957 6.92875V6.90404C6.31838 6.67314 6.22676 6.45203 6.06462 6.28875C5.90247 6.12547 5.6829 6.03321 5.4536 6.03202H4.63541L6.31957 1.79153L10.909 13.3282C10.9822 13.5041 11.1011 13.6568 11.2532 13.7704C11.3981 13.8764 11.572 13.9348 11.7511 13.9375C11.8695 13.9439 11.9878 13.9249 12.0983 13.8816C12.2088 13.8383 12.3088 13.7718 12.3917 13.6865C12.5531 13.5073 12.6382 13.2714 12.6287 13.0297C12.6331 12.9153 12.6128 12.8013 12.5693 12.6955Z" fill="white"/>
</g>
</svg>
