<svg width="145" height="21" viewBox="0 0 145 21" fill="none" xmlns="http://www.w3.org/2000/svg">
<g id="16" opacity="0.5" clip-path="url(#clip0_4523_31683)">
<path id="Vector" d="M24.1953 6.69629H25.7287L27.2065 12.3676H27.2287L28.9955 6.69629H30.3733L32.1066 12.3676H32.1288L33.6734 6.69629H35.0956L32.8067 14.5694H31.4733L29.651 8.57558H29.6288L27.8065 14.5694H26.5176L24.1953 6.69629Z" fill="white"/>
<path id="Vector_2" d="M36.6445 6.69629H41.8558V7.96396H38.0446V9.8989H41.6558V11.1666H38.0446V13.3017H42.0558V14.5694H36.6445V6.69629Z" fill="white"/>
<path id="Vector_3" d="M47.9593 8.38454C47.8112 8.16954 47.6112 8.01387 47.3593 7.91748C47.1149 7.81372 46.8556 7.76181 46.5815 7.76181C46.4186 7.76181 46.2593 7.78034 46.1037 7.8174C45.9556 7.85452 45.8186 7.9138 45.6926 7.99534C45.5741 8.07689 45.4778 8.18439 45.4037 8.31784C45.3296 8.44387 45.2926 8.59585 45.2926 8.77374C45.2926 9.04064 45.3852 9.24454 45.5704 9.38536C45.7556 9.52623 45.9852 9.64858 46.2593 9.75234C46.5334 9.85616 46.8334 9.95623 47.1593 10.0526C47.4853 10.149 47.7853 10.2824 48.0593 10.4529C48.3335 10.6234 48.5631 10.8496 48.7483 11.1313C48.9335 11.4129 49.026 11.7874 49.026 12.2544C49.026 12.6769 48.9483 13.0477 48.7927 13.3664C48.6371 13.6778 48.426 13.9372 48.1594 14.1448C47.9001 14.3524 47.5964 14.5081 47.2482 14.6119C46.9 14.7157 46.5334 14.7675 46.1482 14.7675C45.6593 14.7675 45.1889 14.686 44.737 14.5229C44.2851 14.3598 43.8963 14.0855 43.5703 13.7L44.6259 12.6769C44.7963 12.9364 45.0185 13.1403 45.2926 13.2886C45.5741 13.4294 45.8704 13.4999 46.1815 13.4999C46.3445 13.4999 46.5074 13.4776 46.6704 13.4331C46.8334 13.3886 46.9815 13.3219 47.1149 13.233C47.2482 13.144 47.3556 13.0328 47.4371 12.8994C47.5186 12.7585 47.5593 12.5991 47.5593 12.4212C47.5593 12.1321 47.4667 11.9096 47.2815 11.754C47.0964 11.5983 46.8667 11.4685 46.5926 11.3648C46.3186 11.2536 46.0186 11.1498 45.6926 11.0534C45.3667 10.9571 45.0667 10.8273 44.7926 10.6642C44.5185 10.4937 44.2889 10.2713 44.1037 9.99698C43.9185 9.71528 43.8259 9.34087 43.8259 8.87387C43.8259 8.46608 43.9074 8.11395 44.0704 7.8174C44.2407 7.52091 44.4592 7.27622 44.7259 7.08349C45 6.88334 45.3111 6.73504 45.6593 6.6387C46.0074 6.54231 46.363 6.49414 46.726 6.49414C47.1408 6.49414 47.5408 6.55716 47.926 6.68319C48.3186 6.80922 48.6705 7.01679 48.9816 7.30591L47.9593 8.38454Z" fill="white"/>
<path id="Vector_4" d="M52.7627 7.96396H50.3516V6.69629H56.5739V7.96396H54.1628V14.5694H52.7627V7.96396Z" fill="white"/>
<path id="Vector_5" d="M57.3203 6.69629H58.8539L60.332 12.3676H60.3539L62.1207 6.69629H63.4987L65.2318 12.3676H65.2538L66.7984 6.69629H68.2209L65.9318 14.5694H64.5984L62.7761 8.57558H62.7541L60.9319 14.5694H59.643L57.3203 6.69629Z" fill="white"/>
<path id="Vector_6" d="M72.0357 6.69629H73.247L76.6359 14.5694H75.0358L74.3022 12.7679H70.8914L70.1799 14.5694H68.6133L72.0357 6.69629ZM73.8134 11.5669L72.6026 8.36432L71.3692 11.5669H73.8134Z" fill="white"/>
<path id="Vector_7" d="M76.582 6.69604H78.1931L80.3376 12.6454L82.5487 6.69604H84.0603L80.882 14.5691H79.6712L76.582 6.69604Z" fill="white"/>
<path id="Vector_8" d="M85.5664 6.69604H90.7775V7.96372H86.9664V9.89865H90.5774V11.1664H86.9664V13.3015H90.9777V14.5691H85.5664V6.69604Z" fill="white"/>
<path id="Vector_9" d="M102.377 8.54026C102.088 8.22887 101.807 8.0213 101.533 7.91748C101.266 7.81372 100.995 7.76181 100.722 7.76181C100.314 7.76181 99.9435 7.83593 99.6103 7.98423C99.2842 8.12511 99.0033 8.32526 98.7657 8.58475C98.5287 8.83675 98.344 9.1333 98.2103 9.47433C98.0844 9.81536 98.0217 10.1823 98.0217 10.5752C98.0217 10.9978 98.0844 11.387 98.2103 11.7429C98.344 12.0987 98.5287 12.4063 98.7657 12.6658C99.0033 12.9253 99.2842 13.1292 99.6103 13.2774C99.9435 13.4257 100.314 13.4999 100.722 13.4999C101.04 13.4999 101.347 13.4257 101.644 13.2774C101.948 13.1218 102.229 12.8771 102.488 12.5435L103.644 13.3664C103.288 13.8557 102.855 14.2116 102.344 14.4339C101.833 14.6564 101.289 14.7675 100.711 14.7675C100.103 14.7675 99.5438 14.6712 99.0324 14.4784C98.5287 14.2783 98.0921 14.0003 97.7215 13.6444C97.3586 13.2811 97.0732 12.8475 96.8659 12.3433C96.6586 11.8393 96.5547 11.2795 96.5547 10.6642C96.5547 10.034 96.6586 9.46322 96.8659 8.95168C97.0732 8.43276 97.3586 7.99166 97.7215 7.62836C98.0921 7.26511 98.5287 6.9871 99.0324 6.79437C99.5438 6.59422 100.103 6.49414 100.711 6.49414C101.244 6.49414 101.737 6.59048 102.188 6.78326C102.648 6.96857 103.073 7.28738 103.466 7.7396L102.377 8.54026Z" fill="white"/>
<path id="Vector_10" d="M107.797 6.69629H109.009L112.398 14.5694H110.797L110.065 12.7679H106.653L105.942 14.5694H104.375L107.797 6.69629ZM109.576 11.5669L108.364 8.36432L107.131 11.5669H109.576Z" fill="white"/>
<path id="Vector_11" d="M113.945 6.69629H116.59C116.967 6.69629 117.33 6.73335 117.678 6.80747C118.034 6.8816 118.345 7.00763 118.612 7.18556C118.879 7.35608 119.09 7.58961 119.245 7.88615C119.408 8.17527 119.49 8.53852 119.49 8.97594C119.49 9.47264 119.404 9.87294 119.234 10.1769C119.064 10.4809 118.834 10.7181 118.545 10.8886C118.256 11.0517 117.919 11.1629 117.534 11.2222C117.156 11.2815 116.76 11.3112 116.345 11.3112H115.345V14.5694H113.945V6.69629ZM116.189 10.1102C116.389 10.1102 116.597 10.1028 116.812 10.0879C117.027 10.0731 117.223 10.0286 117.401 9.95449C117.586 9.88037 117.734 9.76918 117.845 9.62088C117.964 9.47264 118.023 9.26506 118.023 8.99816C118.023 8.75352 117.971 8.56079 117.868 8.41991C117.764 8.27167 117.631 8.16043 117.467 8.08631C117.304 8.00476 117.123 7.95285 116.923 7.93064C116.723 7.90837 116.53 7.89726 116.345 7.89726H115.345V10.1102H116.189Z" fill="white"/>
<path id="Vector_12" d="M121.367 6.69629H122.767V14.5694H121.367V6.69629Z" fill="white"/>
<path id="Vector_13" d="M126.771 7.96396H124.359V6.69629H130.582V7.96396H128.171V14.5694H126.771V7.96396Z" fill="white"/>
<path id="Vector_14" d="M133.731 6.69629H134.942L138.331 14.5694H136.731L135.998 12.7679H132.587L131.876 14.5694H130.309L133.731 6.69629ZM135.509 11.5669L134.298 8.36432L133.065 11.5669H135.509Z" fill="white"/>
<path id="Vector_15" d="M139.871 6.69629H141.272V13.3017H144.616V14.5694H139.871V6.69629Z" fill="white"/>
<path id="Vector_16" d="M1.67851 11.4399C1.67851 5.87234 5.6226 1.64422 10.8534 1.64422C13.259 1.64422 14.4338 2.37511 14.4338 2.37511C13.7438 1.89949 11.7932 0.948242 9.51068 0.948242C5.53864 0.948242 0.000183105 4.08176 0.000183105 10.6565C0.000183105 17.2313 5.67853 20.197 9.23096 20.197C9.52938 20.1877 10.3219 20.0571 10.3219 19.9452C7.18902 20.197 1.67851 16.529 1.67851 11.4399Z" fill="white"/>
<path id="Vector_17" d="M10.9712 2.76855C8.01733 2.76855 5.84293 4.42857 5.125 5.25858C7.16696 3.55193 9.93622 3.55193 9.93622 3.55193C13.8803 3.55193 17.4048 6.90927 17.4048 11.022C17.3768 13.1203 16.7614 13.9037 16.7614 13.9037C16.7614 13.9037 16.3418 9.95885 12.3978 9.48321C12.3978 9.48321 13.3208 10.4904 13.2928 12.337C13.2928 13.9037 12.9572 14.2674 12.9572 14.2674C12.9572 14.2674 11.7544 8.95165 5.54457 9.37131C11.2789 11.022 12.202 17.9325 12.202 19.3314C14.8313 16.8414 14.8313 13.624 14.8313 13.624C15.6705 15.1627 15.3628 18.2683 15.3628 18.2683C15.3628 18.2683 19.223 15.9741 19.223 11.022C19.223 6.40564 15.5586 2.76855 10.9712 2.76855Z" fill="white"/>
</g>
<defs>
<clipPath id="clip0_4523_31683">
<rect width="144.616" height="20.3452" fill="white" transform="translate(0 0.431641)"/>
</clipPath>
</defs>
</svg>
