<svg width="103" height="24" viewBox="0 0 103 24" fill="none" xmlns="http://www.w3.org/2000/svg">
<g opacity="0.5">
<path d="M27.212 12.348V18.4884C27.2098 18.8712 27.1083 19.247 26.9175 19.5789C26.7267 19.9108 26.4531 20.1875 26.1235 20.3819L20.8087 23.4457C20.4795 23.6421 20.1034 23.7458 19.7202 23.7458C19.337 23.7458 18.9608 23.6421 18.6317 23.4457L13.3169 20.3819C12.9872 20.1875 12.7136 19.9108 12.5228 19.5789C12.3321 19.247 12.2306 18.8712 12.2284 18.4884V16.7649L14.9496 15.1841V18.1798L19.7117 20.9457L24.4737 18.1798V12.6607L19.7117 9.89476L8.55479 16.3628C8.22253 16.5502 7.84765 16.6486 7.46627 16.6486C7.08495 16.6486 6.71007 16.5502 6.37782 16.3628L1.06296 13.2862C0.738396 13.0889 0.470084 12.8112 0.283859 12.4798C0.0976915 12.1486 -5.65099e-05 11.7749 2.45094e-08 11.3948V5.25436C0.00220487 4.87142 0.103684 4.49568 0.294488 4.16372C0.485235 3.83182 0.758861 3.55515 1.08846 3.36074L6.40331 0.296931C6.73319 0.102523 7.10898 0 7.49177 0C7.87462 0 8.25041 0.102523 8.58028 0.296931L13.8951 3.36074C14.2247 3.55515 14.4984 3.83182 14.6891 4.16372C14.8799 4.49568 14.9814 4.87142 14.9836 5.25436V6.97773L12.2454 8.54793V5.56922L7.48329 2.80331L2.72117 5.56922V11.082L7.48329 13.8479L18.6402 7.3799C18.9724 7.1925 19.3473 7.09411 19.7287 7.09411C20.11 7.09411 20.4849 7.1925 20.8172 7.3799L26.132 10.4564C26.4597 10.6517 26.7314 10.9285 26.9207 11.26C27.1099 11.5914 27.2103 11.9662 27.212 12.348Z" fill="white"/>
<path d="M36.6837 20.7242V15.9391C37.2024 16.5922 38.1442 16.9582 39.2348 16.9582C42.0198 16.9582 43.9012 14.9795 43.9012 11.9625C43.9012 8.94551 42.1729 6.9668 39.4666 6.9668C38.2186 6.9668 37.2577 7.42849 36.6816 8.17744V7.11357H34.0156V20.7178L36.6837 20.7242ZM38.9053 14.6518C37.4639 14.6518 36.5242 13.5753 36.5242 11.9625C36.5242 10.3498 37.4639 9.25399 38.9053 9.25399C40.3063 9.25399 41.2672 10.3179 41.2672 11.9625C41.2672 13.6072 40.3127 14.6518 38.9053 14.6518Z" fill="white"/>
<path d="M49.9617 16.9582C52.9382 16.9582 55.0639 14.8434 55.0639 11.9625C55.0639 9.08164 52.9382 6.9668 49.9617 6.9668C46.9853 6.9668 44.8594 9.07955 44.8594 11.9625C44.8594 14.8454 46.9853 16.9582 49.9617 16.9582ZM49.9617 14.6518C48.5224 14.6518 47.5423 13.5561 47.5423 11.9625C47.5423 10.3689 48.5245 9.25399 49.9617 9.25399C51.3988 9.25399 52.3808 10.3476 52.3808 11.9625C52.3808 13.5774 51.4027 14.6518 49.9617 14.6518Z" fill="white"/>
<path d="M59.3475 16.7988V2.90527H56.6797V16.7988H59.3475Z" fill="white"/>
<path d="M67.3756 7.11816L65.3602 13.3628L63.3255 7.11816H60.5938L64.1057 16.7245L62.6855 20.7224H65.2369L66.6079 16.7671L70.1221 7.12241L67.3756 7.11816Z" fill="white"/>
<path d="M77.6126 8.08165C77.0744 7.40931 76.1246 6.9668 74.9442 6.9668C72.1214 6.9668 70.4141 8.94551 70.4141 11.9625C70.4141 14.9795 72.1146 16.9582 74.9826 16.9582C76.1156 16.9582 77.1321 16.5327 77.6318 15.8242V17.1008C77.6318 18.0029 77.0365 18.6369 76.2309 18.6369H71.7765V20.7326H76.6538C78.8411 20.7326 80.2997 19.4071 80.2997 17.388V7.11996H77.6126V8.08165ZM75.4055 14.6518C73.9837 14.6518 73.044 13.588 73.044 11.9625C73.044 10.337 73.9837 9.25399 75.4055 9.25399C76.8279 9.25399 77.7845 10.3179 77.7845 11.9625C77.7845 13.6072 76.8449 14.6518 75.4055 14.6518Z" fill="white"/>
<path d="M87.028 16.9582C90.0045 16.9582 92.1302 14.8434 92.1302 11.9625C92.1302 9.08164 90.0045 6.9668 87.028 6.9668C84.052 6.9668 81.9258 9.07955 81.9258 11.9625C81.9258 14.8454 84.052 16.9582 87.028 16.9582ZM87.028 14.6518C85.5869 14.6518 84.6089 13.5561 84.6089 11.9625C84.6089 10.3689 85.5869 9.25399 87.028 9.25399C88.4696 9.25399 89.4477 10.3476 89.4477 11.9625C89.4477 13.5774 88.4674 14.6518 87.028 14.6518Z" fill="white"/>
<path d="M96.2808 16.805V11.5008C96.2808 10.2519 97.1057 9.34978 98.2771 9.34978C99.3914 9.34978 100.139 10.2008 100.139 11.3667V16.805H102.826V10.771C102.826 8.54125 101.407 6.9668 99.2127 6.9668C97.8881 6.9668 96.8145 7.52422 96.2769 8.45615V7.11996H93.5938V16.805H96.2808Z" fill="white"/>
</g>
</svg>
