<svg width="77" height="13" viewBox="0 0 77 13" fill="none" xmlns="http://www.w3.org/2000/svg">
<path opacity="0.5" d="M4.03035 12V2.28257H0.709822V0.606024H9.45063V2.28257H6.11382V12H4.03035ZM13.4056 12.1953C12.5917 12.1953 11.8701 12.0217 11.2407 11.6745C10.6113 11.3272 10.1176 10.8389 9.75951 10.2095C9.40142 9.58014 9.22237 8.85309 9.22237 8.02839C9.22237 7.19283 9.39599 6.44951 9.74324 5.79842C10.1013 5.14734 10.5896 4.64275 11.2082 4.28465C11.8376 3.9157 12.5755 3.73123 13.4219 3.73123C14.214 3.73123 14.9139 3.90485 15.5216 4.2521C16.1293 4.59934 16.6013 5.0768 16.9377 5.68448C17.285 6.28131 17.4586 6.94867 17.4586 7.68657C17.4586 7.80593 17.4532 7.93072 17.4423 8.06094C17.4423 8.19116 17.4369 8.3268 17.426 8.46787H11.2896C11.333 9.09725 11.55 9.59099 11.9406 9.94908C12.3421 10.3072 12.825 10.4862 13.3893 10.4862C13.8125 10.4862 14.1652 10.394 14.4473 10.2095C14.7403 10.0142 14.9573 9.76461 15.0984 9.46077H17.2144C17.0625 9.97079 16.8075 10.4374 16.4494 10.8606C16.1022 11.273 15.6681 11.5985 15.1472 11.8372C14.6372 12.076 14.0567 12.1953 13.4056 12.1953ZM13.4219 5.42405C12.9118 5.42405 12.4615 5.57054 12.0709 5.86353C11.6802 6.14567 11.4306 6.57972 11.3221 7.1657H15.3426C15.31 6.63398 15.1147 6.21078 14.7566 5.89608C14.3985 5.58139 13.9536 5.42405 13.4219 5.42405ZM19.2109 12V3.92655H21.0665L21.2618 5.44033C21.5548 4.91946 21.9509 4.5071 22.4501 4.20327C22.9601 3.88857 23.5569 3.73123 24.2405 3.73123V5.92864H23.6546C23.1988 5.92864 22.7919 5.99917 22.4338 6.14024C22.0757 6.28131 21.7936 6.52547 21.5874 6.87271C21.392 7.21996 21.2944 7.70284 21.2944 8.32137V12H19.2109ZM25.6645 12V3.92655H27.5201L27.7155 5.44033C28.0084 4.91946 28.4045 4.5071 28.9037 4.20327C29.4137 3.88857 30.0105 3.73123 30.6942 3.73123V5.92864H30.1082C29.6524 5.92864 29.2455 5.99917 28.8874 6.14024C28.5293 6.28131 28.2472 6.52547 28.041 6.87271C27.8457 7.21996 27.748 7.70284 27.748 8.32137V12H25.6645ZM34.9015 12.1953C34.2071 12.1953 33.6374 12.0868 33.1924 11.8698C32.7475 11.6419 32.4166 11.3435 32.1995 10.9745C31.9825 10.6056 31.874 10.1987 31.874 9.75376C31.874 9.00501 32.167 8.39733 32.753 7.93072C33.3389 7.46411 34.2179 7.23081 35.3899 7.23081H37.4408V7.03548C37.4408 6.48206 37.2834 6.07513 36.9687 5.8147C36.654 5.55427 36.2634 5.42405 35.7968 5.42405C35.3736 5.42405 35.0046 5.52714 34.6899 5.73331C34.3752 5.92864 34.1799 6.22163 34.104 6.61228H32.0693C32.1236 6.0263 32.3189 5.51629 32.6553 5.08223C33.0025 4.64817 33.4475 4.3172 33.99 4.08933C34.5326 3.85059 35.1403 3.73123 35.8131 3.73123C36.9633 3.73123 37.8694 4.01879 38.5313 4.59392C39.1933 5.16904 39.5242 5.9829 39.5242 7.03548V12H37.75L37.5547 10.6978C37.316 11.1319 36.9796 11.49 36.5455 11.7721C36.1223 12.0543 35.5743 12.1953 34.9015 12.1953ZM35.3736 10.5676C35.9704 10.5676 36.4316 10.3723 36.7571 9.98164C37.0935 9.59099 37.3051 9.1081 37.3919 8.53298H35.6177C35.0643 8.53298 34.6682 8.63606 34.4295 8.84224C34.1908 9.03757 34.0714 9.28172 34.0714 9.57471C34.0714 9.8894 34.1908 10.1336 34.4295 10.3072C34.6682 10.4808 34.9829 10.5676 35.3736 10.5676ZM41.5125 12V3.92655H43.3518L43.5145 5.29383C43.7641 4.81637 44.1222 4.43657 44.5888 4.15443C45.0663 3.8723 45.6251 3.73123 46.2654 3.73123C47.2637 3.73123 48.0396 4.04592 48.593 4.6753C49.1464 5.30468 49.4231 6.22705 49.4231 7.44241V12H47.3397V7.63774C47.3397 6.94325 47.1986 6.41153 46.9165 6.04258C46.6343 5.67363 46.1948 5.48916 45.598 5.48916C45.012 5.48916 44.5292 5.69533 44.1494 6.10769C43.7804 6.52004 43.5959 7.09516 43.5959 7.83306V12H41.5125ZM55.2894 12.1953C54.5081 12.1953 53.8027 12.0163 53.1734 11.6582C52.5548 11.3001 52.0611 10.8063 51.6921 10.177C51.334 9.53673 51.155 8.79884 51.155 7.96328C51.155 7.12772 51.3395 6.39525 51.7084 5.76587C52.0774 5.12563 52.5711 4.62647 53.1896 4.26837C53.819 3.91028 54.5244 3.73123 55.3057 3.73123C56.0761 3.73123 56.7706 3.91028 57.3891 4.26837C58.0185 4.62647 58.5122 5.12563 58.8703 5.76587C59.2393 6.39525 59.4238 7.12772 59.4238 7.96328C59.4238 8.79884 59.2393 9.53673 58.8703 10.177C58.5122 10.8063 58.0185 11.3001 57.3891 11.6582C56.7597 12.0163 56.0598 12.1953 55.2894 12.1953ZM55.2894 10.3886C55.8319 10.3886 56.304 10.1878 56.7055 9.78631C57.107 9.37396 57.3077 8.76628 57.3077 7.96328C57.3077 7.16027 57.107 6.55802 56.7055 6.15652C56.304 5.74416 55.8374 5.53799 55.3057 5.53799C54.7522 5.53799 54.2748 5.74416 53.8733 6.15652C53.4826 6.55802 53.2873 7.16027 53.2873 7.96328C53.2873 8.76628 53.4826 9.37396 53.8733 9.78631C54.2748 10.1878 54.7468 10.3886 55.2894 10.3886ZM63.0703 12L60.1079 3.92655H62.289L64.34 10.0305L66.3909 3.92655H68.572L65.5933 12H63.0703ZM72.1767 12.1953C71.4823 12.1953 70.9126 12.0868 70.4677 11.8698C70.0227 11.6419 69.6918 11.3435 69.4747 10.9745C69.2577 10.6056 69.1492 10.1987 69.1492 9.75376C69.1492 9.00501 69.4422 8.39733 70.0282 7.93072C70.6141 7.46411 71.4931 7.23081 72.6651 7.23081H74.716V7.03548C74.716 6.48206 74.5586 6.07513 74.2439 5.8147C73.9292 5.55427 73.5386 5.42405 73.072 5.42405C72.6488 5.42405 72.2798 5.52714 71.9651 5.73331C71.6505 5.92864 71.4551 6.22163 71.3792 6.61228H69.3445C69.3988 6.0263 69.5941 5.51629 69.9305 5.08223C70.2778 4.64817 70.7227 4.3172 71.2652 4.08933C71.8078 3.85059 72.4155 3.73123 73.0883 3.73123C74.2385 3.73123 75.1446 4.01879 75.8065 4.59392C76.4685 5.16904 76.7994 5.9829 76.7994 7.03548V12H75.0252L74.8299 10.6978C74.5912 11.1319 74.2548 11.49 73.8207 11.7721C73.3975 12.0543 72.8495 12.1953 72.1767 12.1953ZM72.6488 10.5676C73.2456 10.5676 73.7068 10.3723 74.0323 9.98164C74.3687 9.59099 74.5803 9.1081 74.6671 8.53298H72.8929C72.3395 8.53298 71.9434 8.63606 71.7047 8.84224C71.466 9.03757 71.3466 9.28172 71.3466 9.57471C71.3466 9.8894 71.466 10.1336 71.7047 10.3072C71.9434 10.4808 72.2581 10.5676 72.6488 10.5676Z" fill="white"/>
</svg>
