<svg width="55" height="36" viewBox="0 0 55 36" fill="none" xmlns="http://www.w3.org/2000/svg">
<path opacity="0.5" d="M2.58629 9V2.31596H0.302293V1.16277H6.31457V2.31596H4.01938V9H2.58629ZM7.34259 9V0.938847H8.77569V4.29766C8.96229 3.99164 9.21233 3.75279 9.52582 3.58111C9.84678 3.40198 10.2125 3.31241 10.623 3.31241C11.3097 3.31241 11.8397 3.52887 12.2129 3.96178C12.5935 4.39469 12.7839 5.02914 12.7839 5.86511V9H11.362V5.99946C11.362 5.52176 11.2649 5.15602 11.0709 4.90225C10.8843 4.64847 10.5857 4.52158 10.1752 4.52158C9.77214 4.52158 9.43626 4.6634 9.16755 4.94703C8.90631 5.23066 8.77569 5.62626 8.77569 6.13381V9H7.34259ZM16.8525 9.13435C16.2927 9.13435 15.7963 9.01493 15.3634 8.77608C14.9305 8.53723 14.5909 8.20135 14.3446 7.76843C14.0983 7.33552 13.9751 6.83543 13.9751 6.26816C13.9751 5.69343 14.0945 5.18215 14.3334 4.73431C14.5797 4.28646 14.9156 3.93939 15.341 3.69307C15.7739 3.4393 16.2815 3.31241 16.8637 3.31241C17.4086 3.31241 17.89 3.43183 18.308 3.67068C18.726 3.90953 19.0507 4.23795 19.282 4.65593C19.5209 5.06646 19.6403 5.52549 19.6403 6.03305C19.6403 6.11515 19.6366 6.20099 19.6291 6.29056C19.6291 6.38013 19.6254 6.47343 19.6179 6.57046H15.397C15.4269 7.00337 15.5761 7.34299 15.8449 7.5893C16.121 7.83561 16.4532 7.95877 16.8413 7.95877C17.1324 7.95877 17.375 7.89532 17.569 7.76843C17.7706 7.63408 17.9199 7.46241 18.0169 7.25342H19.4724C19.3679 7.60423 19.1925 7.92518 18.9462 8.21628C18.7073 8.49991 18.4087 8.72383 18.0505 8.88804C17.6997 9.05225 17.3003 9.13435 16.8525 9.13435ZM16.8637 4.4768C16.5129 4.4768 16.2031 4.57756 15.9344 4.77909C15.6657 4.97316 15.494 5.27172 15.4194 5.67477H18.1848C18.1624 5.30904 18.0281 5.01794 17.7818 4.80148C17.5355 4.58503 17.2294 4.4768 16.8637 4.4768ZM0.761331 21V13.1628H3.66111C4.28809 13.1628 4.80684 13.2673 5.21736 13.4763C5.62788 13.6852 5.9339 13.9726 6.13543 14.3384C6.33696 14.7041 6.43773 15.1146 6.43773 15.5699C6.43773 16.0028 6.34069 16.4022 6.14663 16.7679C5.95256 17.1262 5.65027 17.4173 5.23975 17.6412C4.82923 17.8576 4.30301 17.9659 3.66111 17.9659H2.19443V21H0.761331ZM2.19443 16.8015H3.57154C4.07163 16.8015 4.4299 16.6933 4.64636 16.4768C4.87028 16.2529 4.98224 15.9506 4.98224 15.5699C4.98224 15.1818 4.87028 14.8795 4.64636 14.663C4.4299 14.4391 4.07163 14.3272 3.57154 14.3272H2.19443V16.8015ZM9.94244 21.1344C9.38264 21.1344 8.88628 21.0149 8.45336 20.7761C8.02045 20.5372 7.68084 20.2013 7.43452 19.7684C7.18821 19.3355 7.06505 18.8354 7.06505 18.2682C7.06505 17.6934 7.18448 17.1821 7.42333 16.7343C7.66964 16.2865 8.00552 15.9394 8.43097 15.6931C8.86389 15.4393 9.37144 15.3124 9.95363 15.3124C10.4985 15.3124 10.9799 15.4318 11.3979 15.6707C11.8159 15.9095 12.1406 16.2379 12.372 16.6559C12.6108 17.0665 12.7303 17.5255 12.7303 18.033C12.7303 18.1152 12.7265 18.201 12.7191 18.2906C12.7191 18.3801 12.7153 18.4734 12.7079 18.5705H8.48695C8.51681 19.0034 8.66609 19.343 8.93479 19.5893C9.21096 19.8356 9.54311 19.9588 9.93124 19.9588C10.2223 19.9588 10.4649 19.8953 10.659 19.7684C10.8605 19.6341 11.0098 19.4624 11.1068 19.2534H12.5623C12.4578 19.6042 12.2824 19.9252 12.0361 20.2163C11.7973 20.4999 11.4987 20.7238 11.1404 20.888C10.7896 21.0522 10.3903 21.1344 9.94244 21.1344ZM9.95363 16.4768C9.60283 16.4768 9.29307 16.5776 9.02436 16.7791C8.75566 16.9732 8.58399 17.2717 8.50934 17.6748H11.2748C11.2524 17.309 11.118 17.0179 10.8717 16.8015C10.6254 16.585 10.3194 16.4768 9.95363 16.4768ZM16.6002 21.1344C16.0628 21.1344 15.5777 21.0112 15.1448 20.7649C14.7193 20.5186 14.3797 20.179 14.1259 19.746C13.8796 19.3057 13.7564 18.7981 13.7564 18.2234C13.7564 17.6487 13.8833 17.1448 14.1371 16.7119C14.3909 16.2715 14.7305 15.9282 15.1559 15.6819C15.5889 15.4356 16.074 15.3124 16.6114 15.3124C17.1414 15.3124 17.6191 15.4356 18.0445 15.6819C18.4774 15.9282 18.8171 16.2715 19.0634 16.7119C19.3171 17.1448 19.444 17.6487 19.444 18.2234C19.444 18.7981 19.3171 19.3057 19.0634 19.746C18.8171 20.179 18.4774 20.5186 18.0445 20.7649C17.6116 21.0112 17.1302 21.1344 16.6002 21.1344ZM16.6002 19.8916C16.9734 19.8916 17.2981 19.7535 17.5743 19.4773C17.8505 19.1937 17.9885 18.7757 17.9885 18.2234C17.9885 17.671 17.8505 17.2568 17.5743 16.9806C17.2981 16.697 16.9772 16.5552 16.6114 16.5552C16.2308 16.5552 15.9024 16.697 15.6262 16.9806C15.3575 17.2568 15.2231 17.671 15.2231 18.2234C15.2231 18.7757 15.3575 19.1937 15.6262 19.4773C15.9024 19.7535 16.227 19.8916 16.6002 19.8916ZM20.7254 23.4631V15.4468H22.0017L22.1585 16.2417C22.3376 15.9954 22.5727 15.7789 22.8638 15.5923C23.1624 15.4057 23.5468 15.3124 24.017 15.3124C24.5395 15.3124 25.006 15.4393 25.4165 15.6931C25.827 15.9469 26.1517 16.2939 26.3906 16.7343C26.6294 17.1747 26.7488 17.6748 26.7488 18.2346C26.7488 18.7944 26.6294 19.2945 26.3906 19.7348C26.1517 20.1678 25.827 20.5111 25.4165 20.7649C25.006 21.0112 24.5395 21.1344 24.017 21.1344C23.599 21.1344 23.2333 21.056 22.9198 20.8992C22.6063 20.7425 22.3525 20.5223 22.1585 20.2387V23.4631H20.7254ZM23.7147 19.8804C24.17 19.8804 24.547 19.7274 24.8455 19.4214C25.1441 19.1153 25.2934 18.7197 25.2934 18.2346C25.2934 17.7494 25.1441 17.3501 24.8455 17.0366C24.547 16.7231 24.17 16.5664 23.7147 16.5664C23.2519 16.5664 22.8713 16.7231 22.5727 17.0366C22.2816 17.3426 22.1361 17.7382 22.1361 18.2234C22.1361 18.7085 22.2816 19.1079 22.5727 19.4214C22.8713 19.7274 23.2519 19.8804 23.7147 19.8804ZM28.029 21V12.9388H29.4621V21H28.029ZM33.6247 21.1344C33.0649 21.1344 32.5685 21.0149 32.1356 20.7761C31.7027 20.5372 31.3631 20.2013 31.1168 19.7684C30.8705 19.3355 30.7473 18.8354 30.7473 18.2682C30.7473 17.6934 30.8667 17.1821 31.1056 16.7343C31.3519 16.2865 31.6878 15.9394 32.1132 15.6931C32.5461 15.4393 33.0537 15.3124 33.6359 15.3124C34.1808 15.3124 34.6622 15.4318 35.0802 15.6707C35.4982 15.9095 35.8229 16.2379 36.0542 16.6559C36.2931 17.0665 36.4125 17.5255 36.4125 18.033C36.4125 18.1152 36.4088 18.201 36.4013 18.2906C36.4013 18.3801 36.3976 18.4734 36.3901 18.5705H32.1692C32.1991 19.0034 32.3484 19.343 32.6171 19.5893C32.8932 19.8356 33.2254 19.9588 33.6135 19.9588C33.9046 19.9588 34.1472 19.8953 34.3412 19.7684C34.5428 19.6341 34.6921 19.4624 34.7891 19.2534H36.2446C36.1401 19.6042 35.9647 19.9252 35.7184 20.2163C35.4795 20.4999 35.181 20.7238 34.8227 20.888C34.4719 21.0522 34.0725 21.1344 33.6247 21.1344ZM33.6359 16.4768C33.2851 16.4768 32.9753 16.5776 32.7066 16.7791C32.4379 16.9732 32.2662 17.2717 32.1916 17.6748H34.957C34.9346 17.309 34.8003 17.0179 34.554 16.8015C34.3077 16.585 34.0016 16.4768 33.6359 16.4768ZM37.3491 15.917L37.9649 13.1628H39.4764L38.3344 15.917H37.3491ZM42.2966 21.1344C41.8039 21.1344 41.371 21.056 40.9978 20.8992C40.6246 20.735 40.3261 20.5111 40.1021 20.2275C39.8782 19.9438 39.7439 19.6154 39.6991 19.2422H41.1434C41.1882 19.4587 41.3076 19.6453 41.5016 19.802C41.7032 19.9513 41.9607 20.0259 42.2742 20.0259C42.5877 20.0259 42.8153 19.9625 42.9571 19.8356C43.1064 19.7087 43.181 19.5632 43.181 19.399C43.181 19.1601 43.0766 18.9996 42.8676 18.9175C42.6586 18.828 42.3675 18.7421 41.9943 18.66C41.7554 18.6078 41.5128 18.5443 41.2665 18.4697C41.0202 18.3951 40.7926 18.3018 40.5836 18.1898C40.382 18.0704 40.2178 17.9211 40.0909 17.742C39.9641 17.5553 39.9006 17.3277 39.9006 17.059C39.9006 16.5664 40.0947 16.1521 40.4828 15.8162C40.8784 15.4803 41.4307 15.3124 42.1398 15.3124C42.7967 15.3124 43.3191 15.4654 43.7073 15.7714C44.1029 16.0775 44.338 16.4992 44.4126 17.0366H43.0579C42.9758 16.6261 42.666 16.4208 42.1286 16.4208C41.8599 16.4208 41.6509 16.4731 41.5016 16.5776C41.3598 16.6821 41.2889 16.8127 41.2889 16.9694C41.2889 17.1336 41.3971 17.2643 41.6136 17.3613C41.8301 17.4583 42.1174 17.5479 42.4757 17.63C42.8638 17.7196 43.2184 17.8203 43.5393 17.9323C43.8677 18.0368 44.129 18.1973 44.323 18.4137C44.5171 18.6227 44.6141 18.925 44.6141 19.3206C44.6216 19.6639 44.532 19.9737 44.3454 20.2499C44.1588 20.526 43.8901 20.7425 43.5393 20.8992C43.1885 21.056 42.7743 21.1344 42.2966 21.1344ZM3.43719 33.1344C2.86246 33.1344 2.3549 33.0373 1.91452 32.8433C1.47415 32.6417 1.12707 32.3581 0.873292 31.9924C0.619515 31.6192 0.488894 31.1676 0.48143 30.6376H1.9929C2.00782 31.0034 2.13844 31.3131 2.38476 31.5669C2.63853 31.8132 2.98561 31.9364 3.42599 31.9364C3.80666 31.9364 4.10895 31.8468 4.33287 31.6677C4.55679 31.4811 4.66875 31.2348 4.66875 30.9287C4.66875 30.6078 4.56799 30.3577 4.36646 30.1786C4.17239 29.9995 3.91115 29.8539 3.58273 29.742C3.25432 29.63 2.90351 29.5106 2.53031 29.3837C1.92572 29.1747 1.46295 28.906 1.142 28.5776C0.828507 28.2491 0.671763 27.8125 0.671763 27.2676C0.664299 26.8049 0.772527 26.4093 0.996448 26.0808C1.22783 25.745 1.54132 25.4875 1.93692 25.3083C2.33251 25.1217 2.78782 25.0284 3.30283 25.0284C3.82532 25.0284 4.28435 25.1217 4.67995 25.3083C5.08301 25.4949 5.39649 25.7562 5.62042 26.092C5.8518 26.4279 5.97496 26.8272 5.98988 27.29H4.45603C4.44856 27.0138 4.34033 26.7713 4.13134 26.5623C3.92981 26.3458 3.64618 26.2376 3.28044 26.2376C2.96695 26.2301 2.70198 26.3085 2.48552 26.4727C2.27653 26.6294 2.17203 26.8608 2.17203 27.1669C2.17203 27.4281 2.25414 27.6371 2.41835 27.7938C2.58255 27.9431 2.80648 28.07 3.09011 28.1745C3.37374 28.279 3.69843 28.391 4.06416 28.5104C4.45229 28.6447 4.80684 28.8015 5.12779 28.9806C5.44874 29.1598 5.70625 29.3986 5.90032 29.6972C6.09438 29.9883 6.19141 30.3652 6.19141 30.828C6.19141 31.2385 6.08692 31.6192 5.87792 31.97C5.66893 32.3208 5.35917 32.6044 4.94865 32.8209C4.53813 33.0299 4.03431 33.1344 3.43719 33.1344ZM8.10235 35.4631L9.3899 32.6305H9.05402L6.89318 27.4468H8.44943L10.0057 31.3542L11.6291 27.4468H13.1518L9.62501 35.4631H8.10235ZM14.0886 33V27.4468H15.3538L15.4658 28.3872C15.6374 28.0588 15.8837 27.7976 16.2047 27.6035C16.5331 27.4094 16.9175 27.3124 17.3579 27.3124C18.0446 27.3124 18.5783 27.5289 18.9589 27.9618C19.3396 28.3947 19.5299 29.0291 19.5299 29.8651V33H18.0968V29.9995C18.0968 29.5218 17.9998 29.156 17.8057 28.9022C17.6117 28.6485 17.3094 28.5216 16.8989 28.5216C16.4958 28.5216 16.1637 28.6634 15.9024 28.947C15.6486 29.2307 15.5217 29.6263 15.5217 30.1338V33H14.0886ZM23.453 33.1344C22.9305 33.1344 22.464 33.0075 22.0535 32.7537C21.643 32.4999 21.3183 32.1528 21.0794 31.7125C20.8406 31.2721 20.7212 30.772 20.7212 30.2122C20.7212 29.6524 20.8406 29.156 21.0794 28.7231C21.3183 28.2827 21.643 27.9394 22.0535 27.6931C22.464 27.4393 22.9305 27.3124 23.453 27.3124C23.871 27.3124 24.2367 27.3908 24.5502 27.5475C24.8637 27.7043 25.1175 27.9245 25.3115 28.2081V24.9388H26.7446V33H25.4683L25.3115 32.2051C25.1324 32.4514 24.8936 32.6679 24.595 32.8545C24.3039 33.0411 23.9232 33.1344 23.453 33.1344ZM23.7553 31.8804C24.2181 31.8804 24.595 31.7274 24.8861 31.4214C25.1847 31.1079 25.3339 30.7085 25.3339 30.2234C25.3339 29.7382 25.1847 29.3426 24.8861 29.0366C24.595 28.7231 24.2181 28.5664 23.7553 28.5664C23.3 28.5664 22.9231 28.7194 22.6245 29.0254C22.3259 29.3314 22.1767 29.727 22.1767 30.2122C22.1767 30.6973 22.3259 31.0967 22.6245 31.4102C22.9231 31.7237 23.3 31.8804 23.7553 31.8804ZM28.9765 26.5847C28.7153 26.5847 28.4988 26.5063 28.3271 26.3495C28.1629 26.1928 28.0808 25.995 28.0808 25.7562C28.0808 25.5173 28.1629 25.3232 28.3271 25.174C28.4988 25.0172 28.7153 24.9388 28.9765 24.9388C29.2377 24.9388 29.4505 25.0172 29.6147 25.174C29.7864 25.3232 29.8722 25.5173 29.8722 25.7562C29.8722 25.995 29.7864 26.1928 29.6147 26.3495C29.4505 26.5063 29.2377 26.5847 28.9765 26.5847ZM28.26 33V27.4468H29.6931V33H28.26ZM33.9095 33.1344C33.3422 33.1344 32.8421 33.0112 32.4092 32.7649C31.9763 32.5186 31.633 32.1752 31.3792 31.7348C31.1329 31.2945 31.0097 30.7906 31.0097 30.2234C31.0097 29.6561 31.1329 29.1523 31.3792 28.7119C31.633 28.2715 31.9763 27.9282 32.4092 27.6819C32.8421 27.4356 33.3422 27.3124 33.9095 27.3124C34.6186 27.3124 35.2157 27.499 35.7009 27.8722C36.186 28.2379 36.4958 28.7455 36.6301 29.3949H35.1187C35.044 29.1262 34.8948 28.9172 34.6708 28.7679C34.4544 28.6111 34.1969 28.5328 33.8983 28.5328C33.5027 28.5328 33.1668 28.6821 32.8907 28.9806C32.6145 29.2792 32.4764 29.6934 32.4764 30.2234C32.4764 30.7533 32.6145 31.1676 32.8907 31.4661C33.1668 31.7647 33.5027 31.914 33.8983 31.914C34.1969 31.914 34.4544 31.8393 34.6708 31.6901C34.8948 31.5408 35.044 31.3281 35.1187 31.0519H36.6301C36.4958 31.6789 36.186 32.1827 35.7009 32.5634C35.2157 32.944 34.6186 33.1344 33.9095 33.1344ZM39.8166 33.1344C39.3389 33.1344 38.9471 33.0597 38.6411 32.9104C38.335 32.7537 38.1074 32.5484 37.9581 32.2946C37.8088 32.0409 37.7342 31.761 37.7342 31.4549C37.7342 30.9399 37.9357 30.5219 38.3388 30.201C38.7418 29.88 39.3464 29.7196 40.1525 29.7196H41.5632V29.5852C41.5632 29.2045 41.455 28.9246 41.2385 28.7455C41.0221 28.5664 40.7534 28.4768 40.4324 28.4768C40.1413 28.4768 39.8875 28.5477 39.6711 28.6895C39.4546 28.8239 39.3203 29.0254 39.268 29.2941H37.8685C37.9058 28.8911 38.0402 28.5402 38.2716 28.2417C38.5104 27.9431 38.8165 27.7155 39.1897 27.5587C39.5629 27.3945 39.9808 27.3124 40.4436 27.3124C41.2348 27.3124 41.858 27.5102 42.3134 27.9058C42.7687 28.3014 42.9963 28.8612 42.9963 29.5852V33H41.7759L41.6416 32.1043C41.4774 32.4029 41.246 32.6492 40.9474 32.8433C40.6563 33.0373 40.2794 33.1344 39.8166 33.1344ZM40.1413 32.0147C40.5518 32.0147 40.8691 31.8804 41.093 31.6117C41.3244 31.343 41.4699 31.0108 41.5296 30.6152H40.3093C39.9286 30.6152 39.6562 30.6862 39.492 30.828C39.3277 30.9623 39.2456 31.1303 39.2456 31.3318C39.2456 31.5482 39.3277 31.7162 39.492 31.8356C39.6562 31.955 39.8726 32.0147 40.1413 32.0147ZM46.7617 33C46.1795 33 45.713 32.8582 45.3622 32.5746C45.0114 32.2909 44.836 31.7871 44.836 31.0631V28.6447H43.8843V27.4468H44.836L45.0039 25.9577H46.2691V27.4468H47.7693V28.6447H46.2691V31.0743C46.2691 31.343 46.325 31.5296 46.437 31.6341C46.5564 31.7311 46.758 31.7796 47.0416 31.7796H47.7357V33H46.7617ZM51.5559 33.1344C50.9961 33.1344 50.4997 33.0149 50.0668 32.7761C49.6339 32.5372 49.2943 32.2013 49.048 31.7684C48.8016 31.3355 48.6785 30.8354 48.6785 30.2682C48.6785 29.6934 48.7979 29.1821 49.0368 28.7343C49.2831 28.2865 49.6189 27.9394 50.0444 27.6931C50.4773 27.4393 50.9849 27.3124 51.5671 27.3124C52.1119 27.3124 52.5934 27.4318 53.0114 27.6707C53.4293 27.9095 53.754 28.2379 53.9854 28.6559C54.2243 29.0665 54.3437 29.5255 54.3437 30.033C54.3437 30.1152 54.3399 30.201 54.3325 30.2906C54.3325 30.3801 54.3288 30.4734 54.3213 30.5705H50.1004C50.1302 31.0034 50.2795 31.343 50.5482 31.5893C50.8244 31.8356 51.1565 31.9588 51.5447 31.9588C51.8358 31.9588 52.0783 31.8953 52.2724 31.7684C52.4739 31.6341 52.6232 31.4624 52.7203 31.2534H54.1757C54.0712 31.6042 53.8958 31.9252 53.6495 32.2163C53.4107 32.4999 53.1121 32.7238 52.7538 32.888C52.403 33.0522 52.0037 33.1344 51.5559 33.1344ZM51.5671 28.4768C51.2163 28.4768 50.9065 28.5776 50.6378 28.7791C50.3691 28.9732 50.1974 29.2717 50.1228 29.6748H52.8882C52.8658 29.309 52.7315 29.0179 52.4851 28.8015C52.2388 28.585 51.9328 28.4768 51.5671 28.4768Z" fill="white"/>
</svg>
