<svg width="104" height="29" viewBox="0 0 104 29" fill="none" xmlns="http://www.w3.org/2000/svg">
<g opacity="0.5" clip-path="url(#clip0_4523_31727)">
<path fill-rule="evenodd" clip-rule="evenodd" d="M4.65453 8.05198L6.2504 5.28814L3.92311 1.25709L-6.10352e-05 8.05198L10.7396 26.6545L13.0676 22.6235L4.65453 8.05198ZM18.4406 23.8828H15.2489L12.9223 27.9138H20.7687L31.509 9.312H26.8537L18.4406 23.8828ZM8.43242 4.02812L6.10513 -0.00292969H27.5851L31.509 6.79196H26.8537L25.2578 4.02812H8.43242Z" fill="white"/>
<path fill-rule="evenodd" clip-rule="evenodd" d="M64.4255 16.2703V11.6423C64.4255 8.38586 66.4328 6.48145 69.9956 6.48145C72.8012 6.48145 75.2795 7.97664 75.2795 11.4374V11.6423H72.8221V11.4374C72.8221 9.5121 71.2247 8.73394 69.9755 8.73394C67.8661 8.73394 66.883 9.7782 66.883 11.4784V16.4343C66.883 18.1337 67.8661 19.1787 69.9755 19.1787C71.2247 19.1787 72.8221 18.4006 72.8221 16.4753V16.2703H75.2795V16.4753C75.2795 19.936 72.8012 21.4312 69.9956 21.4312C66.4328 21.4312 64.4255 19.5268 64.4255 16.2703Z" fill="white"/>
<path fill-rule="evenodd" clip-rule="evenodd" d="M81.3209 8.93846H77.164V6.78809H87.936V8.93846H83.7784V21.1237H81.3209V8.93846Z" fill="white"/>
<path fill-rule="evenodd" clip-rule="evenodd" d="M96.1475 13.5264C97.5808 13.5264 98.4208 12.8302 98.4208 11.2329C98.4208 9.63561 97.5808 8.93944 96.1475 8.93944H92.891V13.5264H96.1475ZM90.4335 6.78906H96.5977C99.4241 6.78906 100.919 8.44751 100.919 11.1919C100.919 13.0554 100.1 14.6117 98.4 15.3287L101.083 20.3048V21.1239H98.6661L95.7174 15.6149H92.891V21.1239H90.4335V6.78906Z" fill="white"/>
<path fill-rule="evenodd" clip-rule="evenodd" d="M37.332 7.60724V6.78809H39.6866L43.7212 17.847L47.6739 6.78809H50.0084V7.60724L44.8885 21.1237H42.472L37.332 7.60724Z" fill="white"/>
<path fill-rule="evenodd" clip-rule="evenodd" d="M52.5078 6.78809H61.7033V8.93846H54.9652V12.9113H60.7403V14.9595H54.9652V18.9733H61.7234V21.1237H52.5078V6.78809Z" fill="white"/>
</g>
<defs>
<clipPath id="clip0_4523_31727">
<rect width="103.563" height="28.0483" fill="white"/>
</clipPath>
</defs>
</svg>
