<svg width="124" height="31" viewBox="0 0 124 31" fill="none" xmlns="http://www.w3.org/2000/svg">
<g id="ArtichokeCapital_Logo" opacity="0.5">
<g id="Group">
<path id="Vector" d="M76.9258 10.1281C77.0434 9.91086 77.496 9.98327 77.7132 10.0647V10.1371C77.5141 10.1281 77.1159 10.1281 76.9258 10.1281Z" fill="white"/>
</g>
<g id="Group_2">
<path id="Vector_2" d="M77.7109 10.0639C78.4441 10.0186 79.2134 9.95526 79.9466 10.0639V10.1363C79.1953 10.1363 78.4531 10.1453 77.7109 10.1363V10.0639Z" fill="white"/>
</g>
<g id="Group_3">
<path id="Vector_3" d="M79.9492 10.0647C80.1664 9.98327 80.6099 9.91086 80.7367 10.1281C80.5375 10.1281 80.1483 10.1281 79.9492 10.1371V10.0647Z" fill="white"/>
</g>
<g id="Group_4">
<g id="Group_5">
<path id="Vector_4" d="M6.44266 10.1547C7.28441 10.1366 8.12616 10.1185 8.96791 10.1457C10.4161 12.7162 11.8281 15.3139 13.3305 17.8572C12.5884 17.993 11.8462 17.9387 11.0949 17.9387C10.76 17.5042 10.4885 17.0336 10.2622 16.5448L10.217 16.4543C8.67828 16.409 7.13959 16.4452 5.59186 16.4271C5.42894 16.4543 5.20266 16.3728 5.1031 16.5267C4.77726 16.9612 4.58718 17.4861 4.29755 17.9477C3.52821 17.9477 2.74981 17.9568 1.98047 17.9477C2.01667 17.5947 2.30631 17.3323 2.46018 17.0245C3.81784 14.7436 5.05784 12.3994 6.44266 10.1547ZM7.6012 12.0012C7.02193 12.9153 6.58748 13.9109 6.03536 14.8341C6.01726 14.8794 5.98105 14.9699 5.96295 15.0152C7.08529 15.0423 8.20762 15.0152 9.32996 15.0242L9.33901 14.9066C8.8593 13.9381 8.26193 12.9968 7.78222 12.0193C7.73697 12.0102 7.64645 12.0102 7.6012 12.0012Z" fill="white"/>
</g>
<g id="Group_6">
<path id="Vector_5" d="M113.263 12.3632C113.914 12.2999 114.566 12.2999 115.209 12.2637C115.598 12.327 116.005 12.3723 116.403 12.3542C117.453 12.2637 118.521 13.1054 118.386 14.2187C118.367 15.4587 118.395 16.6987 118.377 17.9387C117.797 17.9478 117.236 17.9478 116.657 17.9387C116.648 17.8844 116.612 17.7667 116.603 17.7124C116.15 17.8391 115.734 18.1469 115.236 18.0654C114.611 18.0564 113.996 18.0564 113.371 18.0654C112.747 17.9749 111.842 18.0473 111.507 17.3685C111.118 16.8707 111.299 16.2099 111.28 15.6307C111.452 14.7256 112.385 14.4721 113.163 14.4269C113.489 14.445 113.851 14.4631 114.186 14.4631C114.657 14.454 115.136 14.445 115.607 14.4269C115.924 14.4359 116.213 14.5445 116.503 14.6713C116.693 14.4269 116.449 14.0558 116.367 13.7933C115.525 13.5308 114.62 13.6575 113.76 13.6847C113.471 13.7481 113.353 14.0286 113.208 14.2549C112.638 14.2278 112.068 14.2278 111.507 14.2278C111.308 13.1597 112.294 12.3904 113.263 12.3632ZM113.724 15.6126V15.7212C113.036 15.4497 112.792 16.6535 113.489 16.6535L113.498 16.7621C114.313 16.7711 115.127 16.7711 115.942 16.7621V16.6535C116.421 16.8345 116.765 16.2281 116.494 15.866C116.403 15.6307 116.132 15.7393 115.942 15.7121V15.6035C115.191 15.5945 114.457 15.6126 113.724 15.6126Z" fill="white"/>
</g>
<g id="Group_7">
<path id="Vector_6" d="M63.4093 13.0687C63.9071 12.5981 64.5679 12.3175 65.2558 12.3537C66.1518 12.3628 67.0388 12.3628 67.9349 12.3537C68.6499 12.3447 69.4283 12.6343 69.8266 13.2588C70.2339 13.9829 70.0891 14.8337 70.2701 15.6121C68.4418 15.6212 66.6134 15.6031 64.7942 15.6212L64.7851 15.7298C64.7308 16.0828 64.8937 16.4177 65.1653 16.6349C66.1066 16.7073 67.1112 16.9788 68.0163 16.6258C68.2064 16.4991 68.2879 16.2728 68.4236 16.0828C68.9939 16.0737 69.5731 16.0737 70.1524 16.0828C70.2882 16.8974 69.6999 17.721 68.9034 17.8749C68.3512 17.9744 67.7991 18.074 67.238 18.065C66.7673 18.065 66.3057 18.0559 65.835 18.065C64.8847 18.074 63.699 17.893 63.1921 16.9788C63.0201 16.6168 62.9296 16.2457 62.9206 15.8565C62.9115 15.5035 62.9296 15.1596 62.9206 14.8066C62.9387 14.2001 63.0382 13.5485 63.4093 13.0687ZM66.0704 13.5123V13.6299C65.5635 13.5937 64.7942 13.6661 64.7851 14.3269L64.7942 14.4445C65.998 14.4536 67.1927 14.4536 68.3965 14.4445C68.4055 14.3902 68.4146 14.2816 68.4146 14.2363L68.3241 14.2544C68.2698 13.7476 67.6543 13.639 67.238 13.639C66.9393 13.6028 66.36 13.5394 66.0704 13.5123Z" fill="white"/>
</g>
<g id="Group_8">
<path id="Vector_7" d="M85.0864 12.952C85.6295 12.599 86.2449 12.2822 86.9147 12.3456C87.2677 12.3456 87.6026 12.3456 87.9646 12.3456C88.4715 12.3547 88.9693 12.3456 89.4762 12.3456C90.1007 12.246 90.689 12.5085 91.1959 12.8344C91.6122 13.1964 91.6937 13.8119 91.6846 14.3278C91.6756 15.5316 91.6846 16.7354 91.6846 17.9392C91.1054 17.9392 90.5261 17.9392 89.9468 17.9392C89.9106 17.8849 89.8382 17.7763 89.802 17.722C89.3766 17.9482 88.915 18.1112 88.4263 18.0568C87.8379 18.0568 87.2587 18.0568 86.6794 18.0568C85.9734 18.0387 85.1588 17.9935 84.7334 17.3328C84.5071 16.672 84.3985 15.9298 84.7244 15.2782C84.9868 14.5631 85.8105 14.4817 86.4712 14.4183C86.5527 14.4274 86.7246 14.4364 86.8061 14.4455C87.5121 14.4636 88.2181 14.4455 88.9241 14.4183C89.2499 14.4274 89.5576 14.536 89.8473 14.6717C90.1731 13.8662 89.2499 13.5675 88.6706 13.6399C87.9828 13.7485 86.7156 13.2507 86.5255 14.2282C85.9644 14.2192 85.4032 14.2192 84.842 14.2101C84.5524 13.8571 84.9416 13.3322 85.0864 12.952ZM86.9238 15.6131V15.7217C86.254 15.5497 86.1182 16.6901 86.8061 16.6539L86.8152 16.7625C87.6298 16.7716 88.4444 16.7716 89.259 16.7625V16.6539C89.6663 16.7354 90.0373 16.2647 89.8292 15.8574C89.7025 15.6583 89.4581 15.7307 89.259 15.7126V15.604C88.4715 15.604 87.7022 15.604 86.9238 15.6131Z" fill="white"/>
</g>
</g>
<g id="Group_9">
<path id="Vector_8" d="M27.5142 10.1367H27.6228C27.6228 10.6345 27.6228 11.1414 27.6228 11.6483H27.5051C27.4961 11.1504 27.487 10.6436 27.5142 10.1367Z" fill="white"/>
<path id="Vector_9" d="M5.10522 16.518C5.20479 16.3641 5.44011 16.4455 5.59398 16.4184C7.13267 16.4365 8.67136 16.3912 10.2191 16.4455L10.2643 16.5361C8.54464 16.527 6.82493 16.5813 5.10522 16.518Z" fill="white"/>
</g>
<g id="Group_10">
<path id="Vector_10" d="M27.625 10.137C28.2043 10.1279 28.7835 10.1189 29.3719 10.146C29.3719 10.6438 29.399 11.1507 29.3719 11.6485C28.7926 11.6485 28.2133 11.6485 27.634 11.6485C27.625 11.1417 27.625 10.6438 27.625 10.137Z" fill="white"/>
</g>
<g id="Group_11">
<path id="Vector_11" d="M38.6924 10.1367H38.801C38.801 12.7344 38.801 15.3411 38.801 17.9388H38.6833C38.6924 15.3411 38.6834 12.7344 38.6924 10.1367Z" fill="white"/>
<path id="Vector_12" d="M13.5306 12.3545H13.6392V12.4722C13.6302 14.3005 13.6392 16.1197 13.6392 17.9481H13.5215C13.5215 16.0745 13.5125 14.21 13.5306 12.3545Z" fill="white"/>
<path id="Vector_13" d="M91.7044 14.3281H91.813C91.813 15.5319 91.822 16.7357 91.813 17.9395H91.6953C91.7044 16.7357 91.6953 15.5319 91.7044 14.3281Z" fill="white"/>
<path id="Vector_14" d="M96.4766 18.0566C96.9834 18.0566 97.4812 18.0566 97.9881 18.0566V18.1653C97.4812 18.1653 96.9834 18.1834 96.4766 18.1653V18.0566Z" fill="white"/>
<path id="Vector_15" d="M107.32 18.0654C107.746 18.0563 108.171 18.0563 108.606 18.0654V18.174C108.289 18.174 107.646 18.174 107.329 18.174L107.32 18.0654Z" fill="white"/>
</g>
<g id="Group_12">
<path id="Vector_16" d="M38.8137 10.1374C39.393 10.1284 39.9813 10.1193 40.5606 10.1374C40.5697 11.0697 40.5425 12.0019 40.5697 12.9342C40.6059 12.907 40.6692 12.8527 40.6964 12.8256C41.2394 12.2825 42.0721 12.3368 42.7781 12.2373C43.5656 12.2916 44.3983 12.3097 45.1042 12.6989C45.6383 12.9976 45.9369 13.613 45.9188 14.2104C45.9007 15.4504 45.9279 16.6904 45.9098 17.9304C45.3305 17.9394 44.7513 17.9394 44.172 17.9304C44.0905 16.7628 44.3168 15.559 44.0996 14.4005C44.0905 14.0203 43.6561 13.9751 43.3845 13.8212C42.8324 13.7307 42.226 13.6402 41.6829 13.8122C41.0675 13.9208 40.5696 14.3281 40.633 14.9888C40.4882 15.9573 40.5878 16.9438 40.5425 17.9213C39.9632 17.9304 39.384 17.9304 38.8047 17.9304C38.8137 15.3418 38.8047 12.7441 38.8137 10.1374Z" fill="white"/>
</g>
<g id="Group_13">
<path id="Vector_17" d="M40.5588 10.1458L40.6674 10.1367C40.6765 11.0328 40.6584 11.9379 40.6855 12.8339C40.6493 12.8611 40.586 12.9154 40.5588 12.9426C40.5407 12.0103 40.5588 11.078 40.5588 10.1458Z" fill="white"/>
</g>
<g id="Group_14">
<path id="Vector_18" d="M55.7083 10.137C56.2875 10.137 56.8668 10.1188 57.4461 10.137C57.4732 11.4856 57.4008 12.8342 57.4642 14.1828L57.5547 14.228C57.609 14.2461 57.7176 14.2824 57.7719 14.2914C58.5232 13.6397 59.3378 13.0424 60.1343 12.4631C60.9579 12.4721 61.7906 12.4088 62.6143 12.5445C61.6277 13.3682 60.5959 14.1647 59.5459 14.925C59.555 14.9702 59.564 15.0607 59.5731 15.106C60.7588 15.993 61.9264 16.9162 63.0668 17.8666C62.2522 17.9752 61.4195 17.9299 60.6049 17.939C59.6093 17.2873 58.7766 16.4094 57.7991 15.7305C57.7448 15.7305 57.6271 15.7215 57.5728 15.7215H57.4551C57.437 16.4546 57.4551 17.1968 57.4461 17.9299C56.8578 17.9299 56.2875 17.9299 55.6992 17.9299C55.6992 15.3413 55.6992 12.7437 55.7083 10.137Z" fill="white"/>
<path id="Vector_19" d="M75.1575 10.49C75.7096 10.2365 76.3161 10.1551 76.9225 10.1279C77.1216 10.1279 77.5108 10.1279 77.7099 10.137C78.4521 10.146 79.2034 10.137 79.9456 10.137C80.1447 10.137 80.5339 10.137 80.733 10.1279C81.4842 10.1732 82.3169 10.2456 82.9143 10.7706C83.4302 11.3498 83.4393 12.1916 83.5479 12.9338H83.4302C82.8238 12.9428 82.2083 12.9338 81.6019 12.9157C81.5567 12.798 81.5204 12.6713 81.4842 12.5536C81.448 12.0287 80.8688 11.8567 80.4253 11.8567C79.4025 11.739 78.3526 11.7209 77.3298 11.8476C76.7777 11.8929 76.0083 12.1011 76.0445 12.798C75.9178 13.5854 75.9269 14.4 76.0445 15.1875C76.0807 15.5314 76.1079 16.0111 76.5061 16.1288C77.538 16.4365 78.6332 16.2827 79.6921 16.3189C80.0813 16.3098 80.5067 16.3732 80.8959 16.2465C81.4842 16.1922 81.5657 15.5043 81.5748 15.0336C82.2264 15.0336 82.8872 15.0336 83.5388 15.0336C83.5569 15.8573 83.5569 16.8257 82.9324 17.4593C81.7467 18.2649 80.2171 18.0024 78.8775 18.0657C77.4022 18.0386 75.6825 18.292 74.4696 17.233C74.1076 16.699 73.9718 16.0202 73.9809 15.3866C73.9809 14.4906 73.9809 13.6035 73.9809 12.7075C73.9718 11.8476 74.2705 10.8158 75.1575 10.49Z" fill="white"/>
<path id="Vector_20" d="M16.1916 12.4452C17.1058 12.228 18.1285 12.1555 18.9974 12.5809C19.5496 12.7801 19.8301 13.4227 19.812 13.9748C19.803 14.3188 19.812 14.6717 19.803 15.0157C19.2237 15.0247 18.6445 15.0338 18.0652 15.0066C18.0742 14.708 18.0652 14.4002 18.038 14.1015C17.5674 13.6852 16.8795 13.8934 16.3002 13.8481C15.7843 13.8753 15.4494 14.3821 15.4494 14.8709C15.2955 15.8846 15.3951 16.9074 15.368 17.9301C14.7796 17.9301 14.2004 17.9301 13.6211 17.9301C13.6211 16.1018 13.6211 14.2826 13.6211 12.4542C14.2004 12.4542 14.7796 12.4542 15.3589 12.4542C15.368 12.6171 15.377 12.771 15.3861 12.9339C15.6395 12.7439 15.8658 12.5085 16.1916 12.4452Z" fill="white"/>
<g id="Group_15">
<path id="Vector_21" d="M94.9643 12.7532C95.4531 12.192 96.2948 12.4093 96.9465 12.2373C97.8425 12.3369 98.7929 12.2373 99.6256 12.6989C100.277 12.9252 100.531 13.7036 100.558 14.3372C100.549 14.8802 100.549 15.4233 100.558 15.9664C100.585 16.4189 100.359 16.8262 100.187 17.2245C99.6799 17.8942 98.7839 18.0391 97.9964 18.0662C97.4896 18.0572 96.9827 18.0662 96.4849 18.0662C95.8785 18.1658 95.3716 17.8399 94.8466 17.6137L94.7471 17.5865C94.729 18.4826 94.738 19.3786 94.738 20.2837C94.1497 20.2928 93.5795 20.3018 92.9912 20.2747C92.9821 17.677 92.9821 15.0793 92.9912 12.4726C93.5523 12.4817 94.1316 12.4364 94.7018 12.4907C94.7199 12.6446 94.7561 12.9433 94.9643 12.7532ZM95.1634 13.957C94.7833 14.31 94.8376 14.9255 94.8466 15.3871C94.6747 16.0297 95.2811 16.6633 95.9147 16.5637C96.0323 16.781 96.4849 16.7085 96.7021 16.6271C96.9827 16.609 97.743 16.9167 97.7611 16.5547C98.6752 16.7085 98.9015 15.5953 98.7296 14.9074C98.7477 14.5091 98.5485 13.7579 97.9964 13.8756C97.8787 13.5769 97.1999 13.8665 96.9193 13.785C96.3401 13.7307 95.6884 13.7217 95.1634 13.957Z" fill="white"/>
</g>
<g id="Group_16">
<path id="Vector_22" d="M48.0038 12.6987C48.4926 12.4 49.0809 12.3638 49.633 12.3457C50.1851 12.3548 50.7282 12.3457 51.2803 12.3457C51.4794 12.3457 51.8686 12.3457 52.0677 12.3367C53.0543 12.2824 54.421 12.6987 54.5387 13.8573C54.6926 14.9887 54.8645 16.3373 54.1585 17.3329C53.5883 17.9393 52.647 18.0751 51.8505 18.057C51.1536 18.0479 50.4476 18.057 49.7507 18.057C49.0809 18.0208 48.3568 17.9665 47.7956 17.5682C47.2344 17.0976 47.0534 16.3192 47.0715 15.6041C47.0715 15.2964 47.0715 14.9796 47.0715 14.6719C47.0987 13.9478 47.2435 13.0065 48.0038 12.6987ZM49.9498 13.812C49.4339 13.7577 48.8727 14.1288 48.9361 14.6809L48.8274 14.69C48.9089 14.9705 48.5559 15.7218 48.9361 15.7399C48.8727 16.2558 49.3796 16.6541 49.8683 16.5545V16.6631C50.4838 16.6722 51.1083 16.6722 51.7328 16.6631V16.5545C52.294 16.6903 52.7375 16.2739 52.7828 15.7399C52.7466 15.1968 52.8733 14.5542 52.5746 14.0745C51.8143 13.5405 50.8096 13.7577 49.9498 13.812Z" fill="white"/>
</g>
</g>
<g id="Group_17">
<path id="Vector_23" d="M57.4476 10.1458L57.5652 10.1367C57.5652 11.5034 57.5833 12.8611 57.5652 14.2278L57.4747 14.1826C57.4023 12.843 57.4747 11.4944 57.4476 10.1458Z" fill="white"/>
<path id="Vector_24" d="M104.172 12.3544C104.507 12.3363 104.869 12.3363 105.222 12.3544C105.104 12.644 104.443 12.3634 104.172 12.4721V12.3544Z" fill="white"/>
<path id="Vector_25" d="M94.7379 17.5771L94.8374 17.6043C94.8465 18.4913 94.8555 19.3783 94.8374 20.2744H94.7288C94.7288 19.3693 94.7198 18.4732 94.7379 17.5771Z" fill="white"/>
</g>
<g id="Group_18">
<path id="Vector_26" d="M101.605 10.1367H101.714C101.705 10.6345 101.714 11.1414 101.714 11.6483H101.596C101.596 11.1504 101.587 10.6436 101.605 10.1367Z" fill="white"/>
</g>
<g id="Group_19">
<path id="Vector_27" d="M101.726 10.138C102.306 10.1289 102.885 10.1199 103.473 10.147C103.473 10.6448 103.5 11.1517 103.473 11.6495C102.885 11.6495 102.315 11.6495 101.735 11.6495C101.726 11.1426 101.717 10.6448 101.726 10.138Z" fill="white"/>
<path id="Vector_28" d="M119.781 10.1374C120.361 10.1284 120.949 10.1193 121.528 10.1374C121.528 12.7351 121.528 15.3327 121.528 17.9394C120.94 17.9394 120.361 17.9394 119.781 17.9394C119.781 15.3418 119.781 12.7441 119.781 10.1374Z" fill="white"/>
<path id="Vector_29" d="M27.6335 12.4823C28.2128 12.4461 28.7921 12.4823 29.3713 12.4732C29.3804 14.3015 29.3804 16.1208 29.3713 17.9491C28.7921 17.9491 28.2128 17.9491 27.6245 17.9491C27.6335 16.1208 27.6064 14.3015 27.6335 12.4823Z" fill="white"/>
<path id="Vector_30" d="M101.728 12.4823C102.307 12.4461 102.877 12.4823 103.466 12.4732C103.475 14.3015 103.475 16.1208 103.466 17.9491C102.877 17.9491 102.307 17.9491 101.719 17.9491C101.728 16.1208 101.71 14.3015 101.728 12.4823Z" fill="white"/>
</g>
<g id="Group_20">
<path id="Vector_31" d="M119.671 10.1367H119.789C119.789 12.7344 119.789 15.3411 119.789 17.9388H119.671C119.662 15.3411 119.662 12.7434 119.671 10.1367Z" fill="white"/>
</g>
<g id="Group_21">
<path id="Vector_32" d="M121.531 10.1458L121.649 10.1367C121.658 12.7434 121.658 15.3411 121.649 17.9478H121.54C121.531 15.3411 121.531 12.7434 121.531 10.1458Z" fill="white"/>
</g>
<g id="Group_22">
<path id="Vector_33" d="M21.3242 11.0695C21.9487 11.0605 22.5642 11.0605 23.1887 11.0695V11.1872C22.6095 11.1872 22.0302 11.1872 21.4419 11.1872H21.3242V11.0695Z" fill="white"/>
<path id="Vector_34" d="M23.4219 18.0666C23.8473 18.0576 24.2727 18.0576 24.7071 18.0666V18.1752C24.3903 18.1752 23.7477 18.1752 23.4309 18.1752L23.4219 18.0666Z" fill="white"/>
<path id="Vector_35" d="M49.7656 18.057C50.4626 18.057 51.1595 18.048 51.8655 18.057V18.1656C51.1685 18.1656 50.4716 18.1837 49.7747 18.1656L49.7656 18.057Z" fill="white"/>
<path id="Vector_36" d="M65.8359 18.0569C66.2975 18.0569 66.7682 18.0569 67.2389 18.0569V18.1655C66.8678 18.0388 65.9989 18.4189 65.8359 18.0569Z" fill="white"/>
</g>
<g id="Group_23">
<path id="Vector_37" d="M105.219 11.0695C105.834 11.0605 106.459 11.0605 107.083 11.0695V11.1872C106.459 11.1872 105.843 11.1872 105.228 11.1872L105.219 11.0695Z" fill="white"/>
</g>
<g id="Group_24">
<path id="Vector_38" d="M21.3354 11.1865H21.4531C21.3807 11.5576 21.5707 12.0373 21.3626 12.3813C21.3354 11.983 21.3173 11.5848 21.3354 11.1865Z" fill="white"/>
</g>
<g id="Group_25">
<path id="Vector_39" d="M21.4488 11.1865C22.0281 11.1865 22.6074 11.1865 23.1957 11.1865C23.1957 11.5757 23.1866 11.9649 23.1957 12.3541L23.2048 12.4627C24.3271 12.4808 25.4494 12.4627 26.5718 12.4718C26.5808 12.8972 26.5899 13.3226 26.5718 13.748C25.4494 13.7661 24.3271 13.7208 23.2048 13.757C23.1957 13.9109 23.1866 14.0648 23.1957 14.2186C23.3134 14.9699 22.9694 15.8207 23.3496 16.5176C23.9107 16.6805 24.8521 16.8978 25.1236 16.2008C25.205 15.9383 25.2231 15.6759 25.1779 15.4134C25.6395 15.3862 26.1102 15.3772 26.5808 15.3953C26.5808 15.8207 26.5808 16.2461 26.5808 16.6805C26.6261 17.64 25.5309 18.1106 24.7163 18.0835C24.2818 18.0744 23.8655 18.0744 23.431 18.0835C22.9332 18.1287 22.4807 17.9024 22.0281 17.7305C21.4398 17.4137 21.2678 16.6262 21.3583 16.0108C21.476 15.2686 21.4669 14.5173 21.4398 13.7751L21.3312 13.7661C20.9782 13.757 20.6342 13.7661 20.2812 13.757C20.2812 13.3316 20.2812 12.9062 20.2812 12.4808C20.6161 12.4265 21.0596 12.5894 21.3583 12.3903C21.5665 12.0373 21.3764 11.5576 21.4488 11.1865Z" fill="white"/>
<path id="Vector_40" d="M105.227 11.1865C105.843 11.1865 106.458 11.1865 107.083 11.1865C107.083 11.5757 107.083 11.9649 107.092 12.3541L107.101 12.4627C108.178 12.4899 109.264 12.4356 110.35 12.4718C110.35 12.7886 110.359 13.4221 110.359 13.7389C109.273 13.757 108.196 13.7208 107.119 13.748L107.101 13.8566C107.092 13.9381 107.073 14.101 107.055 14.1734C106.965 14.807 106.902 15.4767 107.046 16.1103C107.155 16.7801 108.105 16.7258 108.621 16.5629C109.21 16.4995 108.875 15.7845 108.965 15.3772C109.463 15.3772 109.97 15.35 110.468 15.3772C110.468 15.6849 110.468 15.9927 110.468 16.3004C110.685 17.4046 109.572 18.1106 108.603 18.0473C108.169 18.0382 107.752 18.0382 107.318 18.0473C106.594 18.0563 105.824 17.7938 105.372 17.2055C105.046 16.1194 105.299 14.9608 105.218 13.8566C105.182 13.4765 104.458 13.8385 104.168 13.7389C104.159 13.3135 104.168 12.8881 104.168 12.4627C104.44 12.3541 105.091 12.6347 105.218 12.3451C105.218 11.9649 105.209 11.5757 105.227 11.1865Z" fill="white"/>
</g>
<g id="Group_26">
<path id="Vector_41" d="M23.1966 11.1865C23.5405 11.2589 23.2328 12.0192 23.3142 12.3451H23.2056C23.1784 11.9649 23.1875 11.5757 23.1966 11.1865Z" fill="white"/>
</g>
<g id="Group_27">
<path id="Vector_42" d="M27.5078 11.6484H27.6255C28.2047 11.6484 28.784 11.6484 29.3633 11.6484L29.3723 11.7661C28.7478 11.7752 28.1323 11.7752 27.5078 11.7661V11.6484Z" fill="white"/>
<path id="Vector_43" d="M118.39 14.21H118.499C118.49 15.4862 118.517 16.7714 118.49 18.0476C117.865 18.0567 117.25 18.0567 116.625 18.0476L116.652 17.939C117.222 17.9481 117.793 17.9481 118.372 17.939C118.399 16.699 118.372 15.459 118.39 14.21Z" fill="white"/>
</g>
<g id="Group_28">
<path id="Vector_44" d="M101.609 11.6484H101.727C102.306 11.6484 102.886 11.6484 103.465 11.6484L103.474 11.7661C102.849 11.7752 102.225 11.7752 101.609 11.7661V11.6484Z" fill="white"/>
</g>
<g id="Group_29">
<path id="Vector_45" d="M77.332 11.8384C78.3548 11.7117 79.4047 11.7298 80.4275 11.8474C79.4047 11.8655 78.3548 11.9651 77.332 11.8384Z" fill="white"/>
</g>
<g id="Group_30">
<path id="Vector_46" d="M32.9844 12.3539C32.9934 11.9647 33.7809 12.3177 34.0615 12.2725C33.6994 12.3087 33.3464 12.3539 32.9844 12.3539Z" fill="white"/>
</g>
<g id="Group_31">
<path id="Vector_47" d="M34.0571 12.2734C34.1024 12.2734 34.1838 12.2734 34.2291 12.2734C34.5821 12.3187 34.9532 12.3639 35.3062 12.3549C35.813 12.3458 36.3108 12.4545 36.7815 12.6264C37.5599 12.9342 37.7771 13.9298 37.75 14.681C37.1345 14.6901 36.51 14.6901 35.8945 14.681C36.1751 13.8483 35.098 13.794 34.6002 13.7578C33.8942 13.8121 32.5003 13.5315 32.3465 14.5362C32.3103 14.9707 32.1383 15.4685 32.3465 15.8939C32.5727 16.8623 33.7765 16.4912 34.4825 16.6632C34.9079 16.5999 35.46 16.6994 35.7316 16.2921C35.9035 16.1473 35.8583 15.8939 36.0122 15.74C36.5824 15.74 37.1616 15.7129 37.7319 15.7491C37.75 15.9391 37.75 16.1292 37.75 16.3193C37.7771 17.6498 36.2565 18.1114 35.1795 18.0661C34.5549 18.0661 33.9395 18.0661 33.3149 18.0661C32.6089 18.0118 31.8396 18.0118 31.2332 17.5774C30.8078 17.152 30.4367 16.5908 30.5091 15.9663C30.5091 15.4232 30.5181 14.8802 30.5091 14.3371C30.4729 13.8302 30.7444 13.3777 31.016 12.9704C31.559 12.5359 32.256 12.3458 32.9529 12.3639C33.3421 12.3549 33.6951 12.3096 34.0571 12.2734Z" fill="white"/>
</g>
<g id="Group_32">
<path id="Vector_48" d="M34.2305 12.2726C34.5111 12.345 35.1989 12.0553 35.3075 12.354C34.9546 12.354 34.5835 12.3088 34.2305 12.2726Z" fill="white"/>
<path id="Vector_49" d="M68.3984 15.9651C68.8329 15.9651 69.7108 15.9561 70.1453 15.9561V16.0737C69.566 16.0737 68.9868 16.0737 68.4165 16.0737L68.3984 15.9651Z" fill="white"/>
</g>
<g id="Group_33">
<path id="Vector_50" d="M49.6458 12.237C50.1888 12.2551 50.75 12.1736 51.284 12.2732V12.3456C50.7319 12.3456 50.1888 12.3547 49.6367 12.3456L49.6458 12.237Z" fill="white"/>
</g>
<g id="Group_34">
<path id="Vector_51" d="M51.2812 12.2733C51.4985 12.2009 51.942 12.1195 52.0687 12.3367C51.8696 12.3367 51.4804 12.3367 51.2812 12.3457V12.2733Z" fill="white"/>
</g>
<g id="Group_35">
<path id="Vector_52" d="M65.2578 12.2366C66.1448 12.2366 67.0409 12.2185 67.9369 12.2366V12.3452C67.0409 12.3542 66.1539 12.3542 65.2578 12.3452V12.2366Z" fill="white"/>
</g>
<g id="Group_36">
<path id="Vector_53" d="M86.9258 12.3451C86.9258 11.9649 87.6951 12.3179 87.9757 12.2364V12.3451C87.6137 12.3541 87.2788 12.3541 86.9258 12.3451Z" fill="white"/>
</g>
<g id="Group_37">
<path id="Vector_54" d="M87.9766 12.237C88.4744 12.228 88.9812 12.2189 89.4881 12.237V12.3456C88.9812 12.3456 88.4744 12.3547 87.9766 12.3456V12.237Z" fill="white"/>
</g>
<g id="Group_38">
<path id="Vector_55" d="M115.211 12.2636C115.6 12.2455 116.007 12.2183 116.406 12.2364V12.3451C116.007 12.3632 115.591 12.3269 115.211 12.2636Z" fill="white"/>
</g>
<g id="Group_39">
<path id="Vector_56" d="M13.6406 12.3552C14.2199 12.3461 14.8082 12.3371 15.3875 12.3552L15.3784 12.4638C14.7992 12.4638 14.2199 12.4638 13.6406 12.4638V12.3552Z" fill="white"/>
</g>
<g id="Group_40">
<path id="Vector_57" d="M20.1674 13.7484C20.3031 13.3954 19.923 12.4993 20.276 12.3545V12.4722C20.276 12.8976 20.2669 13.323 20.276 13.7484H20.1674Z" fill="white"/>
<path id="Vector_58" d="M64.7981 15.6126C66.6264 15.5945 68.4457 15.6216 70.274 15.6035L70.265 15.7212C68.4367 15.7302 66.6083 15.7302 64.7891 15.7212L64.7981 15.6126Z" fill="white"/>
</g>
<g id="Group_41">
<path id="Vector_59" d="M20.2812 12.355C20.6342 12.346 21.0053 12.3369 21.3583 12.3822C21.0596 12.5813 20.6252 12.4184 20.2812 12.4727V12.355Z" fill="white"/>
<path id="Vector_60" d="M81.5586 14.9167C82.2193 14.9077 82.8801 14.8986 83.5408 14.9167V15.0253C82.8801 15.0253 82.2284 15.0253 81.5767 15.0253L81.5586 14.9167Z" fill="white"/>
</g>
<g id="Group_42">
<path id="Vector_61" d="M23.1953 12.3545H23.3039C24.3901 12.3635 25.4762 12.3454 26.5714 12.3635V12.4722C25.449 12.4631 24.3267 12.4812 23.2044 12.4631L23.1953 12.3545Z" fill="white"/>
</g>
<g id="Group_43">
<path id="Vector_62" d="M27.5153 12.3547C28.1308 12.3456 28.7553 12.3456 29.3708 12.3547V12.4724C28.7915 12.4814 28.2123 12.4452 27.633 12.4814C27.6149 14.3007 27.633 16.1199 27.624 17.9483H27.5063C27.5063 16.0837 27.4972 14.2192 27.5153 12.3547Z" fill="white"/>
</g>
<g id="Group_44">
<path id="Vector_63" d="M60.125 12.3544C60.9758 12.3453 61.8357 12.3363 62.6955 12.3544C62.9399 12.2548 62.7046 12.6168 62.6141 12.5535C61.7904 12.4177 60.9577 12.4811 60.1341 12.472L60.125 12.3544Z" fill="white"/>
</g>
<g id="Group_45">
<path id="Vector_64" d="M92.9844 12.3546C93.5908 12.3365 94.2063 12.3455 94.8217 12.3636C94.8579 12.4994 94.9122 12.6261 94.9666 12.7528C94.7584 12.952 94.7222 12.6533 94.7041 12.4904C94.1339 12.4361 93.5546 12.4813 92.9934 12.4723L92.9844 12.3546Z" fill="white"/>
</g>
<g id="Group_46">
<path id="Vector_65" d="M101.617 12.3547C102.232 12.3456 102.857 12.3456 103.472 12.3547V12.4724C102.884 12.4814 102.313 12.4452 101.734 12.4814C101.716 14.3007 101.734 16.1199 101.725 17.9483H101.607C101.607 16.0837 101.598 14.2192 101.617 12.3547Z" fill="white"/>
</g>
<g id="Group_47">
<path id="Vector_66" d="M104.061 13.7484C104.205 13.4225 103.78 12.4631 104.169 12.3545V12.4722C104.169 12.8976 104.16 13.323 104.169 13.7484H104.061Z" fill="white"/>
</g>
<g id="Group_48">
<path id="Vector_67" d="M107.086 12.3545C108.208 12.3545 109.331 12.3364 110.462 12.3636C110.471 12.8252 110.471 13.2868 110.462 13.7575H110.353C110.353 13.4407 110.353 12.8071 110.344 12.4903C109.258 12.4451 108.172 12.5084 107.095 12.4813L107.086 12.3545Z" fill="white"/>
</g>
<g id="Group_49">
<path id="Vector_68" d="M81.4878 12.5449C81.524 12.6716 81.5602 12.7893 81.6054 12.907C82.2119 12.9251 82.8183 12.9341 83.4338 12.9251V13.0337C82.773 13.0337 82.1123 13.0518 81.4516 13.0337C81.4425 12.8798 81.4606 12.7169 81.4878 12.5449Z" fill="white"/>
</g>
<g id="Group_50">
<path id="Vector_69" d="M73.8815 12.6982H73.9901C73.9901 13.5943 73.9901 14.4813 73.9901 15.3774H73.8815C73.8725 14.4904 73.8544 13.5943 73.8815 12.6982Z" fill="white"/>
</g>
<g id="Group_51">
<path id="Vector_70" d="M76.0565 15.1786C75.9389 14.3911 75.9298 13.5765 76.0565 12.7891C76.0837 13.5765 76.1561 14.3821 76.0565 15.1786Z" fill="white"/>
</g>
<g id="Group_52">
<path id="Vector_71" d="M66.0703 13.5127C66.3599 13.5398 66.9483 13.5942 67.2379 13.6213C66.8397 13.6213 66.4595 13.6304 66.0703 13.6213V13.5127Z" fill="white"/>
</g>
<g id="Group_53">
<path id="Vector_72" d="M20.2812 13.7484C20.6342 13.7484 20.9782 13.7393 21.3312 13.7574V13.866C21.0506 13.7665 20.3899 14.038 20.2812 13.7484Z" fill="white"/>
<path id="Vector_73" d="M107.1 13.7577C108.177 13.7215 109.263 13.7577 110.34 13.7486H110.449L110.458 13.8572C109.336 13.8572 108.204 13.8663 107.082 13.8572L107.1 13.7577Z" fill="white"/>
</g>
<g id="Group_54">
<path id="Vector_74" d="M21.3332 13.749L21.4418 13.7581C21.4689 14.5003 21.478 15.2515 21.3603 15.9937C21.3241 15.2877 21.3241 14.5727 21.3332 13.8667V13.749Z" fill="white"/>
</g>
<g id="Group_55">
<path id="Vector_75" d="M23.2064 13.7577C24.3287 13.7215 25.4511 13.7667 26.5734 13.7486L26.5825 13.8572C25.5325 13.8753 24.4826 13.8482 23.4417 13.8663C23.1702 13.7848 23.4689 14.2917 23.1974 14.2102C23.1883 14.0654 23.1883 13.9115 23.2064 13.7577Z" fill="white"/>
</g>
<g id="Group_56">
<path id="Vector_76" d="M41.6797 13.8209C42.2318 13.6489 42.8292 13.7394 43.3813 13.8299C42.8201 13.848 42.2409 13.9295 41.6797 13.8209Z" fill="white"/>
</g>
<g id="Group_57">
<path id="Vector_77" d="M96.9219 13.7756C97.2025 13.8571 97.8813 13.5675 97.9989 13.8661C97.6369 13.8752 97.2658 13.8299 96.9219 13.7756Z" fill="white"/>
</g>
<g id="Group_58">
<path id="Vector_78" d="M104.062 13.7489H104.171C104.461 13.8484 105.176 13.4955 105.221 13.8666C104.823 13.8756 104.452 13.8756 104.062 13.8575V13.7489Z" fill="white"/>
</g>
<g id="Group_59">
<path id="Vector_79" d="M19.8193 13.9834C20.1904 13.9924 19.8464 14.7527 19.9279 15.0333H19.8193C19.8102 14.6803 19.8102 14.3273 19.8193 13.9834Z" fill="white"/>
</g>
<g id="Group_60">
<path id="Vector_80" d="M45.9159 14.2102H46.0246C46.0155 15.4864 46.0427 16.7717 46.0155 18.0479C45.391 18.0569 44.7755 18.0569 44.16 18.0479V17.9302C44.7393 17.9302 45.3186 17.9393 45.8978 17.9302C45.934 16.6993 45.8978 15.4593 45.9159 14.2102Z" fill="white"/>
</g>
<g id="Group_61">
<path id="Vector_81" d="M68.328 14.2456L68.4186 14.2275C68.4095 14.2818 68.4005 14.3905 68.4005 14.4357C67.1967 14.4538 65.9929 14.4448 64.7981 14.4357L64.7891 14.3181C65.9657 14.309 67.1514 14.4086 68.328 14.2456Z" fill="white"/>
</g>
<g id="Group_62">
<path id="Vector_82" d="M84.8462 14.21C85.4074 14.219 85.9595 14.219 86.5297 14.2281C86.5931 14.2552 86.7289 14.3186 86.7922 14.3457L86.8194 14.4453C86.7379 14.4362 86.5659 14.4272 86.4845 14.4181C85.9324 14.2914 85.3802 14.3548 84.8281 14.3186L84.8462 14.21Z" fill="white"/>
</g>
<g id="Group_63">
<path id="Vector_83" d="M107.036 16.1205C106.891 15.487 106.964 14.8172 107.045 14.1836C107.063 14.8262 107.145 15.4779 107.036 16.1205Z" fill="white"/>
</g>
<g id="Group_64">
<path id="Vector_84" d="M111.508 14.21C112.078 14.21 112.639 14.219 113.209 14.2371C113.517 14.3819 113.843 14.3186 114.187 14.3276V14.4453C113.852 14.4453 113.49 14.4272 113.164 14.4091C112.612 14.2914 112.06 14.3457 111.508 14.3186V14.21Z" fill="white"/>
<path id="Vector_85" d="M113.728 15.6125C114.461 15.6125 115.203 15.5944 115.936 15.6125V15.7212C115.194 15.7212 114.461 15.7302 113.719 15.7212L113.728 15.6125Z" fill="white"/>
</g>
<g id="Group_65">
<path id="Vector_86" d="M30.4221 14.3369H30.5307C30.5398 14.88 30.5307 15.423 30.5307 15.9661H30.4221C30.4221 15.414 30.404 14.88 30.4221 14.3369Z" fill="white"/>
</g>
<g id="Group_66">
<path id="Vector_87" d="M86.7891 14.3463C87.5041 14.3373 88.2191 14.292 88.9251 14.4187C88.2191 14.4549 87.5131 14.473 86.8072 14.4459L86.7891 14.3463Z" fill="white"/>
</g>
<g id="Group_67">
<path id="Vector_88" d="M100.559 14.3271H100.667C100.658 14.8702 100.685 15.4133 100.667 15.9563H100.559C100.559 15.4223 100.55 14.8702 100.559 14.3271Z" fill="white"/>
</g>
<g id="Group_68">
<path id="Vector_89" d="M114.188 14.3369C114.658 14.3369 115.138 14.3369 115.618 14.4184C115.138 14.4365 114.667 14.4546 114.197 14.4546L114.188 14.3369Z" fill="white"/>
</g>
<g id="Group_69">
<path id="Vector_90" d="M44.0992 14.4092C44.3165 15.5677 44.0902 16.7715 44.1716 17.9391V18.0568L44.063 18.0658C44.063 16.8439 44.0087 15.622 44.0992 14.4092Z" fill="white"/>
</g>
<g id="Group_70">
<path id="Vector_91" d="M32.3589 15.884C32.1507 15.4677 32.3227 14.9608 32.3589 14.5264C32.3861 14.9789 32.4404 15.4405 32.3589 15.884Z" fill="white"/>
</g>
<g id="Group_71">
<path id="Vector_92" d="M46.9689 14.6807H47.0775C47.0775 14.9884 47.0775 15.3052 47.0775 15.6129C46.824 15.5134 47.0232 14.9612 46.9689 14.6807Z" fill="white"/>
</g>
<g id="Group_72">
<path id="Vector_93" d="M48.8308 14.6809L48.9395 14.6719C48.9395 15.0249 48.9304 15.3688 48.9395 15.7218C48.5593 15.7128 48.9214 14.9706 48.8308 14.6809Z" fill="white"/>
</g>
<g id="Group_73">
<path id="Vector_94" d="M5.95312 15.0248C5.97123 14.9795 6.00743 14.889 6.02553 14.8438C7.10261 15.0519 8.234 14.8528 9.32918 14.9162L9.32013 15.0338C8.1978 15.0248 7.07546 15.0519 5.95312 15.0248Z" fill="white"/>
</g>
<g id="Group_74">
<path id="Vector_95" d="M62.8176 14.7979H62.9262C62.9353 15.1508 62.9172 15.4948 62.9262 15.8478C62.537 15.8297 62.899 15.0875 62.8176 14.7979Z" fill="white"/>
</g>
<g id="Group_75">
<path id="Vector_96" d="M15.3852 17.9392C15.4033 16.9164 15.3128 15.8936 15.4667 14.8799C15.5301 15.9027 15.5029 16.9164 15.5029 17.9392H15.3852Z" fill="white"/>
</g>
<g id="Group_76">
<path id="Vector_97" d="M40.5491 17.9394C40.5853 16.9619 40.4857 15.9753 40.6396 15.0068C40.7029 16.0206 40.6758 17.0433 40.6758 18.0661C40.0513 18.0752 39.4358 18.0752 38.8203 18.0661V17.9484C39.3905 17.9484 39.9698 17.9484 40.5491 17.9394Z" fill="white"/>
<path id="Vector_98" d="M101.605 17.9482H101.723C102.302 17.9482 102.882 17.9482 103.47 17.9482L103.479 18.0659C102.855 18.075 102.23 18.075 101.615 18.0659L101.605 17.9482Z" fill="white"/>
</g>
<g id="Group_77">
<path id="Vector_99" d="M25.1178 16.1917C25.0182 15.9836 24.9277 15.4948 25.1721 15.4043C25.2174 15.6668 25.2083 15.9293 25.1178 16.1917Z" fill="white"/>
</g>
<g id="Group_78">
<path id="Vector_100" d="M26.5742 15.3777H26.6918C26.6918 15.6945 26.6918 16.3371 26.6918 16.6539L26.5832 16.6629C26.5742 16.2375 26.5651 15.8031 26.5742 15.3777Z" fill="white"/>
</g>
<g id="Group_79">
<path id="Vector_101" d="M110.461 15.3867C110.723 15.4682 110.524 16.0384 110.57 16.3099H110.461C110.461 16.0022 110.461 15.6945 110.461 15.3867Z" fill="white"/>
<path id="Vector_102" d="M113.375 18.0568C114 18.0568 114.615 18.0477 115.24 18.0568V18.1654C114.615 18.1744 114 18.1744 113.375 18.1654V18.0568Z" fill="white"/>
</g>
<g id="Group_80">
<path id="Vector_103" d="M36.0078 15.622C36.6323 15.6039 37.2478 15.6039 37.8723 15.622C37.8723 15.7939 37.8723 16.1469 37.8723 16.3189H37.7637C37.7547 16.1288 37.7547 15.9388 37.7456 15.7487C37.1754 15.7125 36.5961 15.7396 36.0259 15.7396L36.0078 15.622Z" fill="white"/>
</g>
<g id="Group_81">
<path id="Vector_104" d="M86.9269 15.613C87.7053 15.6039 88.4746 15.6039 89.253 15.613V15.7216C88.4746 15.7307 87.6962 15.7307 86.9178 15.7216L86.9269 15.613Z" fill="white"/>
</g>
<g id="Group_82">
<path id="Vector_105" d="M57.4558 15.7305H57.5734C57.5644 16.4636 57.5915 17.2058 57.5644 17.948H57.4558C57.4467 17.2058 57.4377 16.4636 57.4558 15.7305Z" fill="white"/>
</g>
<g id="Group_83">
<path id="Vector_106" d="M79.7031 16.3098C79.7936 15.975 80.572 16.2555 80.9069 16.2374C80.5177 16.3642 80.0923 16.3008 79.7031 16.3098Z" fill="white"/>
</g>
<g id="Group_84">
<path id="Vector_107" d="M49.8711 16.5449C50.4956 16.5358 51.1111 16.5358 51.7356 16.5449V16.6535C51.1111 16.6625 50.4956 16.6625 49.8711 16.6535V16.5449Z" fill="white"/>
</g>
<g id="Group_85">
<path id="Vector_108" d="M95.9141 16.554C96.1132 16.554 96.5024 16.5449 96.7015 16.5449V16.6173C96.4843 16.6988 96.0317 16.7712 95.9141 16.554Z" fill="white"/>
</g>
<g id="Group_86">
<path id="Vector_109" d="M96.7031 16.5449C97.0561 16.5449 97.4001 16.5449 97.7621 16.5449C97.7349 16.907 96.9837 16.5992 96.7031 16.6173V16.5449Z" fill="white"/>
</g>
<g id="Group_87">
<path id="Vector_110" d="M86.8086 16.6631C87.6232 16.6631 88.4378 16.6631 89.2614 16.6631V16.7717C88.4468 16.7807 87.6322 16.7807 86.8176 16.7717L86.8086 16.6631Z" fill="white"/>
</g>
<g id="Group_88">
<path id="Vector_111" d="M113.492 16.6632C114.307 16.6632 115.121 16.6542 115.945 16.6632V16.7718C115.13 16.7809 114.316 16.7809 113.501 16.7718L113.492 16.6632Z" fill="white"/>
</g>
<g id="Group_89">
<path id="Vector_112" d="M13.3318 17.8577L13.4224 17.8486C13.4133 17.9029 13.4133 18.0025 13.4043 18.0568C12.6259 18.0749 11.8475 18.0749 11.0781 18.0568L11.1053 17.9482C11.8384 17.9482 12.5897 17.9935 13.3318 17.8577Z" fill="white"/>
</g>
<g id="Group_90">
<path id="Vector_113" d="M63.0608 17.8755C63.3685 17.8212 63.5133 18.6991 62.6897 18.0656C61.9837 18.0565 61.2868 18.0837 60.5898 18.0565L60.5989 17.9479C61.4225 17.9388 62.2462 17.9841 63.0608 17.8755Z" fill="white"/>
<path id="Vector_114" d="M13.6409 17.9385C14.2201 17.9385 14.7994 17.9385 15.3877 17.9385V18.0561C14.9533 18.0561 14.0753 18.0561 13.6409 18.0561V17.9385Z" fill="white"/>
<path id="Vector_115" d="M55.7109 17.9385C56.2902 17.9385 56.8695 17.9385 57.4578 17.9385H57.5664L57.5755 18.0471C56.9509 18.0561 56.3264 18.0561 55.7109 18.0471V17.9385Z" fill="white"/>
</g>
<g id="Group_91">
<path id="Vector_116" d="M1.875 18.0571C1.90215 18.03 1.95646 17.9666 1.98361 17.9395C2.75296 17.9485 3.53135 17.9395 4.30069 17.9395L4.32785 18.0481C3.51325 18.0662 2.6896 18.0662 1.875 18.0571Z" fill="white"/>
</g>
<g id="Group_92">
<path id="Vector_117" d="M27.5078 17.9482H27.6255C28.2047 17.9482 28.784 17.9482 29.3723 17.9482L29.3814 18.0659C28.7569 18.075 28.1414 18.075 27.5169 18.0659L27.5078 17.9482Z" fill="white"/>
<path id="Vector_118" d="M119.676 17.9482H119.793C120.373 17.9482 120.952 17.9482 121.54 17.9482V18.0659C120.916 18.075 120.291 18.075 119.676 18.0659V17.9482Z" fill="white"/>
</g>
<g id="Group_93">
<path id="Vector_119" d="M89.97 17.9395C90.5493 17.9485 91.1285 17.9395 91.7078 17.9395V18.0571C91.2733 18.0571 90.3954 18.0571 89.9609 18.0571L89.97 17.9395Z" fill="white"/>
</g>
<g id="Group_94">
<path id="Vector_120" d="M33.3281 18.0566C33.9527 18.0566 34.5681 18.0566 35.1926 18.0566V18.1653C34.5681 18.1743 33.9527 18.1743 33.3281 18.1653V18.0566Z" fill="white"/>
</g>
<g id="Group_95">
<path id="Vector_121" d="M86.6914 18.0566C87.2707 18.0566 87.8499 18.0566 88.4383 18.0566V18.1653C88.0038 18.1653 87.1259 18.1653 86.6914 18.1653V18.0566Z" fill="white"/>
</g>
</g>
</svg>
