<svg width="116" height="20" viewBox="0 0 116 20" fill="none" xmlns="http://www.w3.org/2000/svg">
<g id="UOB_Logo" opacity="0.5" clip-path="url(#clip0_4523_31989)">
<g id="Group">
<path id="Vector" d="M3.04794 0.722283C3.0348 0.170527 3.7442 0.170527 4.13831 0.170527C4.50615 0.170527 5.14986 0.223076 5.12359 0.722283C5.12359 3.37596 5.12359 6.04278 5.12359 8.69646C5.68848 8.69646 6.25337 8.69646 6.81827 8.69646C6.8314 6.04278 6.81827 3.37596 6.81827 0.709146C6.77885 0.38072 7.15983 0.223076 7.42257 0.183665C7.85609 0.144253 8.32902 0.104842 8.73627 0.315035C8.93333 0.420131 8.9596 0.630324 8.94646 0.827379C8.94646 3.44165 8.94646 6.05592 8.94646 8.68332C9.49822 8.68332 10.05 8.68332 10.6017 8.68332C10.6017 6.02964 10.5886 3.37596 10.6017 0.722283C10.5623 0.446405 10.8382 0.262487 11.0878 0.223076C11.5345 0.144253 12.0205 0.131116 12.4409 0.315035C12.7037 0.433268 12.6905 0.748557 12.6905 0.985023C12.6905 3.55988 12.6905 6.13474 12.6905 8.69646C13.2423 8.68332 13.8072 8.68332 14.3589 8.69646C14.3589 6.04278 14.3458 3.37596 14.3589 0.722283C14.3326 0.420131 14.6348 0.236213 14.8975 0.209939C15.3311 0.144253 15.8171 0.131116 16.2244 0.301898C16.4477 0.393857 16.4346 0.656598 16.4346 0.853653C16.4214 3.46792 16.4346 6.08219 16.4214 8.69646C17.2622 8.72274 18.103 8.65705 18.9437 8.72274C19.3904 8.99861 19.2984 9.60292 19.2984 10.0496C19.2722 10.3386 19.2196 10.8115 18.8386 10.8247C18.0373 10.8509 17.2228 10.7852 16.4214 10.8509C16.4346 13.5178 16.4346 16.1846 16.4214 18.8382C16.4214 19.3243 15.7777 19.3375 15.423 19.3506C15.0552 19.3375 14.4509 19.3637 14.3589 18.8908C14.3195 16.1977 14.3721 13.5046 14.3326 10.8247C13.7809 10.8247 13.2291 10.8247 12.6774 10.8247C12.6642 13.4127 12.6774 16.0138 12.6774 18.6018C12.6642 18.812 12.6905 19.0747 12.4672 19.1929C12.0862 19.4031 11.6396 19.3637 11.2192 19.3375C10.9564 19.3112 10.5755 19.1929 10.5886 18.8514C10.5755 16.1977 10.5755 13.5309 10.5886 10.8641C10.0368 10.7984 9.48508 10.7984 8.93333 10.8509C8.93333 13.5178 8.94647 16.1846 8.93333 18.8382C8.92019 19.3243 8.28961 19.3375 7.93491 19.3506C7.5408 19.3506 6.8314 19.3769 6.80513 18.8382C6.79199 16.1583 6.80513 13.4915 6.79199 10.8115C6.2271 10.8115 5.67534 10.8115 5.11045 10.8115C5.09731 13.4783 5.11045 16.1583 5.09731 18.8251C5.09731 19.298 4.46674 19.3243 4.11204 19.3375C3.71793 19.3375 3.08735 19.3506 3.02166 18.8382C3.00853 16.1583 3.0348 13.4783 3.00853 10.7984C2.23344 10.7984 1.45836 10.7984 0.696409 10.8115C0.276024 10.8509 0.184064 10.3649 0.144653 10.0496C0.15779 9.61605 0.105242 9.0643 0.473079 8.73587C1.32699 8.63078 2.19403 8.72274 3.04794 8.69646C3.04794 6.02964 3.0348 3.37596 3.04794 0.722283Z" fill="white"/>
</g>
<g id="Group_2">
<path id="Vector_2" d="M24.4218 1.72154C25.1574 1.66899 25.9851 1.59017 26.6288 2.02369C26.8127 2.14192 26.839 2.36525 26.8258 2.54917C26.8258 5.9648 26.8258 9.38043 26.8258 12.7961C26.8258 13.3609 26.8652 14.0309 27.3382 14.425C28.3235 15.279 29.716 15.3446 30.9509 15.1739C31.6209 15.0294 32.3303 14.7929 32.7769 14.2411C33.1053 13.847 33.1316 13.3084 33.1316 12.8223C33.1447 9.35415 33.1185 5.88598 33.1447 2.43094C33.1579 1.94487 33.7359 1.8135 34.1169 1.72154C34.7737 1.66899 35.4569 1.65585 36.0874 1.86604C36.4027 1.94487 36.6129 2.24702 36.5604 2.56231C36.5604 5.80715 36.5735 9.052 36.5604 12.2968C36.5472 13.5974 36.4159 15.0425 35.5094 16.0672C34.6424 17.1181 33.2893 17.5911 31.9756 17.7356C30.4911 17.8932 28.9934 17.8932 27.5221 17.6436C26.2741 17.4334 25.0786 16.7766 24.3429 15.7388C23.3839 14.2674 23.5022 12.4019 23.4365 10.7204C23.4365 8.00104 23.4365 5.29481 23.4365 2.57544C23.3577 1.99742 23.9882 1.80036 24.4218 1.72154Z" fill="white"/>
<g id="Group_3">
<path id="Vector_3" d="M44.2342 1.66866C46.4675 1.44534 48.9898 1.56357 50.8158 3.04805C52.4317 4.40117 52.9178 6.59505 53.036 8.60502C53.1411 10.9171 52.9966 13.4263 51.6566 15.3969C50.5925 16.9733 48.6876 17.7747 46.8222 17.8798C44.7728 18.0505 42.5264 17.8404 40.858 16.5267C39.3866 15.3837 38.7035 13.5314 38.4933 11.7316C38.27 9.85304 38.3094 7.90876 38.8086 6.06957C39.2027 4.65077 40.0566 3.32393 41.3309 2.57512C42.2242 2.06278 43.2226 1.7869 44.2342 1.66866ZM44.2736 4.09902C43.4591 4.28293 42.7366 4.80842 42.3424 5.54409C41.7776 6.63446 41.6725 7.90876 41.6462 9.11736C41.633 10.6807 41.6462 12.3228 42.3293 13.7547C42.7891 14.7269 43.8007 15.3312 44.8516 15.4494C46.0996 15.5939 47.5447 15.5282 48.5037 14.5955C49.4233 13.6891 49.6598 12.3359 49.7911 11.1011C49.9094 9.55089 49.9225 7.97444 49.5153 6.46368C49.2525 5.49154 48.6088 4.57195 47.6367 4.21725C46.5594 3.86255 45.3771 3.87569 44.2736 4.09902Z" fill="white"/>
</g>
<g id="Group_4">
<path id="Vector_4" d="M54.9142 2.22064C54.9668 1.94476 55.2558 1.80025 55.5054 1.82653C57.8701 1.82653 60.2347 1.81339 62.6126 1.83966C63.7423 1.86594 64.9641 1.99731 65.8837 2.73298C66.7639 3.40297 67.066 4.55903 67.1448 5.60999C67.1974 6.54272 67.1317 7.58055 66.5142 8.32936C66.1464 8.78915 65.6209 9.05189 65.0954 9.27522C65.6472 9.48542 66.2252 9.66933 66.6982 10.0372C67.6572 10.8385 68.1564 12.0997 68.0776 13.3346C68.0907 14.622 67.7229 16.0408 66.6719 16.8816C65.6472 17.7223 64.2678 17.8143 63.0067 17.8406C60.5106 17.8537 58.0146 17.8537 55.5186 17.8406C55.1507 17.88 54.8486 17.5253 54.9011 17.1706C54.9011 12.5726 54.9011 7.97466 54.9011 3.36356C54.888 2.96945 54.8617 2.58847 54.9142 2.22064ZM58.1985 3.99414C58.1854 5.45235 58.1985 6.91056 58.1985 8.36877C59.1838 8.36877 60.1691 8.36877 61.1543 8.36877C61.7981 8.35563 62.4943 8.36877 63.0855 8.05348C63.6241 7.76446 63.8606 7.10761 63.8737 6.51645C63.8737 5.91214 63.9394 5.24215 63.6241 4.6904C63.3614 4.24374 62.8096 4.07296 62.3235 4.04668C60.9441 3.99414 59.5779 4.07296 58.1985 3.99414ZM58.1985 10.6546C58.2116 12.2573 58.1985 13.86 58.1985 15.4628C59.1838 15.4628 60.1691 15.4628 61.1543 15.4628C61.9951 15.4496 62.8884 15.5153 63.6898 15.2132C64.281 14.9767 64.5437 14.3198 64.5437 13.7287C64.5568 12.9405 64.6488 12.0471 64.1496 11.3771C63.6898 10.7991 62.8884 10.694 62.2053 10.6677C60.8653 10.6546 59.5385 10.6677 58.1985 10.6546Z" fill="white"/>
</g>
<path id="Vector_5" d="M72.0938 3.21875C72.5667 3.23189 73.0396 3.23189 73.5125 3.23189C73.8541 4.11207 74.1957 4.99225 74.5372 5.87243C74.9051 4.99225 75.2466 4.11207 75.6013 3.23189C76.0743 3.23189 76.5472 3.23189 77.0201 3.21875C76.3501 4.72951 75.667 6.24027 74.9839 7.75103C74.6949 7.75103 74.4059 7.75103 74.1169 7.76416C73.4075 6.27968 72.7769 4.72951 72.0938 3.21875Z" fill="white"/>
<path id="Vector_6" d="M85.7585 4.32272C86.0607 4.00743 86.3628 3.679 86.7175 3.41626C86.7306 3.75782 86.7307 4.08625 86.7307 4.42781C87.0985 4.42781 87.4795 4.42781 87.8473 4.41467C87.8473 4.70369 87.8473 4.9927 87.8473 5.28172C87.4663 5.28172 87.0985 5.28172 86.7307 5.26858C86.7307 5.71524 86.7044 6.17504 86.7569 6.6217C87.0591 7.01581 87.5714 6.72679 87.9393 6.59542C87.9261 6.91071 87.9261 7.21286 87.913 7.52815C87.2561 7.75148 86.4022 7.96167 85.8373 7.43619C85.3381 6.83189 85.6271 5.99112 85.5483 5.28172C85.3513 5.28172 85.1542 5.28172 84.9572 5.28172C85.1279 4.88761 85.4826 4.62487 85.7585 4.32272Z" fill="white"/>
<g id="Group_5">
<path id="Vector_7" d="M77.7315 4.68996C78.4803 4.29585 79.5706 4.28271 80.1487 4.97897C80.4902 5.35995 80.5165 5.89856 80.5296 6.38463C79.7283 6.38463 78.9401 6.38463 78.1387 6.38463C78.5854 7.26482 79.702 6.98894 80.4245 6.68679C80.4245 6.92325 80.4245 7.15972 80.4245 7.39619C79.5838 7.7903 78.5197 7.9348 77.692 7.4356C76.7199 6.8707 76.733 5.22858 77.7315 4.68996ZM78.0993 5.78033C78.5459 5.79347 78.9926 5.79347 79.4393 5.78033C79.3867 5.46504 79.2291 5.09721 78.8612 5.08407C78.4408 5.04466 78.1781 5.42563 78.0993 5.78033Z" fill="white"/>
</g>
<path id="Vector_8" d="M81.0547 4.42767C81.4488 4.42767 81.8429 4.42767 82.237 4.42767C82.237 4.5459 82.2239 4.78237 82.2239 4.9006C82.6443 4.55904 83.196 4.30943 83.7478 4.45394C84.2733 4.5459 84.5885 5.08452 84.6017 5.58372C84.628 6.30626 84.6017 7.0288 84.6148 7.75133C84.2207 7.75133 83.8266 7.75133 83.4325 7.76447C83.4062 7.04193 83.485 6.3194 83.3931 5.59686C83.2092 4.96628 82.3421 5.37353 82.2502 5.8596C82.2239 6.49018 82.2502 7.12076 82.237 7.76447C81.8429 7.76447 81.4488 7.76447 81.0547 7.76447C81.0547 6.64782 81.0547 5.53118 81.0547 4.42767Z" fill="white"/>
<path id="Vector_9" d="M88.3615 4.41406C88.7425 4.41406 89.1234 4.41406 89.5175 4.41406C89.5307 5.0315 89.5044 5.63581 89.5175 6.25325C89.5438 6.51599 89.557 6.85755 89.846 6.97578C90.2401 7.08088 90.6079 6.72618 90.7261 6.38462C90.7656 5.72777 90.7261 5.07091 90.7393 4.41406C91.1334 4.41406 91.5144 4.41406 91.9085 4.41406C91.9085 5.53071 91.9216 6.63422 91.9085 7.75087C91.5144 7.75087 91.1334 7.75087 90.7393 7.75087C90.7393 7.64577 90.7524 7.44872 90.7656 7.34362C90.3058 7.76401 89.662 7.9742 89.0577 7.76401C88.5717 7.63264 88.4272 7.08088 88.3878 6.63422C88.3483 5.89855 88.3615 5.16287 88.3615 4.41406Z" fill="white"/>
<path id="Vector_10" d="M92.6538 4.42784C93.0479 4.42784 93.442 4.42784 93.8361 4.42784C93.8361 4.71685 93.8361 4.99273 93.823 5.28174C94.0463 4.96646 94.2565 4.55921 94.6637 4.45411C94.9921 4.34902 95.2943 4.53293 95.5833 4.65117C95.4388 5.04528 95.2943 5.45253 95.1629 5.84664C94.9002 5.68899 94.5455 5.4788 94.2565 5.71527C93.6259 6.20134 93.8755 7.06838 93.823 7.75151C93.4288 7.75151 93.0347 7.75151 92.6406 7.73837C92.6669 6.63486 92.6538 5.53135 92.6538 4.42784Z" fill="white"/>
<g id="Group_6">
<path id="Vector_11" d="M96.2813 4.69C97.0432 4.26962 98.1862 4.28275 98.7511 5.03156C99.0663 5.41254 99.0795 5.92488 99.0926 6.38468C98.2913 6.38468 97.4899 6.37154 96.7017 6.39781C96.8725 6.62114 97.0695 6.87075 97.3585 6.94957C97.9103 7.09408 98.4752 6.88388 98.9875 6.7131C98.9875 6.94957 98.9875 7.18604 98.9875 7.4225C98.1336 7.81661 97.0695 7.96112 96.2419 7.44878C95.2697 6.84447 95.296 5.24176 96.2813 4.69ZM96.6491 5.78037C97.1089 5.79351 97.5687 5.79351 98.0285 5.76724C97.9103 5.47822 97.7658 5.08411 97.3848 5.09725C96.9775 5.05784 96.7279 5.43881 96.6491 5.78037Z" fill="white"/>
</g>
<path id="Vector_12" d="M72.6094 11.1805C73.0298 11.1936 73.4501 11.1279 73.8574 11.2199C74.3303 11.7585 74.7638 12.3366 75.2105 12.9014C75.6703 12.3234 76.1432 11.7454 76.6162 11.1805C77.0234 11.1805 77.4307 11.1805 77.851 11.1805C77.851 12.6913 77.851 14.202 77.851 15.7128C77.3912 15.7128 76.9446 15.7128 76.4848 15.7128C76.4848 14.8326 76.4848 13.9524 76.4848 13.0722C76.0381 13.5846 75.644 14.1363 75.2105 14.6618C74.777 14.1363 74.3697 13.5846 73.9231 13.0722C73.9231 13.9524 73.9231 14.8326 73.9231 15.7128C73.4896 15.7128 73.0429 15.7128 72.6094 15.7128C72.6094 14.202 72.6225 12.6913 72.6094 11.1805Z" fill="white"/>
<path id="Vector_13" d="M113.07 13.216C113.556 12.5066 114.213 11.9286 114.844 11.3506C114.857 11.6921 114.844 12.0337 114.857 12.3753C115.225 12.3753 115.606 12.3753 115.974 12.3753C115.974 12.6643 115.974 12.9533 115.974 13.2292C115.593 13.2292 115.225 13.2292 114.857 13.2292C114.87 13.689 114.791 14.1488 114.923 14.5954C115.212 14.9633 115.724 14.6743 116.066 14.556V15.4625C115.382 15.7252 114.397 15.9223 113.872 15.2654C113.53 14.648 113.714 13.8992 113.675 13.2292C113.478 13.216 113.267 13.216 113.07 13.216Z" fill="white"/>
<g id="Group_7">
<path id="Vector_14" d="M78.7967 12.822C79.4667 12.3884 80.3206 12.2308 81.0957 12.4673C81.4373 12.5724 81.7394 12.8351 81.792 13.2029C81.8577 13.8072 81.7657 14.4247 81.8577 15.029C81.9628 15.0027 82.1598 14.9502 82.2649 14.9239C82.2649 15.1209 82.2649 15.318 82.2518 15.5151C81.7263 15.6596 81.0695 15.9092 80.6491 15.4231C80.163 15.699 79.5324 15.8435 79.0201 15.5545C78.5603 15.2917 78.5603 14.5429 78.9938 14.267C79.5061 13.9255 80.1236 13.8466 80.6753 13.6233C80.5702 13.4657 80.5308 13.2029 80.2944 13.1635C79.7163 13.0584 79.1909 13.3869 78.7836 13.7547C78.7968 13.4263 78.7967 13.1241 78.7967 12.822ZM79.8871 14.9633C80.071 15.2786 80.4126 15.0027 80.6491 14.9107C80.6491 14.6217 80.6491 14.3327 80.6491 14.0437C80.3075 14.2276 79.6375 14.451 79.8871 14.9633Z" fill="white"/>
</g>
<path id="Vector_15" d="M82.6719 12.3761C83.066 12.3761 83.4601 12.3761 83.8542 12.3761C83.8411 12.5337 83.8411 12.7045 83.8411 12.8621C84.4322 12.2316 85.7722 12.1133 86.1138 13.0592C86.3108 13.9262 86.1663 14.8327 86.2057 15.7129C85.8116 15.7129 85.4307 15.7129 85.0365 15.7129C85.0234 15.056 85.0628 14.386 85.0234 13.7292C85.0234 13.5059 84.9052 13.2431 84.6556 13.23C84.2877 13.1643 84.0513 13.4927 83.8411 13.7423C83.8542 14.3992 83.8542 15.056 83.8411 15.726C83.447 15.726 83.0528 15.726 82.6719 15.726C82.6719 14.5962 82.6719 13.4796 82.6719 12.3761Z" fill="white"/>
<g id="Group_8">
<path id="Vector_16" d="M86.9277 12.8223C87.7028 12.3362 88.7669 12.1654 89.5682 12.6515C90.2908 13.2295 89.6996 14.2936 90.0412 15.003C90.1331 14.9899 90.3039 14.9636 90.3959 14.9505C90.3959 15.095 90.3959 15.3709 90.3959 15.5154C89.8835 15.673 89.2004 15.9489 88.7931 15.4366C88.3071 15.7124 87.6765 15.857 87.1641 15.5679C86.6781 15.3052 86.6912 14.517 87.1641 14.2542C87.6634 13.9389 88.2677 13.847 88.8194 13.6237C88.7143 13.4266 88.6224 13.1245 88.3465 13.1507C87.7947 13.085 87.3218 13.4135 86.9145 13.7419C86.9145 13.4266 86.9277 13.1245 86.9277 12.8223ZM87.9786 14.8848C88.0837 15.2789 88.5304 15.0425 88.7669 14.9111C88.7669 14.6221 88.7669 14.3331 88.7669 14.044C88.4516 14.2411 87.8473 14.3987 87.9786 14.8848Z" fill="white"/>
</g>
<g id="Group_9">
<path id="Vector_17" d="M90.8139 14.0177C90.5906 13.3872 90.9847 12.6383 91.6415 12.4676C92.4823 12.2574 93.3625 12.415 94.2164 12.3625C94.2164 12.5989 94.2033 12.8223 94.2033 13.0587C94.0719 13.0456 93.796 13.0325 93.6646 13.0193C94.0325 13.4397 94.0325 14.136 93.5727 14.4907C93.1654 14.8848 92.548 14.7271 92.1013 15.0293C92.5874 15.384 93.2705 15.1344 93.7435 15.5154C94.2689 15.8701 94.1376 16.7371 93.5858 16.9998C92.929 17.3151 92.1539 17.2757 91.4708 17.1443C91.0504 17.0655 90.538 16.724 90.6694 16.2248C90.7351 15.8963 91.0767 15.7781 91.3525 15.6993C91.011 15.3708 91.1686 14.8979 91.5759 14.7271C91.2737 14.5826 90.9321 14.3856 90.8139 14.0177ZM92.0619 13.1376C91.6941 13.3609 91.6678 13.9783 92.0619 14.1885C92.4429 14.425 92.9815 14.0309 92.9027 13.5973C92.9158 13.2164 92.4035 12.8748 92.0619 13.1376ZM91.9174 16.0014C91.6941 16.0408 91.589 16.2904 91.7204 16.4744C91.9962 16.6714 92.3509 16.6714 92.6662 16.632C92.8896 16.5926 93.1786 16.4875 93.1523 16.2116C92.8896 15.8306 92.3247 15.9357 91.9174 16.0014Z" fill="white"/>
</g>
<g id="Group_10">
<path id="Vector_18" d="M95.1786 12.6907C95.9274 12.2178 97.0966 12.2178 97.6878 12.9403C98.0162 13.3213 98.0556 13.8599 98.0556 14.346C97.2543 14.346 96.4529 14.3329 95.6647 14.346C95.8355 14.5562 96.0063 14.8058 96.2821 14.8715C96.847 15.0423 97.4382 14.8189 97.9768 14.6481C97.9768 14.8715 97.9768 15.1079 97.9768 15.3313C97.136 15.7385 96.0719 15.883 95.2312 15.397C94.2853 14.8452 94.2459 13.2819 95.1786 12.6907ZM95.6253 13.7417C96.0719 13.7417 96.5317 13.7417 96.9784 13.7417C96.8864 13.4789 96.8208 13.1111 96.4792 13.0586C96.0325 12.9272 95.691 13.3344 95.6253 13.7417Z" fill="white"/>
</g>
<path id="Vector_19" d="M98.5664 12.3754C98.9605 12.3754 99.3546 12.3754 99.7487 12.3754C99.7487 12.5593 99.7356 12.7432 99.7356 12.9271C100.064 12.6118 100.471 12.3228 100.957 12.3754C101.417 12.3491 101.785 12.6512 102.008 13.0191C102.35 12.6644 102.783 12.3359 103.309 12.3754C103.861 12.3359 104.399 12.7695 104.439 13.3344C104.491 14.1226 104.452 14.9239 104.465 15.7253C104.071 15.7253 103.677 15.7253 103.296 15.7253C103.283 15.0684 103.322 14.4116 103.269 13.7547C103.269 13.5183 103.046 13.2687 102.783 13.3212C102.455 13.3212 102.284 13.6365 102.087 13.8467C102.1 14.4773 102.1 15.1079 102.1 15.7384C101.706 15.7384 101.325 15.7384 100.931 15.7384C100.918 15.0816 100.957 14.4247 100.905 13.7679C100.905 13.5708 100.76 13.3869 100.563 13.3344C100.209 13.2949 99.867 13.5577 99.7487 13.8861C99.7093 14.5036 99.7487 15.1341 99.7356 15.7516C99.3415 15.7516 98.9474 15.7516 98.5664 15.7516C98.5664 14.5955 98.5664 13.492 98.5664 12.3754Z" fill="white"/>
<g id="Group_11">
<path id="Vector_20" d="M105.701 12.6775C106.476 12.1914 107.685 12.2177 108.249 13.0059C108.538 13.3869 108.552 13.8861 108.552 14.3327C107.75 14.3327 106.949 14.3196 106.147 14.3327C106.634 15.1867 107.711 14.9371 108.46 14.6349C108.46 14.8714 108.46 15.0947 108.46 15.3312C107.619 15.7384 106.555 15.8829 105.714 15.3837C104.781 14.832 104.768 13.2686 105.701 12.6775ZM106.134 13.7416C106.581 13.7547 107.041 13.7416 107.487 13.7416C107.396 13.4788 107.33 13.1241 106.988 13.0585C106.555 12.9271 106.213 13.3343 106.134 13.7416Z" fill="white"/>
</g>
<path id="Vector_21" d="M109.168 12.3761C109.562 12.3761 109.956 12.3761 110.35 12.3761C110.35 12.4943 110.337 12.7439 110.337 12.8621C110.771 12.4549 111.401 12.2316 111.979 12.4418C112.479 12.5863 112.702 13.138 112.702 13.6109C112.715 14.3072 112.702 15.0166 112.702 15.7129C112.308 15.7129 111.914 15.7129 111.533 15.7129C111.519 15.056 111.546 14.3992 111.52 13.7555C111.52 13.5453 111.414 13.2825 111.178 13.2431C110.823 13.1643 110.534 13.4402 110.363 13.7292C110.285 14.386 110.363 15.0692 110.337 15.726C109.943 15.726 109.562 15.726 109.168 15.726C109.168 14.5962 109.181 13.4796 109.168 12.3761Z" fill="white"/>
</g>
</g>
<defs>
<clipPath id="clip0_4523_31989">
<rect width="116" height="19.3114" fill="white"/>
</clipPath>
</defs>
</svg>
