<svg
      xmlns="http://www.w3.org/2000/svg"
      width="15"
      height="15"
      viewBox="0 0 15 15"
      fill="none"
    >
      <g clip-path="url(#clip0_4523_37805)">
        <path
          d="M13.8074 8.18764C14.3817 8.18764 14.8473 7.72208 14.8473 7.14778C14.8473 6.57347 14.3817 6.10791 13.8074 6.10791C13.2331 6.10791 12.7676 6.57347 12.7676 7.14778C12.7676 7.72208 13.2331 8.18764 13.8074 8.18764Z"
          fill="white"
        />
        <path
          d="M1.86701 8.1874C2.44132 8.1874 2.90688 7.72183 2.90688 7.14753C2.90688 6.57323 2.44132 6.10767 1.86701 6.10767C1.29271 6.10767 0.827148 6.57323 0.827148 7.14753C0.827148 7.72183 1.29271 8.1874 1.86701 8.1874Z"
          fill="white"
        />
        <path
          d="M11.8686 10.3602L10.2679 8.75948C10.9105 7.78972 10.9105 6.51618 10.2679 5.53473L11.8686 3.93404C12.1957 3.99246 12.5345 3.91067 12.7916 3.66531C13.2005 3.25638 13.2005 2.59039 12.7916 2.18146C12.3827 1.77252 11.7167 1.77252 11.3077 2.18146C11.0507 2.4385 10.9806 2.77734 11.039 3.10448L9.43832 4.70518C8.46855 4.06256 7.19501 4.06256 6.21357 4.70518L4.61287 3.10448C4.67129 2.77734 4.58951 2.4385 4.34414 2.18146C3.93521 1.77252 3.26923 1.77252 2.86029 2.18146C2.45135 2.59039 2.45135 3.25638 2.86029 3.66531C3.11734 3.92236 3.45617 3.99246 3.78332 3.93404L5.38401 5.53473C4.7414 6.50449 4.7414 7.77804 5.38401 8.75948L3.78332 10.3602C3.45617 10.3018 3.11734 10.3835 2.86029 10.6289C2.45135 11.0378 2.45135 11.7038 2.86029 12.1128C3.26923 12.5217 3.93521 12.5217 4.34414 12.1128C4.60119 11.8557 4.67129 11.5169 4.61287 11.1897L6.21357 9.58904C6.70429 9.91619 7.26511 10.0681 7.82594 10.0681C8.38677 10.0681 8.94759 9.9045 9.43832 9.58904L11.039 11.1897C10.9806 11.5169 11.0624 11.8557 11.3077 12.1128C11.7167 12.5217 12.3827 12.5217 12.7916 12.1128C13.2005 11.7038 13.2005 11.0378 12.7916 10.6289C12.5345 10.3719 12.1957 10.3018 11.8686 10.3602ZM6.59913 8.3856C5.92147 7.70793 5.92147 6.58628 6.59913 5.90862C6.93797 5.56978 7.39364 5.39453 7.83763 5.39453C8.28161 5.39453 8.73728 5.56978 9.07612 5.90862C9.75378 6.58628 9.75378 7.70793 9.07612 8.3856C8.38677 9.06326 7.2768 9.06326 6.59913 8.3856Z"
          fill="white"
        />
        <path
          d="M7.83711 12.0658C7.2646 12.0658 6.79724 12.5332 6.79724 13.1057C6.79724 13.6782 7.2646 14.1455 7.83711 14.1455C8.40962 14.1455 8.87697 13.6782 8.87697 13.1057C8.87697 12.5332 8.40962 12.0658 7.83711 12.0658Z"
          fill="white"
        />
        <path
          d="M7.83711 2.21633C8.41141 2.21633 8.87697 1.75076 8.87697 1.17646C8.87697 0.60216 8.41141 0.136597 7.83711 0.136597C7.2628 0.136597 6.79724 0.60216 6.79724 1.17646C6.79724 1.75076 7.2628 2.21633 7.83711 2.21633Z"
          fill="white"
        />
      </g>
      <defs>
        <clipPath id="clip0_4523_37805">
          <rect
            width="14.0207"
            height="14.0207"
            fill="white"
            transform="translate(0.827026 0.136841)"
          />
        </clipPath>
      </defs>
    </svg>