<svg width="36" height="37" viewBox="0 0 36 37" fill="none" xmlns="http://www.w3.org/2000/svg">
<path d="M17.7939 36.0112C27.5845 36.0112 35.5213 28.0744 35.5213 18.2839C35.5213 8.49332 27.5845 0.556519 17.7939 0.556519C8.00335 0.556519 0.0665283 8.49332 0.0665283 18.2839C0.0665283 28.0744 8.00335 36.0112 17.7939 36.0112Z" fill="white"/>
<path d="M16.4179 8.23035C18.4132 7.84664 20.7155 7.92335 22.4038 9.15122C23.5549 9.99538 24.0154 11.4535 23.9387 12.9116C23.7852 14.9836 23.0945 16.9022 22.0969 18.6672C21.176 20.2788 19.8713 21.8137 17.9528 22.2741C15.7273 22.7346 13.3483 21.123 12.9646 18.8974C12.4274 16.6719 13.9622 14.293 16.111 13.8325C16.9551 13.679 18.0295 13.5255 18.5667 14.2929C19.3341 15.1371 18.7202 16.6719 17.5691 16.7487C16.9551 16.7487 16.1877 16.9021 15.9575 17.5928C15.4971 18.5137 16.4947 19.7416 17.4923 19.2812C18.5667 18.6672 19.1807 17.5161 19.7946 16.5185C20.4085 15.2139 20.9457 13.8325 20.7922 12.2977C20.7922 11.607 20.0248 11.3768 19.4876 11.3C17.7993 10.9931 15.9575 11.4535 14.4227 12.2977C13.0413 13.0651 12.0437 14.3697 11.66 15.8278C10.9693 17.9765 11.1995 20.3555 12.0437 22.3508C12.6576 23.6554 13.6552 24.8833 15.0366 25.3438C16.5714 25.7275 18.2597 25.4205 19.6411 24.6531C21.8666 23.502 23.4782 21.5067 24.3224 19.2044C24.5526 18.437 25.3967 17.8998 26.1642 18.13C27.0083 18.3603 27.5455 19.3579 27.1618 20.1253C26.0874 23.1183 23.9387 25.7275 21.1759 27.2623C19.2574 28.3367 17.0319 28.8739 14.8831 28.4135C13.0413 28.1065 11.353 26.9553 10.2786 25.4205C8.51353 23.0415 7.8996 19.8951 8.20657 16.9789C8.43679 14.9836 9.12747 12.9883 10.5088 11.4535C12.0437 9.76515 14.1924 8.6908 16.4179 8.23035Z" fill="#303241"/>
</svg>
