<svg xmlns="http://www.w3.org/2000/svg" width="18" height="18" viewBox="0 0 18 18" fill="none">
  <g clip-path="url(#clip0_4523_37444)">
    <path d="M9.2228 3.48758L3.02081 6.17901L9.3844 9.44439V3.44858C9.32867 3.44858 9.27295 3.45972 9.2228 3.48758Z" fill="#63A5FF"/>
    <path d="M9.54697 3.48758C9.49682 3.45972 9.4411 3.44858 9.38538 3.44858V9.44439L15.749 6.17901L9.54697 3.48758Z" fill="#3486FF"/>
    <path opacity="0.3" d="M8.03021 3.99884L8.72118 7.69328L9.22269 7.19178L8.62645 4.13815L8.03021 3.99884Z" fill="#2E53A0"/>
    <path d="M8.34267 0.968356L7.61827 1.18568C7.50125 1.21911 7.41766 1.33056 7.41766 1.45315V3.04683C7.41766 3.18614 7.46224 3.3143 7.5514 3.42017L8.38725 4.42876L9.79704 9.08164L10.9226 8.74173L9.51285 4.08885L9.64659 2.7905C9.66331 2.65677 9.6243 2.51746 9.55186 2.40601L8.66586 1.0798C8.59899 0.973928 8.47083 0.92935 8.34824 0.968356H8.34267Z" fill="#80D4FF"/>
    <path d="M11.1846 8.85336C11.2793 9.17098 11.5913 9.35486 11.9034 9.30471L13.3968 14.1638C13.6141 14.877 13.2129 15.6404 12.4885 15.8633C11.7641 16.0862 11.0062 15.6683 10.7889 14.955L9.29555 10.096C9.57973 9.96225 9.73576 9.63348 9.64103 9.32143C9.5463 9.00938 9.23425 8.81992 8.9222 8.87007L8.67145 8.05094L11.2737 7.25967L11.5245 8.0788C11.2403 8.21254 11.0843 8.53573 11.179 8.85336H11.1846Z" fill="#D9F5FD"/>
    <path opacity="0.3" d="M3.94537 5.77557L4.64748 7.01263L7.79027 8.62302L8.14133 8.23853L4.69764 5.5694L3.94537 5.77557Z" fill="#2E53A0"/>
    <path d="M14.5779 14.7144L15.3803 13.8618L14.3829 12.1121L12.9563 11.5827L6.45903 5.46991L5.65662 6.32805L12.1539 12.4353L12.7725 13.8228L14.5779 14.7144Z" fill="#80D4FF"/>
    <path d="M5.37859 6.36745C5.13898 6.14456 4.77678 6.13342 4.53159 6.33402L1.29408 3.2581C0.747993 2.75102 0.714559 1.88731 1.23278 1.33565C1.75101 0.783995 2.61472 0.767278 3.15523 1.27436L6.39275 4.35028C6.20886 4.6066 6.24229 4.9688 6.4819 5.19169C6.72151 5.41459 7.08371 5.42573 7.3289 5.22513L7.95299 5.81022L6.08627 7.79396L5.46217 7.20887C5.64606 6.95255 5.61262 6.59035 5.37301 6.36745H5.37859Z" fill="#D9F5FD"/>
    <path d="M12.2437 1.99817C12.8232 1.41865 13.5922 1.15675 14.3445 1.20133C14.5172 1.21248 14.6008 1.41865 14.4782 1.54124L13.1074 2.91203L13.5532 4.57815L15.2193 5.02394L16.5901 3.65315C16.7127 3.53056 16.9189 3.61414 16.93 3.78688C16.9746 4.54472 16.7072 5.3137 16.1332 5.88765C15.3642 6.65663 14.2609 6.86837 13.3025 6.54518L8.95606 10.8916L7.24536 9.18088L11.5918 4.83448C11.263 3.87604 11.4803 2.76715 12.2493 2.00374L12.2437 1.99817Z" fill="#D9F5FD"/>
    <path d="M3.02065 6.17816V13.7231C3.02065 14.141 3.24911 14.5311 3.61689 14.7317L8.28091 17.2782C8.6264 17.4677 8.99974 17.5568 9.37866 17.5568V9.44354L3.01508 6.17816H3.02065Z" fill="#3486FF"/>
    <path d="M9.3843 9.44354V17.5568C9.76321 17.5568 10.1421 17.4621 10.482 17.2782L15.1461 14.7317C15.5138 14.5311 15.7423 14.1466 15.7423 13.7231V6.17816L9.37872 9.44354H9.3843Z" fill="#83B7FF"/>
    <path d="M15.7316 6.17888L17.0801 8.13476C17.3754 8.55269 17.2417 9.12664 16.8015 9.37739L12.2489 11.9629C11.8755 12.1747 11.4019 12.08 11.14 11.74L9.36243 9.43869L15.726 6.17331L15.7316 6.17888Z" fill="#C3DCFF"/>
    <path d="M3.02071 6.17888L1.67221 8.13476C1.37688 8.55269 1.51061 9.12664 1.95083 9.37739L6.50341 11.9629C6.87675 12.1747 7.3504 12.08 7.6123 11.74L9.38987 9.43869L3.02628 6.17331L3.02071 6.17888Z" fill="#83B7FF"/>
  </g>
  <defs>
    <clipPath id="clip0_4523_37444">
      <rect width="16.7169" height="16.7169" fill="white" transform="translate(0.691284 0.839478)"/>
    </clipPath>
  </defs>
</svg>