<svg xmlns="http://www.w3.org/2000/svg" width="35" height="19" viewBox="0 0 35 19" fill="none">
  <g clip-path="url(#clip0_4523_37426)">
    <path d="M24.0112 1.50031L24.1516 1.49088C24.6751 1.49088 25.1077 1.87988 25.1761 2.38458L25.1856 2.5249L25.1845 3.55755L30.0106 3.55824C31.7239 3.55824 33.1127 4.9471 33.1127 6.66033V12.8708C33.1127 14.5841 31.7239 15.9729 30.0106 15.9729H18.2917C16.5784 15.9729 15.1896 14.5841 15.1896 12.8708V6.66033C15.1896 4.9471 16.5784 3.55824 18.2917 3.55824L23.1165 3.55755L23.1175 2.5249C23.1175 2.00142 23.5066 1.56878 24.0112 1.50031ZM21.0481 7.69435C20.0968 7.69435 19.3257 8.4655 19.3257 9.41675C19.3257 10.368 20.0968 11.1391 21.0481 11.1391C21.9994 11.1391 22.7705 10.368 22.7705 9.41675C22.7705 8.4655 21.9994 7.69435 21.0481 7.69435ZM27.2422 7.69435C26.2909 7.69435 25.5199 8.4655 25.5199 9.41675C25.5199 10.368 26.2909 11.1391 27.2422 11.1391C28.1935 11.1391 28.9646 10.368 28.9646 9.41675C28.9646 8.4655 28.1935 7.69435 27.2422 7.69435Z" fill="url(#paint0_linear_4523_37426)"/>
    <path d="M24.0112 1.50031L24.1516 1.49088C24.6751 1.49088 25.1077 1.87988 25.1761 2.38458L25.1856 2.5249L25.1845 3.55755L30.0106 3.55824C31.7239 3.55824 33.1127 4.9471 33.1127 6.66033V12.8708C33.1127 14.5841 31.7239 15.9729 30.0106 15.9729H18.2917C16.5784 15.9729 15.1896 14.5841 15.1896 12.8708V6.66033C15.1896 4.9471 16.5784 3.55824 18.2917 3.55824L23.1165 3.55755L23.1175 2.5249C23.1175 2.00142 23.5066 1.56878 24.0112 1.50031ZM21.0481 7.69435C20.0968 7.69435 19.3257 8.4655 19.3257 9.41675C19.3257 10.368 20.0968 11.1391 21.0481 11.1391C21.9994 11.1391 22.7705 10.368 22.7705 9.41675C22.7705 8.4655 21.9994 7.69435 21.0481 7.69435ZM27.2422 7.69435C26.2909 7.69435 25.5199 8.4655 25.5199 9.41675C25.5199 10.368 26.2909 11.1391 27.2422 11.1391C28.1935 11.1391 28.9646 10.368 28.9646 9.41675C28.9646 8.4655 28.1935 7.69435 27.2422 7.69435Z" fill="#80D4FF"/>
    <mask id="mask0_4523_37426" style="mask-type:alpha" maskUnits="userSpaceOnUse" x="0" y="2" width="14" height="17">
      <path d="M9.34761 2.36279L0.640015 18.0365H13.7014V2.36279H9.34761Z" fill="url(#paint1_linear_4523_37426)"/>
      <path d="M9.34761 2.36279L0.640015 18.0365H13.7014V2.36279H9.34761Z" fill="#8B8EA0"/>
    </mask>
    <g mask="url(#mask0_4523_37426)">
      <path d="M13.7001 4.53729H-0.667358V7.14957H13.7001V4.53729Z" fill="url(#paint2_linear_4523_37426)"/>
      <path d="M13.7001 4.53729H-0.667358V7.14957H13.7001V4.53729Z" fill="#3486FF"/>
      <path d="M13.7001 8.45752H-0.667358V11.0698H13.7001V8.45752Z" fill="url(#paint3_linear_4523_37426)"/>
      <path d="M13.7001 8.45752H-0.667358V11.0698H13.7001V8.45752Z" fill="#6DAAFF"/>
      <path d="M13.7001 12.3748H-0.667358V14.9871H13.7001V12.3748Z" fill="url(#paint4_linear_4523_37426)"/>
      <path d="M13.7001 12.3748H-0.667358V14.9871H13.7001V12.3748Z" fill="#80D4FF"/>
    </g>
  </g>
  <defs>
    <linearGradient id="paint0_linear_4523_37426" x1="35.6159" y1="1.10977" x2="4.47853" y2="8.00599" gradientUnits="userSpaceOnUse">
      <stop stop-color="#8B8EA0"/>
      <stop offset="1" stop-color="#8B8EA0" stop-opacity="0"/>
    </linearGradient>
    <linearGradient id="paint1_linear_4523_37426" x1="-1.18419" y1="18.4489" x2="22.1022" y2="14.9763" gradientUnits="userSpaceOnUse">
      <stop stop-color="#8B8EA0"/>
      <stop offset="1" stop-color="#8B8EA0" stop-opacity="0"/>
    </linearGradient>
    <linearGradient id="paint2_linear_4523_37426" x1="15.7068" y1="4.46855" x2="2.40668" y2="17.5592" gradientUnits="userSpaceOnUse">
      <stop stop-color="#8B8EA0"/>
      <stop offset="1" stop-color="#8B8EA0" stop-opacity="0"/>
    </linearGradient>
    <linearGradient id="paint3_linear_4523_37426" x1="15.7068" y1="8.38877" x2="2.40669" y2="21.4795" gradientUnits="userSpaceOnUse">
      <stop stop-color="#8B8EA0"/>
      <stop offset="1" stop-color="#8B8EA0" stop-opacity="0"/>
    </linearGradient>
    <linearGradient id="paint4_linear_4523_37426" x1="15.7068" y1="12.3061" x2="2.40668" y2="25.3968" gradientUnits="userSpaceOnUse">
      <stop stop-color="#8B8EA0"/>
      <stop offset="1" stop-color="#8B8EA0" stop-opacity="0"/>
    </linearGradient>
    <clipPath id="clip0_4523_37426">
      <rect width="33.6496" height="18.6942" fill="white" transform="translate(0.640015 0.270569)"/>
    </clipPath>
  </defs>
</svg>