<svg xmlns="http://www.w3.org/2000/svg" width="36" height="36" viewBox="0 0 36 36" fill="none">
  <path d="M30.159 18.7291C30.159 16.9894 28.7487 15.5791 27.009 15.5791C25.2693 15.5791 23.859 16.9894 23.859 18.7291C23.859 20.4688 25.2693 21.8791 27.009 21.8791C28.7487 21.8791 30.159 20.4688 30.159 18.7291Z" fill="#3486FF"/>
  <path d="M33.309 30.0331V30.582C33.309 31.275 32.724 31.842 31.995 31.842H22.014C21.303 31.842 20.709 31.275 20.709 30.582V29.7811C20.709 26.2531 23.877 23.4271 27.621 23.7781C30.897 24.0751 33.309 26.892 33.309 30.042V30.0331Z" fill="#3486FF"/>
  <path d="M6.29998 4.9501C6.29998 4.20451 5.69556 3.6001 4.94998 3.6001C4.20439 3.6001 3.59998 4.20451 3.59998 4.9501V23.8501C3.59998 24.5957 4.20439 25.2001 4.94998 25.2001C5.69556 25.2001 6.29998 24.5957 6.29998 23.8501V4.9501Z" fill="#80D4FF"/>
  <g style="mix-blend-mode:multiply" opacity="0.5">
    <path d="M6.29998 13.5H3.59998V18H6.29998V13.5Z" fill="#80D4FF"/>
  </g>
  <path d="M12.6 4.9501C12.6 4.20451 11.9956 3.6001 11.25 3.6001C10.5044 3.6001 9.90002 4.20451 9.90002 4.9501V23.8501C9.90002 24.5957 10.5044 25.2001 11.25 25.2001C11.9956 25.2001 12.6 24.5957 12.6 23.8501V4.9501Z" fill="#6DAAFF"/>
  <g style="mix-blend-mode:multiply" opacity="0.5">
    <path d="M12.6 18.9H9.90002V22.5H12.6V18.9Z" fill="#6AA9FF"/>
  </g>
  <path d="M18.9 4.9501C18.9 4.20451 18.2955 3.6001 17.55 3.6001C16.8044 3.6001 16.2 4.20451 16.2 4.9501V23.8501C16.2 24.5957 16.8044 25.2001 17.55 25.2001C18.2955 25.2001 18.9 24.5957 18.9 23.8501V4.9501Z" fill="#3486FF"/>
  <g style="mix-blend-mode:multiply" opacity="0.5">
    <path d="M18.9 9H16.2V12.6H18.9V9Z" fill="#4895FF"/>
  </g>
  <path d="M7.19995 13.95C7.19995 12.7073 6.19259 11.7 4.94995 11.7C3.70731 11.7 2.69995 12.7073 2.69995 13.95C2.69995 15.1926 3.70731 16.2 4.94995 16.2C6.19259 16.2 7.19995 15.1926 7.19995 13.95Z" fill="#E9F9FE"/>
  <path d="M13.5 18.45C13.5 17.2073 12.4926 16.2 11.25 16.2C10.0074 16.2 9 17.2073 9 18.45C9 19.6926 10.0074 20.7 11.25 20.7C12.4926 20.7 13.5 19.6926 13.5 18.45Z" fill="#E9F9FE"/>
  <path d="M19.8 8.55005C19.8 7.30741 18.7927 6.30005 17.55 6.30005C16.3074 6.30005 15.3 7.30741 15.3 8.55005C15.3 9.79269 16.3074 10.8 17.55 10.8C18.7927 10.8 19.8 9.79269 19.8 8.55005Z" fill="#CEF2FC"/>
  <path d="M27.0912 5.6252L27.7662 7.4522C27.7662 7.4522 27.7932 7.4972 27.8202 7.5062L29.6472 8.1812C29.7282 8.2082 29.7282 8.3252 29.6472 8.3522L27.8202 9.0272C27.8202 9.0272 27.7752 9.0542 27.7662 9.0812L27.0912 10.9082C27.0642 10.9892 26.9472 10.9892 26.9202 10.9082L26.2452 9.0812C26.2452 9.0812 26.2182 9.0362 26.1912 9.0272L24.3642 8.3522C24.2832 8.3252 24.2832 8.2082 24.3642 8.1812L26.1912 7.5062C26.1912 7.5062 26.2362 7.4792 26.2452 7.4522L26.9202 5.6252C26.9472 5.5442 27.0642 5.5442 27.0912 5.6252Z" fill="#9DE5F9"/>
  <path d="M30.609 12.4378C31.106 12.4378 31.509 12.0349 31.509 11.5378C31.509 11.0408 31.106 10.6378 30.609 10.6378C30.1119 10.6378 29.709 11.0408 29.709 11.5378C29.709 12.0349 30.1119 12.4378 30.609 12.4378Z" fill="#9DE5F9"/>
</svg>