<svg width="36" height="37" viewBox="0 0 36 37" fill="none" xmlns="http://www.w3.org/2000/svg">
<path d="M18.2006 36.0153C27.9912 36.0153 35.928 28.0785 35.928 18.2879C35.928 8.49735 27.9912 0.560547 18.2006 0.560547C8.41009 0.560547 0.473267 8.49735 0.473267 18.2879C0.473267 28.0785 8.41009 36.0153 18.2006 36.0153Z" fill="#10365E"/>
<g clip-path="url(#clip0_4522_2641)">
<path d="M11.5575 13.0073H23.9775C24.6073 13.0073 25.1175 13.5175 25.1175 14.1473V16.1564H11.5575C10.7009 16.1564 10.0018 15.4573 10.0018 14.6008V14.563C10.0018 13.7064 10.7009 13.0073 11.5575 13.0073Z" fill="#3486FF"/>
<path opacity="0.35" d="M14.0201 13.0073H11.5764C10.7072 13.0073 10.0018 13.7127 10.0018 14.5819C10.0018 15.451 10.7072 16.1564 11.5764 16.1564H17.1692L14.0201 13.0073Z" fill="#2E53A0"/>
<path d="M23.8575 9.46228L23.1269 10.344L22.39 9.46228L21.6531 10.344L20.9225 9.46228L20.1857 10.344L19.4488 9.46228L18.7119 10.344L17.975 9.46228L17.2444 10.344L16.5075 9.46228L15.7706 10.344L15.04 9.46228V17.0201H23.8575V9.46228Z" fill="#CEF2FC"/>
<path d="M19.4484 12.2961L21.9676 12.2961" stroke="#3486FF" stroke-width="0.629819" stroke-linecap="round" stroke-linejoin="round"/>
<path d="M16.7398 14.2858H22.0933" stroke="#3486FF" stroke-width="0.629819" stroke-linecap="round" stroke-linejoin="round"/>
<path d="M13.3587 11.987L12.6218 12.8687L11.8912 11.987V11.9933V16.7925H13.3587V11.987Z" fill="#3486FF"/>
<path d="M15.0402 11.2257L14.6182 10.7218L13.8813 11.6035L13.1508 10.7218V16.7933H15.0402V11.2257Z" fill="#80D4FF"/>
<path d="M17.2883 13.241C17.8126 13.241 18.233 12.8206 18.233 12.2962C18.233 11.7719 17.8126 11.3515 17.2883 11.3515C16.764 11.3515 16.3436 11.7719 16.3436 12.2962C16.3436 12.8206 16.764 13.241 17.2883 13.241Z" fill="#3486FF"/>
<path d="M10.002 14.5004V14.5632C10.002 14.5632 10.002 14.5192 10.0082 14.5004H10.002Z" fill="#9DE5F9"/>
<path d="M10.0018 14.6066V25.0553C10.0018 26.1827 10.9151 27.0959 12.0424 27.0959H23.0769C24.2043 27.0959 25.1175 26.1827 25.1175 25.0553V16.1623H11.5575C10.7009 16.1623 10.0018 15.4632 10.0018 14.6066Z" fill="#9DE5F9"/>
<path d="M20.7081 19.3068H25.4758C25.967 19.3068 26.3701 19.7098 26.3701 20.2011V22.1913C26.3701 22.6826 25.967 23.0857 25.4758 23.0857H20.7081C19.6626 23.0857 18.8186 22.2417 18.8186 21.1962C18.8186 20.1507 19.6626 19.3068 20.7081 19.3068Z" fill="#3486FF"/>
<path d="M20.6582 22.1409C21.1799 22.1409 21.6029 21.7179 21.6029 21.1961C21.6029 20.6744 21.1799 20.2514 20.6582 20.2514C20.1364 20.2514 19.7134 20.6744 19.7134 21.1961C19.7134 21.7179 20.1364 22.1409 20.6582 22.1409Z" fill="#E2F7FD"/>
<path opacity="0.3" d="M25.4759 19.3051H25.1169V16.156H17.1686L25.1169 24.1484V23.084H25.4759C25.9671 23.084 26.3702 22.6809 26.3702 22.1897V20.1994C26.3702 19.7082 25.9671 19.3051 25.4759 19.3051Z" fill="#D9F5FD"/>
<path d="M14.2842 19.2816C13.4277 19.4265 12.886 19.9429 12.886 20.7302C12.886 21.6497 13.4403 22.0465 14.4606 22.1977C15.3927 22.3362 15.6383 22.4874 15.6383 22.8653C15.6383 23.1865 15.336 23.3565 14.7818 23.3565C14.3094 23.3565 14.0512 23.2369 13.9189 22.8905C13.8748 22.7771 13.7552 22.7204 13.6355 22.7393L13.075 22.8464C12.9175 22.8779 12.8293 23.0416 12.8797 23.1928C13.0939 23.8415 13.5347 24.1942 14.2779 24.2887V24.5028C14.2779 24.7736 14.4984 24.9878 14.7692 24.9878C15.04 24.9878 15.2541 24.7673 15.2541 24.5028V24.2887C16.1926 24.1564 16.7405 23.6337 16.7405 22.8086C16.7405 21.8765 16.2556 21.4545 15.1408 21.2592C14.2086 21.0892 14.0008 20.9695 14.0008 20.642C14.0008 20.346 14.2527 20.1948 14.744 20.1948C15.1597 20.1948 15.399 20.3145 15.5187 20.6357C15.5565 20.7491 15.6824 20.8058 15.8021 20.7806L16.3626 20.6798C16.5075 20.6546 16.6146 20.5035 16.5705 20.3586C16.3752 19.7288 15.9532 19.3761 15.2793 19.269V19.0549C15.2793 18.784 15.0589 18.5573 14.7818 18.5573C14.5047 18.5573 14.2842 18.7777 14.2842 19.0549V19.2753V19.2816Z" fill="#3486FF"/>
<path opacity="0.1" d="M15.0403 15.2124H11.8912V16.1571H15.0403V15.2124Z" fill="#2E53A0"/>
<path opacity="0.35" d="M25.1163 16.1571H23.8567V15.2124L25.1163 16.1571Z" fill="#2E53A0"/>
<path opacity="0.3" d="M23.8575 15.2124H15.04V16.1571H23.8575V15.2124Z" fill="#4895FF"/>
</g>
<defs>
<clipPath id="clip0_4522_2641">
<rect width="16.369" height="18.8946" fill="white" transform="translate(10.002 8.20276)"/>
</clipPath>
</defs>
</svg>
