<svg width="40" height="40" viewBox="0 0 40 40" fill="none" xmlns="http://www.w3.org/2000/svg">
<rect width="40" height="40" fill="#3DBDF5"/>
<mask id="mask0_4646_32009" style="mask-type:alpha" maskUnits="userSpaceOnUse" x="0" y="0" width="40" height="40">
<rect width="40" height="40" fill="#7C61AA"/>
</mask>
<g mask="url(#mask0_4646_32009)">
<path d="M18.9842 20.8035C18.8549 22.4847 18.3232 24.1515 17.4324 25.574C16.6565 26.8097 15.5214 27.9017 14.1132 28.2897C13.5241 28.4046 12.8632 28.4477 12.3459 28.0741C11.9005 27.7724 11.6275 27.2263 11.6419 26.6803C11.5844 25.3872 12.3172 24.252 13.1506 23.3612C14.7311 21.8381 16.8577 21.0047 18.9842 20.8035ZM27.5911 24.5107C28.0078 25.2004 28.2951 26.005 28.2089 26.8384C28.1802 27.6287 27.5049 28.3328 26.729 28.3759C25.4358 28.5052 24.2575 27.7293 23.381 26.824C21.8867 25.2147 21.0677 23.0163 20.8953 20.8179C23.4529 21.0478 26.1255 22.2261 27.5911 24.5107ZM16.4985 12.872C17.9928 14.4813 18.8118 16.6654 18.9842 18.8638C16.4122 18.6339 13.7397 17.4557 12.2885 15.171C11.7999 14.3664 11.4982 13.3893 11.7424 12.4553C11.9436 11.8519 12.504 11.3633 13.1506 11.3346C14.4294 11.1909 15.6076 11.9668 16.4985 12.872ZM28.1946 12.8433C28.3239 14.1796 27.5623 15.3865 26.6858 16.3061C25.1196 17.8292 23.0075 18.677 20.8809 18.8638C21.0964 16.3062 22.1597 13.691 24.2145 12.1392C24.9473 11.6076 25.8237 11.234 26.729 11.3346C27.4905 11.3633 28.1659 12.053 28.1946 12.8433ZM27.5049 9.56727C26.0967 9.15057 24.6024 9.63907 23.4098 10.4294C22.0879 11.3489 21.0389 12.6421 20.3205 14.1077C20.1912 14.3664 20.105 14.6681 19.9326 14.898C19.7027 14.5676 19.6021 14.1652 19.3866 13.806C18.4383 12.0387 17.0014 10.4725 15.1478 9.75402C13.9408 9.26549 12.4896 9.26549 11.3832 10.027C10.2912 10.7311 9.73079 12.1105 9.817 13.4037C9.94632 15.013 10.7797 16.493 11.9005 17.5994C12.7913 18.5477 13.8978 19.2518 15.076 19.7547C15.076 19.7978 15.0904 19.8696 15.0904 19.8983C13.2368 20.6886 11.5556 22.0393 10.5498 23.8641C9.98944 24.9417 9.64461 26.2062 9.93198 27.4275C10.1762 28.692 11.1533 29.7696 12.3747 30.1001C13.7828 30.5168 15.2771 30.0282 16.4553 29.238C17.9928 28.1747 19.1566 26.5941 19.8607 24.8411C19.9038 24.8411 19.9757 24.8411 20.0188 24.8411C20.7085 26.5654 21.8436 28.1172 23.338 29.1805C24.5306 29.9852 26.0249 30.5168 27.4474 30.1145C28.6544 29.8127 29.6314 28.7926 29.9188 27.5568C30.2924 26.1343 29.8183 24.6256 29.0711 23.433C28.0365 21.8525 26.499 20.6455 24.8035 19.9127C24.8035 19.8696 24.7892 19.7977 24.7892 19.769C26.5279 19.0362 28.094 17.8005 29.1141 16.1768C29.8182 15.0273 30.2637 13.6048 29.9475 12.2398C29.7033 10.9754 28.7262 9.89775 27.5049 9.56727Z" fill="white"/>
</g>
</svg>
