<svg width="40" height="40" viewBox="0 0 40 40" fill="none" xmlns="http://www.w3.org/2000/svg">
<rect width="40" height="40" fill="#FF9C00"/>
<mask id="mask0_4646_32058" style="mask-type:alpha" maskUnits="userSpaceOnUse" x="0" y="0" width="40" height="40">
<rect width="40" height="40" fill="#FF9C00"/>
</mask>
<g mask="url(#mask0_4646_32058)">
<path d="M13.7106 26.5024C14.7308 26.5024 17.935 26.5024 17.935 26.5024V29.1031H12.6473C12.0725 29.1031 11.4978 28.9019 11.038 28.5571C10.2908 27.9823 9.98909 27.0197 10.0897 26.057L10.5925 21.2003H7.96313L8.23614 18.614H10.8655L11.4403 13.1682L11.4547 13.0964C11.7134 11.8894 12.13 10.7256 14.0985 10.7256H22.2025V13.3119H14.8026C14.041 13.3119 14.0123 13.6137 13.8973 14.6195L12.791 25.1948C12.6904 26.3156 12.6761 26.5024 13.7106 26.5024Z" fill="white"/>
<path d="M31.9153 18.6141L31.6423 21.2005H29.0128L28.4381 26.6749C28.2657 28.3705 27.2024 29.0889 25.55 29.0889H20.5496V26.5025H25.0614C25.823 26.5025 25.8661 26.1146 25.9666 25.195L27.0731 14.6196C27.188 13.4558 27.2024 13.3265 26.1678 13.3265H24.8459V10.7257H30.1048L29.2858 18.6141H31.9153Z" fill="white"/>
</g>
</svg>
