<svg xmlns="http://www.w3.org/2000/svg" width="15" height="15" viewBox="0 0 15 15" fill="none">
  <g clip-path="url(#clip0_4523_32956)">
    <path d="M12.5752 0.138H11.0273C10.166 0.138 9.47934 0.836322 9.47934 1.68595V1.88381H4.82386V1.68595C4.82386 0.824684 4.12553 0.138 3.27591 0.138H1.72796C0.85506 0.138 0.156738 0.836322 0.156738 1.68595V3.23389C0.156738 4.09516 0.85506 4.78184 1.70469 4.78184H1.92582V9.43732H1.70469C0.843422 9.43732 0.156738 10.1356 0.156738 10.9853V12.5332C0.156738 13.3945 0.85506 14.0812 1.70469 14.0812H3.25263C4.1139 14.0812 4.80058 13.3828 4.80058 12.5332V12.3354H9.45606V12.5332C9.45606 13.3945 10.1544 14.0812 11.004 14.0812H12.552C13.4132 14.0812 14.0999 13.3828 14.0999 12.5332V10.9853C14.0999 10.124 13.4016 9.43732 12.552 9.43732H12.3541V4.78184H12.552C13.4132 4.78184 14.0999 4.08352 14.0999 3.23389V1.68595C14.0999 0.824684 13.4016 0.138 12.552 0.138H12.5752ZM1.32061 3.24553V1.69759C1.32061 1.48809 1.49519 1.31351 1.70469 1.31351H3.25263C3.46213 1.31351 3.63671 1.48809 3.63671 1.69759V3.24553C3.63671 3.45503 3.46213 3.62961 3.25263 3.62961H1.70469C1.49519 3.62961 1.32061 3.45503 1.32061 3.24553ZM3.64835 11.7767V12.5565C3.64835 12.766 3.47377 12.9406 3.26427 12.9406H1.71632C1.50683 12.9406 1.33225 12.766 1.33225 12.5565V11.0085C1.33225 10.799 1.50683 10.6245 1.71632 10.6245H3.26427C3.47377 10.6245 3.64835 10.799 3.64835 11.0085V11.7883V11.7767ZM12.9593 10.9969V12.5449C12.9593 12.7543 12.7847 12.9289 12.5752 12.9289H11.0273C10.8178 12.9289 10.6432 12.7543 10.6432 12.5449V10.9969C10.6432 10.7874 10.8178 10.6128 11.0273 10.6128H12.5752C12.7847 10.6128 12.9593 10.7874 12.9593 10.9969ZM11.2135 9.44896H11.0156C10.1544 9.44896 9.4677 10.1473 9.4677 10.9969V11.1948H4.81222V10.9969C4.81222 10.1356 4.1139 9.44896 3.26427 9.44896H3.10133V4.79348H3.26427C4.12553 4.79348 4.81222 4.09516 4.81222 3.24553V3.04768H9.4677V3.24553C9.4677 4.1068 10.166 4.79348 11.0156 4.79348H11.2135V9.44896ZM12.9593 2.46574V3.24553C12.9593 3.45503 12.7847 3.62961 12.5752 3.62961H11.0273C10.8178 3.62961 10.6432 3.45503 10.6432 3.24553V1.69759C10.6432 1.48809 10.8178 1.31351 11.0273 1.31351H12.5752C12.7847 1.31351 12.9593 1.48809 12.9593 1.69759V2.47738V2.46574Z" fill="white"/>
  </g>
  <defs>
    <clipPath id="clip0_4523_32956">
      <rect width="14" height="14" fill="white" transform="translate(0.156738 0.138)"/>
    </clipPath>
  </defs>
</svg>