<svg xmlns="http://www.w3.org/2000/svg" width="21" height="19" viewBox="0 0 21 19" fill="none">
  <path opacity="0.3" d="M17.2174 9.0781C17.2174 9.60779 15.3603 10.0397 13.0713 10.0397C10.7823 10.0397 8.92529 9.61094 8.92529 9.0781C10.7697 8.93938 11.9962 8.93936 13.0713 8.11646C15.3603 8.11646 17.2174 8.54526 17.2174 9.0781Z" fill="#6C96CC"/>
  <path d="M11.8727 2.49395C13.6446 2.49395 15.0823 1.95162 15.0823 1.28636C15.0823 0.621103 13.6446 0.0788574 11.8727 0.0788574C10.1007 0.0788574 8.66296 0.621103 8.66296 1.28636C8.66296 1.95162 10.1007 2.49395 11.8727 2.49395Z" fill="#4895FF"/>
  <path d="M8.66296 1.28674C8.66296 1.95516 10.1007 2.49433 11.8727 2.49433C13.6414 2.49433 15.0823 1.95516 15.0823 1.28674V3.78389C15.0823 4.4523 13.6446 4.9914 11.8727 4.9914C10.1039 4.9914 8.66296 4.4523 8.66296 3.78389V1.28674Z" fill="#3486FF"/>
  <path d="M8.66296 3.78369C8.66296 4.45211 10.1007 4.9912 11.8727 4.9912C13.6414 4.9912 15.0823 4.45211 15.0823 3.78369V6.28076C15.0823 6.94917 13.6446 7.48834 11.8727 7.48834C10.1039 7.48834 8.66296 6.94917 8.66296 6.28076V3.78369Z" fill="#6DAAFF"/>
  <path d="M8.66296 6.26453C8.66296 6.93294 10.1007 7.47211 11.8727 7.47211C13.6414 7.47211 15.0823 6.93294 15.0823 6.26453V8.76167C15.0823 9.43009 13.6446 9.96918 11.8727 9.96918C10.1039 9.96918 8.66296 9.43009 8.66296 8.76167V6.26453Z" fill="#80D4FF"/>
  <path d="M13.686 13.8628C13.2698 13.9006 12.8473 13.9227 12.4091 13.9227" stroke="#6C96CC" stroke-width="0.236467" stroke-miterlimit="10"/>
  <path d="M18.0127 12.9607C17.8519 12.9607 17.7036 12.8629 17.6437 12.7084C17.5586 12.5067 17.6596 12.2702 17.8645 12.1851C17.8645 12.1851 18.2869 12.0085 18.6085 11.709C19.1477 11.2613 19.7688 10.555 19.7688 9.64068C19.7688 7.83407 17.2245 6.19778 13.8477 5.83835C13.627 5.81627 13.4693 5.61759 13.4882 5.39374C13.5071 5.16988 13.7121 5.01542 13.9328 5.03434C17.7793 5.44737 20.5696 7.37689 20.5696 9.63437C20.5696 10.6023 20.0778 11.523 19.1414 12.3018C18.7283 12.6927 18.1892 12.9103 18.1672 12.9229C18.1199 12.945 18.0663 12.9481 18.019 12.9481L18.0127 12.9607Z" fill="#E0F3FA"/>
  <path d="M5.39164 8.22298C5.30021 8.22298 5.2056 8.19151 5.12993 8.1253C4.95967 7.98027 4.94394 7.72802 5.08582 7.55776C5.94025 6.5583 7.40006 5.77005 9.19721 5.3318C9.4116 5.2782 9.62909 5.4106 9.68269 5.625C9.73629 5.8394 9.60389 6.05696 9.38949 6.11056C7.75314 6.50782 6.44155 7.20776 5.70062 8.07796C5.6218 8.16939 5.5083 8.21667 5.3948 8.21667H5.39164V8.22298Z" fill="#E0F3FA"/>
  <path opacity="0.3" d="M8.66095 13.7698C8.66095 14.2994 6.80393 14.7314 4.51492 14.7314C2.22592 14.7314 0.368896 14.3026 0.368896 13.7698C2.21334 13.631 3.43979 13.631 4.51492 12.8081C6.80393 12.8081 8.66095 13.2338 8.66095 13.7698Z" fill="#6C96CC"/>
  <path d="M3.31632 7.19329C5.08824 7.19329 6.52594 6.65104 6.52594 5.98578C6.52594 5.32052 5.08824 4.7782 3.31632 4.7782C1.54439 4.7782 0.106689 5.32052 0.106689 5.98578C0.106689 6.65104 1.54439 7.19329 3.31632 7.19329Z" fill="#4895FF"/>
  <path d="M0.106689 5.98114C0.106689 6.64955 1.54439 7.18872 3.31632 7.18872C5.08824 7.18872 6.52594 6.64955 6.52594 5.98114V8.47821C6.52594 9.14662 5.08824 9.68579 3.31632 9.68579C1.54439 9.68579 0.106689 9.14662 0.106689 8.47821V5.98114Z" fill="#3486FF"/>
  <path d="M0.106689 8.47534C0.106689 9.14376 1.54439 9.68293 3.31632 9.68293C5.08824 9.68293 6.52594 9.14376 6.52594 8.47534V10.9725C6.52594 11.6409 5.08824 12.18 3.31632 12.18C1.54439 12.18 0.106689 11.6409 0.106689 10.9725V8.47534Z" fill="#6DAAFF"/>
  <path d="M0.106689 10.9581C0.106689 11.6265 1.54439 12.1656 3.31632 12.1656C5.08824 12.1656 6.52594 11.6265 6.52594 10.9581V13.4551C6.52594 14.1236 5.08824 14.6627 3.31632 14.6627C1.54439 14.6627 0.106689 14.1236 0.106689 13.4551V10.9581Z" fill="#80D4FF"/>
  <path d="M12.409 14.3242C8.80521 14.3242 5.6744 13.0094 4.62133 11.0577C4.51413 10.8591 4.58981 10.6195 4.78213 10.5123C4.98077 10.4114 5.22038 10.4808 5.32758 10.6731C6.23246 12.3473 9.13942 13.517 12.409 13.517C12.6297 13.517 12.8094 13.6999 12.8094 13.9174C12.8094 14.1381 12.6265 14.3178 12.409 14.3178V14.3242Z" fill="#E0F3FA"/>
  <path opacity="0.3" d="M20.9604 17.3004C20.9604 17.8301 19.1034 18.2621 16.8144 18.2621C14.5254 18.2621 12.6683 17.8333 12.6683 17.3004C14.5128 17.1617 15.7392 17.1617 16.8144 16.3388C19.1034 16.3356 20.9604 16.7644 20.9604 17.3004Z" fill="#6C96CC"/>
  <path d="M15.6158 10.7193C17.3877 10.7193 18.8254 10.177 18.8254 9.51172C18.8254 8.84331 17.3877 8.30414 15.6158 8.30414C13.8438 8.30414 12.4061 8.84646 12.4061 9.51172C12.4093 10.177 13.8438 10.7193 15.6158 10.7193Z" fill="#4895FF"/>
  <path d="M12.4091 9.51385C12.4091 10.1823 13.8468 10.7214 15.6187 10.7214C17.3875 10.7214 18.8283 10.1823 18.8283 9.51385V12.0109C18.8283 12.6793 17.3906 13.2185 15.6187 13.2185C13.8499 13.2185 12.4091 12.6793 12.4091 12.0109V9.51385Z" fill="#3486FF"/>
  <path d="M12.4091 12.0032C12.4091 12.6716 13.8468 13.2108 15.6187 13.2108C17.3875 13.2108 18.8283 12.6716 18.8283 12.0032V14.5003C18.8283 15.1687 17.3906 15.7078 15.6187 15.7078C13.8499 15.7078 12.4091 15.1687 12.4091 14.5003V12.0032Z" fill="#6DAAFF"/>
  <path d="M12.4091 14.4849C12.4091 15.1533 13.8468 15.6924 15.6187 15.6924C17.3875 15.6924 18.8283 15.1533 18.8283 14.4849V16.9819C18.8283 17.6503 17.3906 18.1895 15.6187 18.1895C13.8499 18.1895 12.4091 17.6503 12.4091 16.9819V14.4849Z" fill="#80D4FF"/>
</svg>