<svg width="40" height="40" viewBox="0 0 40 40" fill="none" xmlns="http://www.w3.org/2000/svg">
<rect width="40" height="40" fill="#FA594A"/>
<mask id="mask0_4646_32016" style="mask-type:alpha" maskUnits="userSpaceOnUse" x="0" y="0" width="40" height="40">
<rect width="40" height="40" fill="#7C61AA"/>
</mask>
<g mask="url(#mask0_4646_32016)">
<path d="M13.1295 13.0246C16.6067 10.467 21.5638 10.036 25.5439 11.7458C27.7998 12.7085 29.754 14.404 30.7454 16.5737C31.4207 17.9962 31.5932 19.5911 31.3489 21.1286C31.0759 22.6517 30.3144 24.0742 29.2511 25.2237C27.3544 27.2928 24.5669 28.4997 21.7219 28.7584C20.0983 28.9308 18.4315 28.744 16.8653 28.3273C16.5061 28.2267 16.1612 28.0543 15.7876 27.9968C15.256 28.0112 14.7675 28.2123 14.2646 28.3129C13.1582 28.5572 12.0662 28.8446 10.9742 29.0888C10.5718 29.1607 10.3131 28.6865 10.543 28.3991C11.089 27.6663 11.6351 26.9479 12.1667 26.2294C12.3679 25.8559 11.9799 25.5541 11.75 25.2955C10.112 23.6 9.23552 21.2292 9.50853 18.9302C9.78153 16.5881 11.1753 14.4471 13.1295 13.0246Z" fill="white"/>
</g>
</svg>
