<svg width="50" height="30" viewBox="0 0 50 30" fill="none" xmlns="http://www.w3.org/2000/svg">
<g filter="url(#filter0_b_4522_2641)">
<rect width="50" height="30" rx="15" fill="url(#paint0_linear_4522_2641)" fill-opacity="0.3"/>
</g>
<path fill-rule="evenodd" clip-rule="evenodd" d="M13.2087 10C11.4366 10 10 11.4366 10 13.2087V16.7913C10 18.5634 11.4366 20 13.2087 20H36.7913C38.5634 20 40 18.5634 40 16.7913V13.2087C40 11.4366 38.5634 10 36.7913 10H13.2087ZM13.4377 17.8501H15.5002C16.0911 17.8501 16.5987 17.7336 17.0229 17.5007C17.4491 17.2677 17.7758 16.9334 18.003 16.4978C18.2322 16.0622 18.3468 15.5414 18.3468 14.9353C18.3468 14.3312 18.2322 13.8122 18.003 13.3785C17.7758 12.9448 17.4509 12.6124 17.0286 12.3813C16.6062 12.1484 16.1025 12.0319 15.5172 12.0319H13.4377V17.8501ZM15.4491 16.7961H14.6678V13.0859H15.4519C15.8155 13.0859 16.1214 13.1503 16.3695 13.2791C16.6176 13.4079 16.8042 13.6086 16.9292 13.8813C17.0561 14.1541 17.1195 14.5054 17.1195 14.9353C17.1195 15.369 17.0561 15.7232 16.9292 15.9978C16.8042 16.2706 16.6167 16.4723 16.3667 16.6029C16.1186 16.7317 15.8127 16.7961 15.4491 16.7961ZM24.5771 16.5603C24.8177 16.1152 24.9379 15.5755 24.9379 14.941C24.9379 14.3065 24.8177 13.7668 24.5771 13.3217C24.3385 12.8766 24.0127 12.5376 23.5999 12.3046C23.1889 12.0698 22.7268 11.9524 22.2135 11.9524C21.6964 11.9524 21.2324 12.0698 20.8214 12.3046C20.4105 12.5376 20.0857 12.8766 19.847 13.3217C19.6084 13.7668 19.4891 14.3065 19.4891 14.941C19.4891 15.5736 19.6084 16.1124 19.847 16.5575C20.0857 17.0026 20.4105 17.3425 20.8214 17.5774C21.2324 17.8122 21.6964 17.9296 22.2135 17.9296C22.7268 17.9296 23.1889 17.8132 23.5999 17.5802C24.0127 17.3454 24.3385 17.0054 24.5771 16.5603ZM23.5061 13.9012C23.6292 14.1834 23.6908 14.53 23.6908 14.941C23.6908 15.352 23.6292 15.6986 23.5061 15.9808C23.3849 16.263 23.2135 16.477 22.9919 16.6228C22.7703 16.7687 22.5108 16.8416 22.2135 16.8416C21.9161 16.8416 21.6567 16.7687 21.4351 16.6228C21.2135 16.477 21.0411 16.263 20.918 15.9808C20.7968 15.6986 20.7362 15.352 20.7362 14.941C20.7362 14.53 20.7968 14.1834 20.918 13.9012C21.0411 13.619 21.2135 13.405 21.4351 13.2592C21.6567 13.1134 21.9161 13.0404 22.2135 13.0404C22.5108 13.0404 22.7703 13.1134 22.9919 13.2592C23.2135 13.405 23.3849 13.619 23.5061 13.9012ZM30.0717 14.0688H31.316C31.2762 13.7317 31.1853 13.4325 31.0433 13.1711C30.9031 12.9098 30.7213 12.6891 30.4978 12.5092C30.2743 12.3274 30.0177 12.1891 29.7279 12.0944C29.4401 11.9997 29.1276 11.9524 28.7904 11.9524C28.2791 11.9524 27.8188 12.0698 27.4098 12.3046C27.0007 12.5376 26.6768 12.8766 26.4382 13.3217C26.1995 13.7668 26.0802 14.3065 26.0802 14.941C26.0802 15.5736 26.1976 16.1124 26.4325 16.5575C26.6692 17.0026 26.9912 17.3425 27.3984 17.5774C27.8075 17.8122 28.2715 17.9296 28.7904 17.9296C29.1635 17.9296 29.4978 17.8738 29.7933 17.762C30.0906 17.6484 30.3463 17.495 30.5603 17.3018C30.7762 17.1067 30.9476 16.8861 31.0745 16.6399C31.2033 16.3918 31.2838 16.1342 31.316 15.8671L30.0717 15.8615C30.0433 16.0168 29.9921 16.155 29.9183 16.2762C29.8463 16.3974 29.7554 16.5007 29.6455 16.5859C29.5357 16.6692 29.4098 16.7327 29.2677 16.7762C29.1276 16.8198 28.9751 16.8416 28.8103 16.8416C28.5168 16.8416 28.2582 16.7696 28.0348 16.6257C27.8113 16.4817 27.637 16.2687 27.512 15.9865C27.3889 15.7043 27.3274 15.3558 27.3274 14.941C27.3274 14.5376 27.3889 14.1948 27.512 13.9126C27.6351 13.6285 27.8084 13.4126 28.0319 13.2649C28.2554 13.1152 28.5177 13.0404 28.8188 13.0404C28.9855 13.0404 29.1399 13.0641 29.2819 13.1115C29.4259 13.1588 29.5527 13.227 29.6626 13.316C29.7724 13.405 29.8624 13.513 29.9325 13.6399C30.0026 13.7649 30.049 13.9079 30.0717 14.0688ZM35.3951 13.1711C35.5674 13.298 35.665 13.476 35.6877 13.7052H36.8667C36.861 13.3586 36.7682 13.0537 36.5883 12.7904C36.4083 12.5272 36.1564 12.3217 35.8326 12.174C35.5106 12.0262 35.1337 11.9524 34.7019 11.9524C34.2777 11.9524 33.8989 12.0262 33.5655 12.174C33.2322 12.3217 32.9699 12.5272 32.7786 12.7904C32.5892 13.0537 32.4955 13.3615 32.4973 13.7137C32.4955 14.1437 32.6366 14.4855 32.9206 14.7393C33.2047 14.9931 33.592 15.1796 34.0826 15.299L34.7161 15.4581C34.9282 15.5092 35.1072 15.566 35.253 15.6285C35.4008 15.691 35.5125 15.7668 35.5883 15.8558C35.6659 15.9448 35.7047 16.0546 35.7047 16.1853C35.7047 16.3255 35.6621 16.4495 35.5769 16.5575C35.4917 16.6654 35.3714 16.7497 35.2161 16.8103C35.0627 16.8709 34.8818 16.9012 34.6735 16.9012C34.4614 16.9012 34.271 16.869 34.1025 16.8046C33.9358 16.7384 33.8023 16.6408 33.7019 16.512C33.6034 16.3813 33.5475 16.2185 33.5343 16.0234H32.3439C32.3534 16.442 32.4547 16.7933 32.6479 17.0774C32.843 17.3596 33.1138 17.5726 33.4604 17.7166C33.8089 17.8605 34.218 17.9325 34.6877 17.9325C35.1612 17.9325 35.5655 17.8615 35.9008 17.7194C36.2379 17.5755 36.4955 17.3738 36.6735 17.1143C36.8534 16.8529 36.9443 16.5442 36.9462 16.1882C36.9443 15.9457 36.8998 15.7308 36.8127 15.5433C36.7275 15.3558 36.6072 15.1929 36.4519 15.0546C36.2966 14.9164 36.1129 14.7999 35.9008 14.7052C35.6886 14.6105 35.4557 14.5348 35.2019 14.4779L34.6792 14.3529C34.5523 14.3245 34.433 14.2904 34.3212 14.2507C34.2095 14.209 34.111 14.1607 34.0258 14.1058C33.9405 14.049 33.8733 13.9817 33.8241 13.9041C33.7767 13.8264 33.7549 13.7355 33.7587 13.6313C33.7587 13.5063 33.7947 13.3946 33.8667 13.2961C33.9405 13.1976 34.0466 13.1209 34.1848 13.066C34.3231 13.0092 34.4926 12.9808 34.6934 12.9808C34.9888 12.9808 35.2227 13.0442 35.3951 13.1711Z" fill="white"/>
<defs>
<filter id="filter0_b_4522_2641" x="-66.631" y="-66.631" width="183.262" height="163.262" filterUnits="userSpaceOnUse" color-interpolation-filters="sRGB">
<feFlood flood-opacity="0" result="BackgroundImageFix"/>
<feGaussianBlur in="BackgroundImageFix" stdDeviation="33.3155"/>
<feComposite in2="SourceAlpha" operator="in" result="effect1_backgroundBlur_4522_2641"/>
<feBlend mode="normal" in="SourceGraphic" in2="effect1_backgroundBlur_4522_2641" result="shape"/>
</filter>
<linearGradient id="paint0_linear_4522_2641" x1="-5.19444" y1="-2.31818" x2="55.0342" y2="37.1972" gradientUnits="userSpaceOnUse">
<stop offset="0.00554471" stop-color="white" stop-opacity="0.4"/>
<stop offset="1" stop-color="white" stop-opacity="0.01"/>
</linearGradient>
</defs>
</svg>
