<svg width="15" height="15" viewBox="0 0 15 15" fill="none" xmlns="http://www.w3.org/2000/svg">
<g clip-path="url(#clip0_4523_37562)">
<path d="M6.20153 14.6238H6.18999C5.86707 14.6238 5.57874 14.4164 5.46341 14.1168L5.09435 13.195L4.22936 13.5407C3.9295 13.6559 3.59504 13.5868 3.36438 13.3563C3.13372 13.1259 3.07605 12.7803 3.20291 12.4922L4.54076 9.39282L5.6018 9.8537L4.60996 12.1581L5.7402 11.7087L6.21306 12.8955L6.97425 11.2478L8.0353 11.7087L6.92811 14.1514C6.80125 14.4394 6.51292 14.6353 6.20153 14.6353V14.6238Z" fill="white"/>
<path d="M8.93502 14.6235C8.6121 14.6235 8.3353 14.4392 8.20844 14.1396L6.53613 10.4065L7.58565 9.9341L8.91196 12.8952L9.39635 11.6854L10.5266 12.1348L9.37328 9.54236L10.4343 9.08148L11.9221 12.4689C12.049 12.7685 11.9913 13.1026 11.7606 13.3331C11.53 13.5635 11.1955 13.6326 10.8957 13.5174L10.0422 13.1833L9.67314 14.105C9.55781 14.4046 9.26948 14.6005 8.94656 14.6005L8.93502 14.6235Z" fill="white"/>
<path d="M7.57432 2.1337C7.95491 2.5024 8.46237 2.72131 9.00443 2.72131C9.17742 2.72131 9.35042 2.69827 9.52342 2.65218C9.70795 3.3435 10.25 3.88502 10.942 4.06937C10.7575 4.76069 10.9535 5.49809 11.461 6.00505C10.9535 6.51201 10.7575 7.24941 10.942 7.94073C10.25 8.12508 9.70795 8.6666 9.52342 9.35792C9.35042 9.31183 9.18895 9.28879 9.00443 9.28879C8.46237 9.28879 7.95491 9.5077 7.57432 9.8764C7.19372 9.5077 6.68627 9.28879 6.14421 9.28879C5.97121 9.28879 5.79822 9.31183 5.62522 9.35792C5.44069 8.6666 4.89863 8.12508 4.20665 7.94073C4.39118 7.24941 4.19511 6.51201 3.68765 6.00505C4.19511 5.49809 4.39118 4.76069 4.20665 4.06937C4.89863 3.88502 5.44069 3.3435 5.62522 2.65218C5.79822 2.69827 5.95968 2.72131 6.14421 2.72131C6.68627 2.72131 7.19372 2.5024 7.57432 2.1337ZM7.57432 0.831726C7.30906 0.831726 7.03226 0.958467 6.85926 1.20043C6.68627 1.44239 6.42101 1.56913 6.14421 1.56913C6.01735 1.56913 5.89048 1.54608 5.77515 1.48847C5.65982 1.43086 5.53295 1.40782 5.40609 1.40782C4.97936 1.40782 4.57571 1.73043 4.54111 2.20283C4.50651 2.61762 4.17205 2.95175 3.74532 2.99784C3.1456 3.05545 2.77654 3.68915 3.03027 4.23068C3.20326 4.6109 3.08793 5.07178 2.74194 5.31374C2.24601 5.65939 2.24601 6.39679 2.74194 6.74245C3.08793 6.98441 3.20326 7.43376 3.03027 7.82551C2.77654 8.36704 3.1456 9.00074 3.74532 9.05835C4.16051 9.09291 4.49497 9.42705 4.54111 9.85336C4.58724 10.3258 4.97936 10.6484 5.40609 10.6484C5.53295 10.6484 5.64829 10.6253 5.77515 10.5677C5.89048 10.5101 6.01735 10.4871 6.14421 10.4871C6.42101 10.4871 6.68627 10.6138 6.85926 10.8558C7.03226 11.0977 7.29752 11.2245 7.57432 11.2245C7.85111 11.2245 8.11637 11.0977 8.28937 10.8558C8.46237 10.6138 8.72763 10.4871 9.00443 10.4871C9.13129 10.4871 9.25815 10.5101 9.37349 10.5677C9.48882 10.6253 9.61568 10.6484 9.74255 10.6484C10.1693 10.6484 10.5729 10.3258 10.6075 9.85336C10.6421 9.43857 10.9766 9.10444 11.4033 9.05835C12.003 9.00074 12.3721 8.36704 12.1184 7.82551C11.9454 7.44529 12.0607 6.98441 12.4067 6.74245C12.9026 6.39679 12.9026 5.65939 12.4067 5.31374C12.0607 5.07178 11.9454 4.62242 12.1184 4.23068C12.3721 3.68915 12.003 3.05545 11.4033 2.99784C10.9881 2.96327 10.6537 2.62914 10.6075 2.20283C10.5614 1.73043 10.1693 1.40782 9.74255 1.40782C9.61568 1.40782 9.50035 1.43086 9.37349 1.48847C9.25815 1.54608 9.13129 1.56913 9.00443 1.56913C8.72763 1.56913 8.46237 1.44239 8.28937 1.20043C8.11637 0.958467 7.85111 0.831726 7.57432 0.831726Z" fill="white"/>
</g>
<defs>
<clipPath id="clip0_4523_37562">
<rect width="14" height="14" fill="white" transform="translate(0.641479 0.550842)"/>
</clipPath>
</defs>
</svg>
