<svg width="24" height="23" viewBox="0 0 24 23" fill="none" xmlns="http://www.w3.org/2000/svg">
<g clip-path="url(#clip0_4523_37833)">
<path d="M19.866 19.031V18.8833C19.866 18.5034 19.6444 18.1763 19.3384 17.9969H19.37V8.44675L20.0982 6.32567H17.2595V4.20459H6.71742V6.32567H3.87877L4.6069 8.44675V17.9969H4.63856C4.32198 18.1763 4.11093 18.4928 4.11093 18.8833V19.031C3.78379 19.1682 3.55164 19.4953 3.55164 19.8858V20.0441H9.88321V19.8858C9.88321 19.5059 9.65105 19.1788 9.32392 19.031V18.8833C9.32392 18.5034 9.10232 18.1763 8.79629 17.9969H8.8385V13.2165C8.8385 11.5176 10.2103 10.1352 11.8988 10.1352H12.0887C13.7771 10.1352 15.149 11.5176 15.149 13.2165V17.9969H15.1912C14.8746 18.1763 14.6636 18.4928 14.6636 18.8833V19.031C14.3364 19.1682 14.1043 19.4953 14.1043 19.8858V20.0441H20.4358V19.8858C20.4358 19.5059 20.2037 19.1788 19.8766 19.031H19.866Z" fill="#DA8BFC"/>
</g>
<defs>
<clipPath id="clip0_4523_37833">
<rect width="22.5412" height="22.5412" fill="white" transform="translate(0.712036 0.284546)"/>
</clipPath>
</defs>
</svg>
