<svg width="36" height="36" viewBox="0 0 36 36" fill="none" xmlns="http://www.w3.org/2000/svg">
<g clip-path="url(#clip0_4564_499)">
<path d="M25.1039 29.088H31.1999V12.66H25.1039V29.088Z" fill="#3486FF"/>
<path d="M22.8964 32.0401C22.8964 31.5361 23.3044 31.1161 23.8204 31.1161H24.0004H28.0564V33.1441H22.8844V32.0401H22.8964Z" fill="#6DAAFF"/>
<path d="M32.125 31.1161H32.305C32.809 31.1161 33.229 31.5241 33.229 32.0401V33.1441H28.057V31.1161H32.113H32.125Z" fill="#3486FF"/>
<path d="M28.057 29.088H31.201C31.705 29.088 32.125 29.496 32.125 30.012V31.116H28.069V29.088H28.057Z" fill="#6AA9FF"/>
<path d="M28.0563 29.088H24.9123C24.4083 29.088 23.9883 29.496 23.9883 30.012V31.116H28.0443V29.088H28.0563Z" fill="#9DDEFF"/>
<path d="M10.7035 12.6481H4.61951V29.0761H10.7155V12.6481H10.7035Z" fill="#A3CAFF"/>
<path d="M7.75311 10.62V29.076H10.7051V19.848C10.7051 15.876 13.9331 12.648 17.9051 12.648V10.62H7.75311Z" fill="#6DAAFF"/>
<path d="M28.0559 10.62V29.076H25.1039V19.848C25.1039 15.876 21.8759 12.648 17.9039 12.648V10.62H28.0559Z" fill="#6DAAFF"/>
<path d="M12.9251 32.0401C12.9251 31.5361 12.5171 31.1161 12.0011 31.1161H7.75311V33.1441H12.9251V32.0401Z" fill="#3486FF"/>
<path d="M3.69616 31.1161H3.51616C3.01216 31.1161 2.59216 31.5241 2.59216 32.0401V33.1441H7.76416V31.1161H3.70816H3.69616Z" fill="#6DAAFF"/>
<path d="M7.75239 29.088H4.60839C4.10439 29.088 3.68439 29.496 3.68439 30.012V31.116H7.74039V29.088H7.75239Z" fill="#B5E6FF"/>
<path d="M7.75311 29.088H10.8971C11.4011 29.088 11.8211 29.496 11.8211 30.012V31.116H7.76511V29.088H7.75311Z" fill="#8FBEFF"/>
<path d="M17.9051 4.53613H7.75311V8.59213H17.9051V4.53613Z" fill="#D9F5FD"/>
<path d="M28.0559 4.53613H17.9039V8.59213H28.0559V4.53613Z" fill="#A9E8FA"/>
<path d="M3 8.59204L3.6 12.648H17.904V8.59204H3Z" fill="#9DDEFF"/>
<path d="M32.8199 8.59204L32.2199 12.648H17.9039V8.59204H32.8199Z" fill="#80D4FF"/>
</g>
<defs>
<clipPath id="clip0_4564_499">
<rect width="36" height="36" fill="white"/>
</clipPath>
</defs>
</svg>
