<svg xmlns="http://www.w3.org/2000/svg" width="38" height="37" viewBox="0 0 38 37" fill="none">
  <g clip-path="url(#clip0_4523_38251)">
    <path opacity="0.3" d="M34.1751 28.6957L21.1885 35.3781C19.8106 36.0896 18.1805 36.0896 16.8116 35.3781L3.82502 28.6957C2.42009 27.9752 2.44711 25.9579 3.86105 25.2734L16.9017 18.9422C18.2166 18.3028 19.7566 18.3028 21.0805 18.9422L34.1211 25.2734C35.544 25.9579 35.562 27.9752 34.1571 28.6957H34.1751Z" fill="#579CFF"/>
    <path d="M2.78925 20.3091V24.5419H2.81626C2.87931 25.1543 3.20352 25.7307 3.82493 26.0549L16.8115 32.7373C17.496 33.0885 18.2525 33.2687 19 33.2687V20.3091H2.78925Z" fill="#80D4FF"/>
    <path d="M35.2107 20.2642H19V33.2598C19.7475 33.2598 20.504 33.0796 21.1884 32.7284L34.175 26.046C34.7965 25.7218 35.1297 25.1454 35.1837 24.542H35.2107V20.2642Z" fill="#D9F5FD"/>
    <path d="M34.1751 21.9571L21.1885 28.6396C19.8106 29.351 18.1805 29.351 16.8116 28.6396L3.82502 21.9571C2.42009 21.2367 2.44711 19.2193 3.86105 18.5349L16.9017 12.2037C18.2166 11.5643 19.7566 11.5643 21.0805 12.2037L34.1211 18.5349C35.544 19.2193 35.562 21.2367 34.1571 21.9571H34.1751Z" fill="#F0FBFE"/>
    <path d="M2.78925 14.4099V18.6427H2.81626C2.87931 19.2551 3.20352 19.8315 3.82493 20.1557L16.8115 26.8381C17.496 27.1894 18.2525 27.3695 19 27.3695V14.4099H2.78925Z" fill="#6DAAFF"/>
    <path d="M35.2107 14.3652H19V27.3608C19.7475 27.3608 20.504 27.1807 21.1884 26.8295L34.175 20.1471C34.7965 19.8228 35.1297 19.2465 35.1837 18.6431H35.2107V14.3652Z" fill="#B2D2FF"/>
    <path d="M34.1751 16.0489L21.1885 22.7314C19.8106 23.4428 18.1805 23.4428 16.8116 22.7314L3.82502 16.0489C2.42009 15.3285 2.44711 13.3111 3.86105 12.6267L16.9017 6.29549C18.2166 5.65606 19.7566 5.65606 21.0805 6.29549L34.1211 12.6267C35.544 13.3111 35.562 15.3285 34.1571 16.0489H34.1751Z" fill="#CEE2FF"/>
    <path d="M2.78931 8.51099V12.7438H2.81632C2.87937 13.3562 3.20358 13.9326 3.82499 14.2568L16.8116 20.9392C17.496 21.2905 18.2525 21.4706 19 21.4706V8.51099H2.78931Z" fill="#3486FF"/>
    <path d="M35.2108 8.46582H19.0001V21.4614C19.7476 21.4614 20.5041 21.2813 21.1885 20.9301L34.1751 14.2476C34.7965 13.9234 35.1297 13.3471 35.1838 12.7437H35.2108V8.46582Z" fill="#83B7FF"/>
    <path d="M34.1751 10.2308L21.1885 16.9133C19.8106 17.6247 18.1805 17.6247 16.8116 16.9133L3.82502 10.2308C2.42009 9.51035 2.44711 7.49302 3.86105 6.80856L16.9107 0.47737C18.2256 -0.162053 19.7656 -0.162053 21.0895 0.47737L34.1301 6.80856C35.553 7.49302 35.571 9.51035 34.1661 10.2308H34.1751Z" fill="#6DAAFF"/>
    <path d="M4.93049 13.6306C5.24084 13.5874 5.44015 13.177 5.37564 12.7139C5.31114 12.2508 5.00726 11.9105 4.6969 11.9537C4.38654 11.9969 4.18724 12.4074 4.25174 12.8704C4.31625 13.3335 4.62013 13.6739 4.93049 13.6306Z" fill="white"/>
    <path d="M6.8003 14.7051C7.11066 14.6619 7.30996 14.2514 7.24546 13.7884C7.18095 13.3253 6.87707 12.9849 6.56671 13.0282C6.25635 13.0714 6.05705 13.4818 6.12155 13.9449C6.18606 14.408 6.48994 14.7483 6.8003 14.7051Z" fill="white"/>
    <path d="M4.93421 19.4024C5.24457 19.3591 5.44387 18.9487 5.37937 18.4856C5.31486 18.0226 5.01098 17.6822 4.70062 17.7254C4.39027 17.7687 4.19096 18.1791 4.25547 18.6422C4.31997 19.1052 4.62385 19.4456 4.93421 19.4024Z" fill="white"/>
    <path d="M6.79334 20.4678C7.1037 20.4246 7.303 20.0141 7.2385 19.5511C7.17399 19.088 6.87011 18.7476 6.55975 18.7909C6.2494 18.8341 6.05009 19.2445 6.1146 19.7076C6.1791 20.1707 6.48298 20.511 6.79334 20.4678Z" fill="white"/>
    <path d="M4.93226 25.2632C5.24261 25.22 5.44192 24.8095 5.37741 24.3465C5.31291 23.8834 5.00903 23.543 4.69867 23.5863C4.38831 23.6295 4.18901 24.0399 4.25351 24.503C4.31802 24.9661 4.6219 25.3064 4.93226 25.2632Z" fill="#0E5ACA"/>
    <path d="M6.80036 26.3999C7.11072 26.3567 7.31002 25.9463 7.24552 25.4832C7.18101 25.0201 6.87713 24.6798 6.56677 24.723C6.25642 24.7662 6.05711 25.1767 6.12162 25.6397C6.18612 26.1028 6.49 26.4432 6.80036 26.3999Z" fill="#0E5ACA"/>
    <path d="M20.2785 5.87208L19.7201 6.14226L17.5677 5.04353C16.0186 4.26001 13.2988 4.33206 11.4977 5.21465C9.69646 6.09723 9.48032 7.45713 11.0293 8.24065L12.6684 7.43912C11.8939 7.04286 12.002 6.36741 12.9026 5.92612C13.8032 5.48483 15.1631 5.4488 15.9376 5.84506L18.09 6.94379L12.7945 9.53751C12.1551 9.85272 12.083 10.33 12.6324 10.6182L17.6757 13.1939C18.2251 13.4731 19.1978 13.4461 19.8372 13.1309L27.3031 9.45646C27.9425 9.14125 28.0056 8.66393 27.4562 8.38475L22.4309 5.82705C21.8815 5.54787 20.9179 5.57489 20.2785 5.88109V5.87208Z" fill="white"/>
  </g>
  <defs>
    <clipPath id="clip0_4523_38251">
      <rect width="36.0239" height="36.24" fill="white" transform="translate(0.988098)"/>
    </clipPath>
  </defs>
</svg>