<svg width="40" height="40" viewBox="0 0 40 40" fill="none" xmlns="http://www.w3.org/2000/svg">
<rect width="40" height="40" fill="#7C61AA"/>
<mask id="mask0_4646_31693" style="mask-type:alpha" maskUnits="userSpaceOnUse" x="0" y="0" width="40" height="40">
<rect width="40" height="40" fill="#7C61AA"/>
</mask>
<g mask="url(#mask0_4646_31693)">
<path d="M20.0349 40C31.0681 40 40.0122 31.0559 40.0122 20.0227C40.0122 8.9896 31.0681 0.0454712 20.0349 0.0454712C9.00178 0.0454712 0.0576782 8.9896 0.0576782 20.0227C0.0576782 31.0559 9.00178 40 20.0349 40Z" fill="#7C61AA"/>
<path d="M12.5953 9.81801C17.5247 9.81801 22.3677 9.81801 27.2972 9.81801C27.2972 10.7693 27.2972 11.7206 27.2972 12.7584C28.5079 12.7584 29.7186 12.7584 31.0159 12.7584C30.7564 13.7097 30.497 14.661 30.324 15.6123C30.0646 15.6123 29.8051 15.6123 29.5457 15.6123C29.5457 19.504 29.5457 23.3091 29.5457 27.2008C29.8051 27.2873 30.151 27.3738 30.2375 27.6332C30.324 27.9792 30.324 28.3251 30.324 28.671C30.5835 28.7575 30.9294 28.844 31.0159 29.1899C31.1023 29.5358 31.0158 29.7953 31.1023 30.1412C28.6808 30.1412 26.1729 30.1412 23.7514 30.1412C23.7514 29.7953 23.7514 29.4494 23.8379 29.1034C23.9244 28.844 24.2703 28.7575 24.5297 28.671C24.5297 28.3251 24.5297 28.0656 24.6162 27.7197C24.7027 27.3738 25.0487 27.2873 25.3081 27.2008C25.3081 25.2117 25.3081 23.2227 25.3081 21.2336C25.3081 19.7634 24.6162 18.3797 23.492 17.5149C21.8488 16.1312 19.4273 15.8717 17.6112 16.9095C16.0545 17.6878 15.0168 19.4175 15.0168 21.2336C15.0168 23.2227 15.0168 25.2117 15.0168 27.2008C15.1897 27.2873 15.4492 27.2873 15.6221 27.5468C15.7951 27.8927 15.7086 28.3251 15.7951 28.671C16.0546 28.7575 16.314 28.844 16.487 29.1034C16.5734 29.4494 16.4869 29.7953 16.5734 30.1412C14.1519 30.1412 11.644 30.1412 9.22247 30.1412C9.22247 29.7953 9.2225 29.4493 9.30899 29.1899C9.39547 28.9305 9.74138 28.7575 10.0008 28.671C10.0008 28.3251 10.0008 27.9792 10.0873 27.6332C10.1738 27.3738 10.5197 27.2873 10.7791 27.2008C10.7791 23.3091 10.7791 19.504 10.7791 15.6123C10.5197 15.6123 10.2603 15.6123 10.0008 15.6123C9.74138 14.661 9.48195 13.7097 9.30899 12.7584C10.5197 12.7584 11.7305 12.7584 13.0277 12.7584C12.5953 11.8071 12.5953 10.8558 12.5953 9.81801Z" fill="white"/>
</g>
</svg>
