<svg width="30" height="30" viewBox="0 0 30 30" fill="none" xmlns="http://www.w3.org/2000/svg">
<path d="M0 27.8572C0 29.0406 0.959385 30 2.14285 30H27.8572C29.0406 30 30 29.0406 30 27.8572V2.14285C30 0.959385 29.0406 0 27.8572 0H2.14285C0.959385 0 0 0.959385 0 2.14285V27.8572ZM25.9822 2.14286C27.1657 2.14286 28.1251 3.10224 28.1251 4.2857V25.7143C28.1251 26.8978 27.1657 27.8571 25.9822 27.8571H4.01785C2.83439 27.8571 1.875 26.8978 1.875 25.7143V4.2857C1.875 3.10224 2.83439 2.14286 4.01785 2.14286H25.9822Z" fill="#6DAAFF"/>
<g clip-path="url(#clip0_4522_2641)">
<path d="M18.5519 20.544H21.5999V12.33H18.5519V20.544Z" fill="#3486FF"/>
<path d="M17.4482 22.02C17.4482 21.768 17.6522 21.558 17.9102 21.558H18.0002H20.0282V22.572H17.4422V22.02H17.4482Z" fill="#6DAAFF"/>
<path d="M22.0625 21.558H22.1525C22.4045 21.558 22.6145 21.762 22.6145 22.02V22.572H20.0285V21.558H22.0565H22.0625Z" fill="#3486FF"/>
<path d="M20.0285 20.5439H21.6005C21.8525 20.5439 22.0625 20.7479 22.0625 21.0059V21.5579H20.0345V20.5439H20.0285Z" fill="#6AA9FF"/>
<path d="M20.0281 20.5439H18.4561C18.2041 20.5439 17.9941 20.7479 17.9941 21.0059V21.5579H20.0221V20.5439H20.0281Z" fill="#9DDEFF"/>
<path d="M11.3518 12.324H8.30975V20.538H11.3578V12.324H11.3518Z" fill="#A3CAFF"/>
<path d="M9.87659 11.3099V20.5379H11.3526V15.9239C11.3526 13.9379 12.9666 12.3239 14.9526 12.3239V11.3099H9.87659Z" fill="#6DAAFF"/>
<path d="M20.028 11.3099V20.5379H18.552V15.9239C18.552 13.9379 16.938 12.3239 14.952 12.3239V11.3099H20.028Z" fill="#6DAAFF"/>
<path d="M12.4626 22.02C12.4626 21.768 12.2586 21.558 12.0006 21.558H9.87659V22.572H12.4626V22.02Z" fill="#3486FF"/>
<path d="M7.84808 21.558H7.75808C7.50608 21.558 7.29608 21.762 7.29608 22.02V22.572H9.88208V21.558H7.85408H7.84808Z" fill="#6DAAFF"/>
<path d="M9.87622 20.5439H8.30422C8.05222 20.5439 7.84222 20.7479 7.84222 21.0059V21.5579H9.87022V20.5439H9.87622Z" fill="#B5E6FF"/>
<path d="M9.87659 20.5439H11.4486C11.7006 20.5439 11.9106 20.7479 11.9106 21.0059V21.5579H9.88259V20.5439H9.87659Z" fill="#8FBEFF"/>
<path d="M14.9526 8.26794H9.87659V10.2959H14.9526V8.26794Z" fill="#D9F5FD"/>
<path d="M20.028 8.26794H14.952V10.2959H20.028V8.26794Z" fill="#A9E8FA"/>
<path d="M7.5 10.2959L7.8 12.3239H14.952V10.2959H7.5Z" fill="#9DDEFF"/>
<path d="M22.41 10.2959L22.11 12.3239H14.952V10.2959H22.41Z" fill="#80D4FF"/>
</g>
<defs>
<clipPath id="clip0_4522_2641">
<rect width="18" height="18" fill="white" transform="translate(6 6)"/>
</clipPath>
</defs>
</svg>
