<svg xmlns="http://www.w3.org/2000/svg" width="36" height="36" viewBox="0 0 36 36" fill="none">
  <g clip-path="url(#clip0_4523_38124)">
    <path d="M18.3721 5.70021L5.01611 11.4962L18.7201 18.5282V5.61621C18.6001 5.61621 18.4801 5.64021 18.3721 5.70021Z" fill="#63A5FF"/>
    <path d="M19.0681 5.70021C18.9601 5.64021 18.8401 5.61621 18.7201 5.61621V18.5282L32.4241 11.4962L19.0681 5.70021Z" fill="#3486FF"/>
    <path opacity="0.3" d="M15.8041 6.80371L17.2921 14.7597L18.3721 13.6797L17.0881 7.10371L15.8041 6.80371Z" fill="#2E53A0"/>
    <path d="M16.4759 0.276134L14.9159 0.744134C14.6639 0.816134 14.4839 1.05613 14.4839 1.32013V4.75213C14.4839 5.05213 14.5799 5.32813 14.7719 5.55613L16.5719 7.72813L19.6079 17.7481L22.0319 17.0161L18.9959 6.99613L19.2839 4.20013C19.3199 3.91213 19.2359 3.61213 19.0799 3.37213L17.1719 0.516134C17.0279 0.288134 16.7519 0.192134 16.4879 0.276134H16.4759Z" fill="#80D4FF"/>
    <path d="M22.596 17.2562C22.8 17.9402 23.472 18.3362 24.144 18.2282L27.36 28.6922C27.828 30.2282 26.964 31.8722 25.404 32.3522C23.844 32.8322 22.212 31.9322 21.744 30.3962L18.528 19.9322C19.14 19.6442 19.476 18.9362 19.272 18.2642C19.068 17.5922 18.396 17.1842 17.724 17.2922L17.184 15.5282L22.788 13.8242L23.328 15.5882C22.716 15.8762 22.38 16.5722 22.584 17.2562H22.596Z" fill="#D9F5FD"/>
    <path opacity="0.3" d="M7.00793 10.6322L8.51993 13.2962L15.2879 16.7642L16.0439 15.9362L8.62793 10.1882L7.00793 10.6322Z" fill="#2E53A0"/>
    <path d="M29.9041 29.8802L31.6321 28.0442L29.4841 24.2762L26.4121 23.1362L12.4201 9.97217L10.6921 11.8202L24.6841 24.9722L26.0161 27.9602L29.9041 29.8802Z" fill="#80D4FF"/>
    <path d="M10.0921 11.9042C9.5761 11.4242 8.7961 11.4002 8.2681 11.8322L1.2961 5.20816C0.120098 4.11616 0.0480978 2.25616 1.1641 1.06816C2.2801 -0.119843 4.1401 -0.155843 5.3041 0.936157L12.2761 7.56016C11.8801 8.11216 11.9521 8.89216 12.4681 9.37216C12.9841 9.85216 13.7641 9.87616 14.2921 9.44416L15.6361 10.7042L11.6161 14.9762L10.2721 13.7162C10.6681 13.1642 10.5961 12.3842 10.0801 11.9042H10.0921Z" fill="#D9F5FD"/>
    <path d="M24.8759 2.49551C26.1239 1.24751 27.7799 0.683506 29.3999 0.779506C29.7719 0.803506 29.9519 1.24751 29.6879 1.51151L26.7359 4.46351L27.6959 8.05151L31.2839 9.01151L34.2359 6.05951C34.4999 5.79551 34.9439 5.97551 34.9679 6.34751C35.0639 7.97951 34.4879 9.63551 33.2519 10.8715C31.5959 12.5275 29.2199 12.9835 27.1559 12.2875L17.7959 21.6475L14.1119 17.9635L23.4719 8.60351C22.7639 6.53951 23.2319 4.15151 24.8879 2.50751L24.8759 2.49551Z" fill="#D9F5FD"/>
    <path d="M5.01603 11.4961V27.7441C5.01603 28.6441 5.50803 29.4841 6.30003 29.9161L16.344 35.4001C17.088 35.8081 17.892 36.0001 18.708 36.0001V18.5281L5.00403 11.4961H5.01603Z" fill="#3486FF"/>
    <path d="M18.72 18.5281V36.0001C19.536 36.0001 20.352 35.7961 21.084 35.4001L31.128 29.9161C31.92 29.4841 32.412 28.6561 32.412 27.7441V11.4961L18.708 18.5281H18.72Z" fill="#83B7FF"/>
    <path d="M32.3881 11.4959L35.2921 15.7079C35.9281 16.6079 35.6401 17.8439 34.6921 18.3839L24.8881 23.9519C24.0841 24.4079 23.0641 24.2039 22.5001 23.4719L18.6721 18.5159L32.3761 11.4839L32.3881 11.4959Z" fill="#C3DCFF"/>
    <path d="M9.27594 25.3437L8.57994 24.9837V24.7917C8.57994 24.5997 8.54394 24.4077 8.47194 24.2277C8.39994 24.0477 8.26794 23.9037 8.09994 23.8197C8.00394 23.7717 7.93194 23.7477 7.87194 23.7717C7.81194 23.7837 7.76394 23.8197 7.72794 23.8677C7.69194 23.9277 7.66794 23.9877 7.65594 24.0837C7.64394 24.1677 7.63194 24.2637 7.63194 24.3597C7.63194 24.4797 7.63194 24.5757 7.63194 24.6597C7.63194 24.7437 7.65594 24.8277 7.67994 24.8997C7.70394 24.9717 7.75194 25.0557 7.79994 25.1277C7.84794 25.1997 7.91994 25.2837 8.01594 25.3797L8.54394 25.9197C8.69994 26.0757 8.81994 26.2197 8.91594 26.3757C9.01194 26.5197 9.08394 26.6757 9.14394 26.8317C9.19194 26.9877 9.22794 27.1677 9.23994 27.3477C9.25194 27.5277 9.26394 27.7317 9.26394 27.9477C9.26394 28.1997 9.23994 28.4277 9.20394 28.6197C9.16794 28.8117 9.09594 28.9677 9.01194 29.0637C8.91594 29.1717 8.79594 29.2317 8.63994 29.2437C8.48394 29.2437 8.30394 29.1957 8.07594 29.0877C7.90794 29.0037 7.75194 28.8837 7.60794 28.7277C7.46394 28.5717 7.34394 28.4157 7.23594 28.2237C7.12794 28.0437 7.04394 27.8397 6.98394 27.6477C6.92394 27.4437 6.88794 27.2397 6.88794 27.0357V26.7117L7.58394 27.0717V27.3477C7.58394 27.5037 7.61994 27.6717 7.69194 27.8277C7.76394 27.9957 7.89594 28.1277 8.06394 28.2117C8.18394 28.2717 8.26794 28.2957 8.33994 28.2957C8.41194 28.2957 8.45994 28.2597 8.49594 28.1997C8.53194 28.1397 8.55594 28.0557 8.55594 27.9477C8.55594 27.8397 8.55594 27.7197 8.55594 27.5877C8.55594 27.4317 8.55594 27.2997 8.54394 27.1917C8.54394 27.0837 8.51994 26.9997 8.48394 26.9157C8.44794 26.8317 8.41194 26.7597 8.36394 26.6997C8.31594 26.6277 8.24394 26.5557 8.15994 26.4597L7.66794 25.9437C7.36794 25.6317 7.16394 25.3317 7.06794 25.0197C6.97194 24.7197 6.91194 24.3717 6.91194 23.9997C6.91194 23.7717 6.93594 23.5677 6.98394 23.3997C7.03194 23.2317 7.10394 23.0877 7.21194 22.9917C7.30794 22.8957 7.42794 22.8477 7.57194 22.8357C7.71594 22.8357 7.89594 22.8717 8.09994 22.9797C8.26794 23.0757 8.42394 23.1957 8.56794 23.3517C8.71194 23.5077 8.83194 23.6757 8.93994 23.8557C9.14394 24.2397 9.25194 24.5997 9.25194 24.9477V25.3677L9.27594 25.3437Z" fill="white"/>
    <path d="M10.4398 30.24V24.228L11.4598 24.768C11.8558 24.972 12.1558 25.272 12.3598 25.644C12.5638 26.016 12.6718 26.46 12.6718 26.952V29.76C12.6718 30.324 12.5638 30.684 12.3478 30.828C12.1318 30.984 11.8078 30.948 11.3998 30.732L10.4398 30.228V30.24ZM11.1358 25.404V29.796L11.4598 29.964C11.6518 30.072 11.7958 30.084 11.8678 30C11.9398 29.916 11.9878 29.748 11.9878 29.496V26.604C11.9878 26.364 11.9518 26.16 11.8678 25.992C11.7958 25.824 11.6518 25.68 11.4478 25.572L11.1238 25.404H11.1358Z" fill="white"/>
    <path d="M14.1121 32.2078V26.1958L14.8081 26.5558V29.3038H14.8201L15.8281 27.0958L16.5241 27.4558L15.5761 29.3638L16.6921 33.5638L15.9601 33.1798L15.1681 30.0958L14.7961 30.7678V32.5678L14.1001 32.2078H14.1121Z" fill="white"/>
    <path d="M9.27594 25.3437L8.57994 24.9837V24.7917C8.57994 24.5997 8.54394 24.4077 8.47194 24.2277C8.39994 24.0477 8.26794 23.9037 8.09994 23.8197C8.00394 23.7717 7.93194 23.7477 7.87194 23.7717C7.81194 23.7837 7.76394 23.8197 7.72794 23.8677C7.69194 23.9277 7.66794 23.9877 7.65594 24.0837C7.64394 24.1677 7.63194 24.2637 7.63194 24.3597C7.63194 24.4797 7.63194 24.5757 7.63194 24.6597C7.63194 24.7437 7.65594 24.8277 7.67994 24.8997C7.70394 24.9717 7.75194 25.0557 7.79994 25.1277C7.84794 25.1997 7.91994 25.2837 8.01594 25.3797L8.54394 25.9197C8.69994 26.0757 8.81994 26.2197 8.91594 26.3757C9.01194 26.5197 9.08394 26.6757 9.14394 26.8317C9.19194 26.9877 9.22794 27.1677 9.23994 27.3477C9.25194 27.5277 9.26394 27.7317 9.26394 27.9477C9.26394 28.1997 9.23994 28.4277 9.20394 28.6197C9.16794 28.8117 9.09594 28.9677 9.01194 29.0637C8.91594 29.1717 8.79594 29.2317 8.63994 29.2437C8.48394 29.2437 8.30394 29.1957 8.07594 29.0877C7.90794 29.0037 7.75194 28.8837 7.60794 28.7277C7.46394 28.5717 7.34394 28.4157 7.23594 28.2237C7.12794 28.0437 7.04394 27.8397 6.98394 27.6477C6.92394 27.4437 6.88794 27.2397 6.88794 27.0357V26.7117L7.58394 27.0717V27.3477C7.58394 27.5037 7.61994 27.6717 7.69194 27.8277C7.76394 27.9957 7.89594 28.1277 8.06394 28.2117C8.18394 28.2717 8.26794 28.2957 8.33994 28.2957C8.41194 28.2957 8.45994 28.2597 8.49594 28.1997C8.53194 28.1397 8.55594 28.0557 8.55594 27.9477C8.55594 27.8397 8.55594 27.7197 8.55594 27.5877C8.55594 27.4317 8.55594 27.2997 8.54394 27.1917C8.54394 27.0837 8.51994 26.9997 8.48394 26.9157C8.44794 26.8317 8.41194 26.7597 8.36394 26.6997C8.31594 26.6277 8.24394 26.5557 8.15994 26.4597L7.66794 25.9437C7.36794 25.6317 7.16394 25.3317 7.06794 25.0197C6.97194 24.7197 6.91194 24.3717 6.91194 23.9997C6.91194 23.7717 6.93594 23.5677 6.98394 23.3997C7.03194 23.2317 7.10394 23.0877 7.21194 22.9917C7.30794 22.8957 7.42794 22.8477 7.57194 22.8357C7.71594 22.8357 7.89594 22.8717 8.09994 22.9797C8.26794 23.0757 8.42394 23.1957 8.56794 23.3517C8.71194 23.5077 8.83194 23.6757 8.93994 23.8557C9.14394 24.2397 9.25194 24.5997 9.25194 24.9477V25.3677L9.27594 25.3437Z" fill="white"/>
    <path d="M10.4398 30.24V24.228L11.4598 24.768C11.8558 24.972 12.1558 25.272 12.3598 25.644C12.5638 26.016 12.6718 26.46 12.6718 26.952V29.76C12.6718 30.324 12.5638 30.684 12.3478 30.828C12.1318 30.984 11.8078 30.948 11.3998 30.732L10.4398 30.228V30.24ZM11.1358 25.404V29.796L11.4598 29.964C11.6518 30.072 11.7958 30.084 11.8678 30C11.9398 29.916 11.9878 29.748 11.9878 29.496V26.604C11.9878 26.364 11.9518 26.16 11.8678 25.992C11.7958 25.824 11.6518 25.68 11.4478 25.572L11.1238 25.404H11.1358Z" fill="white"/>
    <path d="M14.1121 32.2078V26.1958L14.8081 26.5558V29.3038H14.8201L15.8281 27.0958L16.5241 27.4558L15.5761 29.3638L16.6921 33.5638L15.9601 33.1798L15.1681 30.0958L14.7961 30.7678V32.5678L14.1001 32.2078H14.1121Z" fill="white"/>
    <path d="M5.01606 11.4959L2.11206 15.7079C1.47606 16.6079 1.76406 17.8439 2.71206 18.3839L12.5161 23.9519C13.3201 24.4079 14.3401 24.2039 14.9041 23.4719L18.7321 18.5159L5.02806 11.4839L5.01606 11.4959Z" fill="#83B7FF"/>
  </g>
  <defs>
    <clipPath id="clip0_4523_38124">
      <rect width="36" height="36" fill="white"/>
    </clipPath>
  </defs>
</svg>