<svg width="30" height="30" viewBox="0 0 30 30" fill="none" xmlns="http://www.w3.org/2000/svg">
<g clip-path="url(#clip0_4571_14433)">
<path d="M20.3845 6.80188V5.38437C20.3845 2.41062 17.9745 0 15.0001 0C12.0264 0 9.61574 2.41062 9.61574 5.38437V6.80188H7.70636V17.5H22.2939V6.80188H20.3845ZM16.5201 14.1969H13.5614L14.2957 12.345C13.7764 12.0856 13.417 11.5544 13.417 10.9344C13.417 10.0594 14.1257 9.35 15.0007 9.35C15.8757 9.35 16.5839 10.0594 16.5839 10.9344C16.5839 11.5469 16.2332 12.0719 15.7245 12.3363L16.5201 14.1969ZM11.8826 6.80188V5.38437C11.8826 3.66312 13.2782 2.26688 15.0001 2.26688C16.7214 2.26688 18.1176 3.6625 18.1176 5.38437V6.80188H11.8826Z" fill="#3486FF"/>
<path d="M0 20V30H30V20H0ZM27.5 27.5H2.5V22.5H27.5V27.5Z" fill="#6DAAFF"/>
<path d="M10.6246 24.0625H6.87457V25.9375H10.6246V24.0625Z" fill="#80D4FF"/>
<path d="M16.875 24.0625H13.125V25.9375H16.875V24.0625Z" fill="#6DAAFF"/>
<path d="M23.1254 24.0625H19.3754V25.9375H23.1254V24.0625Z" fill="#3486FF"/>
<path fill-rule="evenodd" clip-rule="evenodd" d="M15 17.5H7.70703V6.80188H9.61641V5.38437C9.61641 2.41089 12.0266 0.000422574 15 0V2.26688C13.2785 2.2673 11.8833 3.66339 11.8833 5.38437V6.80188H15V9.35C14.1256 9.35076 13.4177 10.0598 13.4177 10.9344C13.4177 11.5544 13.777 12.0856 14.2964 12.345L13.562 14.1969H15V17.5Z" fill="#66A7FE"/>
</g>
<defs>
<clipPath id="clip0_4571_14433">
<rect width="30" height="30" fill="white"/>
</clipPath>
</defs>
</svg>
