<svg
      width="30"
      height="30"
      viewBox="0 0 30 30"
      fill="none"
      xmlns="http://www.w3.org/2000/svg"
    >
      <g clip-path="url(#clip0_4571_14425)">
        <path
          d="M3.75 0C2.71729 0 1.875 0.842286 1.875 1.875V16.875C1.875 21.5625 5.28076 24.8364 8.33496 26.8726C11.3892 28.9087 14.4067 29.9048 14.4067 29.9048C14.7949 30.0366 15.2051 30.0366 15.5933 29.9048C15.5933 29.9048 18.6108 28.9087 21.665 26.8726C24.7192 24.8364 28.125 21.5625 28.125 16.875V1.875C28.125 0.842286 27.2827 0 26.25 0H3.75ZM5.625 3.75H24.375V16.875C24.375 19.6875 22.1558 22.0386 19.585 23.7524C17.3071 25.2686 15.498 25.8691 15 26.0522C14.502 25.8691 12.6929 25.2686 10.415 23.7524C7.84424 22.0386 5.625 19.6875 5.625 16.875V3.75Z"
          fill="#6DAAFF"
        />
        <path
          d="M7.5 5.625V11.25V16.875C7.5 18.75 9.12598 20.6396 11.4551 22.1924C13.2056 23.3569 14.2163 23.6646 15 23.9722C15.7837 23.6646 16.7944 23.3569 18.5449 22.1924C20.874 20.6396 22.5 18.75 22.5 16.875V11.25V5.625H15H7.5Z"
          fill="#66A7FE"
        />
        <path
          d="M18.5449 22.1924C16.7944 23.3569 15.7837 23.6646 15 23.9722V5.625H22.5V11.25V16.875C22.5 18.75 20.874 20.6396 18.5449 22.1924Z"
          fill="#3486FF"
        />
        <g clip-path="url(#clip1_4571_14425)">
          <path
            fill-rule="evenodd"
            clip-rule="evenodd"
            d="M18.1794 9.82016C16.4244 8.06516 13.5744 8.06516 11.8119 9.82016C10.0569 11.5752 10.0569 14.4252 11.8119 16.1877C13.5669 17.9427 16.4169 17.9427 18.1794 16.1877C19.9419 14.4327 19.9344 11.5827 18.1794 9.82016Z"
            fill="#3486FF"
          />
          <path
            fill-rule="evenodd"
            clip-rule="evenodd"
            d="M18.1798 9.82016C16.4248 8.06516 13.5748 8.06516 11.8123 9.82016C10.0573 11.5752 10.0573 14.4252 11.8123 16.1877C13.5673 17.9427 16.4173 17.9427 18.1798 16.1877C19.9423 14.4327 19.9348 11.5827 18.1798 9.82016ZM17.1598 11.7477L14.6848 14.6427L12.9073 13.3077C12.7423 13.1802 12.7048 12.9477 12.8323 12.7827C12.9598 12.6177 13.1923 12.5802 13.3573 12.7077L14.5798 13.6227L16.6048 11.2677C16.7398 11.1102 16.9798 11.0952 17.1373 11.2302C17.2948 11.3652 17.3098 11.6052 17.1748 11.7627L17.1598 11.7477Z"
            fill="#D9F5FD"
          />
        </g>
      </g>
      <defs>
        <clipPath id="clip0_4571_14425">
          <rect width="30" height="30" fill="white" />
        </clipPath>
        <clipPath id="clip1_4571_14425">
          <rect
            width="12"
            height="12"
            fill="white"
            transform="translate(9.00012 7)"
          />
        </clipPath>
      </defs>
    </svg>
