<svg xmlns="http://www.w3.org/2000/svg" width="36" height="36" viewBox="0 0 36 36" fill="none">
  <g clip-path="url(#clip0_4786_8066)">
    <path fill-rule="evenodd" clip-rule="evenodd" d="M22.7497 4.1508C21.6534 5.54785 20.9999 7.30865 20.9999 9.22211C20.9999 13.7631 24.681 17.4443 29.2221 17.4443C30.5477 17.4443 31.8001 17.1306 32.909 16.5734C32.969 17.1147 32.9999 17.6648 32.9999 18.2221C32.9999 19.5737 32.8183 20.883 32.4786 22.127C29.1986 25.285 23.7954 26.9774 18.2975 26.9997C12.4511 27.0232 6.83087 25.1583 3.8212 21.5528C3.57462 20.4823 3.44434 19.3674 3.44434 18.2221C3.44434 17.6648 3.47518 17.1147 3.53527 16.5734C4.64416 17.1306 5.89649 17.4443 7.22211 17.4443C11.7631 17.4443 15.4443 13.7631 15.4443 9.22211C15.4443 7.30865 14.7907 5.54785 13.6946 4.1508C15.1214 3.69207 16.6428 3.44434 18.2221 3.44434C19.8014 3.44434 21.3228 3.69207 22.7497 4.1508ZM24.7079 4.93991C23.6492 6.05542 22.9999 7.56294 22.9999 9.22211C22.9999 12.6586 25.7857 15.4443 29.2221 15.4443C30.4359 15.4443 31.5686 15.0967 32.5261 14.4957C31.4334 10.2899 28.535 6.8122 24.7079 4.93991ZM11.7364 4.93991C7.90929 6.8122 5.01078 10.2899 3.91818 14.4957C4.87556 15.0967 6.00825 15.4443 7.22211 15.4443C10.6586 15.4443 13.4443 12.6586 13.4443 9.22211C13.4443 7.56294 12.7949 6.05542 11.7364 4.93991ZM18.3046 28.7774C22.8717 28.759 27.5477 27.6479 31.1441 25.3972C28.6208 29.9319 23.7797 32.9999 18.2221 32.9999C12.5661 32.9999 7.65227 29.8223 5.16827 25.1552C8.72134 27.633 13.5544 28.7966 18.3046 28.7774ZM15.7777 20.9999C16.33 20.9999 16.7777 20.5521 16.7777 19.9999C16.7777 19.4477 16.33 18.9999 15.7777 18.9999C15.2254 18.9999 14.7777 19.4477 14.7777 19.9999C14.7777 20.5521 15.2254 20.9999 15.7777 20.9999ZM20.6666 20.9999C21.2188 20.9999 21.6666 20.5521 21.6666 19.9999C21.6666 19.4477 21.2188 18.9999 20.6666 18.9999C20.1143 18.9999 19.6666 19.4477 19.6666 19.9999C19.6666 20.5521 20.1143 20.9999 20.6666 20.9999Z" fill="#C3DCFF"/>
    <path d="M1 9.22222C1 5.78578 3.78578 3 7.22222 3C10.6587 3 13.4444 5.78578 13.4444 9.22222C13.4444 12.6587 10.6587 15.4444 7.22222 15.4444C3.78578 15.4444 1 12.6587 1 9.22222Z" fill="#83B7FF"/>
    <path d="M4.11133 9.22244C4.11133 7.50422 5.50422 6.11133 7.22244 6.11133C8.94066 6.11133 10.3336 7.50422 10.3336 9.22244C10.3336 10.9407 8.94066 12.3336 7.22244 12.3336C5.50422 12.3336 4.11133 10.9407 4.11133 9.22244Z" fill="#14293C"/>
    <path d="M23 9.22222C23 5.78578 25.7858 3 29.2222 3C32.6587 3 35.4444 5.78578 35.4444 9.22222C35.4444 12.6587 32.6587 15.4444 29.2222 15.4444C25.7858 15.4444 23 12.6587 23 9.22222Z" fill="#83B7FF"/>
    <path d="M26.1113 9.22244C26.1113 7.50422 27.5042 6.11133 29.2224 6.11133C30.9407 6.11133 32.3336 7.50422 32.3336 9.22244C32.3336 10.9407 30.9407 12.3336 29.2224 12.3336C27.5042 12.3336 26.1113 10.9407 26.1113 9.22244Z" fill="#14293C"/>
  </g>
  <defs>
    <clipPath id="clip0_4786_8066">
      <rect width="36" height="36" fill="white"/>
    </clipPath>
  </defs>
</svg>