<svg width="40" height="30" viewBox="0 0 40 30" fill="none" xmlns="http://www.w3.org/2000/svg">
<g filter="url(#filter0_b_4522_2641)">
<rect width="40" height="30" rx="15" fill="url(#paint0_linear_4522_2641)" fill-opacity="0.3"/>
</g>
<g clip-path="url(#clip0_4522_2641)">
<path fill-rule="evenodd" clip-rule="evenodd" d="M28.1012 11.8276C28.1012 10.6394 27.7025 9.66772 27.0407 8.90651C27.147 8.63068 27.5008 7.52347 26.9384 6.02541C26.9384 6.02541 26.0729 5.73302 24.1021 7.1414C23.2785 6.89968 22.3955 6.77883 21.5183 6.77493C20.6411 6.77883 19.7581 6.89968 18.9355 7.1414C16.9637 5.73302 16.0973 6.02541 16.0973 6.02541C15.5349 7.52347 15.8897 8.63068 15.9959 8.90651C15.3351 9.66772 14.9335 10.6394 14.9335 11.8276C14.9335 15.9991 17.3429 16.9328 19.6343 17.2077C19.6343 17.2077 17.9871 18.2281 17.9871 19.9435C17.3994 20.2223 14.9121 21.0761 13.991 19.4124C13.991 19.4124 13.4462 18.3675 12.4101 18.2905C12.4101 18.2905 11.4023 18.2769 12.339 18.9523C12.339 18.9523 13.0154 19.2876 13.4852 20.5449C13.4852 20.5449 14.0076 23.194 17.954 22.004C17.9939 22.0244 17.9686 23.2856 17.9686 23.5439H25.07C25.07 23.5439 25.0817 21.0127 25.0817 20.2077C25.0817 18.2281 23.76 17.5352 23.3887 17.1989C25.6879 16.9299 28.1012 16.0098 28.1012 11.8276Z" fill="white"/>
</g>
<defs>
<filter id="filter0_b_4522_2641" x="-66.631" y="-66.631" width="173.262" height="163.262" filterUnits="userSpaceOnUse" color-interpolation-filters="sRGB">
<feFlood flood-opacity="0" result="BackgroundImageFix"/>
<feGaussianBlur in="BackgroundImageFix" stdDeviation="33.3155"/>
<feComposite in2="SourceAlpha" operator="in" result="effect1_backgroundBlur_4522_2641"/>
<feBlend mode="normal" in="SourceGraphic" in2="effect1_backgroundBlur_4522_2641" result="shape"/>
</filter>
<linearGradient id="paint0_linear_4522_2641" x1="-4.15556" y1="-2.31818" x2="49.8813" y2="26.0442" gradientUnits="userSpaceOnUse">
<stop offset="0.00554471" stop-color="white" stop-opacity="0.4"/>
<stop offset="1" stop-color="white" stop-opacity="0.01"/>
</linearGradient>
<clipPath id="clip0_4522_2641">
<rect width="17.5439" height="17.5439" fill="white" transform="translate(11.4562 6)"/>
</clipPath>
</defs>
</svg>
