<svg xmlns="http://www.w3.org/2000/svg" width="20" height="18" viewBox="0 0 20 18" fill="none">
  <path d="M1.95136 16.1979V14.6067H5.33129V16.1979C5.33129 17.1324 4.57273 17.891 3.63831 17.891C2.7039 17.891 1.94519 17.1324 1.94519 16.1979H1.95136Z" fill="#89D1F3"/>
  <path d="M7.0982 0.275731C6.12369 0.275731 5.33114 1.06828 5.33114 2.04279V16.204C5.33114 17.086 4.65276 17.8045 3.79236 17.8786V17.8909H15.4802C16.7261 17.8909 17.7376 16.8825 17.7376 15.6335V0.272644H7.0982V0.275731Z" fill="#A5DDF0"/>
  <path d="M17.7377 0.274536C18.6722 0.274536 19.4309 1.03317 19.4309 1.96758V2.35924H8.71739V1.96758C8.71739 1.03317 7.95883 0.274536 7.02441 0.274536H17.7377Z" fill="#DCF1F9"/>
  <path d="M8.23548 7.05045C9.36109 7.05045 10.2679 6.14376 10.2679 5.01815C10.2679 3.89253 9.36109 2.98584 8.23548 2.98584C7.10986 2.98584 6.20325 3.89253 6.20325 5.01815C6.20325 6.14376 7.11294 7.05045 8.23548 7.05045Z" fill="#527EBD"/>
  <path d="M5.52909 11.7937C6.6547 11.7937 7.56132 10.887 7.56132 9.76136C7.56132 8.63574 6.6547 7.72913 5.52909 7.72913C4.40347 7.72913 3.4967 8.63574 3.4967 9.76136C3.4967 10.887 4.40347 11.7937 5.52909 11.7937Z" fill="#527EBD"/>
  <path d="M11.0634 5.35748H16.3677" stroke="white" stroke-width="0.337716" stroke-linecap="round" stroke-linejoin="round"/>
  <path d="M9.02856 8.06793H16.365" stroke="white" stroke-width="0.337716" stroke-linecap="round" stroke-linejoin="round"/>
  <path d="M7.22168 13.4869H11.2863" stroke="#527EBD" stroke-width="0.337716" stroke-linecap="round" stroke-linejoin="round"/>
  <path d="M2.13892 5.01852C3.26454 5.01852 4.1713 4.11183 4.1713 2.98621C4.1713 1.86059 3.26454 0.953979 2.13892 0.953979C1.0133 0.953979 0.106689 1.86059 0.106689 2.98621C0.106689 4.11183 1.0133 5.01852 2.13892 5.01852Z" fill="#DCF1F9"/>
  <path d="M14.1199 10.9403C13.1978 11.0976 12.615 11.6527 12.615 12.4977C12.615 13.4876 13.2101 13.9132 14.308 14.0766C15.3102 14.2246 15.5755 14.3881 15.5755 14.7952C15.5755 15.1406 15.2517 15.3225 14.6534 15.3225C14.1445 15.3225 13.8671 15.193 13.7252 14.8199C13.679 14.6965 13.5494 14.6379 13.4198 14.6564L12.8154 14.7705C12.6458 14.8044 12.5501 14.9803 12.6056 15.1437C12.8369 15.8407 13.3089 16.2199 14.1107 16.3217V16.553C14.1107 16.8429 14.3481 17.0742 14.638 17.0742C14.9279 17.0742 15.1592 16.8367 15.1592 16.553V16.3217C16.1676 16.1798 16.7597 15.6186 16.7597 14.7304C16.7597 13.7282 16.2385 13.2749 15.0389 13.0652C14.0366 12.8832 13.8115 12.7536 13.8115 12.4021C13.8115 12.0844 14.0828 11.921 14.6102 11.921C15.0573 11.921 15.3164 12.0505 15.4429 12.3959C15.483 12.5193 15.6186 12.5779 15.7481 12.5532L16.3527 12.4453C16.51 12.4175 16.6241 12.2571 16.5778 12.0999C16.3681 11.4214 15.9148 11.0421 15.1901 10.928V10.6967C15.1901 10.4068 14.9525 10.1601 14.6534 10.1601C14.3543 10.1601 14.1169 10.3976 14.1169 10.6967V10.9342V10.9403H14.1199Z" fill="#527EBD"/>
</svg>