<svg width="40" height="40" viewBox="0 0 40 40" fill="none" xmlns="http://www.w3.org/2000/svg">
<rect width="40" height="40" fill="#414042"/>
<mask id="mask0_4646_32024" style="mask-type:alpha" maskUnits="userSpaceOnUse" x="0" y="0" width="40" height="40">
<rect width="40" height="40" fill="#7C61AA"/>
</mask>
<g mask="url(#mask0_4646_32024)">
<path d="M10.3052 9.45184C11.9863 11.2336 13.84 12.8572 15.4924 14.6533C15.5498 18.1305 15.5067 21.6078 15.521 25.085C13.8112 26.8236 12.0007 28.476 10.334 30.2433C10.2334 29.0364 10.2765 27.8438 10.2621 26.6368C10.2765 20.918 10.1903 15.1706 10.3052 9.45184Z" fill="white"/>
<path d="M24.2862 14.6105C26.0104 12.8575 27.864 11.2339 29.502 9.40906C29.5164 9.63896 29.5451 10.0988 29.5739 10.3287C29.6888 12.2828 29.6169 14.2513 29.6169 16.2055C29.5594 16.4785 29.5594 16.7658 29.6169 17.0388C29.6026 18.2745 29.6888 19.5246 29.5595 20.7603C29.6457 21.4787 29.6744 22.2115 29.5451 22.9156C29.5595 23.203 29.5882 23.4904 29.6313 23.7921C29.6169 24.0939 29.6026 24.3812 29.5595 24.683C29.6026 24.9847 29.6169 25.2721 29.6313 25.5738C29.5307 25.9187 29.5307 26.2779 29.6169 26.6371C29.6457 27.2262 29.6313 27.801 29.5882 28.3901C29.6457 28.9936 29.5594 29.5827 29.5163 30.1718C27.749 28.5338 26.0822 26.7521 24.3149 25.0997C24.2718 21.6081 24.3006 18.1165 24.2862 14.6105Z" fill="white"/>
</g>
</svg>
