<svg xmlns="http://www.w3.org/2000/svg" width="36" height="37" viewBox="0 0 36 37" fill="none">
  <path d="M18.2695 36.0144C28.0601 36.0144 35.9969 28.0776 35.9969 18.287C35.9969 8.49643 28.0601 0.559631 18.2695 0.559631C8.47894 0.559631 0.542114 8.49643 0.542114 18.287C0.542114 28.0776 8.47894 36.0144 18.2695 36.0144Z" fill="#10365E"/>
  <path d="M14.0985 13.7039C14.0985 12.6944 13.2802 11.8762 12.2708 11.8762C11.2614 11.8762 10.4431 12.6944 10.4431 13.7039C10.4431 14.7133 11.2614 15.5316 12.2708 15.5316C13.2802 15.5316 14.0985 14.7133 14.0985 13.7039Z" fill="#88BAFF"/>
  <path d="M16.3832 20.9969V21.3716C16.3832 21.8468 15.9994 22.2306 15.5242 22.2306H9.00845C8.54239 22.2306 8.15857 21.8468 8.15857 21.3716V20.8233C8.15857 18.4199 10.2239 16.4916 12.673 16.7292C14.8114 16.9303 16.3832 18.8494 16.3832 20.9969Z" fill="#88BAFF"/>
  <path d="M25.9788 13.7038C25.9788 12.6944 25.1605 11.8761 24.1511 11.8761C23.1417 11.8761 22.3234 12.6944 22.3234 13.7038C22.3234 14.7132 23.1417 15.5315 24.1511 15.5315C25.1605 15.5315 25.9788 14.7132 25.9788 13.7038Z" fill="#B1EAFA"/>
  <path d="M28.2625 20.9969V21.3715C28.2625 21.8467 27.8787 22.2306 27.4035 22.2306H20.8877C20.4217 22.2306 20.0378 21.8467 20.0378 21.3715V20.8232C20.0378 18.4198 22.1031 16.4916 24.5523 16.7292C26.6907 16.9302 28.2625 18.8493 28.2625 20.9969Z" fill="#B1EAFA"/>
  <path d="M20.0401 16.3253C20.0401 15.3158 19.2218 14.4976 18.2124 14.4976C17.203 14.4976 16.3847 15.3158 16.3847 16.3253C16.3847 17.3347 17.203 18.153 18.2124 18.153C19.2218 18.153 20.0401 17.3347 20.0401 16.3253Z" fill="#3486FF"/>
  <path d="M22.3248 23.627V24.0017C22.3248 24.4769 21.941 24.8607 21.4658 24.8607H14.95C14.484 24.8607 14.1002 24.4769 14.1002 24.0017V23.4534C14.1002 21.0499 16.1655 19.1217 18.6146 19.3593C20.753 19.5604 22.3248 21.4794 22.3248 23.627Z" fill="#3486FF"/>
  <path d="M20.0401 16.3253C20.0401 15.3158 19.2218 14.4976 18.2124 14.4976C17.203 14.4976 16.3847 15.3158 16.3847 16.3253C16.3847 17.3347 17.203 18.153 18.2124 18.153C19.2218 18.153 20.0401 17.3347 20.0401 16.3253Z" fill="#4895FF"/>
  <path d="M22.3248 23.627V24.0017C22.3248 24.4769 21.941 24.8607 21.4658 24.8607H14.95C14.484 24.8607 14.1002 24.4769 14.1002 24.0017V23.4534C14.1002 21.0499 16.1655 19.1217 18.6146 19.3593C20.753 19.5604 22.3248 21.4794 22.3248 23.627Z" fill="#4895FF"/>
</svg>