<svg width="22" height="25" viewBox="0 0 22 25" fill="none" xmlns="http://www.w3.org/2000/svg">
<path fill-rule="evenodd" clip-rule="evenodd" d="M10.6648 0.175831L6.6978 2.47169C6.6536 2.49725 6.61692 2.53401 6.59144 2.57826L10.8535 5.0448C11.0433 5.15467 11.1895 5.32654 11.2675 5.5315C11.2944 5.53043 11.3214 5.53022 11.3484 5.53079C11.4094 5.34529 11.5365 5.18872 11.7055 5.09089L16.0198 2.59407C15.9762 2.51851 15.9136 2.45571 15.8381 2.41199L11.9741 0.175831C11.7752 0.0606515 11.5494 0 11.3195 0C11.0896 0 10.8638 0.0606515 10.6648 0.175831ZM10.0327 5.79308C10.1061 5.83549 10.1669 5.89651 10.2091 5.96997L7.84658 7.33731C7.81588 7.3517 7.78553 7.36744 7.75576 7.38447L6.48045 8.11067C6.44251 8.13224 6.40735 8.15837 6.37573 8.18846L6.15041 8.3189C5.95124 8.43435 5.78591 8.60012 5.67101 8.79961C5.55611 8.9991 5.49566 9.22528 5.49573 9.4555V14.1381C5.41993 14.1362 5.34581 14.1154 5.28017 14.0774L1.59717 11.946L1.39442 11.8286C1.19524 11.7132 1.0299 11.5474 0.914994 11.3479C0.800087 11.1484 0.739651 10.9223 0.739746 10.692V6.69011C0.739639 6.45989 0.800069 6.23369 0.914976 6.0342C1.02988 5.8347 1.19523 5.66893 1.39442 5.55351L4.85195 3.55251C5.0509 3.43732 5.27671 3.37667 5.5066 3.37667C5.73648 3.37667 5.96229 3.43732 6.16124 3.55251L10.0327 5.79308ZM6.68227 9.24242L8.00131 8.47911C8.14712 8.41532 8.3059 8.38674 8.46481 8.39569C8.62371 8.40464 8.77828 8.45086 8.91601 8.53061L10.2621 9.30967L9.06126 10.0047C8.86209 10.1201 8.69677 10.2859 8.58187 10.4853C8.46698 10.6848 8.40655 10.911 8.40666 11.1412V12.5722L7.01388 11.7662C6.89006 11.6945 6.78458 11.595 6.70574 11.4755C6.6269 11.3561 6.57685 11.22 6.55953 11.0779V9.4555C6.55953 9.36759 6.60633 9.28638 6.68227 9.24242ZM6.55953 14.6807V12.7266L8.40666 13.7955V15.8917L6.68227 14.8938C6.64492 14.8722 6.61392 14.8411 6.59238 14.8037C6.57083 14.7662 6.5595 14.7238 6.55953 14.6807ZM9.06126 17.503C9.04652 17.4945 9.03198 17.4857 9.01766 17.4767L6.62663 16.0929C6.57823 16.173 6.55266 16.2647 6.55269 16.3582V20.8225C6.55257 21.0527 6.61299 21.2789 6.72789 21.4784C6.84278 21.6779 7.00811 21.8436 7.20729 21.959L10.6648 23.96C10.8638 24.0752 11.0896 24.1359 11.3195 24.1359C11.5494 24.1359 11.7752 24.0752 11.9741 23.96L15.4316 21.959C15.6308 21.8436 15.7962 21.6779 15.9111 21.4784C16.026 21.2789 16.0864 21.0527 16.0863 20.8225V16.3582C16.0863 16.2631 16.0599 16.1716 16.0122 16.0929L13.6087 17.4839C13.5982 17.4904 13.5875 17.4968 13.5767 17.503L12.421 18.1719C12.4142 18.1758 12.4073 18.1797 12.4003 18.1833L11.9741 18.4299C11.7752 18.5451 11.5494 18.6058 11.3195 18.6058C11.0896 18.6058 10.8638 18.5451 10.6648 18.4299L10.2455 18.1872C10.2359 18.1824 10.2263 18.1773 10.217 18.1719L9.06126 17.503ZM5.64084 15.2812C5.66271 15.3237 5.68682 15.3649 5.71308 15.4049C5.57236 15.5817 5.49574 15.801 5.49573 16.0271V20.894C5.42237 20.8922 5.35065 20.872 5.28715 20.8352L1.39442 18.5824C1.19523 18.4669 1.02988 18.3012 0.914976 18.1017C0.800069 17.9022 0.739639 17.676 0.739746 17.4458V13.006C0.739746 12.9031 0.768241 12.8042 0.819604 12.7192L5.05377 15.1696C5.23114 15.2723 5.43816 15.3117 5.64084 15.2812ZM17.1431 16.0271C17.1431 15.7973 17.0643 15.5789 16.9258 15.4049C16.9517 15.3655 16.9756 15.3249 16.9972 15.283C17.1977 15.3137 17.4027 15.2751 17.5783 15.1734L21.8193 12.719C21.8713 12.8052 21.8988 12.904 21.8988 13.0046V17.4458C21.8989 17.676 21.8385 17.9022 21.7236 18.1017C21.6087 18.3012 21.4433 18.4669 21.2442 18.5824L17.37 20.8245C17.3009 20.8645 17.2229 20.8864 17.1431 20.8883V16.0271ZM17.3551 14.0793C17.2906 14.1167 17.2177 14.1372 17.1431 14.1391V9.4555C17.1432 9.22529 17.0828 8.9991 16.9679 8.79961C16.853 8.60012 16.6877 8.43434 16.4885 8.3189L12.4184 5.96334C12.4532 5.90269 12.5035 5.85231 12.564 5.8173L16.4773 3.55251C16.6763 3.43732 16.9021 3.37667 17.132 3.37667C17.3619 3.37667 17.5877 3.43732 17.7866 3.55251L21.2442 5.55351C21.4433 5.66894 21.6087 5.83471 21.7236 6.0342C21.8385 6.2337 21.8989 6.4599 21.8988 6.69011V10.692C21.8989 10.9222 21.8385 11.1484 21.7236 11.3479C21.6087 11.5474 21.4433 11.7132 21.2442 11.8286L17.3551 14.0793ZM15.9566 14.8938L14.2314 15.8922V13.7962L16.0793 12.7267V14.6807C16.0794 14.7238 16.068 14.7662 16.0465 14.8037C16.0249 14.8411 15.9939 14.8722 15.9566 14.8938ZM16.0793 9.4555V10.9555C16.0594 11.1368 15.9971 11.3109 15.8975 11.4637C15.7979 11.6165 15.6638 11.7438 15.5059 11.8352L14.2314 12.5729V11.1412C14.2315 10.911 14.171 10.6848 14.0561 10.4853C13.9412 10.2859 13.7759 10.1201 13.5767 10.0047L12.3759 9.30967L13.6873 8.5507C13.8357 8.46481 14.0023 8.41534 14.1734 8.40633C14.3446 8.39733 14.5155 8.42906 14.672 8.49891L15.9566 9.24242C15.9939 9.26406 16.0249 9.29514 16.0465 9.33253C16.068 9.36993 16.0794 9.41234 16.0793 9.4555ZM11.3191 8.69802L13.1675 7.62824L11.4422 6.62984C11.4049 6.60821 11.3625 6.59682 11.3194 6.59682C11.2763 6.59682 11.234 6.60821 11.1967 6.62984L9.47102 7.62846L11.3191 8.69802ZM11.4422 17.5065L12.8111 16.7142C12.9241 16.6278 13.0157 16.5165 13.0788 16.389C13.1418 16.2614 13.1746 16.121 13.1745 15.9788V14.4078L11.9742 15.1025C11.7752 15.2176 11.5494 15.2783 11.3195 15.2783C11.0897 15.2783 10.8638 15.2176 10.6649 15.1025L9.46347 14.4071V15.9788C9.46343 16.1204 9.49592 16.2602 9.55844 16.3874C9.62096 16.5145 9.71184 16.6256 9.82408 16.7121L11.1967 17.5065C11.234 17.528 11.2763 17.5394 11.3194 17.5394C11.3625 17.5394 11.4049 17.528 11.4422 17.5065ZM10.1181 10.6162L11.3191 9.92125L12.5199 10.6162C12.7191 10.7317 12.8844 10.8975 12.9993 11.097C13.1142 11.2964 13.1746 11.5226 13.1745 11.7528V13.1845L11.9742 13.8792C11.7752 13.9944 11.5494 14.0551 11.3195 14.0551C11.0897 14.0551 10.8638 13.9944 10.6649 13.8792L9.46347 13.1839V11.7528C9.46337 11.5226 9.5238 11.2964 9.63869 11.097C9.75358 10.8975 9.9189 10.7317 10.1181 10.6162Z" fill="white"/>
</svg>
