<svg width="40" height="40" viewBox="0 0 40 40" fill="none" xmlns="http://www.w3.org/2000/svg">
<rect width="40" height="40" fill="white"/>
<mask id="mask0_4646_27463" style="mask-type:alpha" maskUnits="userSpaceOnUse" x="0" y="0" width="40" height="40">
<rect width="40" height="40" fill="white"/>
</mask>
<g mask="url(#mask0_4646_27463)">
<path d="M39.856 0H0.103608C-0.150203 0 -0.355957 0.205754 -0.355957 0.459565V40.2119C-0.355957 40.4658 -0.150203 40.6715 0.103608 40.6715H39.856C40.1098 40.6715 40.3156 40.4658 40.3156 40.2119V0.459565C40.3156 0.205754 40.1098 0 39.856 0Z" fill="#DBCCF3"/>
<path fill-rule="evenodd" clip-rule="evenodd" d="M24.82 15.9999C25.8729 15.133 27.0476 14.8032 28.1742 14.8866C29.3759 14.9755 30.4879 15.5314 31.3186 16.3388C32.149 17.1463 32.7196 18.2263 32.811 19.3919C32.9031 20.5682 32.504 21.8001 31.4518 22.8813C31.3557 22.9809 31.2573 23.0791 31.1569 23.1761C26.3844 27.8154 20.0451 27.8277 19.9802 27.8277H19.9799C19.9475 27.8277 13.588 27.8275 8.80323 23.1757L8.8022 23.1745C8.70342 23.0779 8.60614 22.9807 8.51032 22.8829L8.50956 22.882C7.45689 21.8018 7.05742 20.5701 7.14929 19.3939C7.24032 18.2285 7.81051 17.1483 8.64081 16.3405C9.47103 15.5328 10.583 14.9765 11.7849 14.8872C12.9114 14.8035 14.0864 15.1329 15.1398 15.9994C15.2531 14.6629 15.8432 13.6228 16.6999 12.9077C17.6135 12.1451 18.8042 11.7732 19.9799 11.7732C21.1557 11.7732 22.3463 12.1451 23.2599 12.9077C24.1166 13.6229 24.7068 14.6632 24.82 15.9999ZM20.1984 27.3574L20.1982 27.3515H20.1986L20.1984 27.3574ZM19.7615 27.3574L19.7613 27.3515H19.7617L19.7615 27.3574ZM23.5654 20.9154C23.4348 20.9154 23.3896 21.0987 23.4728 21.1958C23.6202 21.3678 23.709 21.5891 23.709 21.8305C23.709 22.3784 23.2522 22.8225 22.6888 22.8225C22.1253 22.8225 21.6685 22.3784 21.6685 21.8305C21.6685 21.8012 21.6291 21.7867 21.6114 21.8104C21.4504 22.0253 21.3418 22.2665 21.2972 22.5198C21.272 22.6624 21.1528 22.7807 21.003 22.7807H20.9202C20.7247 22.7807 20.5633 22.6264 20.5922 22.4397C20.79 21.1598 22.0875 20.2315 23.5654 20.2315C25.0432 20.2315 26.3406 21.1598 26.5385 22.4397C26.5672 22.6264 26.4059 22.7807 26.2105 22.7807C26.0148 22.7807 25.86 22.6257 25.8174 22.4413C25.6241 21.6024 24.7274 20.9154 23.5654 20.9154ZM14.5052 21.8305C14.5052 21.7919 14.4537 21.7711 14.4294 21.8019C14.2574 22.0201 14.1402 22.2673 14.0906 22.5277C14.0613 22.6815 13.9325 22.8095 13.7705 22.8095H13.7098C13.5143 22.8095 13.3529 22.6553 13.3818 22.4686C13.5795 21.188 14.8771 20.2604 16.3549 20.2604C17.8327 20.2604 19.1303 21.188 19.328 22.4686C19.3569 22.6553 19.1956 22.8095 19 22.8095C18.8045 22.8095 18.6496 22.6546 18.6071 22.4702C18.4138 21.6308 17.5171 20.9443 16.3549 20.9443C16.2493 20.9443 16.2106 21.0885 16.2813 21.1642C16.4456 21.3403 16.5458 21.5741 16.5458 21.8305C16.5458 22.3784 16.089 22.8225 15.5255 22.8225C14.962 22.8225 14.5052 22.3784 14.5052 21.8305ZM21.1149 24.2228C21.2531 24.0891 21.4667 24.0242 21.6383 24.1146C21.81 24.2053 21.8751 24.4154 21.7514 24.5618C21.3486 25.038 20.6964 25.34 19.9772 25.34C19.2583 25.34 18.6047 25.0413 18.2014 24.5613C18.0782 24.4147 18.1441 24.2046 18.316 24.1146C18.488 24.0247 18.7012 24.0905 18.8392 24.2242C19.1051 24.482 19.5085 24.6562 19.9772 24.6562C20.4446 24.6562 20.8485 24.4801 21.1149 24.2228Z" fill="#3D4B41"/>
</g>
</svg>
