<svg xmlns="http://www.w3.org/2000/svg" width="18" height="19" viewBox="0 0 18 19" fill="none">
  <g clip-path="url(#clip0_4523_37965)">
    <path fill-rule="evenodd" clip-rule="evenodd" d="M16.7122 10.8317V3.01249C16.7122 2.29573 16.1258 1.70929 15.409 1.70929H7.58982C6.87306 1.70929 6.28662 2.29573 6.28662 3.01249V10.8317C6.28662 11.5485 6.87306 12.1349 7.58982 12.1349H15.409C16.1258 12.1349 16.7122 11.5485 16.7122 10.8317ZM15.409 10.8317H7.58982V3.01249H15.409V10.8317Z" fill="#3486FF"/>
    <path fill-rule="evenodd" clip-rule="evenodd" d="M6.93778 13.4384C5.86915 13.4384 4.98297 12.5652 4.98297 11.4836V6.92236H2.37657C1.65981 6.92236 1.07336 7.5088 1.07336 8.22557V16.0448C1.07336 16.7615 1.65981 17.348 2.37657 17.348H10.1958C10.9125 17.348 11.499 16.7615 11.499 16.0448V13.4384H6.93778Z" fill="#6DAAFF"/>
  </g>
  <defs>
    <clipPath id="clip0_4523_37965">
      <rect width="17.7955" height="17.7955" fill="white" transform="translate(-0.0043335 0.631531)"/>
    </clipPath>
  </defs>
</svg>