<svg width="40" height="40" viewBox="0 0 40 40" fill="none" xmlns="http://www.w3.org/2000/svg">
<rect width="40" height="40" fill="#4468B1"/>
<mask id="mask0_4646_32104" style="mask-type:alpha" maskUnits="userSpaceOnUse" x="0" y="0" width="40" height="40">
<rect width="40" height="40" fill="#FF9C00"/>
</mask>
<g mask="url(#mask0_4646_32104)">
<path d="M21.3684 6.47845C21.5408 6.42097 21.7132 6.46408 21.8856 6.47845C22.6184 6.57903 23.38 6.57904 24.0697 6.85205C25.1473 7.25437 26.0095 8.14522 26.3544 9.19413C26.498 9.63956 26.613 10.0994 26.7136 10.5592C26.7854 10.8178 26.5411 11.0764 26.2681 11.0621C26.0813 11.0477 25.9233 10.9328 25.8802 10.7603C25.679 10.1425 25.6216 9.46714 25.2767 8.90676C24.86 8.21706 24.1415 7.69979 23.3369 7.513C22.6903 7.38368 22.0006 7.38369 21.354 7.25437C21.0235 7.12505 21.0235 6.5934 21.3684 6.47845Z" fill="white"/>
<path d="M16.9721 8.94986C16.268 9.12228 15.722 9.78325 15.6933 10.4873C15.6645 10.9902 15.8801 11.4788 16.2536 11.8092C18.4233 13.9071 20.6073 16.0193 22.777 18.1171C22.9207 18.2608 23.1219 18.3901 23.1219 18.62C23.1363 18.8642 22.892 19.0798 22.6477 19.051C22.4322 19.0367 22.3028 18.8499 22.1592 18.7206C19.5728 16.206 16.9721 13.7059 14.3714 11.1914C13.9116 10.7172 13.15 10.5448 12.5178 10.7747C11.8138 11.0046 11.3252 11.723 11.3826 12.4271C11.397 12.8725 11.6269 13.2892 11.943 13.5909C14.5581 16.1198 17.1733 18.6343 19.774 21.1632C19.9608 21.3069 19.9895 21.6087 19.8171 21.7667C19.6446 21.9535 19.3286 21.9392 19.1705 21.7524C16.9434 19.5971 14.7162 17.4417 12.4891 15.3008C12.0293 14.8554 11.3108 14.6973 10.7074 14.9129C9.98892 15.1428 9.48602 15.8756 9.5435 16.6084C9.55787 17.0538 9.78771 17.4561 10.1182 17.7579C12.3166 19.8844 14.515 22.011 16.7135 24.1376C16.9003 24.2956 16.929 24.5974 16.7422 24.7698C16.5698 24.9422 16.2537 24.9135 16.11 24.7267C14.7019 23.3616 13.2793 21.9823 11.8712 20.6316C11.239 20.0138 10.1039 20.0281 9.47167 20.646C8.98314 21.0914 8.81064 21.8098 9.04054 22.4133C9.14112 22.7151 9.37104 22.9737 9.60094 23.1892C11.7706 25.3158 13.9403 27.4423 16.1243 29.5545C17.36 30.7615 18.9837 31.5949 20.7079 31.8967C21.6562 32.0691 22.6189 32.0691 23.5816 32.0116C25.0473 31.8967 26.4841 31.4369 27.7198 30.6753C29.1854 29.7845 30.3781 28.4625 31.0965 26.9395C31.6569 25.79 31.9299 24.5111 31.9442 23.2323C31.9586 20.1287 31.9442 17.0107 31.9442 13.907C31.9442 13.6053 31.9442 13.3036 31.8436 13.0162C31.6568 12.4846 31.1683 12.0679 30.5936 11.9529C29.9613 11.8092 29.2717 12.0391 28.8694 12.542C28.6108 12.8438 28.4814 13.2317 28.4814 13.6197C28.467 15.0422 28.4814 16.4503 28.4814 17.8728C28.5102 18.232 27.9929 18.4476 27.7486 18.1745C24.7168 15.2433 21.685 12.3121 18.6388 9.38092C18.2221 8.94986 17.5612 8.7918 16.9721 8.94986ZM15.3628 9.0217C15.8513 8.41822 16.6272 8.04464 17.4175 8.04464C18.1216 8.03027 18.8113 8.31765 19.2998 8.80618C22.073 11.4788 24.8461 14.1657 27.6192 16.8383C27.6192 15.7463 27.6049 14.6399 27.6336 13.5478C27.648 12.8007 28.0072 12.0679 28.6251 11.6081C29.4297 10.9758 30.6367 10.8896 31.5276 11.3925C32.3466 11.8236 32.8495 12.7145 32.8495 13.6053C32.8638 16.4359 32.8495 19.2809 32.8495 22.1116C32.8495 22.9019 32.8782 23.7065 32.7633 24.5111C32.4759 26.6952 31.3695 28.7499 29.7171 30.2586C28.1078 31.7386 25.9812 32.6726 23.7684 32.8593C22.1304 32.9743 20.4493 32.8593 18.9118 32.2702C17.6186 31.7961 16.4405 31.0345 15.4634 30.0862C13.2793 27.9596 11.1096 25.8474 8.93995 23.7209C8.56636 23.3616 8.26465 22.9019 8.16407 22.3989C7.99165 21.6374 8.20723 20.804 8.75324 20.2149C9.19867 19.6976 9.87392 19.3959 10.5636 19.3384C10.0895 18.8642 9.57222 18.4476 9.1699 17.9159C8.59515 17.1113 8.58075 15.9762 9.14113 15.1571C9.57219 14.4818 10.3624 14.0507 11.1815 14.0076C10.7504 13.4904 10.5062 12.815 10.578 12.1541C10.6498 11.3351 11.1671 10.5591 11.9143 10.1568C12.8339 9.65392 14.0553 9.78325 14.8455 10.4442C14.8599 9.91257 15.0323 9.42403 15.3628 9.0217Z" fill="white"/>
<path d="M7.02877 25.7898C7.27304 25.6605 7.60349 25.8186 7.63223 26.0916C7.71844 26.5945 7.73284 27.1261 7.934 27.6147C8.29322 28.4911 9.11222 29.1808 10.0749 29.382C10.4485 29.4682 10.822 29.4826 11.1956 29.5401C11.4255 29.5688 11.5693 29.8131 11.5262 30.0142C11.4974 30.2154 11.2819 30.3734 11.0664 30.3447C10.664 30.316 10.2617 30.2585 9.85936 30.1723C8.68112 29.928 7.64659 29.0946 7.17242 28.0313C6.91378 27.4566 6.84199 26.8244 6.77014 26.2065C6.77014 26.0341 6.87071 25.8617 7.02877 25.7898Z" fill="white"/>
</g>
</svg>
