<svg xmlns="http://www.w3.org/2000/svg" width="36" height="37" viewBox="0 0 36 37" fill="none">
  <path d="M18.1858 36.0144C27.9763 36.0144 35.9131 28.0776 35.9131 18.287C35.9131 8.49643 27.9763 0.559631 18.1858 0.559631C8.3952 0.559631 0.458374 8.49643 0.458374 18.287C0.458374 28.0776 8.3952 36.0144 18.1858 36.0144Z" fill="#10365E"/>
  <path d="M26.9524 14.7012V22.0324C26.9524 22.82 26.5283 23.5439 25.8555 23.9361L20.2048 27.1887L19.5065 27.5937C18.8241 27.9828 17.9853 27.9828 17.3125 27.5937L13.2977 25.2754L10.9731 23.9329C10.2906 23.5439 9.87604 22.82 9.87604 22.0292V14.698C9.87604 13.9167 10.2906 13.2024 10.9731 12.8133L17.3125 9.13974C17.979 8.7507 18.8241 8.7507 19.5065 9.13974L25.8459 12.8133C26.5124 13.2024 26.9428 13.9199 26.9428 14.698H26.9524V14.7012Z" fill="#4895FF"/>
  <path d="M15.566 17.4171C16.6151 17.4171 17.4697 16.5656 17.4697 15.5132C17.4697 14.4609 16.6183 13.6095 15.566 13.6095C14.5136 13.6095 13.6622 14.4609 13.6622 15.5132C13.6622 16.5656 14.5136 17.4171 15.566 17.4171Z" fill="#80D4FF"/>
  <path d="M20.2134 27.1887L19.515 27.5937C18.8326 27.9827 17.9939 27.9827 17.3211 27.5937L13.3063 25.2754L10.9816 23.9329C10.2992 23.5438 9.88464 22.82 9.88464 22.0291V21.2096L11.3164 19.7874C11.715 19.3728 12.3975 19.3728 12.8121 19.7874L20.2166 27.1919V27.1887H20.2134Z" fill="#46C3D4"/>
  <path d="M26.9533 21.727V22.0268C26.9533 22.8144 26.5292 23.5383 25.8564 23.9305L20.2057 27.1831L19.5074 27.5881C18.825 27.9772 17.9862 27.9772 17.3134 27.5881L13.2986 25.2698L21.1528 17.4348C21.5673 17.0202 22.2434 17.0202 22.6579 17.4348L26.9501 21.727H26.9533Z" fill="#C3E5E8"/>
</svg>