<svg width="40" height="40" viewBox="0 0 40 40" fill="none" xmlns="http://www.w3.org/2000/svg">
<rect width="40" height="40" fill="#9BD2AB"/>
<path d="M19.9963 37.9925C29.9353 37.9925 37.9925 29.9354 37.9925 19.9963C37.9925 10.0572 29.9353 2 19.9963 2C10.0572 2 2 10.0572 2 19.9963C2 29.9354 10.0572 37.9925 19.9963 37.9925Z" fill="#9BD2AB"/>
<path d="M15.3304 25.2165C15.642 25.2165 15.9536 25.2165 16.1873 25.2165C16.1873 25.5281 16.1873 25.8397 16.1873 26.1514C16.4989 26.1514 16.8106 26.1514 17.1222 26.1514C17.1222 26.463 17.1222 26.7746 17.1222 27.0083C16.4989 27.0083 15.9536 27.0083 15.3304 27.0083C15.3304 26.3851 15.3304 25.7618 15.3304 25.2165Z" fill="#0D1723"/>
<path d="M26.1579 25.2165C26.4695 25.2165 26.7811 25.2165 27.0928 25.2165C27.0928 25.5281 27.0928 25.8397 27.0928 26.1514C27.4044 26.1514 27.716 26.1514 27.9497 26.1514C27.9497 26.463 27.9497 26.7746 27.9497 27.0862C27.3265 27.0862 26.7811 27.0862 26.1579 27.0862C26.1579 26.3851 26.1579 25.7618 26.1579 25.2165Z" fill="#0D1723"/>
<path d="M14.3915 20.6976C14.7031 20.6976 15.0148 20.6976 15.2485 20.6976C15.2485 21.0092 15.2485 21.243 15.2485 21.5546C16.1054 21.5546 17.0403 21.5546 17.9752 21.5546C17.9752 21.8662 17.9752 22.0999 17.9752 22.4115C18.2868 22.4115 18.5984 22.4115 18.8321 22.4115C18.8321 22.7232 18.8321 22.9569 18.8321 23.2685C19.1438 23.2685 19.4554 23.2685 19.6891 23.3464C19.6891 23.6581 19.6891 23.9697 19.6891 24.2034C19.3775 24.2034 19.0659 24.2034 18.8321 24.2034C18.8321 23.8918 18.8321 23.5801 18.8321 23.2685C18.5205 23.2685 18.2089 23.2685 17.9752 23.2685C17.9752 22.9569 17.9752 22.6453 17.9752 22.4115C16.8066 22.4115 15.5601 22.4115 14.3915 22.4115C14.3915 22.7232 14.3915 22.9569 14.3915 23.2685C14.0799 23.2685 13.7683 23.2685 13.4566 23.2685C13.4566 23.5801 13.4566 23.8918 13.4566 24.2034C13.145 24.2034 12.8334 24.2034 12.5997 24.2034C12.5997 25.372 12.5997 26.5406 12.5997 27.7092C12.9113 27.7092 13.2229 27.7092 13.4566 27.7092C13.4566 28.0208 13.4566 28.3324 13.4566 28.5661C13.7683 28.5661 14.0799 28.5661 14.3915 28.5661C15.0147 28.5661 15.5601 28.5661 16.1833 28.5661C15.5601 28.5661 14.9368 28.5661 14.3915 28.5661C14.3915 28.7998 14.3915 29.1115 14.3915 29.4231C15.5601 29.4231 16.8066 29.4231 17.9752 29.501C16.8066 29.5789 15.5601 29.501 14.3915 29.5789C14.3915 29.8905 14.3915 30.1242 14.3915 30.4359C15.0147 30.4359 15.5601 30.4359 16.1833 30.4359C16.1833 30.7475 16.1833 31.0591 16.1833 31.2928C16.7287 31.2928 17.3519 31.2928 17.8973 31.3707C17.9752 31.6824 18.0531 31.9161 18.0531 32.2277C20.3903 32.2277 22.8053 32.2277 25.1425 32.2277C25.1425 31.9161 25.1425 31.6045 25.2204 31.2928C25.8437 31.2928 26.389 31.2928 27.0123 31.2928C27.0123 30.9812 27.0123 30.6696 27.0123 30.4359C27.6355 30.4359 28.1809 30.4359 28.8041 30.4359C28.8041 30.1242 28.8041 29.8905 28.8041 29.5789C29.1157 29.5789 29.4273 29.5789 29.739 29.5789C29.739 29.8905 29.739 30.2021 29.739 30.4359C29.4273 30.4359 29.1157 30.4359 28.882 30.4359C28.882 30.7475 28.882 30.9812 28.882 31.2928C28.2588 31.2928 27.7134 31.2928 27.0902 31.2928C27.0902 31.6045 27.0902 31.9161 27.0902 32.2277C26.4669 32.2277 25.9216 32.2277 25.2983 32.2277C25.2983 32.5393 25.2983 32.773 25.2983 33.0847C22.5716 33.0847 19.8449 33.0847 17.1961 33.0847C17.1961 32.773 17.1961 32.4614 17.1961 32.2277C16.5729 32.2277 16.0275 32.2277 15.4043 32.2277C15.4043 31.9161 15.4043 31.6045 15.4043 31.2928C14.781 31.2928 14.2357 31.2928 13.6124 31.2928C13.6124 30.9812 13.6124 30.6696 13.5345 30.4359C13.2229 30.4359 12.9892 30.4359 12.6776 30.4359C12.6776 30.1242 12.6776 29.8126 12.6776 29.501C12.3659 29.501 12.0543 29.501 11.8206 29.501C11.8206 28.8777 11.8206 28.3324 11.8206 27.7092C11.509 27.7092 11.1974 27.7092 10.9636 27.6313C10.9636 26.4627 10.8857 25.372 10.9636 24.2034C11.2753 24.1255 11.509 24.1255 11.8206 24.0476C11.8206 23.736 11.8206 23.5022 11.8206 23.1906C12.1322 23.1906 12.4439 23.1906 12.6776 23.1906C12.6776 22.879 12.6776 22.6453 12.6776 22.3336C12.9892 22.3336 13.3008 22.3336 13.5345 22.2557C13.5345 21.9441 13.5345 21.7104 13.5345 21.3988C13.8462 21.3988 14.1578 21.3988 14.4694 21.3988C14.3915 21.3209 14.3915 21.0092 14.3915 20.6976Z" fill="#B59F93"/>
<path d="M25.2245 21.6323C26.3931 21.6323 27.6396 21.6323 28.8082 21.6323C29.1198 21.6323 29.4315 21.6323 29.6652 21.6323C29.6652 22.2556 29.6652 22.8009 29.6652 23.4241C29.3536 23.4241 29.0419 23.4241 28.7303 23.4241C28.7303 23.1125 28.7303 22.8009 28.7303 22.5672C27.5617 22.5672 26.3152 22.5672 25.0687 22.5672C25.2245 22.1777 25.2245 21.9439 25.2245 21.6323Z" fill="#B59F93"/>
<path d="M24.3643 22.4892C24.6759 22.4892 24.9097 22.4892 25.1434 22.4892C25.1434 22.8009 25.1434 23.0346 25.2213 23.3462C24.9097 23.3462 24.598 23.3462 24.3643 23.3462C24.3643 23.6578 24.3643 23.9694 24.3643 24.2811C24.0527 24.2811 23.7411 24.2811 23.5074 24.2811C23.5074 23.9694 23.5074 23.6578 23.5074 23.3462C23.819 23.3462 24.0527 23.3462 24.3643 23.3462C24.2864 23.1125 24.2864 22.8009 24.3643 22.4892Z" fill="#B59F93"/>
<path d="M17.1181 24.2799C17.4299 24.3578 17.7416 24.2799 18.0534 24.5137C18.0534 24.7476 18.0534 25.2932 17.5858 25.2152C17.0401 25.2932 17.1181 24.5917 17.1181 24.2799Z" fill="#B59F93"/>
<path d="M28.0274 24.2799C28.2611 24.2799 28.5727 24.2799 28.8065 24.3578C28.8065 24.5915 28.8065 24.9031 28.8065 25.1369C28.4948 25.1369 28.2611 25.1369 28.0274 25.1369C27.9495 24.9031 28.0274 24.5915 28.0274 24.2799Z" fill="#B59F93"/>
<path d="M13.4552 27.0073C14.0784 27.0073 14.7017 27.0073 15.247 26.9294C15.8703 26.9294 16.4156 26.9294 17.0389 26.9294C17.6621 26.9294 18.2854 27.0073 18.9086 27.0073C18.9086 27.241 18.9086 27.5527 18.7528 27.7864C18.5191 27.8643 18.2854 27.8643 17.9737 27.9422C17.9737 28.2538 17.9737 28.4875 17.9737 28.7992C17.3505 28.7992 16.8052 28.7992 16.1819 28.7992C16.1819 28.4875 16.1819 28.1759 16.1819 27.8643C15.5587 27.8643 15.0133 27.8643 14.3901 27.8643C14.0784 27.8643 13.7668 27.8643 13.4552 27.8643C13.4552 27.5527 13.4552 27.3189 13.4552 27.0073Z" fill="#B59F93"/>
<path d="M21.5622 26.9294C21.8738 26.9294 22.1855 26.9294 22.4971 26.9294C22.4971 27.4748 22.4192 28.098 22.4192 28.6433C22.1855 28.6433 21.8739 28.6433 21.6401 28.6433C21.6401 28.3317 21.6401 28.098 21.6401 27.7864C21.6401 27.5527 21.6401 27.241 21.5622 26.9294Z" fill="#B59F93"/>
<path d="M24.3698 27.0073C24.993 27.0073 25.5384 27.0073 26.1616 26.9294C26.7849 26.9294 27.3302 26.9294 27.9534 26.9294C28.5767 26.9294 29.1999 26.9294 29.8232 27.0073C29.8232 27.3189 29.8232 27.5527 29.8232 27.8643C29.5116 27.8643 29.1999 27.8643 28.8883 27.8643C28.8883 28.1759 28.8883 28.4875 28.8883 28.7992C28.2651 28.7992 27.7197 28.7992 27.0965 28.7992C27.0965 28.4875 27.0965 28.1759 27.0965 27.8643C26.5511 27.8643 25.9279 27.8643 25.3825 27.8643H25.3046C24.993 27.8643 24.6814 27.8643 24.3698 27.8643C24.2919 27.5527 24.3698 27.3189 24.3698 27.0073Z" fill="#B59F93"/>
<path d="M19.0645 27.8641C19.2983 27.8641 19.5322 27.8641 19.766 27.8641C19.766 28.1759 19.766 28.4097 19.766 28.7215C19.4542 28.7215 19.1425 28.7215 18.9086 28.7215C18.9086 28.4877 18.8307 28.0979 19.0645 27.8641Z" fill="#B59F93"/>
<path d="M19.7706 28.722C20.3938 28.722 21.0171 28.722 21.6403 28.722C21.6403 29.0336 21.6403 29.2673 21.6403 29.579C21.0171 29.579 20.4717 29.579 19.8485 29.579C19.8485 29.3453 19.7706 29.0336 19.7706 28.722Z" fill="#B59F93"/>
<path d="M18.9082 3.86847C19.7652 3.86847 20.7001 3.86847 21.557 3.86847C21.557 4.18009 21.557 4.49171 21.557 4.72543C22.1803 4.72543 22.7256 4.64753 23.3489 4.80334C23.4268 5.34868 23.3489 5.97193 23.3489 6.51727C23.6605 6.51727 23.9721 6.51727 24.2058 6.51727C24.2058 6.82889 24.2058 7.06261 24.2058 7.37424C24.5175 7.37424 24.8291 7.45214 25.1407 7.45214C25.1407 7.99748 25.1407 8.62072 25.1407 9.16607C24.8291 9.16607 24.5175 9.16607 24.2837 9.16607C24.2837 9.47769 24.2058 9.71141 24.2058 10.023C22.7256 10.1009 21.2454 10.1009 19.8431 10.023C19.8431 9.71141 19.7652 9.47769 19.7652 9.16607C18.9082 9.16607 17.9734 9.16607 17.1164 9.08817C17.1164 8.85445 17.0385 8.54282 17.0385 8.30911C16.7269 8.2312 16.4931 8.2312 16.1815 8.2312C16.1815 7.99748 16.1815 7.68586 16.1815 7.37424C16.1815 6.75099 16.1815 6.20565 16.1815 5.5824C16.4931 5.5824 16.8048 5.5824 17.0385 5.5824C17.0385 5.27077 17.0385 4.95915 17.0385 4.64753C17.6617 4.64753 18.2071 4.64753 18.8303 4.64753C18.9082 4.41381 18.9082 4.18009 18.9082 3.86847Z" fill="#FDFEFF"/>
<path d="M12.605 6.51909C13.462 6.51909 14.3968 6.51909 15.3317 6.51909C15.3317 6.83071 15.3317 7.14233 15.3317 7.45396C15.3317 8.31092 15.3317 9.1679 15.3317 10.1028C15.0201 10.1028 14.7864 10.1028 14.4748 10.1028C14.4748 9.79114 14.3969 9.55742 14.3969 9.2458C13.8515 9.2458 13.2283 9.24579 12.6829 9.16789C12.6829 8.54464 12.6829 7.9993 12.6829 7.45396C12.605 7.06443 12.605 6.83071 12.605 6.51909Z" fill="#FDFEFF"/>
<path d="M26.1561 8.31064C26.7793 8.31064 27.3247 8.31064 27.9479 8.31064C27.9479 8.62226 27.9479 8.93388 27.9479 9.1676C28.2596 9.1676 28.5712 9.1676 28.8049 9.1676C28.8049 9.47922 28.8049 9.79085 28.8049 10.0246C28.4933 10.0246 28.1816 10.0246 27.87 10.0246C27.2468 10.0246 26.7014 10.0246 26.0782 10.0246C26.0782 9.71294 26.0782 9.40131 26.0782 9.1676C26.1561 8.85597 26.1561 8.54436 26.1561 8.31064Z" fill="#FDFEFF"/>
<path d="M16.1815 25.2165C16.4933 25.2165 16.8051 25.2165 17.1169 25.2165C17.1169 25.5283 17.1169 25.8401 17.1169 26.1518C16.8051 26.1518 16.4933 26.1518 16.1815 26.1518C16.1815 25.7621 16.1815 25.4503 16.1815 25.2165Z" fill="#FDFEFF"/>
<path d="M27.0158 25.2165C27.3276 25.2165 27.6394 25.2165 27.9512 25.2165C27.9512 25.5283 27.9512 25.8401 27.9512 26.1518C27.6394 26.1518 27.3276 26.1518 27.0938 26.1518C27.0158 25.7621 27.0158 25.4503 27.0158 25.2165Z" fill="#FDFEFF"/>
<path d="M14.3938 27.8621C15.017 27.8621 15.5624 27.8621 16.1856 27.8621C16.1856 28.1737 16.1856 28.4854 16.1856 28.797C15.5624 28.797 15.017 28.797 14.3938 28.797C14.3938 28.4075 14.3938 28.0958 14.3938 27.8621Z" fill="#FDFEFF"/>
<path d="M25.2992 27.8641C25.8445 27.8641 26.4677 27.8641 27.0131 27.8641C27.0131 28.1757 27.0131 28.4873 27.0131 28.799C26.3898 28.799 25.8445 28.799 25.2213 28.799C25.2992 28.4094 25.2992 28.0978 25.2992 27.8641Z" fill="#FDFEFF"/>
<path d="M11.6704 7.45384C11.982 7.45384 12.2936 7.45385 12.6052 7.37595C12.6052 7.99919 12.6052 8.54453 12.6052 9.08987C13.1506 9.08987 13.7738 9.08987 14.3192 9.16777C14.3192 9.4794 14.3971 9.71312 14.3971 10.0247C14.7087 10.0247 14.9424 10.0247 15.2541 10.0247C15.2541 9.16778 15.2541 8.31082 15.2541 7.37595C15.5657 7.37595 15.8773 7.37595 16.1889 7.37595C16.1889 7.60966 16.1889 7.92128 16.1889 8.2329C16.5005 8.2329 16.7343 8.31082 17.0459 8.31082C17.0459 8.54453 17.1238 8.85616 17.1238 9.08987C17.9808 9.08987 18.9156 9.16777 19.7726 9.16777C19.7726 9.4794 19.8505 9.71312 19.8505 10.0247C21.3307 10.0247 22.8109 10.0247 24.2132 10.0247C24.2132 9.71312 24.2911 9.4794 24.2911 9.16777C24.6028 9.16777 24.9144 9.16777 25.1481 9.16777C25.4597 9.16777 25.7714 9.16777 26.083 9.16777C26.083 9.4794 26.083 9.79103 26.083 10.0247C26.7062 10.0247 27.2516 10.0247 27.8748 10.0247C27.8748 10.3364 27.8748 10.5701 27.8748 10.8817C27.2516 10.8817 26.6283 10.8817 26.0051 10.9596C26.0051 11.1933 26.0051 11.505 26.0051 11.7387C25.7714 11.7387 25.4597 11.8166 25.226 11.8166C25.226 11.505 25.1481 11.2712 25.1481 10.9596C22.4214 10.9596 19.7726 10.9596 17.0459 10.9596C16.968 11.2712 16.968 11.5829 16.8122 11.8166C16.5785 11.8166 16.4226 11.8166 16.1889 11.8166C16.1889 11.5829 16.1889 11.2712 16.0331 10.9596C14.8645 10.8817 13.6959 10.9596 12.5273 10.9596C12.5273 10.648 12.5273 10.4143 12.5273 10.1027C12.2157 10.1027 11.9041 10.0247 11.6704 10.0247C11.6704 9.79103 11.6704 9.4794 11.6704 9.16777C11.3588 9.16777 11.0471 9.08987 10.8134 9.08987C10.8134 8.85616 10.8134 8.54453 10.8134 8.31082C11.125 8.31082 11.4367 8.31081 11.6704 8.2329C11.6704 7.99919 11.6704 7.68756 11.6704 7.45384Z" fill="#E4E4E4"/>
<path d="M12.6787 12.7522C12.6787 12.4404 12.6008 12.1287 12.8346 11.8948C13.0684 11.8948 13.3023 11.8948 13.4582 11.8948C13.4582 12.2066 13.4582 12.4404 13.4582 12.7522C13.2243 12.6743 12.9125 12.6743 12.6787 12.7522Z" fill="#E4E4E4"/>
<path d="M20.782 11.8948C21.0159 11.8948 21.3276 11.8948 21.5615 11.8948C21.5615 12.2066 21.5615 12.4404 21.5615 12.7522C21.3276 12.7522 21.0159 12.7522 20.782 12.7522C20.782 12.4404 20.782 12.1287 20.782 11.8948Z" fill="#E4E4E4"/>
<path d="M18.9894 12.7519C19.2233 12.7519 19.5351 12.7519 19.7689 12.7519C19.7689 12.9857 19.7689 13.2975 19.7689 13.6093C19.5351 13.6093 19.2233 13.6093 18.9894 13.6093C18.9894 13.2975 18.9894 13.0637 18.9894 12.7519Z" fill="#E4E4E4"/>
<path d="M14.4753 13.6874C14.7092 13.6874 15.021 13.6874 15.2548 13.6874C15.2548 13.9992 15.2548 14.2331 15.2548 14.5448C15.021 14.5448 14.7092 14.5448 14.4753 14.5448C14.4753 14.2331 14.4753 13.9213 14.4753 13.6874Z" fill="#E4E4E4"/>
<path d="M23.5074 13.6088C23.7412 13.6088 23.975 13.6867 24.2868 13.6867C24.2868 13.9206 24.3648 14.2324 24.3648 14.4662C24.053 14.4662 23.8191 14.4662 23.5853 14.4662C23.5074 14.1544 23.5074 13.9206 23.5074 13.6088Z" fill="#E4E4E4"/>
<path d="M27.0935 13.6088C27.3273 13.6088 27.6391 13.6088 27.873 13.6088C27.873 13.9206 27.873 14.1544 27.873 14.4662C27.6391 14.4662 27.3273 14.4662 27.0935 14.4662C27.0935 14.1544 27.0935 13.9206 27.0935 13.6088Z" fill="#E4E4E4"/>
<path d="M15.3304 20.7755C16.4989 20.7755 17.7454 20.7755 18.914 20.7755C18.914 21.0872 18.914 21.3988 18.914 21.6325C19.2257 21.6325 19.5373 21.6325 19.771 21.6325C19.771 21.9441 19.771 22.2557 19.771 22.4895C20.0826 22.4895 20.3942 22.4895 20.7059 22.4895C20.7059 22.8011 20.7059 23.1127 20.7059 23.3464C21.3291 23.3464 21.8745 23.3464 22.4977 23.3464C22.4977 23.0348 22.4977 22.7232 22.4977 22.4895C22.8093 22.4895 23.121 22.4895 23.4326 22.4895C23.4326 22.1778 23.4326 21.8662 23.4326 21.5546C23.7442 21.5546 24.0558 21.5546 24.2895 21.5546C24.2895 21.243 24.2895 20.9313 24.2895 20.6976C25.2244 20.6976 26.0814 20.6976 27.0162 20.6976C27.6395 20.6976 28.1848 20.6976 28.8081 20.6976C28.8081 21.0092 28.8081 21.3209 28.8081 21.5546C27.6395 21.5546 26.393 21.5546 25.2244 21.5546C25.2244 21.8662 25.2244 22.1778 25.2244 22.4895C25.2244 22.8011 25.2244 23.1127 25.2244 23.3464C25.2244 23.0348 25.2244 22.7232 25.1465 22.4895C24.8349 22.4895 24.6012 22.4895 24.3674 22.4895C24.3674 22.8011 24.3674 23.0348 24.2895 23.3464C23.9779 23.3464 23.7442 23.3464 23.4326 23.3464C23.4326 23.6581 23.4326 23.9697 23.4326 24.2813C23.4326 25.1383 23.4326 26.0731 23.4326 26.9301C23.121 26.9301 22.8093 26.9301 22.4977 26.9301C22.4977 26.6185 22.4977 26.3069 22.4977 26.0731C21.8745 26.0731 21.3291 26.0731 20.7059 26.0731C20.7059 26.3848 20.7059 26.6964 20.7059 26.9301C20.3942 26.9301 20.0826 26.9301 19.771 26.9301C19.771 26.0731 19.771 25.1383 19.771 24.2813C19.771 23.9697 19.771 23.658 19.771 23.4243C19.4594 23.4243 19.1477 23.4243 18.914 23.3464C18.914 23.0348 18.914 22.8011 18.914 22.4895C18.6024 22.4895 18.2908 22.4895 18.0571 22.4895C18.0571 22.1778 18.0571 21.9441 18.0571 21.6325C17.2001 21.6325 16.2652 21.6325 15.3304 21.6325C15.3304 21.3209 15.3304 21.0092 15.3304 20.7755Z" fill="#E4E4E4"/>
<path d="M19.6914 27.8642C19.7693 28.0979 19.7693 28.4096 19.7693 28.7212C19.7693 29.0328 19.7693 29.3445 19.7693 29.5782C20.3925 29.5782 20.9379 29.5782 21.5611 29.5782C21.8727 29.5782 22.1844 29.5782 22.496 29.5782C22.496 29.2665 22.496 28.9549 22.496 28.7212C22.8076 28.7212 23.1192 28.7212 23.4309 28.7212C23.4309 28.4096 23.4309 28.098 23.4309 27.7863C23.7425 27.7863 24.0541 27.7863 24.2878 27.7863C24.2878 28.098 24.2878 28.4096 24.2878 28.7212C24.5994 28.7212 24.9111 28.7212 25.2227 28.7212C25.2227 28.4096 25.2227 28.098 25.2227 27.7863H25.3006C25.3006 28.098 25.2227 28.4096 25.2227 28.7212C25.2227 29.0328 25.2227 29.3445 25.2227 29.5782C26.3913 29.5782 27.6378 29.5782 28.8064 29.5782C28.8064 29.2665 28.8064 28.9549 28.8064 28.7212C29.118 28.7212 29.4296 28.7212 29.7412 28.7212C29.7412 29.0328 29.7412 29.3444 29.7412 29.6561C29.4296 29.6561 29.118 29.6561 28.8064 29.6561C28.8064 29.9677 28.8064 30.2014 28.8064 30.513C28.1831 30.513 27.6378 30.513 27.0145 30.513C27.0145 30.8247 27.0145 31.0584 27.0145 31.37C26.3913 31.37 25.846 31.37 25.2227 31.37C25.2227 31.6816 25.2227 31.9933 25.1448 32.3049C22.8076 32.3049 20.3925 32.3049 18.0553 32.3049C17.9774 31.9933 17.9774 31.7595 17.8995 31.4479C17.3542 31.37 16.7309 31.37 16.1856 31.37C16.1856 31.0584 16.1856 30.7468 16.1856 30.513C15.5624 30.513 15.017 30.513 14.3938 30.513C14.3938 30.2014 14.3938 29.9677 14.3938 29.6561C15.5624 29.6561 16.8089 29.6561 17.9774 29.5782C17.9774 29.2665 17.9774 28.9549 17.9774 28.7212C18.2891 28.7212 18.5228 28.7212 18.8344 28.7212C19.146 28.7212 19.4577 28.7212 19.6914 28.7212C19.7693 28.4875 19.6914 28.1759 19.6914 27.8642Z" fill="#E4E4E4"/>
<path d="M17.1241 15.3995C19.2276 15.3995 21.3311 15.3995 23.4345 15.3995C23.4345 15.7111 23.4345 16.0227 23.4345 16.2564C24.0578 16.2564 24.681 16.2564 25.3043 16.2564C25.3043 16.4122 25.2264 16.7239 25.2264 16.8797C25.3043 16.9576 25.4601 17.0355 25.538 17.1913C26.0833 17.1913 26.5508 17.1913 27.0961 17.1913C27.0961 17.5029 27.0961 17.8145 27.0961 18.1262C27.4077 18.1262 27.7194 18.1262 27.9531 18.1262C27.9531 18.4378 27.9531 18.7494 27.9531 18.9831C28.2647 18.9831 28.5763 18.9831 28.81 18.9831C28.81 19.2948 28.81 19.6064 28.81 19.918C29.1217 19.918 29.4333 19.918 29.7449 19.918C29.7449 20.5413 29.7449 21.0866 29.7449 21.6319C30.0565 21.6319 30.3682 21.6319 30.6019 21.6319C30.6019 25.761 30.6019 29.89 30.6019 34.0969C30.2903 34.0969 29.9786 34.0969 29.667 34.0969C29.667 32.9283 29.667 31.7597 29.667 30.5911C29.667 30.2795 29.667 29.9679 29.667 29.7342C29.667 29.4225 29.667 29.1109 29.667 28.7993C29.3554 28.7993 29.0438 28.7993 28.7321 28.7993C28.7321 29.1109 28.7321 29.4225 28.7321 29.6563C27.5635 29.6563 26.317 29.6563 25.1485 29.6563C25.1485 29.3446 25.1485 29.033 25.1485 28.7993C25.7717 28.7993 26.317 28.7993 26.9403 28.7993C27.5635 28.7993 28.1089 28.7993 28.7321 28.7993C28.7321 28.4877 28.7321 28.176 28.7321 27.8644C29.0438 27.8644 29.3554 27.8644 29.667 27.8644C29.667 27.5528 29.667 27.3191 29.667 27.0075C29.667 26.0726 29.667 25.2156 29.667 24.2807C29.3554 24.2807 29.0438 24.2807 28.81 24.2807C28.81 23.9691 28.81 23.6575 28.7321 23.3459C27.5635 23.3459 26.395 23.3459 25.2264 23.3459C25.2264 23.6575 25.2264 23.9691 25.1485 24.2807C24.8368 24.2807 24.5252 24.2807 24.2915 24.2807C24.2915 23.9691 24.2915 23.6575 24.2915 23.3459C24.6031 23.3459 24.9147 23.3459 25.1485 23.3459C25.1485 23.0343 25.1485 22.7226 25.1485 22.4889C26.317 22.4889 27.5635 22.4889 28.81 22.4889C28.81 22.8005 28.81 23.1122 28.81 23.3459C29.1217 23.3459 29.4333 23.3459 29.7449 23.3459C29.7449 22.7226 29.7449 22.1773 29.7449 21.554C29.4333 21.554 29.1217 21.554 28.8879 21.554C28.8879 21.2424 28.8879 20.9308 28.8879 20.6971C28.8879 20.3854 28.8879 20.1517 28.8879 19.8401C28.5763 19.8401 28.3426 19.7622 28.031 19.7622C28.031 19.5285 27.9531 19.2169 27.9531 18.9831C27.6415 18.9831 27.4077 18.9052 27.174 18.9052C27.174 18.5936 27.0961 18.3599 27.0961 18.0483C26.4729 18.0483 25.9275 18.0483 25.3043 18.0483C25.3043 17.8146 25.3822 17.5029 25.4601 17.2692C24.8368 17.1913 24.2136 17.1913 23.5124 17.1134C23.5124 16.8018 23.5124 16.5681 23.5124 16.2564C21.7206 16.2564 19.9288 16.2564 18.1369 16.2564C17.8253 16.2564 17.5137 16.2564 17.2021 16.2564C17.2021 16.5681 17.1241 16.8018 17.1241 17.1134C16.2672 17.1134 15.3323 17.1134 14.4753 17.1134C14.4753 16.8018 14.4753 16.5681 14.4753 16.2564C15.4102 16.2564 16.2672 16.2564 17.2021 16.2564C17.1241 16.0227 17.1241 15.7111 17.1241 15.3995Z" fill="#511A17"/>
<path d="M12.6021 17.1911C13.2254 17.1911 13.7707 17.1911 14.394 17.1911C14.394 17.5027 14.394 17.8143 14.394 18.1259C13.8486 18.1259 13.2254 18.1259 12.6801 18.2039C12.6801 18.4376 12.6021 18.7492 12.6021 18.9829C12.3684 18.9829 12.0568 19.0608 11.8231 19.0608C11.8231 19.2945 11.7452 19.6062 11.7452 19.9178C11.4336 19.9178 11.1998 19.9178 10.8882 19.9178C10.8882 19.6062 10.8882 19.2945 10.8882 18.9829C11.1998 18.9829 11.5115 18.9829 11.8231 18.9829C11.8231 18.6713 11.8231 18.3597 11.8231 18.1259C12.1347 18.1259 12.4463 18.1259 12.758 18.1259C12.6022 17.7364 12.6021 17.5027 12.6021 17.1911Z" fill="#511A17"/>
<path d="M9.87212 19.8406C10.1837 19.8406 10.4954 19.8406 10.7291 19.8406C10.7291 20.3859 10.7291 21.0092 10.7291 21.5545C10.4175 21.5545 10.1058 21.6324 9.79422 21.6324C9.79422 23.1126 9.79422 24.5928 9.79422 25.9951C9.4826 25.9951 9.17097 26.0731 8.93725 26.0731C8.93725 28.4102 8.93725 30.7474 8.93725 33.1625C8.62563 33.1625 8.31401 33.1625 8.08029 33.1625C8.08029 30.8253 8.08029 28.4102 8.08029 26.0731C8.39192 26.0731 8.70354 26.0731 9.01516 26.0731C9.01516 24.5928 9.01516 23.1126 9.01516 21.6324C9.32678 21.6324 9.6384 21.6324 9.87212 21.6324C9.87212 21.0092 9.87212 20.4638 9.87212 19.8406Z" fill="#511A17"/>
<path d="M14.3938 22.4892C15.5624 22.4892 16.8089 22.4892 17.9774 22.4892C17.9774 22.8009 17.9774 23.1125 17.9774 23.3462C16.8089 23.3462 15.5624 23.3462 14.3938 23.3462C14.3938 23.1125 14.3938 22.8009 14.3938 22.4892Z" fill="#511A17"/>
<path d="M18.0553 23.4249C18.367 23.4249 18.6786 23.4249 18.9123 23.4249C18.9123 23.7365 18.9123 24.0481 18.9123 24.3598C19.2239 24.3598 19.5356 24.3598 19.7693 24.3598C19.7693 25.2167 19.7693 26.1516 19.7693 27.0086C19.7693 27.3202 19.7693 27.6318 19.6914 27.8655V27.9434C19.4577 27.8655 19.2239 27.8655 18.9902 27.9434C18.8344 28.1772 18.9123 28.5667 18.8344 28.8004C18.5228 28.8004 18.2891 28.8004 17.9774 28.8004C17.9774 29.112 17.9774 29.4237 17.9774 29.6574C16.8089 29.5795 15.5624 29.6574 14.3938 29.5795C14.3938 29.2679 14.3938 29.0341 14.3938 28.7225C15.017 28.7225 15.5624 28.7225 16.1856 28.7225C16.8089 28.7225 17.3542 28.7225 17.9774 28.7225C17.9774 28.4109 17.9774 28.1772 17.9774 27.8655C18.2112 27.7876 18.4449 27.7876 18.7565 27.7097C18.9123 27.476 18.9123 27.1644 18.9123 26.9307C18.9123 25.9958 18.9123 25.1388 18.9123 24.204C18.6007 24.204 18.2891 24.204 17.9774 24.204C17.9774 23.9702 18.0553 23.6586 18.0553 23.4249Z" fill="#511A17"/>
<path d="M13.462 23.3471C13.7736 23.3471 14.0852 23.3471 14.3969 23.3471C14.3969 23.5809 14.3969 23.8925 14.319 24.2041C14.0073 24.282 13.6957 24.282 13.462 24.3599C13.462 25.2169 13.462 26.1518 13.462 27.0087C13.462 27.3203 13.462 27.5541 13.462 27.8657C13.7736 27.8657 14.0852 27.8657 14.3969 27.8657C14.3969 28.1773 14.3969 28.4889 14.3969 28.7226C14.0852 28.7226 13.7736 28.7226 13.462 28.7226C13.462 28.411 13.462 28.0994 13.462 27.8657C13.1504 27.8657 12.8387 27.8657 12.605 27.8657C12.605 26.6971 12.605 25.5285 12.605 24.3599C12.9166 24.3599 13.2283 24.3599 13.462 24.3599C13.462 23.9704 13.462 23.6588 13.462 23.3471Z" fill="#511A17"/>
<path d="M23.4355 24.2799C23.7471 24.2799 24.0587 24.2799 24.2924 24.2799C24.2924 25.2148 24.2924 26.0717 24.2924 27.0066C24.2924 27.2403 24.2924 27.5519 24.2924 27.8636C24.604 27.8636 24.9157 27.8636 25.2273 27.8636C25.2273 28.1752 25.2273 28.4868 25.2273 28.7984C24.9157 28.7984 24.604 28.7984 24.2924 28.7984C24.2924 28.4868 24.2924 28.1752 24.2924 27.8636C23.9808 27.8636 23.6692 27.8636 23.4355 27.8636C23.4355 27.5519 23.4355 27.2403 23.4355 27.0066C23.4355 26.0717 23.4355 25.2148 23.4355 24.2799Z" fill="#511A17"/>
<path d="M17.1239 16.335C17.4355 16.335 17.7472 16.335 18.0588 16.335C18.0588 16.5687 17.9809 16.8803 17.9809 17.192C17.7472 17.192 17.4356 17.2699 17.2018 17.2699C17.1239 17.5815 17.1239 17.8152 17.046 18.1268C16.8123 18.1268 16.5007 18.2047 16.267 18.2047C16.267 18.4385 16.1891 18.7501 16.1891 18.9838C15.8774 18.9838 15.6437 19.0617 15.3321 19.0617C15.3321 19.685 15.3321 20.2303 15.3321 20.7756C15.0205 20.7756 14.7088 20.7756 14.4751 20.7756C14.4751 21.0873 14.4751 21.3989 14.4751 21.6326C14.1635 21.6326 13.8519 21.6326 13.5403 21.6326C13.5403 21.9442 13.5403 22.1779 13.5403 22.4896C13.2286 22.4896 12.917 22.4896 12.6833 22.5675C12.6833 22.8791 12.6833 23.1128 12.6833 23.4244C12.3717 23.4244 12.06 23.4244 11.8263 23.4244C11.8263 23.7361 11.8263 23.9698 11.8263 24.2814C11.5147 24.3593 11.281 24.3593 10.9694 24.4372C10.8915 25.6058 10.9694 26.6965 10.9694 27.8651C11.281 27.8651 11.5926 27.8651 11.8263 27.943C11.8263 28.5662 11.8263 29.1116 11.8263 29.7348C12.1379 29.7348 12.4496 29.7348 12.6833 29.7348C12.6833 30.0465 12.6833 30.3581 12.6833 30.6697C12.9949 30.6697 13.2286 30.6697 13.5403 30.6697C13.5403 30.9813 13.5402 31.2929 13.6182 31.5267C14.2414 31.5267 14.7867 31.5267 15.41 31.5267C15.41 31.8383 15.41 32.1499 15.41 32.4615C16.0332 32.4615 16.5786 32.4615 17.2018 32.4615C17.2018 32.7732 17.2018 33.0848 17.2018 33.3185C19.9285 33.3185 22.6552 33.3185 25.304 33.3185C25.304 33.0069 25.304 32.7732 25.304 32.4615C25.9273 32.4615 26.4726 32.4615 27.0959 32.4615C27.0959 32.1499 27.0959 31.8383 27.0959 31.5267C27.7191 31.5267 28.2645 31.5267 28.8877 31.5267C28.8877 31.215 28.8877 30.9813 28.8877 30.6697C29.1994 30.6697 29.511 30.6697 29.7447 30.6697C29.7447 31.8383 29.7447 33.0069 29.7447 34.1755C30.0563 34.1755 30.3679 34.1755 30.6796 34.1755C30.8354 34.1755 31.0691 34.1755 31.2249 34.1755C30.7575 34.565 30.29 34.8766 29.8226 35.2661C29.8226 34.9545 29.7447 34.565 29.7447 34.2534C29.4331 34.2534 29.1214 34.1755 28.8877 34.1755C28.8877 33.6301 28.8877 33.0069 28.8877 32.4615C28.3424 32.4615 27.7191 32.4615 27.1738 32.4615C27.1738 32.7732 27.0959 33.0069 27.0959 33.3185C26.5505 33.3185 25.9273 33.3185 25.382 33.3185C25.382 33.6301 25.304 33.8638 25.304 34.1755C22.5773 34.2534 19.9285 34.2534 17.2018 34.1755C17.2018 33.8638 17.1239 33.6301 17.1239 33.3185C16.5786 33.3185 15.9553 33.3185 15.41 33.3185C15.41 33.0069 15.3321 32.7732 15.3321 32.4615C14.7867 32.4615 14.1635 32.4615 13.6182 32.3836C13.6182 32.1499 13.5403 31.8383 13.5403 31.6046C13.2286 31.6046 12.9949 31.5267 12.6833 31.5267C12.6833 32.3836 12.6833 33.3185 12.6833 34.1755C12.9949 34.1755 13.3065 34.2534 13.5403 34.2534C13.5403 35.1882 13.5403 36.0452 13.5403 36.9801C11.4368 36.1231 9.41123 34.9545 7.77521 33.3185C7.85311 33.3185 8.00893 33.3185 8.16474 33.3185C8.47636 33.3185 8.78799 33.3185 9.02171 33.3185C9.02171 30.9813 9.02171 28.6441 9.02171 26.2291C9.33333 26.2291 9.64495 26.1511 9.87867 26.1511C9.87867 24.6709 9.87867 23.1907 9.87867 21.7884C10.1903 21.7884 10.5019 21.7105 10.8135 21.7105C10.8135 21.1652 10.8135 20.5419 10.8135 19.9966C11.1252 19.9966 11.3589 19.9966 11.6705 19.9966C11.6705 19.7629 11.7484 19.4512 11.7484 19.1396C11.9821 19.1396 12.2938 19.0617 12.5275 19.0617C12.5275 18.828 12.6054 18.5164 12.6054 18.2827C13.1507 18.2827 13.774 18.2827 14.3193 18.2047C14.3193 17.8931 14.3193 17.5815 14.3193 17.2699C15.1763 17.2699 16.1111 17.2699 16.9681 17.2699C17.1239 16.8803 17.1239 16.5687 17.1239 16.335Z" fill="#933838"/>
<path d="M25.2213 18.049C25.8445 18.049 26.3898 18.049 27.0131 18.049C27.0131 18.3606 27.091 18.5943 27.091 18.9059C27.4026 18.9059 27.6363 18.9838 27.8701 18.9838C27.8701 19.2176 27.948 19.5292 27.948 19.7629C28.2596 19.7629 28.4933 19.8408 28.8049 19.8408C28.8049 20.0745 28.8049 20.3862 28.8049 20.6978C28.1817 20.6978 27.6363 20.6978 27.0131 20.6978C27.0131 20.3862 27.0131 20.1524 27.0131 19.8408C26.7015 19.8408 26.4677 19.7629 26.1561 19.7629C26.1561 19.5292 26.0782 19.2176 26.0782 18.9838C25.7666 18.9838 25.5329 18.9059 25.2213 18.9059C25.2213 18.6722 25.2213 18.3606 25.2213 18.049Z" fill="#933838"/>
<path d="M20.6978 26.0734C21.3211 26.0734 21.8664 26.0734 22.4897 26.0734C22.4897 26.385 22.4897 26.6966 22.4897 26.9303C22.8013 26.9303 23.1129 26.9303 23.4245 26.9303C23.4245 27.2419 23.4245 27.5536 23.4245 27.7873C23.4245 28.0989 23.4245 28.4105 23.4245 28.7222C23.1129 28.7222 22.8013 28.7222 22.4897 28.7222C22.4897 29.0338 22.4897 29.3454 22.4897 29.5791C22.1781 29.5791 21.8664 29.5791 21.5548 29.5791C21.5548 29.2675 21.5548 29.0338 21.5548 28.7222C20.9315 28.7222 20.3083 28.7222 19.6851 28.7222C19.6851 28.4105 19.6851 28.0989 19.6851 27.7873C19.6851 27.4757 19.6851 27.164 19.763 26.9303C20.0746 26.9303 20.3862 26.9303 20.6978 26.9303C20.6978 26.6966 20.6978 26.385 20.6978 26.0734ZM20.7757 27.0082C20.7757 27.242 20.7757 27.5536 20.7757 27.7873C21.0874 27.7873 21.399 27.7873 21.6327 27.8652C21.6327 28.1768 21.6327 28.4105 21.6327 28.7222C21.8664 28.7222 22.178 28.7222 22.4118 28.7222C22.4118 28.1768 22.4897 27.5536 22.4897 27.0082C22.1781 27.0082 21.8664 27.0082 21.5548 27.0082C21.3211 27.0082 21.0095 27.0082 20.7757 27.0082Z" fill="#933838"/>
<path d="M18.2738 16.7399C20.0656 16.7399 21.8574 16.7399 23.6493 16.7399C23.6493 17.0516 23.6493 17.2853 23.6493 17.5969C24.2725 17.5969 24.9737 17.6748 25.5969 17.7527C25.519 17.9864 25.519 18.2981 25.4411 18.5318C25.4411 18.8434 25.4411 19.0771 25.4411 19.3887C25.7527 19.3887 25.9865 19.4666 26.2981 19.4666C26.2981 19.7004 26.376 20.012 26.376 20.2457C26.6876 20.2457 26.9213 20.3236 27.233 20.3236C27.233 20.6352 27.233 20.8689 27.233 21.1806C26.2981 21.1806 25.4411 21.1806 24.5062 21.1806C24.5062 21.4922 24.5062 21.8038 24.5062 22.0375C24.1946 22.0375 23.883 22.0375 23.6493 22.0375C23.6493 22.3492 23.6493 22.6608 23.6493 22.9724C23.3377 22.9724 23.026 22.9724 22.7144 22.9724C22.7144 23.284 22.7144 23.5957 22.7144 23.8294C22.0912 23.8294 21.5458 23.8294 20.9226 23.8294C20.9226 23.5178 20.9226 23.2061 20.9226 22.9724C20.611 22.9724 20.2993 22.9724 19.9877 22.9724C19.9877 22.6608 19.9877 22.3492 19.9877 22.1154C19.6761 22.1154 19.3645 22.1154 19.1307 22.1154C19.1307 21.8038 19.1307 21.4922 19.1307 21.2585C17.9621 21.2585 16.7156 21.2585 15.5471 21.2585C15.5471 20.6352 15.5471 20.0899 15.5471 19.5445C15.8587 19.5445 16.0924 19.4666 16.404 19.4666C16.404 19.2329 16.4819 18.9213 16.4819 18.6876C16.7157 18.6876 17.0273 18.6097 17.261 18.6097C17.3389 18.298 17.3389 18.0643 17.4168 17.7527C17.6505 17.7527 17.9621 17.6748 18.1959 17.6748C18.1959 17.2853 18.2738 17.0516 18.2738 16.7399Z" fill="#D14E50"/>
<path d="M14.3901 23.3481C15.5587 23.3481 16.8052 23.3481 17.9737 23.3481C17.9737 23.6597 17.9737 23.9713 17.9737 24.2829C18.2854 24.2829 18.597 24.2829 18.9086 24.2829C18.9086 25.2178 18.9086 26.0748 18.9086 27.0096C18.2854 27.0096 17.6621 27.0096 17.0389 26.9317C17.0389 26.6201 17.0389 26.3085 17.0389 26.0748C17.0389 25.7632 17.0389 25.4515 17.0389 25.1399C16.7273 25.1399 16.4156 25.1399 16.104 25.1399C15.7924 25.1399 15.4808 25.1399 15.247 25.1399C15.247 25.7631 15.247 26.3085 15.247 26.9317C14.6238 26.9317 14.0005 27.0096 13.4552 27.0096C13.4552 26.1527 13.4552 25.2178 13.4552 24.3608C13.7668 24.2829 14.0785 24.2829 14.3122 24.205C14.3901 23.9713 14.3901 23.6597 14.3901 23.3481ZM17.1168 24.2829C17.1947 24.5946 17.0389 25.2957 17.5842 25.1399C17.9737 25.2178 18.0516 24.7504 18.0516 24.4387C17.74 24.2829 17.4284 24.3608 17.1168 24.2829Z" fill="#D14E50"/>
<path d="M25.3034 23.3471C26.472 23.3471 27.6406 23.3471 28.8092 23.3471C28.8092 23.6588 28.8092 23.9704 28.8871 24.282C29.1987 24.282 29.5103 24.282 29.7441 24.282C29.7441 25.2169 29.7441 26.0738 29.7441 27.0087C29.1208 27.0087 28.4976 27.0087 27.8743 26.9308C27.8743 26.6192 27.8743 26.3076 27.8743 25.9959C27.8743 25.6843 27.8743 25.3727 27.8743 25.0611C28.1859 25.0611 28.4197 25.0611 28.6534 25.0611C28.6534 24.8273 28.6534 24.5157 28.6534 24.282C28.4197 24.282 28.108 24.282 27.8743 24.2041C27.8743 24.5157 27.8743 24.7494 27.8743 25.0611C27.5627 25.0611 27.2511 25.0611 26.9394 25.0611C26.6278 25.0611 26.3162 25.0611 26.0046 25.0611C26.0046 25.6843 26.0046 26.2297 26.0046 26.8529C25.3813 26.8529 24.836 26.9308 24.2127 26.9308C24.2127 25.9959 24.2127 25.139 24.2127 24.2041C24.5244 24.2041 24.836 24.2041 25.0697 24.2041C25.2255 23.9704 25.3034 23.6588 25.3034 23.3471Z" fill="#D14E50"/>
<path d="M20.782 27.0074C21.0938 27.0074 21.3276 27.0074 21.6394 26.9294C21.6394 27.2412 21.6394 27.475 21.6394 27.7868C21.3276 27.7868 21.0159 27.7868 20.782 27.7089C20.782 27.553 20.782 27.2412 20.782 27.0074Z" fill="#D14E50"/>
<path d="M12.606 31.3696C12.9176 31.3696 13.1514 31.4475 13.463 31.4475C13.463 31.6812 13.5409 31.9929 13.5409 32.2266C14.0862 32.2266 14.7095 32.2266 15.2548 32.3045C15.2548 32.6161 15.3327 32.8498 15.3327 33.1614C15.8781 33.1614 16.5013 33.1614 17.0467 33.1614C17.0467 33.4731 17.1246 33.7068 17.1246 34.0184C19.8513 34.0963 22.5001 34.0963 25.2268 34.0184C25.2268 33.7068 25.3047 33.4731 25.3047 33.1614C25.85 33.1614 26.4733 33.1614 27.0186 33.1614C27.0186 32.8498 27.0965 32.6161 27.0965 32.3045C27.6419 32.3045 28.2651 32.3045 28.8105 32.3045C28.8105 32.8498 28.8105 33.4731 28.8105 34.0184C29.1221 34.0184 29.3558 34.0963 29.6674 34.0963C29.6674 34.4079 29.7453 34.7975 29.7453 35.1091C26.8628 36.9009 23.4349 38.0695 20.0071 37.9916C17.7478 38.0695 15.4885 37.6021 13.463 36.823C13.463 35.8881 13.463 35.0312 13.463 34.0963C13.1514 34.0963 12.8397 34.0184 12.606 34.0184C12.606 33.1614 12.606 32.2266 12.606 31.3696Z" fill="#D14E50"/>
</svg>
