<svg width="36" height="36" viewBox="0 0 36 36" fill="none" xmlns="http://www.w3.org/2000/svg">
<g clip-path="url(#clip0_4523_38224)">
<path d="M23.5992 13.7255L25.1605 15.2868L13.1369 27.3104C12.7041 27.7431 12.0083 27.7431 11.5756 27.3104C11.1428 26.8776 11.1429 26.1819 11.5756 25.7491L23.5992 13.7255Z" fill="#4895FF"/>
<path d="M27.8204 11.0678C28.2532 11.5005 28.2532 12.1963 27.8204 12.629L24.1293 16.3201L22.5681 14.7589L26.2591 11.0678C26.6919 10.635 27.3877 10.635 27.8204 11.0678Z" fill="#80D4FF"/>
<path d="M32.437 11.5438L33.361 14.0398C33.361 14.0398 33.397 14.0998 33.433 14.1118L35.929 15.0358C36.037 15.0718 36.037 15.2278 35.929 15.2638L33.433 16.1878C33.433 16.1878 33.373 16.2238 33.361 16.2598L32.437 18.7558C32.401 18.8638 32.245 18.8638 32.209 18.7558L31.285 16.2598C31.285 16.2598 31.249 16.1998 31.213 16.1878L28.717 15.2638C28.609 15.2278 28.609 15.0718 28.717 15.0358L31.213 14.1118C31.213 14.1118 31.273 14.0758 31.285 14.0398L32.209 11.5438C32.245 11.4358 32.401 11.4358 32.437 11.5438Z" fill="#80D4FF"/>
<path d="M32.3898 2.56746L32.9418 4.06746C32.9418 4.06746 32.9658 4.10346 32.9898 4.11546L34.4898 4.66746C34.5498 4.69146 34.5498 4.78746 34.4898 4.81146L32.9898 5.36346C32.9898 5.36346 32.9538 5.38746 32.9418 5.41146L32.3898 6.91146C32.3658 6.97146 32.2698 6.97146 32.2458 6.91146L31.6938 5.41146C31.6938 5.41146 31.6698 5.37546 31.6458 5.36346L30.1458 4.81146C30.0858 4.78746 30.0858 4.69146 30.1458 4.66746L31.6458 4.11546C31.6458 4.11546 31.6818 4.09146 31.6938 4.06746L32.2458 2.56746C32.2698 2.50746 32.3658 2.50746 32.3898 2.56746Z" fill="#9DE5F9"/>
<path d="M22.0937 4.05568L22.8257 6.04768C22.8257 6.04768 22.8617 6.09568 22.8857 6.10768L24.8777 6.83968C24.9617 6.87568 24.9617 6.99568 24.8777 7.03168L22.8857 7.76368C22.8857 7.76368 22.8377 7.79968 22.8257 7.82368L22.0937 9.81568C22.0577 9.89968 21.9377 9.89968 21.9017 9.81568L21.1697 7.82368C21.1697 7.82368 21.1337 7.77568 21.1097 7.76368L19.1177 7.03168C19.0337 6.99568 19.0337 6.87568 19.1177 6.83968L21.1097 6.10768C21.1097 6.10768 21.1577 6.07168 21.1697 6.04768L21.9017 4.05568C21.9377 3.97168 22.0577 3.97168 22.0937 4.05568Z" fill="#80D4FF"/>
<path d="M18.0376 13.4757C18.6473 13.4757 19.1416 12.9814 19.1416 12.3717C19.1416 11.762 18.6473 11.2677 18.0376 11.2677C17.4279 11.2677 16.9336 11.762 16.9336 12.3717C16.9336 12.9814 17.4279 13.4757 18.0376 13.4757Z" fill="#9DE5F9"/>
<path d="M26.1493 20.8439C26.759 20.8439 27.2533 20.3496 27.2533 19.7399C27.2533 19.1301 26.759 18.6359 26.1493 18.6359C25.5396 18.6359 25.0453 19.1301 25.0453 19.7399C25.0453 20.3496 25.5396 20.8439 26.1493 20.8439Z" fill="#9DE5F9"/>
<path d="M26.5086 3.15565C26.9129 3.15565 27.2406 2.82792 27.2406 2.42365C27.2406 2.01938 26.9129 1.69165 26.5086 1.69165C26.1043 1.69165 25.7766 2.01938 25.7766 2.42365C25.7766 2.82792 26.1043 3.15565 26.5086 3.15565Z" fill="#9DE5F9"/>
<path d="M28.7281 8.31556C29.1324 8.31556 29.4601 7.98784 29.4601 7.58356C29.4601 7.17929 29.1324 6.85156 28.7281 6.85156C28.3238 6.85156 27.9961 7.17929 27.9961 7.58356C27.9961 7.98784 28.3238 8.31556 28.7281 8.31556Z" fill="#9DE5F9"/>
<path d="M2.74832 14.1118C2.58032 13.9078 2.35232 13.7758 2.08832 13.7158C1.75232 13.6438 1.40432 13.7158 1.12832 13.9318C0.888321 14.1118 0.732321 14.3518 0.672321 14.6518L0.540321 15.2518C0.0483214 17.5798 -0.107679 19.9438 0.0723214 22.3078C0.264321 20.3398 0.780322 18.3838 1.62032 16.4038C1.95632 15.6238 2.34032 14.8558 2.74832 14.1118Z" fill="#DDF6FD"/>
<path d="M2.41298 35.808C2.41298 34.512 2.05298 33.132 1.62098 31.536C1.18898 29.952 0.708984 28.164 0.528984 26.124C0.288984 23.112 0.792984 20.184 2.07698 17.184C2.42498 16.368 2.82098 15.564 3.25298 14.808L4.09298 13.38C4.09298 13.38 4.10498 13.356 4.11698 13.344C4.33298 12.996 4.56098 12.648 4.81298 12.288C4.99298 12.024 5.26898 11.844 5.58098 11.784C5.89298 11.724 6.21698 11.784 6.48098 11.976C7.00898 12.336 7.16498 13.044 6.82898 13.596C6.82898 13.596 5.42498 15.9 4.89698 17.052C4.15298 18.672 3.58898 20.352 3.20498 22.068C3.18098 22.2 3.25298 22.32 3.38498 22.356C3.43298 22.356 3.48098 22.356 3.52898 22.344C3.60098 22.32 3.64898 22.248 3.67298 22.176C4.04498 20.496 4.60898 18.84 5.32898 17.256C5.84498 16.116 6.48098 14.988 7.21298 13.86V13.836C7.58498 13.296 7.90898 12.84 8.22098 12.42L8.59298 11.928C8.98898 11.412 9.74498 11.304 10.273 11.712C10.525 11.904 10.693 12.192 10.729 12.504C10.765 12.828 10.681 13.14 10.489 13.392L10.117 13.884C8.36498 16.164 7.03298 18.852 6.26498 21.648C6.14498 22.068 6.04898 22.488 5.94098 22.956C5.92898 23.016 5.94098 23.088 5.97698 23.148C6.01298 23.208 6.07298 23.244 6.14498 23.244H6.24098C6.34898 23.268 6.45698 23.208 6.49298 23.112C6.60098 22.848 6.72098 22.596 6.86498 22.368C7.87298 20.64 9.74498 19.572 11.737 19.584C12.421 19.584 13.081 19.716 13.705 19.956C14.221 20.148 14.713 20.436 15.145 20.772C15.649 21.192 15.721 21.948 15.301 22.452C14.893 22.956 14.161 23.04 13.657 22.644C13.657 22.644 13.657 22.644 13.645 22.644C13.273 22.356 12.841 22.152 12.385 22.056C12.181 22.008 11.965 21.984 11.713 21.984C10.861 21.984 10.045 22.308 9.43298 22.908C8.82098 23.508 8.48498 24.312 8.47298 25.164C8.47298 26.016 8.79698 26.832 9.39698 27.444C9.99698 28.056 10.801 28.392 11.653 28.404C12.229 28.404 12.793 28.26 13.285 27.984C14.173 27.48 14.749 26.604 14.857 25.584C14.881 25.332 14.989 25.104 15.157 24.924C15.421 24.636 15.793 24.492 16.189 24.54C16.849 24.624 17.317 25.224 17.245 25.872C17.185 26.388 17.053 26.88 16.849 27.348C16.489 28.212 15.901 28.98 15.145 29.58C14.713 29.928 14.209 30.216 13.693 30.444C11.425 31.38 10.549 32.496 10.285 34.86C10.285 34.86 10.285 34.872 10.285 34.884C10.249 35.232 10.213 35.616 10.201 36.024H2.40098V35.832L2.41298 35.808Z" fill="#DDF6FD"/>
</g>
<defs>
<clipPath id="clip0_4523_38224">
<rect width="36" height="36" fill="white"/>
</clipPath>
</defs>
</svg>
