<svg xmlns="http://www.w3.org/2000/svg" width="36" height="36" viewBox="0 0 36 36" fill="none">
  <g clip-path="url(#clip0_4523_38184)">
    <path d="M18 9.8007L13.5 7.7937V12.9237H13.518C13.536 13.1577 13.644 13.3827 13.878 13.4997L17.037 15.1287C17.334 15.2817 17.667 15.3627 18 15.3627V9.8097V9.8007Z" fill="#3486FF"/>
    <path d="M18 9.8007L22.5 7.7937V12.9237H22.482C22.464 13.1577 22.356 13.3827 22.122 13.4997L18.963 15.1287C18.666 15.2817 18.333 15.3627 18 15.3627V9.8097V9.8007Z" fill="#83B7FF"/>
    <path d="M22.1213 8.40547L18.9623 10.0345C18.3593 10.3405 17.6483 10.3405 17.0453 10.0345L13.8863 8.40547C13.3733 8.14447 13.3823 7.40647 13.9043 7.15447L17.0903 5.60647C17.6663 5.32747 18.3413 5.32747 18.9263 5.60647L22.1123 7.15447C22.6343 7.40647 22.6433 8.14447 22.1303 8.40547H22.1213Z" fill="#6DAAFF"/>
    <path d="M5.30062 17.0641C5.13862 17.0641 4.97662 16.9741 4.89562 16.8121C4.78762 16.5871 4.87762 16.3171 5.09362 16.2091L15.2186 11.1691C15.4436 11.0611 15.7136 11.1511 15.8216 11.3671C15.9296 11.5921 15.8396 11.8621 15.6236 11.9701L5.49862 17.0101C5.43562 17.0461 5.36362 17.0551 5.30062 17.0551V17.0641Z" fill="#B2D2FF"/>
    <path d="M30.5727 17.0641C30.5007 17.0641 30.4377 17.0461 30.3747 17.0191L20.2497 11.9791C20.0247 11.8711 19.9347 11.6011 20.0517 11.3761C20.1597 11.1511 20.4387 11.0611 20.6547 11.1781L30.7797 16.2181C31.0047 16.3261 31.0947 16.5961 30.9777 16.8211C30.8967 16.9831 30.7437 17.0731 30.5727 17.0731V17.0641Z" fill="#B2D2FF"/>
    <path d="M4.5 18.1974L0 16.1904V21.3204H0.018C0.036 21.5544 0.144 21.7794 0.378 21.8964L3.537 23.5254C3.834 23.6784 4.167 23.7594 4.5 23.7594V18.2064V18.1974Z" fill="#3486FF"/>
    <path d="M4.5 18.1974L9 16.1904V21.3204H8.982C8.964 21.5544 8.856 21.7794 8.622 21.8964L5.463 23.5254C5.166 23.6784 4.833 23.7594 4.5 23.7594V18.2064V18.1974Z" fill="#83B7FF"/>
    <path d="M8.62127 16.8117L5.46227 18.4407C4.85927 18.7467 4.14827 18.7467 3.54527 18.4407L0.386271 16.8117C-0.126729 16.5507 -0.117729 15.8127 0.404271 15.5607L3.59027 14.0127C4.16627 13.7337 4.84127 13.7337 5.42627 14.0127L8.61227 15.5607C9.13427 15.8127 9.14327 16.5507 8.63027 16.8117H8.62127Z" fill="#6DAAFF"/>
    <path d="M31.5 18.1974L27 16.1904V21.3204H27.018C27.036 21.5544 27.144 21.7794 27.378 21.8964L30.537 23.5254C30.834 23.6784 31.167 23.7594 31.5 23.7594V18.2064V18.1974Z" fill="#3486FF"/>
    <path d="M31.5 18.1974L36 16.1904V21.3204H35.982C35.964 21.5544 35.856 21.7794 35.622 21.8964L32.463 23.5254C32.166 23.6784 31.833 23.7594 31.5 23.7594V18.2064V18.1974Z" fill="#83B7FF"/>
    <path d="M35.6213 16.8117L32.4623 18.4407C31.8593 18.7467 31.1483 18.7467 30.5453 18.4407L27.3863 16.8117C26.8733 16.5507 26.8823 15.8127 27.4043 15.5607L30.5903 14.0127C31.1663 13.7337 31.8413 13.7337 32.4263 14.0127L35.6123 15.5607C36.1343 15.8127 36.1433 16.5507 35.6303 16.8117H35.6213Z" fill="#6DAAFF"/>
    <path d="M15.5428 16.8028C15.4708 16.8028 15.4078 16.7848 15.3448 16.7578L10.7998 14.4988C10.5748 14.3908 10.4848 14.1208 10.6018 13.8958C10.7098 13.6708 10.9798 13.5808 11.2048 13.6978L15.7498 15.9568C15.9748 16.0648 16.0648 16.3348 15.9478 16.5598C15.8668 16.7218 15.7138 16.8118 15.5428 16.8118V16.8028Z" fill="#4895FF"/>
    <path d="M20.6463 16.803C20.4843 16.803 20.3223 16.713 20.2413 16.551C20.1333 16.326 20.2233 16.056 20.4393 15.948L24.7593 13.797C24.9843 13.689 25.2543 13.779 25.3623 13.995C25.4703 14.22 25.3803 14.49 25.1643 14.598L20.8443 16.749C20.7813 16.785 20.7093 16.794 20.6463 16.794V16.803Z" fill="#4895FF"/>
    <path d="M18.0984 18.0265L13.5984 16.0195V21.2665H13.6164C13.6344 21.5005 13.7424 21.7255 13.9764 21.8425L17.1354 23.4715C17.4324 23.6245 17.7654 23.7055 18.0984 23.7055V18.0265Z" fill="#80D4FF"/>
    <path d="M18.0984 18.0265L22.5984 16.0195V21.2665H22.5804C22.5624 21.5005 22.4544 21.7255 22.2204 21.8425L19.0614 23.4715C18.7644 23.6245 18.4314 23.7055 18.0984 23.7055V18.0265Z" fill="#C4EFFB"/>
    <path d="M22.2197 16.6408L19.0607 18.2698C18.4577 18.5758 17.7467 18.5758 17.1437 18.2698L13.9847 16.6408C13.4717 16.3798 13.4807 15.6418 14.0027 15.3898L17.1887 13.8418C17.7647 13.5628 18.4397 13.5628 19.0247 13.8418L22.2107 15.3898C22.7327 15.6418 22.7417 16.3798 22.2287 16.6408H22.2197Z" fill="#DDF6FD"/>
    <path d="M10.9976 22.608C10.8356 22.608 10.6736 22.518 10.5926 22.356C10.4846 22.131 10.5746 21.861 10.7906 21.753L15.3356 19.494C15.5606 19.386 15.8306 19.476 15.9386 19.692C16.0466 19.917 15.9566 20.187 15.7406 20.295L11.1956 22.554C11.1326 22.59 11.0606 22.599 10.9976 22.599V22.608Z" fill="#4895FF"/>
    <path d="M24.9663 22.4907C24.8943 22.4907 24.8313 22.4727 24.7683 22.4457L20.4483 20.2947C20.2233 20.1867 20.1333 19.9167 20.2503 19.6917C20.3583 19.4667 20.6283 19.3767 20.8533 19.4937L25.1733 21.6447C25.3983 21.7527 25.4883 22.0227 25.3713 22.2477C25.2903 22.4097 25.1373 22.4997 24.9663 22.4997V22.4907Z" fill="#4895FF"/>
    <path d="M17.2433 25.713C17.1713 25.713 17.1083 25.695 17.0453 25.668L6.92025 20.628C6.69525 20.52 6.60525 20.25 6.72225 20.025C6.83025 19.8 7.10025 19.71 7.32525 19.827L17.4503 24.867C17.6753 24.975 17.7653 25.245 17.6483 25.47C17.5673 25.632 17.4143 25.722 17.2433 25.722V25.713Z" fill="#B2D2FF"/>
    <path d="M18.7373 25.7127C18.5753 25.7127 18.4133 25.6227 18.3323 25.4607C18.2243 25.2357 18.3143 24.9657 18.5303 24.8577L28.6553 19.8177C28.8713 19.7097 29.1503 19.7997 29.2583 20.0157C29.3663 20.2407 29.2763 20.5107 29.0603 20.6187L18.9353 25.6587C18.8723 25.6947 18.8003 25.7037 18.7373 25.7037V25.7127Z" fill="#B2D2FF"/>
    <path d="M18 25.7941L13.5 23.7871V28.9171H13.518C13.536 29.1511 13.644 29.3761 13.878 29.4931L17.037 31.1221C17.334 31.2751 17.667 31.3561 18 31.3561V25.8031V25.7941Z" fill="#3486FF"/>
    <path d="M18 25.7941L22.5 23.7871V28.9171H22.482C22.464 29.1511 22.356 29.3761 22.122 29.4931L18.963 31.1221C18.666 31.2751 18.333 31.3561 18 31.3561V25.8031V25.7941Z" fill="#83B7FF"/>
    <path d="M22.1213 24.3991L18.9623 26.0281C18.3593 26.3341 17.6483 26.3341 17.0453 26.0281L13.8863 24.3991C13.3733 24.1381 13.3823 23.4001 13.9043 23.1481L17.0903 21.6001C17.6663 21.3211 18.3413 21.3211 18.9263 21.6001L22.1123 23.1481C22.6343 23.4001 22.6433 24.1381 22.1303 24.3991H22.1213Z" fill="#6DAAFF"/>
  </g>
  <defs>
    <clipPath id="clip0_4523_38184">
      <rect width="36" height="36" fill="white"/>
    </clipPath>
  </defs>
</svg>