<svg width="18" height="20" viewBox="0 0 18 20" fill="none" xmlns="http://www.w3.org/2000/svg">
<path d="M6.64648 7.91721C6.64648 7.21875 6.07916 6.65137 5.3807 6.65137C4.68225 6.65137 4.11493 7.21875 4.11493 7.91721C4.11493 8.61566 4.68225 9.18298 5.3807 9.18298C6.07916 9.18298 6.64648 8.61566 6.64648 7.91721Z" fill="#88BAFF"/>
<path d="M7.91435 12.4068V13.1669H2.84583V12.2998C2.84583 10.8173 4.11967 9.63179 5.6263 9.77897C6.9456 9.90475 7.91435 11.0848 7.91435 12.4068Z" fill="#88BAFF"/>
<path d="M12.9833 7.91721C12.9833 7.21875 12.416 6.65137 11.7176 6.65137C11.0191 6.65137 10.4518 7.21875 10.4518 7.91721C10.4518 8.61566 11.0191 9.18298 11.7176 9.18298C12.416 9.18298 12.9833 8.61566 12.9833 7.91721Z" fill="#B1EAFA"/>
<path d="M14.2492 12.4068V13.1669H9.18079V12.2998C9.18079 10.8173 10.4546 9.63179 11.9612 9.77897C13.2805 9.90475 14.2492 11.0848 14.2492 12.4068Z" fill="#B1EAFA"/>
<path d="M9.81542 9.29825C9.81542 8.59979 9.2481 8.03247 8.54965 8.03247C7.8512 8.03247 7.28387 8.59979 7.28387 9.29825C7.28387 9.9967 7.8512 10.564 8.54965 10.564C9.2481 10.564 9.81542 9.9967 9.81542 9.29825Z" fill="#3486FF"/>
<path d="M11.0804 13.7967V14.5566H6.0119V13.6896C6.0119 12.207 7.28568 11.0216 8.79231 11.1687C10.1116 11.2945 11.0804 12.472 11.0804 13.7967Z" fill="#3486FF"/>
<path d="M9.81542 9.29825C9.81542 8.59979 9.2481 8.03247 8.54965 8.03247C7.8512 8.03247 7.28387 8.59979 7.28387 9.29825C7.28387 9.9967 7.8512 10.564 8.54965 10.564C9.2481 10.564 9.81542 9.9967 9.81542 9.29825Z" fill="#4895FF"/>
<path d="M11.0804 13.7967V14.5566H6.0119V13.6896C6.0119 12.207 7.28568 11.0216 8.79231 11.1687C10.1116 11.2945 11.0804 12.472 11.0804 13.7967Z" fill="#4895FF"/>
<path d="M1.94653 5.29526C1.33906 4.94738 0.56569 5.1561 0.217801 5.75822C-0.106003 6.32287 0.0518326 7.02397 0.565638 7.40397C0.199016 8.37271 -0.0043335 9.40571 -0.0043335 10.4521C-0.0043335 11.0354 0.0518352 11.6108 0.166906 12.1754L0.787772 12.0497C0.680729 11.5305 0.629861 10.9926 0.629861 10.4521C0.629861 9.48867 0.814559 8.53867 1.14907 7.64486C1.64414 7.70909 2.14991 7.47893 2.40949 7.02399C2.75737 6.41653 2.54865 5.64315 1.94653 5.29526Z" fill="#DDF6FD"/>
<path d="M2.51679 15.5813C2.87271 15.1826 2.95301 14.5938 2.6747 14.1041C2.32681 13.4966 1.54809 13.2933 0.945971 13.6412C0.338503 13.989 0.135127 14.7678 0.483016 15.3699C0.79344 15.9024 1.433 16.1299 1.99765 15.9346C2.88343 16.9916 4.02614 17.8426 5.3053 18.3617L5.54612 17.773C4.38738 17.2967 3.34103 16.5313 2.52482 15.576L2.51679 15.5813Z" fill="#DDF6FD"/>
<path d="M14.0014 17.0404L13.5946 16.5533C12.4867 17.4712 11.1486 18.06 9.73566 18.2768C9.5644 17.7817 9.0961 17.4205 8.54483 17.4205C7.84905 17.4205 7.27905 17.9905 7.27905 18.6862C7.27905 19.382 7.84905 19.952 8.54483 19.952C9.17103 19.952 9.68481 19.497 9.79185 18.9003C11.3333 18.6755 12.7971 18.0332 14.0014 17.0404Z" fill="#9DE5F9"/>
<path d="M17.0992 10.4504C17.0992 10.1641 17.0859 9.86701 17.0538 9.57532L16.4275 9.63954C16.4516 9.90447 16.465 10.1774 16.465 10.4504C16.465 11.47 16.2616 12.4655 15.8896 13.4021C15.3571 13.2683 14.7737 13.4904 14.482 13.9908C14.1341 14.5983 14.3429 15.3717 14.945 15.7196C15.5471 16.0674 16.3259 15.8587 16.6738 15.2566C16.9708 14.7374 16.8638 14.1032 16.4516 13.7098C16.8771 12.6876 17.0992 11.577 17.0992 10.4504Z" fill="#80D4FF"/>
<path d="M16.8585 5.8699C16.5534 5.34539 15.9218 5.11528 15.3625 5.29993C14.3617 3.97528 13.0049 2.96102 11.4287 2.39905L11.2146 2.99581C12.6597 3.51496 13.9121 4.44086 14.8326 5.65044C14.466 6.04918 14.3777 6.64596 14.6614 7.13835C15.0093 7.74582 15.788 7.9492 16.3901 7.60131C16.9976 7.25342 17.201 6.47469 16.8531 5.87258H16.8585V5.8699Z" fill="#80D4FF"/>
<path d="M8.54617 0.947998C7.91997 0.947998 7.40619 1.40291 7.29914 1.99967C5.6828 2.24052 4.15741 2.9256 2.91571 4.01476L3.33319 4.49111C4.4732 3.49561 5.87279 2.85604 7.35533 2.62858C7.5266 3.12365 7.9949 3.48491 8.54617 3.48491C9.24195 3.48491 9.81194 2.91491 9.81194 2.21913C9.81194 1.52335 9.24462 0.947998 8.54617 0.947998Z" fill="#9DE5F9"/>
</svg>
