<svg width="40" height="40" viewBox="0 0 40 40" fill="none" xmlns="http://www.w3.org/2000/svg">
<rect width="40" height="40" fill="#4D4D4F"/>
<mask id="mask0_4646_32029" style="mask-type:alpha" maskUnits="userSpaceOnUse" x="0" y="0" width="40" height="40">
<rect width="40" height="40" fill="#7C61AA"/>
</mask>
<g mask="url(#mask0_4646_32029)">
<path d="M27.0025 23.9202C26.8801 24.0731 26.7578 24.2108 26.6507 24.3638H26.6354C26.5589 24.5167 26.4671 24.6544 26.4212 24.8073C26.3295 25.1285 26.3142 25.465 26.3295 25.7862C26.3601 26.0462 26.406 26.3063 26.5283 26.5357C26.6507 26.7499 26.8036 26.9487 26.9872 27.1322C27.0484 27.1934 27.1096 27.2546 27.1708 27.3158C27.3238 27.4534 27.5072 27.5605 27.6755 27.6523C27.9355 27.7593 28.1956 27.8205 28.4709 27.8358C28.7003 27.8358 28.9298 27.8205 29.1592 27.7899C29.6792 27.6676 30.1534 27.3617 30.4746 26.9487C30.704 26.6428 30.9029 26.2757 30.9029 25.878C30.9029 25.5262 30.9182 25.1897 30.8723 24.8379C30.8417 24.7767 30.8111 24.7156 30.7805 24.6544C30.5052 23.9508 29.8322 23.4001 29.0827 23.2625C28.8686 23.2472 28.6697 23.2472 28.4556 23.2472C27.9355 23.2625 27.3849 23.4919 27.0025 23.9202ZM19.003 13.2899C18.8959 13.3052 18.7888 13.3205 18.6817 13.3511C18.0852 13.4275 17.5346 13.6111 16.9687 13.8099V13.8252C16.4639 14.024 16.0051 14.2994 15.5768 14.6206C15.4086 14.7429 15.2403 14.8806 15.0874 15.0335C14.9956 15.1253 14.8885 15.2018 14.812 15.3089C14.6744 15.4618 14.5367 15.6148 14.399 15.7677C14.0625 16.2266 13.7566 16.716 13.5425 17.2514H13.5272C13.3895 17.6949 13.1754 18.1385 13.1601 18.5974L13.1907 18.6433L13.1295 18.6585C13.053 18.8727 13.0531 19.1174 13.0225 19.3468C12.9919 19.6681 12.9766 20.0045 13.0072 20.341C13.0072 20.494 13.0224 20.6317 13.0377 20.7846C13.1142 21.2741 13.1907 21.7636 13.3436 22.2377H13.359C13.4354 22.4977 13.5272 22.7424 13.6496 22.9872C14.1849 24.1496 15.072 25.1897 16.2192 25.8015L16.2651 25.7862L16.2803 25.8321L16.311 25.8627C16.5557 25.9851 16.8004 26.1074 17.0451 26.2145C17.2746 26.3063 17.504 26.3675 17.7334 26.444C18.1923 26.5969 18.6665 26.6581 19.1407 26.7193C19.3854 26.7499 19.6454 26.7805 19.8901 26.7805C20.3796 26.7499 20.8538 26.6734 21.3279 26.5969V26.5663C21.5727 26.5357 21.8173 26.444 22.0621 26.3522L22.0468 26.3063L22.0621 26.3369C22.5515 26.1839 23.0104 25.9392 23.4539 25.6792C23.7139 25.5109 23.9587 25.3274 24.1882 25.1132H24.2493C24.2493 25.0979 24.2493 25.0826 24.2493 25.0673C24.494 24.8685 24.7082 24.6391 24.907 24.4096H24.9376V24.3638C25.1365 24.1649 25.3047 23.9202 25.4729 23.6907C25.7788 23.2319 26.0389 22.7424 26.2072 22.2071C26.2837 21.993 26.3601 21.7635 26.3907 21.5341H26.4212C26.4977 21.0599 26.5743 20.5858 26.5896 20.0963C26.5896 19.8363 26.5895 19.5916 26.5589 19.3315C26.4978 18.8421 26.4213 18.3373 26.2683 17.8632H26.253C26.1765 17.6338 26.0848 17.4196 25.993 17.2055C25.886 17.0066 25.7941 16.7925 25.6718 16.5937C25.6565 16.5478 25.6106 16.4713 25.5953 16.4254H25.5647C24.907 15.3394 23.9281 14.4676 22.7962 13.9017C22.5668 13.7793 22.3374 13.6722 22.0774 13.611V13.5957C21.6185 13.4122 21.1138 13.3357 20.6243 13.2592C20.3796 13.2439 20.1502 13.2134 19.9055 13.1981C19.5843 13.2287 19.2936 13.2593 19.003 13.2899ZM17.0757 6.11628C18.3606 5.79508 19.676 5.84096 20.9914 5.87155C21.3279 5.90214 21.6796 5.91745 22.0161 5.97863C22.215 6.00922 22.4292 6.05509 22.628 6.10097C22.9033 6.16216 23.1786 6.20803 23.4539 6.28451C23.9434 6.43747 24.4328 6.57512 24.907 6.75867C25.1364 6.83514 25.3659 6.94225 25.5953 7.03402C26.1001 7.26345 26.5896 7.50817 27.0637 7.78348C27.1096 7.81407 27.1554 7.84465 27.2013 7.85994C27.4155 7.98231 27.6143 8.11998 27.8132 8.25764C28.2873 8.56355 28.7156 8.91536 29.1439 9.28246C29.1592 9.29775 29.1897 9.31301 29.205 9.3436C29.4498 9.55774 29.6945 9.78718 29.924 10.0166C29.9546 10.0472 29.9851 10.0778 30.0157 10.1084C30.2146 10.3072 30.3981 10.5061 30.5817 10.7202C30.597 10.7355 30.6122 10.7661 30.6275 10.7814C31.0099 11.2249 31.3617 11.6991 31.6829 12.1886C31.8052 12.3721 31.9124 12.5557 32.0347 12.7392C32.0653 12.8004 32.1112 12.8616 32.1418 12.9227C32.4018 13.3816 32.6312 13.8558 32.8454 14.3299C32.9524 14.5441 33.0289 14.7735 33.1207 15.0029C33.3042 15.4771 33.4572 15.9666 33.5796 16.456C33.6408 16.7161 33.7019 16.9608 33.7478 17.2208C33.962 18.1538 33.9619 19.1174 33.9772 20.081C33.9619 20.7693 33.9467 21.4729 33.8549 22.1612C33.809 22.4059 33.7631 22.666 33.7019 22.9107C33.6407 23.1554 33.5949 23.4001 33.5337 23.6449C33.4113 24.1037 33.2584 24.5626 33.0901 25.0062C32.9831 25.2815 32.876 25.5568 32.7536 25.8168L32.7383 25.8474C32.6465 26.0768 32.5242 26.291 32.4171 26.5051C32.2948 26.7498 32.1418 26.9946 32.0194 27.2393C32.0194 27.2546 32.0041 27.2699 32.0041 27.2699C31.8665 27.484 31.7441 27.6829 31.6064 27.8817C31.5147 28.0194 31.4229 28.1723 31.3158 28.31C31.224 28.4324 31.1323 28.5547 31.0405 28.6924C30.291 29.656 29.4192 30.5125 28.4556 31.262C28.3332 31.3538 28.1955 31.4456 28.0732 31.5373C27.9508 31.6138 27.8285 31.7056 27.7061 31.7821C27.2472 32.088 26.7731 32.3633 26.2989 32.608C25.8401 32.8375 25.3812 33.0516 24.8917 33.2351C24.6623 33.3116 24.4481 33.4187 24.2187 33.4798C24.0046 33.541 23.8058 33.6022 23.5916 33.6787C23.561 33.694 23.4845 33.7093 23.4539 33.7093C23.1939 33.7858 22.9186 33.8317 22.6433 33.8928C21.5573 34.1376 20.4255 34.1682 19.3089 34.1376C18.7736 34.1376 18.2535 34.0764 17.7334 33.9999C17.504 33.9693 17.2746 33.9234 17.0451 33.8775C16.8004 33.8316 16.5557 33.7857 16.311 33.7246C15.8368 33.5869 15.3627 33.4799 14.9038 33.3116C14.6744 33.2198 14.4296 33.1433 14.2002 33.0516C14.1237 33.021 14.0473 32.9904 13.9708 32.9598C13.772 32.8833 13.5731 32.7916 13.3743 32.6998C13.1601 32.5927 12.9613 32.5009 12.7624 32.3786C12.6706 32.3327 12.5942 32.2868 12.5024 32.2409C12.3342 32.1338 12.1659 32.0421 11.9976 31.935C11.5082 31.6291 11.0494 31.2926 10.6058 30.9255C10.5446 30.8796 10.4834 30.8184 10.4223 30.7726C10.254 30.6196 10.0704 30.4667 9.90217 30.3137C9.84099 30.2525 9.7645 30.1913 9.70332 30.1301C9.51977 29.9466 9.33625 29.763 9.15271 29.5642C9.09152 29.4877 9.03035 29.4266 8.96917 29.3501C8.80092 29.1512 8.63264 28.9371 8.46439 28.7383C8.4491 28.723 8.43385 28.6924 8.41855 28.6771C8.2503 28.4477 8.08204 28.2182 7.92909 27.9888C7.83732 27.8511 7.76086 27.7135 7.66909 27.5758C7.60791 27.484 7.54666 27.377 7.50077 27.2852C7.24075 26.8263 6.99607 26.3522 6.78193 25.8627C6.65957 25.6027 6.56776 25.3427 6.46069 25.0826C6.29244 24.6238 6.13952 24.1496 6.01716 23.6602C5.92538 23.2166 5.80302 22.773 5.72654 22.3295C5.55829 20.907 5.57354 19.4539 5.68061 18.0161C5.72649 17.7561 5.75713 17.4961 5.81831 17.2514C5.86419 17.0066 5.92534 16.7772 5.97122 16.5478C6.01711 16.3184 6.07829 16.0889 6.15476 15.8595C6.30772 15.3394 6.49133 14.8347 6.70547 14.3452C6.79724 14.1311 6.88902 13.9169 6.99609 13.6875C7.01138 13.6569 7.02663 13.6263 7.04193 13.611C7.14899 13.3969 7.25611 13.1828 7.37847 12.9839C7.65379 12.4945 7.95965 12.005 8.28085 11.5615C8.34204 11.485 8.40321 11.3932 8.46439 11.3167C8.60205 11.1485 8.73974 10.965 8.8774 10.812C8.96917 10.7049 9.06095 10.5978 9.16802 10.4908C9.27508 10.3837 9.38219 10.2613 9.48925 10.1543C9.61162 10.0319 9.73398 9.90955 9.87164 9.78718C10.0093 9.64953 10.1622 9.51188 10.3152 9.37422C10.4069 9.29775 10.4834 9.22125 10.5752 9.16007C10.7587 9.00711 10.9422 8.86944 11.1258 8.71648C11.187 8.6706 11.2635 8.62472 11.3246 8.57883C11.7835 8.25763 12.273 7.95172 12.7624 7.6764C13.2213 7.41638 13.7107 7.20227 14.2002 6.98814C14.7049 6.7893 15.2097 6.62105 15.7297 6.4681C15.898 6.42221 16.0663 6.36102 16.2498 6.31513C16.5098 6.20806 16.7851 6.17747 17.0757 6.11628Z" fill="white"/>
</g>
</svg>
