<svg width="40" height="40" viewBox="0 0 40 40" fill="none" xmlns="http://www.w3.org/2000/svg">
<rect width="40" height="40" fill="black"/>
<mask id="mask0_4646_31989" style="mask-type:alpha" maskUnits="userSpaceOnUse" x="0" y="0" width="40" height="40">
<rect width="40" height="40" fill="#7C61AA"/>
</mask>
<g mask="url(#mask0_4646_31989)">
<path fill-rule="evenodd" clip-rule="evenodd" d="M19.4251 8.17583L15.4581 10.4717C15.4139 10.4973 15.3772 10.534 15.3517 10.5783L19.6138 13.0448C19.8036 13.1547 19.9498 13.3265 20.0278 13.5315C20.0547 13.5304 20.0817 13.5302 20.1086 13.5308C20.1696 13.3453 20.2967 13.1887 20.4657 13.0909L24.78 10.5941C24.7365 10.5185 24.6738 10.4557 24.5984 10.412L20.7344 8.17583C20.5354 8.06065 20.3096 8 20.0797 8C19.8498 8 19.624 8.06065 19.4251 8.17583ZM18.793 13.7931C18.8663 13.8355 18.9272 13.8965 18.9694 13.97L16.6068 15.3373C16.5761 15.3517 16.5458 15.3674 16.516 15.3845L15.2407 16.1107C15.2028 16.1322 15.1676 16.1584 15.136 16.1885L14.9107 16.3189C14.7115 16.4343 14.5462 16.6001 14.4313 16.7996C14.3164 16.9991 14.2559 17.2253 14.256 17.4555V22.1381C14.1802 22.1362 14.1061 22.1154 14.0404 22.0774L10.3574 19.946L10.1547 19.8286C9.95549 19.7132 9.79015 19.5474 9.67525 19.3479C9.56034 19.1484 9.49991 18.9223 9.5 18.692V14.6901C9.49989 14.4599 9.56032 14.2337 9.67523 14.0342C9.79014 13.8347 9.95548 13.6689 10.1547 13.5535L13.6122 11.5525C13.8112 11.4373 14.037 11.3767 14.2668 11.3767C14.4967 11.3767 14.7225 11.4373 14.9215 11.5525L18.793 13.7931ZM15.4425 17.2424L16.7616 16.4791C16.9074 16.4153 17.0662 16.3867 17.2251 16.3957C17.384 16.4046 17.5385 16.4509 17.6763 16.5306L19.0224 17.3097L17.8215 18.0047C17.6223 18.1201 17.457 18.2859 17.3421 18.4853C17.2272 18.6848 17.1668 18.911 17.1669 19.1412V20.5722L15.7741 19.7662C15.6503 19.6945 15.5448 19.595 15.466 19.4755C15.3872 19.3561 15.3371 19.22 15.3198 19.0779V17.4555C15.3198 17.3676 15.3666 17.2864 15.4425 17.2424ZM15.3198 22.6807V20.7266L17.1669 21.7955V23.8917L15.4425 22.8938C15.4052 22.8722 15.3742 22.8411 15.3526 22.8037C15.3311 22.7662 15.3198 22.7238 15.3198 22.6807ZM17.8215 25.503C17.8068 25.4945 17.7922 25.4857 17.7779 25.4767L15.3869 24.0929C15.3385 24.173 15.3129 24.2647 15.3129 24.3582V28.8225C15.3128 29.0527 15.3732 29.2789 15.4881 29.4784C15.603 29.6779 15.7684 29.8436 15.9675 29.959L19.4251 31.96C19.624 32.0752 19.8498 32.1359 20.0797 32.1359C20.3096 32.1359 20.5354 32.0752 20.7344 31.96L24.1919 29.959C24.3911 29.8436 24.5564 29.6779 24.6713 29.4784C24.7862 29.2789 24.8467 29.0527 24.8466 28.8225V24.3582C24.8466 24.2631 24.8201 24.1716 24.7725 24.0929L22.369 25.4839C22.3584 25.4904 22.3478 25.4968 22.337 25.503L21.1812 26.1719C21.1744 26.1758 21.1675 26.1797 21.1605 26.1833L20.7344 26.4299C20.5354 26.5451 20.3096 26.6058 20.0797 26.6058C19.8498 26.6058 19.624 26.5451 19.4251 26.4299L19.0058 26.1872C18.9961 26.1824 18.9866 26.1773 18.9773 26.1719L17.8215 25.503ZM14.4011 23.2812C14.423 23.3237 14.4471 23.3649 14.4733 23.4049C14.3326 23.5817 14.256 23.801 14.256 24.0271V28.894C14.1826 28.8922 14.1109 28.872 14.0474 28.8352L10.1547 26.5824C9.95548 26.4669 9.79014 26.3012 9.67523 26.1017C9.56032 25.9022 9.49989 25.676 9.5 25.4458V21.006C9.5 20.9031 9.52849 20.8042 9.57986 20.7192L13.814 23.1696C13.9914 23.2723 14.1984 23.3117 14.4011 23.2812ZM25.9034 24.0271C25.9034 23.7973 25.8246 23.5789 25.686 23.4049C25.712 23.3655 25.7358 23.3249 25.7574 23.283C25.9579 23.3137 26.163 23.2751 26.3385 23.1734L30.5796 20.719C30.6316 20.8052 30.6591 20.904 30.659 21.0046V25.4458C30.6591 25.676 30.5987 25.9022 30.4838 26.1017C30.3689 26.3012 30.2036 26.4669 30.0044 26.5824L26.1302 28.8245C26.0612 28.8645 25.9832 28.8864 25.9034 28.8883V24.0271ZM26.1154 22.0793C26.0509 22.1167 25.978 22.1372 25.9034 22.1391V17.4555C25.9035 17.2253 25.8431 16.9991 25.7282 16.7996C25.6133 16.6001 25.448 16.4343 25.2488 16.3189L21.1786 13.9633C21.2135 13.9027 21.2637 13.8523 21.3243 13.8173L25.2376 11.5525C25.4365 11.4373 25.6624 11.3767 25.8922 11.3767C26.1221 11.3767 26.3479 11.4373 26.5469 11.5525L30.0044 13.5535C30.2036 13.6689 30.3689 13.8347 30.4838 14.0342C30.5987 14.2337 30.6591 14.4599 30.659 14.6901V18.692C30.6591 18.9222 30.5987 19.1484 30.4838 19.3479C30.3689 19.5474 30.2036 19.7132 30.0044 19.8286L26.1154 22.0793ZM24.7168 22.8938L22.9916 23.8922V21.7962L24.8396 20.7267V22.6807C24.8396 22.7238 24.8283 22.7662 24.8067 22.8037C24.7852 22.8411 24.7542 22.8722 24.7168 22.8938ZM24.8396 17.4555V18.9555C24.8197 19.1368 24.7574 19.3109 24.6578 19.4637C24.5582 19.6165 24.424 19.7438 24.2662 19.8352L22.9916 20.5729V19.1412C22.9917 18.911 22.9313 18.6848 22.8164 18.4853C22.7015 18.2859 22.5362 18.1201 22.337 18.0047L21.1361 17.3097L22.4476 16.5507C22.5959 16.4648 22.7625 16.4153 22.9337 16.4063C23.1049 16.3973 23.2757 16.4291 23.4323 16.4989L24.7168 17.2424C24.7542 17.2641 24.7852 17.2951 24.8067 17.3325C24.8283 17.3699 24.8396 17.4123 24.8396 17.4555ZM20.0793 16.698L21.9277 15.6282L20.2024 14.6298C20.1651 14.6082 20.1228 14.5968 20.0797 14.5968C20.0366 14.5968 19.9942 14.6082 19.9569 14.6298L18.2313 15.6285L20.0793 16.698ZM20.2024 25.5065L21.5713 24.7142C21.6844 24.6278 21.776 24.5165 21.839 24.389C21.9021 24.2614 21.9348 24.121 21.9348 23.9788V22.4078L20.7344 23.1025C20.5355 23.2176 20.3097 23.2783 20.0798 23.2783C19.8499 23.2783 19.6241 23.2176 19.4252 23.1025L18.2237 22.4071V23.9788C18.2237 24.1204 18.2562 24.2602 18.3187 24.3874C18.3812 24.5145 18.4721 24.6256 18.5843 24.7121L19.9569 25.5065C19.9943 25.528 20.0366 25.5394 20.0797 25.5394C20.1228 25.5394 20.1651 25.528 20.2024 25.5065ZM18.8783 18.6162L20.0793 17.9213L21.2802 18.6162C21.4794 18.7317 21.6447 18.8975 21.7596 19.097C21.8745 19.2964 21.9349 19.5226 21.9348 19.7528V21.1845L20.7344 21.8792C20.5355 21.9944 20.3097 22.0551 20.0798 22.0551C19.8499 22.0551 19.6241 21.9944 19.4252 21.8792L18.2237 21.1839V19.7528C18.2236 19.5226 18.2841 19.2964 18.3989 19.097C18.5138 18.8975 18.6792 18.7317 18.8783 18.6162Z" fill="white"/>
</g>
</svg>
