<svg width="40" height="40" viewBox="0 0 40 40" fill="none" xmlns="http://www.w3.org/2000/svg">
<rect width="40" height="40" fill="#CFFD34"/>
<mask id="mask0_4646_32244" style="mask-type:alpha" maskUnits="userSpaceOnUse" x="0" y="0" width="40" height="40">
<rect width="40" height="40" fill="#7C61AA"/>
</mask>
<g mask="url(#mask0_4646_32244)">
<path d="M23.406 15.3007C23.7796 15.157 24.2825 15.3438 24.3112 15.7749C24.4262 16.3353 23.7364 16.8238 23.2479 16.5221C22.7737 16.2491 22.9174 15.4731 23.406 15.3007Z" fill="#414042"/>
<path d="M6.99721 16.5652C6.89662 16.9532 6.79611 17.3412 6.7099 17.7291C6.95417 17.7004 7.27027 17.7291 7.41395 17.4848C7.54327 17.2837 7.62946 17.025 7.57199 16.7808C7.50014 16.5365 7.19837 16.5796 6.99721 16.5652ZM5.2155 15.8899C5.35919 15.7893 5.54603 15.8181 5.71846 15.8037C6.43689 15.8037 7.15533 15.8037 7.87376 15.8037C8.33356 15.8181 8.85078 15.9187 9.16689 16.2779C9.61232 16.7664 9.38241 17.6429 8.79329 17.9159C8.66397 17.9734 8.52033 18.0309 8.39101 18.074C8.56344 18.1458 8.7502 18.232 8.80767 18.4188C8.93699 18.7636 8.75023 19.1229 8.75023 19.4821C8.87955 19.5108 9.0089 19.5396 9.13821 19.5539C9.18132 20.0137 8.73588 20.3155 8.31919 20.3729C7.88813 20.4304 7.31339 20.4161 7.06912 19.985C6.85359 19.5539 7.12658 19.0941 7.14094 18.6487C7.08347 18.3757 6.72426 18.4475 6.5231 18.4188C6.42252 18.8068 6.29316 19.1947 6.20694 19.5827C6.17821 19.8413 6.60926 19.9706 6.46557 20.2293C6.33625 20.3442 6.14952 20.3298 5.99147 20.3298C5.44546 20.3298 4.89943 20.3298 4.35342 20.3298C4.19536 20.3298 3.95111 20.2724 4.00858 20.0568C4.08042 19.8269 4.39652 19.7551 4.43962 19.5108C4.71263 18.5625 4.98565 17.5998 5.25865 16.6371C5.38797 16.3928 5.04308 16.1342 5.2155 15.8899Z" fill="#414042"/>
<path d="M30.1166 16.824C30.4039 16.5653 30.6482 16.2349 31.0074 16.0768C31.2661 16.005 31.5966 15.9475 31.8265 16.1343C31.9701 16.3498 31.8552 16.6084 31.8121 16.824C32.0276 16.8383 32.4587 16.7809 32.4012 17.1257C32.3581 17.528 31.8983 17.4849 31.5966 17.4706C31.4385 18.1315 31.108 18.7781 31.0793 19.4678C31.3235 19.4965 31.5822 19.4678 31.8265 19.4678C31.8552 19.8414 31.496 20.0713 31.1942 20.215C30.7344 20.4161 30.1741 20.488 29.6999 20.3012C29.3694 20.1719 29.1826 19.7983 29.2545 19.4534C29.3551 18.8931 29.6137 18.3758 29.743 17.8154C29.7717 17.5999 29.5849 17.4562 29.47 17.3125C29.3406 17.1976 29.2976 16.9389 29.4987 16.8671C29.6855 16.7952 29.901 16.824 30.1166 16.824Z" fill="#414042"/>
<path d="M33.5504 16.8239C34.2832 16.594 35.0879 16.6372 35.8063 16.8671C36.1799 16.9676 36.5247 17.3843 36.2948 17.7723C35.8781 18.3183 34.6999 18.0453 34.8005 17.2694C34.5562 17.2263 34.1683 17.3843 34.3407 17.6861C34.7574 18.1171 35.4327 18.1746 35.8638 18.62C36.2373 18.9218 36.1511 19.5253 35.835 19.8414C35.4183 20.2724 34.7718 20.373 34.197 20.373C33.6079 20.373 32.9757 20.3299 32.4871 19.9994C32.1567 19.7839 32.0704 19.2522 32.3722 18.9792C32.7745 18.6919 33.4498 18.8356 33.6366 19.3097C33.6797 19.4534 33.6797 19.6115 33.7085 19.7695C33.9671 19.827 34.4269 19.7264 34.3119 19.3672C33.9096 18.893 33.1193 18.8499 32.8176 18.2464C32.5733 17.6573 32.9757 16.9964 33.5504 16.8239Z" fill="#414042"/>
<path d="M11.1932 18.3041C11.6673 18.2322 11.8398 17.6862 11.7392 17.2695C11.3943 17.5138 11.2938 17.9305 11.1932 18.3041ZM9.87119 17.6718C10.2017 17.0684 10.8771 16.7379 11.5524 16.7091C12.0697 16.6948 12.6444 16.6948 13.0755 17.0109C13.5784 17.3701 13.4921 18.2466 12.9461 18.5196C12.3857 18.7926 11.7535 18.7926 11.15 18.7495C11.1931 18.9219 11.2219 19.1374 11.4087 19.2237C11.8828 19.4679 12.4001 19.1662 12.8743 19.0943C12.903 19.353 12.8312 19.626 12.6444 19.8271C12.1846 20.3444 11.423 20.445 10.7764 20.3157C10.2448 20.2151 9.72752 19.8559 9.61257 19.3099C9.49762 18.7639 9.59819 18.1604 9.87119 17.6718Z" fill="#414042"/>
<path d="M13.9804 17.5855C14.3827 17.0108 15.0867 16.7378 15.7621 16.709C16.2219 16.6803 16.7247 16.7378 17.0696 17.0395C17.3282 17.255 17.4144 17.6286 17.2708 17.9304C17.0552 18.3039 16.4948 18.3471 16.1643 18.1315C15.9057 17.9735 15.9345 17.643 15.9345 17.3844C15.3023 17.6286 14.943 18.5339 15.3885 19.0799C15.8483 19.4678 16.4374 19.1373 16.9259 19.0224C16.9259 19.3672 16.7679 19.6977 16.4949 19.9132C15.9776 20.3587 15.216 20.4305 14.5694 20.2294C14.1096 20.0857 13.7361 19.7121 13.6355 19.2236C13.5349 18.6919 13.6642 18.0741 13.9804 17.5855Z" fill="#414042"/>
<path d="M19.1675 18.3041C19.6129 18.2466 19.8571 17.7006 19.6847 17.3126C19.3399 17.5138 19.268 17.9592 19.1675 18.3041ZM17.8456 17.6718C18.176 17.0684 18.8513 16.7379 19.5267 16.7091C20.0439 16.6948 20.6187 16.6948 21.0497 17.0109C21.5527 17.3701 21.4664 18.2466 20.9204 18.5196C20.36 18.7926 19.7279 18.7926 19.11 18.7495C19.1387 18.9219 19.1818 19.1374 19.3686 19.2093C19.8572 19.4535 20.36 19.1518 20.8486 19.08C20.8773 19.4392 20.7049 19.784 20.4175 19.9852C19.9434 20.3588 19.3112 20.4019 18.7508 20.3013C18.2335 20.2007 17.7163 19.8559 17.5869 19.3099C17.472 18.7639 17.5726 18.1747 17.8456 17.6718Z" fill="#414042"/>
<path d="M22.4869 16.8384C22.8749 16.7378 23.2916 16.6947 23.6795 16.8097C23.9957 16.9103 24.0674 17.2838 23.9812 17.5712C23.7944 18.2609 23.5502 18.9506 23.3634 19.6403C23.2772 19.8415 23.464 19.9708 23.5646 20.1145C23.4927 20.2007 23.4353 20.33 23.2916 20.33C22.7743 20.3731 22.2714 20.33 21.7541 20.3444C21.5673 20.33 21.3518 20.3731 21.1937 20.2438C21.1219 19.9564 21.5098 19.8989 21.5817 19.6547C21.7972 18.9793 21.9984 18.3184 22.1851 17.6431C22.2426 17.4419 21.9266 17.3269 21.9697 17.1258C22.0703 16.939 22.3001 16.8959 22.4869 16.8384Z" fill="#414042"/>
<path d="M26.6537 18.0451C26.4813 18.6055 26.2801 19.1659 26.1652 19.7407C26.6106 19.755 26.7974 19.3096 26.898 18.9504C26.9985 18.5624 27.1709 18.1601 27.1134 17.7434C26.9123 17.6428 26.7112 17.8583 26.6537 18.0451ZM24.8719 17.025C25.2743 16.7663 25.7772 16.7232 26.237 16.7663C26.4956 16.7807 26.668 16.9962 26.7686 17.2261C27.1853 16.6658 28.1337 16.5077 28.6078 17.0681C28.9383 17.4704 28.9383 18.0308 28.8521 18.5193C28.7515 19.1084 28.4785 19.6975 27.9756 20.0424C27.4009 20.4591 26.6249 20.5166 25.9784 20.2579C25.9065 20.5309 25.7915 20.7896 25.7628 21.0769C25.8203 21.235 26.079 21.4649 25.8347 21.5942C25.5904 21.666 25.3174 21.6373 25.0587 21.6517C24.5846 21.6373 24.1104 21.6804 23.6506 21.6229C23.6363 21.5655 23.6219 21.4361 23.6075 21.3643C23.7655 21.2206 23.9668 21.1057 24.0242 20.8758C24.3403 19.8412 24.6564 18.7923 24.9725 17.7578C25.1593 17.456 24.5989 17.2549 24.8719 17.025Z" fill="#414042"/>
<path d="M27.7603 22.3987C27.9327 22.3987 28.1051 22.3987 28.2775 22.3987C28.2775 22.4418 28.2775 22.5136 28.2919 22.5567C28.1769 22.5567 28.0764 22.5567 27.9614 22.5567C27.9614 23.2608 27.9614 23.9649 27.9614 24.6689C28.062 24.6689 28.1769 24.6689 28.2775 24.6689C28.2775 24.712 28.2919 24.7982 28.2919 24.8414C28.1195 24.8414 27.947 24.8414 27.7603 24.8414V22.3987Z" fill="#414042"/>
<path d="M35.4329 22.4131C35.6197 22.3987 35.8065 22.3987 35.9933 22.3987C35.9933 23.2177 35.9933 24.0367 35.9933 24.8557C35.8209 24.8557 35.6484 24.8557 35.476 24.8557C35.476 24.8126 35.476 24.7264 35.476 24.6833C35.5909 24.6833 35.6916 24.6833 35.8065 24.6833V22.5711C35.6628 22.5567 35.476 22.5999 35.4329 22.4131Z" fill="#414042"/>
<path d="M29.3261 23.175C28.9525 23.4193 28.9669 24.1234 29.3979 24.2958C30.1307 24.4107 30.0589 22.9164 29.3261 23.175ZM28.8519 22.4709C28.895 22.4709 28.9956 22.4709 29.0531 22.4853C29.0531 22.7152 29.0531 22.9595 29.0387 23.1894C29.2399 22.9307 29.6565 22.8589 29.9008 23.1032C30.1882 23.4337 30.1883 24.0228 29.8865 24.3389C29.6279 24.5831 29.2255 24.4969 29.0243 24.2239C29.0387 24.2814 29.0387 24.3964 29.0531 24.4538C28.9956 24.4538 28.895 24.4538 28.8519 24.4538C28.8519 23.8072 28.8519 23.1319 28.8519 22.4709Z" fill="#414042"/>
<path d="M32.674 22.6141C32.7171 22.6141 32.8177 22.6141 32.8751 22.6141C32.8751 22.7003 32.8751 22.8727 32.8751 22.9589C32.9757 22.9733 33.0907 22.9733 33.1913 22.9733C33.1913 23.0164 33.1769 23.1026 33.1769 23.1313C33.1051 23.1313 32.947 23.1457 32.8751 23.1457C32.8751 23.4618 32.8608 23.7779 32.8895 24.094C32.9039 24.3239 33.2631 24.2377 33.2775 24.482C33.0763 24.482 32.8033 24.4964 32.7171 24.2665C32.6309 23.8929 32.6884 23.5193 32.674 23.1457C32.6166 23.1457 32.5159 23.1457 32.4585 23.1457L32.4441 22.9733C32.5016 22.9733 32.6166 22.9589 32.674 22.9445V22.6141Z" fill="#414042"/>
<path d="M30.8635 23.5914C31.1652 23.6058 31.4669 23.5914 31.783 23.5914C31.7112 23.419 31.6393 23.1891 31.4238 23.1604C31.1221 23.0598 30.9497 23.3615 30.8635 23.5914ZM31.079 24.4392C30.418 24.1805 30.5618 22.9305 31.3233 22.9448C31.7687 22.9305 31.9698 23.3903 31.9698 23.7782C31.5962 23.7782 31.2227 23.7782 30.8491 23.7782C30.8922 24.0225 31.0502 24.3242 31.3376 24.2955C31.5675 24.3099 31.6969 23.9938 31.9555 24.1087C31.8118 24.4392 31.4095 24.5829 31.079 24.4392Z" fill="#414042"/>
<path d="M33.967 23.936C33.8233 24.1946 34.1681 24.3814 34.3837 24.2808C34.6279 24.2233 34.6567 23.936 34.6998 23.7204C34.4412 23.7779 34.1538 23.7492 33.967 23.936ZM33.7228 23.3181C33.9095 22.9302 34.513 22.8008 34.786 23.1601C34.9297 23.5767 34.8291 24.0366 34.8579 24.4676H34.6567V24.3096C34.3693 24.6113 33.7084 24.5395 33.7084 24.0509C33.7227 23.5624 34.3262 23.6342 34.6567 23.5337C34.6279 23.39 34.6136 23.1888 34.4268 23.1601C34.1682 23.0595 33.9958 23.4331 33.7228 23.3181Z" fill="#414042"/>
</g>
</svg>
