<svg width="16" height="18" viewBox="0 0 16 18" fill="none" xmlns="http://www.w3.org/2000/svg">
<path d="M2.38081 4.49109C2.38081 4.00939 1.99145 3.62012 1.50976 3.62012C1.02807 3.62012 0.638794 4.00939 0.638794 4.49109V16.7049C0.638794 17.1866 1.02807 17.5759 1.50976 17.5759C1.99145 17.5759 2.38081 17.1866 2.38081 16.7049V4.49109Z" fill="#89D1F3"/>
<path d="M2.38027 10.0125H0.634949V12.9191H2.38027V10.0125Z" fill="#89D1F3"/>
<path d="M6.45222 4.49109C6.45222 4.00939 6.06287 3.62012 5.58117 3.62012C5.09948 3.62012 4.71021 4.00939 4.71021 4.49109V16.7049C4.71021 17.1866 5.09948 17.5759 5.58117 17.5759C6.06287 17.5759 6.45222 17.1866 6.45222 16.7049V4.49109Z" fill="#7CA5D5"/>
<path d="M6.45174 13.5039H4.70642V15.8298H6.45174V13.5039Z" fill="#7AA4D4"/>
<path d="M10.5237 4.49109C10.5237 4.00939 10.1344 3.62012 9.65273 3.62012C9.17103 3.62012 8.78168 4.00939 8.78168 4.49109V16.7049C8.78168 17.1866 9.17103 17.5759 9.65273 17.5759C10.1344 17.5759 10.5237 17.1866 10.5237 16.7049V4.49109Z" fill="#527EBD"/>
<path d="M10.5232 7.10669H8.77783V9.43268H10.5232V7.10669Z" fill="#628EC7"/>
<path d="M2.96112 10.3093C2.96112 9.50759 2.31119 8.85437 1.50617 8.85437C0.704452 8.85437 0.0511475 9.5043 0.0511475 10.3093C0.0511475 11.1143 0.701153 11.7643 1.50617 11.7643C2.31119 11.761 2.96112 11.111 2.96112 10.3093Z" fill="#EAF7FC"/>
<path d="M7.03253 13.2141C7.03253 12.4124 6.38252 11.7592 5.5775 11.7592C4.77578 11.7592 4.12256 12.4091 4.12256 13.2141C4.12256 14.0158 4.77248 14.6691 5.5775 14.6691C6.38252 14.6691 7.03253 14.0158 7.03253 13.2141Z" fill="#EAF7FC"/>
<path d="M11.103 6.81806C11.103 6.01634 10.4531 5.36304 9.64808 5.36304C8.84636 5.36304 8.19305 6.01304 8.19305 6.81806C8.19305 7.62308 8.84306 8.27301 9.64808 8.27301C10.4531 8.26971 11.103 7.61978 11.103 6.81806Z" fill="#D0ECF6"/>
<path d="M12.2972 0.774088L12.7327 1.95517C12.7327 1.95517 12.7492 1.9849 12.769 1.9915L13.9501 2.42702C14.0029 2.44352 14.0029 2.51934 13.9501 2.53584L12.769 2.97137C12.769 2.97137 12.7393 2.9879 12.7327 3.00769L12.2972 4.18877C12.2807 4.24156 12.2048 4.24156 12.1883 4.18877L11.7529 3.00769C11.7529 3.00769 11.7363 2.97796 11.7165 2.97137L10.5354 2.53584C10.4826 2.51934 10.4826 2.44352 10.5354 2.42702L11.7165 1.9915C11.7165 1.9915 11.7463 1.97496 11.7529 1.95517L12.1883 0.774088C12.2048 0.7213 12.2807 0.7213 12.2972 0.774088Z" fill="#A5DDF0"/>
<path d="M14.5707 5.17587C14.8907 5.17587 15.1514 4.91523 15.1514 4.5952C15.1514 4.27517 14.8907 4.01453 14.5707 4.01453C14.2507 4.01453 13.9901 4.27517 13.9901 4.5952C13.9901 4.91523 14.2507 5.17587 14.5707 5.17587Z" fill="#A5DDF0"/>
</svg>
