<svg width="16" height="16" viewBox="0 0 16 16" fill="none" xmlns="http://www.w3.org/2000/svg">
<g clip-path="url(#clip0_4523_38032)">
<path d="M0.0509259 14.561V10.7862C0.0509259 10.5245 0.141521 10.303 0.322711 10.1218C0.503901 9.94065 0.730389 9.84503 1.00217 9.83496H4.77697C5.02862 9.83496 5.25008 9.93059 5.44133 10.1218C5.63259 10.3131 5.72318 10.5346 5.71312 10.7862V14.561C5.71312 14.8227 5.62252 15.0442 5.44133 15.2254C5.26014 15.4066 5.03869 15.4972 4.77697 15.4972H1.00217C0.740455 15.4972 0.513967 15.4066 0.322711 15.2254C0.131455 15.0442 0.0408597 14.8227 0.0509259 14.561ZM1.93832 13.6098H3.82572V11.7224H1.93832V13.6098Z" fill="#80D4FF"/>
<path d="M7.66156 13.8967C7.63137 13.7054 7.63137 13.5192 7.66156 13.338C7.69176 13.1568 7.79242 13.0008 7.96355 12.87C8.13467 12.7391 8.33096 12.6737 8.55242 12.6737H10.4398C10.6915 12.6737 10.9129 12.5831 11.1042 12.4019C11.2954 12.2207 11.386 11.9942 11.376 11.7224H10.4398C10.2284 11.7224 10.0422 11.6671 9.88114 11.5563C9.72009 11.4456 9.60936 11.3047 9.54896 11.1336C9.48857 10.9624 9.47346 10.7863 9.50366 10.6051C9.53386 10.4239 9.62446 10.2628 9.77545 10.1219L11.6628 8.23452C11.8541 8.04326 12.0756 7.94763 12.3272 7.94763C12.5789 7.94763 12.8003 8.03823 12.9916 8.21942L14.879 10.1068C15.03 10.2578 15.1206 10.4289 15.1508 10.6202C15.181 10.8114 15.1558 10.9876 15.0753 11.1487C14.9947 11.3097 14.884 11.4456 14.7431 11.5563C14.6022 11.6671 14.426 11.7224 14.2146 11.7224H13.2634C13.2634 12.5076 12.9865 13.177 12.4329 13.7306C11.8793 14.2843 11.2149 14.5611 10.4398 14.5611H8.55242C8.32089 14.5611 8.12461 14.4956 7.96355 14.3648C7.80249 14.2339 7.70183 14.0779 7.66156 13.8967Z" fill="#6DAAFF"/>
<path d="M9.48775 5.12411V1.34932C9.48775 1.0876 9.57835 0.866146 9.75954 0.684956C9.94073 0.503765 10.1672 0.408137 10.439 0.398071H14.2138C14.4655 0.398071 14.6869 0.493699 14.8782 0.684956C15.0694 0.876212 15.16 1.09767 15.1499 1.34932V5.12411C15.1499 5.38583 15.0594 5.60729 14.8782 5.78848C14.697 5.96967 14.4755 6.06026 14.2138 6.06026H10.439C10.1773 6.06026 9.9508 5.96967 9.75954 5.78848C9.56828 5.60729 9.47769 5.38583 9.48775 5.12411ZM11.3752 4.17286H13.2625V2.28547H11.3752V4.17286Z" fill="#3486FF"/>
<path d="M0.0666288 5.29037C0.0364305 5.09912 0.0565627 4.91792 0.127026 4.7468C0.197488 4.57568 0.308216 4.43978 0.459207 4.33912C0.610199 4.23846 0.791389 4.1831 1.00278 4.17303H1.93893C1.93893 3.39794 2.21574 2.73358 2.76938 2.17994C3.32302 1.62631 3.99242 1.34949 4.77757 1.34949H6.66497C6.88642 1.34949 7.07768 1.41492 7.23874 1.54578C7.3998 1.67664 7.50046 1.83266 7.54072 2.01385C7.58099 2.19504 7.58099 2.38126 7.54072 2.57252C7.50046 2.76378 7.3998 2.9198 7.23874 3.04059C7.07768 3.16139 6.88642 3.22682 6.66497 3.23688H4.77757C4.51585 3.23688 4.28937 3.32748 4.09811 3.50867C3.90685 3.68986 3.81626 3.91131 3.82632 4.17303H4.77757C4.97889 4.17303 5.16008 4.23343 5.32114 4.35422C5.4822 4.47502 5.59293 4.61091 5.65332 4.7619C5.71372 4.91289 5.72882 5.08905 5.69862 5.29037C5.66842 5.49169 5.58286 5.65778 5.44194 5.78864L3.55454 7.67604C3.35322 7.8673 3.12673 7.96292 2.87508 7.96292C2.62342 7.96292 2.407 7.8673 2.22581 7.67604L0.338414 5.78864C0.187422 5.64772 0.0968272 5.48163 0.0666288 5.29037Z" fill="#6DAAFF"/>
</g>
<defs>
<clipPath id="clip0_4523_38032">
<rect width="15.0992" height="15.0992" fill="white" transform="translate(0.0511475 0.398193)"/>
</clipPath>
</defs>
</svg>
