<svg width="18" height="19" viewBox="0 0 18 19" fill="none" xmlns="http://www.w3.org/2000/svg">
<g clip-path="url(#clip0_4523_37871)">
<path d="M16.7039 12.3082H9.88232L11.2526 14.681H16.7039C17.3564 14.681 17.8903 14.1471 17.8903 13.4946C17.8903 12.8421 17.3564 12.3082 16.7039 12.3082Z" fill="#80D4FF"/>
<path opacity="0.3" d="M11.0687 12.3082H9.88232L11.2526 14.681H12.4389L11.0687 12.3082Z" fill="#579CFF"/>
<path d="M6.58955 2.17753C7.15901 1.85128 7.88269 2.04703 8.20894 2.61055L16.3533 16.7164C16.4838 16.9418 16.2762 17.2147 16.0211 17.1494C15.944 17.1316 15.8788 17.0783 15.8432 17.013L14.0399 13.8929C14.0221 13.8573 13.9865 13.8335 13.9509 13.8217C13.8264 13.7861 13.7196 13.9225 13.7848 14.0412L15.1432 16.3902C15.25 16.574 15.1729 16.7876 14.9653 16.835C14.8348 16.8647 14.7043 16.8054 14.645 16.6986L12.8417 13.5785C12.8239 13.5429 12.7883 13.5192 12.7527 13.5073C12.6281 13.4717 12.5214 13.6081 12.5866 13.7268L13.9569 16.0936C14.0874 16.319 13.8798 16.5918 13.6247 16.5266H13.6128C13.5357 16.5029 13.4705 16.4554 13.4349 16.3842L6.15653 3.79691C5.83028 3.22746 6.02603 2.50378 6.58955 2.17753Z" fill="#D8F5FD"/>
<path d="M2.43802 17.6242C1.86856 17.298 1.67874 16.5683 2.00499 16.0048L10.1494 1.89303C10.2799 1.66762 10.618 1.70914 10.6892 1.96421C10.7129 2.04725 10.701 2.12437 10.6595 2.19555L8.85624 5.31569C8.83845 5.35128 8.83252 5.3928 8.84438 5.42839C8.87997 5.55296 9.05199 5.57669 9.11724 5.46398L10.4756 3.11498C10.5824 2.9311 10.8078 2.88957 10.9502 3.0438C11.0451 3.14464 11.051 3.28107 10.9917 3.38785L9.18843 6.50798C9.17063 6.54357 9.1647 6.5851 9.17656 6.62069C9.21215 6.74525 9.38417 6.76898 9.44942 6.65628L10.8197 4.28948C10.9502 4.06407 11.2883 4.1056 11.3595 4.36066V4.37253C11.3832 4.44964 11.3713 4.52675 11.3357 4.59794L4.06334 17.1853C3.73709 17.7547 3.00747 17.9445 2.44395 17.6183L2.43802 17.6242Z" fill="#3486FF"/>
<path d="M2.17117 12.3082C2.09406 12.3082 2.01694 12.3379 1.96356 12.3972L1.95169 12.4091C1.76781 12.593 1.89831 12.9133 2.15931 12.9133H4.89387C5.02437 12.9133 5.08962 13.0734 5.00065 13.1683C4.97099 13.198 4.9354 13.2099 4.89387 13.2099H1.29326C1.16869 13.2099 1.05599 13.287 1.01446 13.4175C0.955146 13.6251 1.09751 13.7971 1.31106 13.7971H4.0219C4.1524 13.7971 4.21765 13.9573 4.12867 14.0522C4.09901 14.0818 4.06342 14.0937 4.0219 14.0937H0.421283C0.344169 14.0937 0.267056 14.1234 0.213669 14.1827C0.0297829 14.3725 0.160283 14.6869 0.421283 14.6869H11.2587L9.88846 12.3142H2.17117V12.3082Z" fill="#80D4FF"/>
<path opacity="0.3" d="M8.97498 8.67815L9.60968 9.77553L10.9799 7.40281L10.3452 6.30542L8.97498 8.67815Z" fill="#579CFF"/>
<path opacity="0.3" d="M2.7685 14.6809L2.19312 15.6715H4.93361L5.509 14.6809H2.7685Z" fill="#2E53A0"/>
</g>
<defs>
<clipPath id="clip0_4523_37871">
<rect width="17.7955" height="17.7955" fill="white" transform="translate(0.106689 0.866211)"/>
</clipPath>
</defs>
</svg>
