<svg width="21" height="22" viewBox="0 0 21 22" fill="none" xmlns="http://www.w3.org/2000/svg">
<path d="M13.23 7.15769C13.23 8.80813 11.8921 10.1461 10.2416 10.1461C8.59117 10.1461 7.25323 8.80813 7.25323 7.15769C7.25323 5.50725 8.59117 4.16931 10.2416 4.16931C11.8921 4.16931 13.23 5.50725 13.23 7.15769Z" fill="#3486FF"/>
<path d="M15.3648 14.8421C15.3648 16.4926 13.0712 17.8305 10.2419 17.8305C7.41257 17.8305 5.11896 16.4926 5.11896 14.8421C5.11896 13.1917 7.41257 11.8538 10.2419 11.8538C13.0712 11.8538 15.3648 13.1917 15.3648 14.8421Z" fill="#3486FF"/>
<path d="M6.07766 5.02405C6.22917 5.02405 6.3771 5.03891 6.51994 5.06722C6.17195 5.6853 5.97345 6.39877 5.97345 7.1586C5.97345 7.89993 6.16241 8.59714 6.49478 9.20467C6.35976 9.22983 6.2203 9.24301 6.07766 9.24301C4.86999 9.24301 3.89099 8.29856 3.89099 7.13353C3.89099 5.96849 4.86999 5.02405 6.07766 5.02405Z" fill="#4895FF"/>
<path d="M4.64746 16.9651C4.16255 16.3854 3.8386 15.6741 3.8386 14.8425C3.8386 14.0363 4.14304 13.3432 4.60343 12.7734C2.97717 12.8996 1.70404 13.7891 1.70404 14.8676C1.70404 15.9562 2.99954 16.8522 4.64746 16.9651Z" fill="#4895FF"/>
<path d="M14.5108 7.15836C14.5108 7.89969 14.3219 8.5969 13.9895 9.20442C14.1245 9.22959 14.264 9.24276 14.4066 9.24276C15.6143 9.24276 16.5933 8.29831 16.5933 7.13328C16.5933 5.96825 15.6143 5.0238 14.4066 5.0238C14.2551 5.0238 14.1072 5.03867 13.9644 5.06697C14.3123 5.68505 14.5108 6.39853 14.5108 7.15836Z" fill="#6DAAFF"/>
<path d="M15.8373 16.9651C17.4852 16.8522 18.7807 15.9562 18.7807 14.8676C18.7807 13.7891 17.5075 12.8996 15.8813 12.7734C16.3416 13.3432 16.6461 14.0363 16.6461 14.8425C16.6461 15.6741 16.3222 16.3854 15.8373 16.9651Z" fill="#6DAAFF"/>
</svg>
