<svg width="19" height="19" viewBox="0 0 19 19" fill="none" xmlns="http://www.w3.org/2000/svg">
<g clip-path="url(#clip0_4523_37885)">
<path d="M5.44292 9.32363C3.41773 9.32363 1.77598 7.68188 1.77598 5.65669C1.77598 3.63149 3.41773 1.98975 5.44292 1.98975C7.46812 1.98975 9.10986 3.63149 9.10986 5.65669C9.10986 7.68188 7.46812 9.32363 5.44292 9.32363Z" fill="#6DAAFF"/>
<path d="M13.2173 17.0971C11.1921 17.0971 9.55039 15.4553 9.55039 13.4301C9.55039 11.4049 11.1921 9.76318 13.2173 9.76318C15.2425 9.76318 16.8843 11.4049 16.8843 13.4301C16.8843 15.4553 15.2425 17.0971 13.2173 17.0971Z" fill="#3486FF"/>
<path d="M13.2172 8.40508C14.739 8.40508 15.9674 7.17665 15.9674 5.65487C15.9674 4.13309 14.739 2.90466 13.2172 2.90466C11.6954 2.90466 10.467 4.13309 10.467 5.65487C10.467 7.17665 11.6954 8.40508 13.2172 8.40508Z" fill="#4895FF"/>
<path d="M5.44181 16.1813C3.92291 16.1813 2.6916 14.95 2.6916 13.4311C2.6916 11.9122 3.92291 10.6809 5.44181 10.6809C6.96071 10.6809 8.19202 11.9122 8.19202 13.4311C8.19202 14.95 6.96071 16.1813 5.44181 16.1813Z" fill="#80D4FF"/>
</g>
<defs>
<clipPath id="clip0_4523_37885">
<rect width="18.3347" height="18.3347" fill="white" transform="matrix(-1 0 0 1 18.4969 0.375977)"/>
</clipPath>
</defs>
</svg>
