<svg xmlns="http://www.w3.org/2000/svg" width="23" height="20" viewBox="0 0 23 20" fill="none">
  <path opacity="0.3" d="M20.3716 17.292C20.3716 18.487 16.6448 19.4558 12.037 19.4558C7.4292 19.4558 3.70245 18.487 3.70245 17.292C7.40897 16.9848 9.8732 16.9848 12.037 15.1282C16.6347 15.1248 20.3716 16.097 20.3716 17.292Z" fill="#579CFF"/>
  <path d="M7.40538 7.75165C11.4967 7.75165 14.815 6.49925 14.815 4.95656C14.815 3.41387 11.4967 2.16156 7.40538 2.16156C3.31404 2.16156 -0.0043335 3.41387 -0.0043335 4.95656C-0.0043335 6.49925 3.31404 7.75165 7.40538 7.75165Z" fill="#4895FF"/>
  <path d="M-0.0043335 4.95618C-0.0043335 6.49549 3.31066 7.75126 7.40538 7.75126C11.5001 7.75126 14.815 6.49549 14.815 4.95618V8.87201C14.815 10.4113 11.5001 11.6671 7.40538 11.6671C3.31066 11.6671 -0.0043335 10.4181 -0.0043335 8.87201V4.95618Z" fill="#3486FF"/>
  <path d="M-0.0043335 8.86493C-0.0043335 10.4042 3.31066 11.66 7.40538 11.66C11.5001 11.66 14.815 10.4042 14.815 8.86493V12.7808C14.815 14.3201 11.5001 15.5759 7.40538 15.5759C3.31066 15.5759 -0.0043335 14.3201 -0.0043335 12.7808V8.86493Z" fill="#6DAAFF"/>
  <path d="M-0.0043335 12.7451C-0.0043335 14.2844 3.31066 15.5402 7.40538 15.5402C11.5001 15.5402 14.815 14.2844 14.815 12.7451V16.6609C14.815 18.2003 11.5001 19.456 7.40538 19.456C3.31066 19.456 -0.0043335 18.2002 -0.0043335 16.6542V12.7383V12.7451Z" fill="#80D4FF"/>
  <path d="M22.4609 12.869L18.3662 8.77423C19.8009 6.82645 19.6456 4.06854 17.8768 2.30305C16.9079 1.33423 15.6285 0.844727 14.3525 0.844727C13.0731 0.844727 11.8038 1.33423 10.8283 2.30305C8.88049 4.25082 8.88049 7.4003 10.8283 9.3447C11.7971 10.3135 13.0765 10.803 14.3525 10.803C15.3888 10.803 16.4285 10.4722 17.2994 9.83424L21.3942 13.9289L22.4541 12.869H22.4609ZM11.8916 8.28477C11.2367 7.62988 10.8688 6.75219 10.8688 5.82725C10.8688 4.90231 11.2299 4.02462 11.8916 3.36974C12.5465 2.71485 13.4241 2.34689 14.3491 2.34689C15.274 2.34689 16.1517 2.7081 16.8066 3.36974C17.4615 4.02462 17.8295 4.90231 17.8295 5.82725C17.8295 6.75219 17.4682 7.62988 16.8066 8.28477C16.1517 8.93965 15.274 9.30761 14.3491 9.30761C13.4275 9.30761 12.5465 8.94641 11.8916 8.28477Z" fill="#80D4FF"/>
</svg>