<svg xmlns="http://www.w3.org/2000/svg" width="15" height="15" viewBox="0 0 15 15" fill="none">
  <g clip-path="url(#clip0_4523_37415)">
    <path d="M3.59673 2.97922C2.93371 3.71476 2.99587 4.32598 3.16163 5.21691C3.22379 5.5277 3.4517 5.98353 3.73141 6.43935L7.40909 0.327148C7.40909 0.327148 4.43587 2.39908 3.59673 2.97922Z" fill="white"/>
    <path d="M2.03178 5.4336C2.0007 5.25749 1.96962 5.08137 1.9489 4.8949C1.44127 5.84799 1.29624 7.26726 1.51379 8.3861C1.78314 9.74322 2.46688 10.5927 3.1299 11.1521C3.51321 11.4733 7.4188 14.2186 7.4188 14.2186C7.4188 14.2186 2.24933 6.54208 2.03178 5.4336Z" fill="white"/>
    <path d="M11.6559 11.5684C12.3189 10.8329 12.2567 10.2216 12.091 9.33072C12.0288 9.01993 11.8009 8.5641 11.5212 8.10828L7.84351 14.2205C7.84351 14.2205 10.8167 12.1485 11.6559 11.5684Z" fill="white"/>
    <path d="M13.2204 9.11214C13.2515 9.28826 13.2826 9.46437 13.3033 9.65085C13.8109 8.69776 13.9559 7.27848 13.7384 6.15964C13.469 4.80252 12.7853 3.95303 12.1223 3.39361C11.739 3.07246 7.83337 0.327148 7.83337 0.327148C7.83337 0.327148 13.0028 8.00366 13.2204 9.11214Z" fill="white"/>
  </g>
  <defs>
    <clipPath id="clip0_4523_37415">
      <rect width="14" height="14" fill="white" transform="translate(0.594482 0.137939)"/>
    </clipPath>
  </defs>
</svg>