<svg xmlns="http://www.w3.org/2000/svg" width="22" height="20" viewBox="0 0 22 20" fill="none">
  <path d="M10.8801 17.2338C15.423 17.2338 19.1058 13.551 19.1058 9.00808C19.1058 4.46517 15.423 0.78241 10.8801 0.78241C6.33718 0.78241 2.65442 4.46517 2.65442 9.00808C2.65442 13.551 6.33718 17.2338 10.8801 17.2338Z" fill="#E2F7FD"/>
  <path d="M12.7278 6.20668C12.7278 5.18699 11.9008 4.35999 10.8811 4.35999C9.86143 4.35999 9.03442 5.18699 9.03442 6.20668C9.03442 7.22637 9.86143 8.05345 10.8811 8.05345C11.9008 8.05345 12.7278 7.22637 12.7278 6.20668Z" fill="#3486FF"/>
  <path d="M14.577 12.7643V13.8729H7.18726V12.6072C7.18726 10.4463 9.04283 8.71819 11.2423 8.93161C13.1631 9.11836 14.577 10.8346 14.577 12.7643Z" fill="#3486FF"/>
  <path d="M12.7278 6.20668C12.7278 5.18699 11.9008 4.35999 10.8811 4.35999C9.86143 4.35999 9.03442 5.18699 9.03442 6.20668C9.03442 7.22637 9.86143 8.05345 10.8811 8.05345C11.9008 8.05345 12.7278 7.22637 12.7278 6.20668Z" fill="#4895FF"/>
  <path d="M14.577 12.7643V13.8729H7.18726V12.6072C7.18726 10.4463 9.04283 8.71819 11.2423 8.93161C13.1631 9.11836 14.577 10.8346 14.577 12.7643Z" fill="#80D4FF"/>
  <path d="M7.64931 17.5932H18.3797C18.5783 17.5932 18.7384 17.4331 18.7384 17.2345C18.7384 17.0359 18.5783 16.8758 18.3797 16.8758H7.64931C7.4507 16.8758 7.29065 17.0359 7.29065 17.2345C7.29065 17.4331 7.4507 17.5932 7.64931 17.5932Z" fill="#3486FF"/>
  <path d="M3.15004 11.1538H12.4487C12.6473 11.1538 12.8074 10.9938 12.8074 10.7952C12.8074 10.5966 12.6473 10.4365 12.4487 10.4365H3.15004C2.95144 10.4365 2.79138 10.5966 2.79138 10.7952C2.79138 10.9938 2.95144 11.1538 3.15004 11.1538Z" fill="#3486FF"/>
  <path d="M8.87245 13.3006H16.7424C16.941 13.3006 17.1011 13.1405 17.1011 12.9419C17.1011 12.7433 16.941 12.5832 16.7424 12.5832H8.87245C8.67385 12.5832 8.51379 12.7433 8.51379 12.9419C8.51379 13.1405 8.67681 13.3006 8.87245 13.3006Z" fill="#3486FF"/>
  <path d="M5.01723 15.4454H13.6016C13.8002 15.4454 13.9603 15.2854 13.9603 15.0868C13.9603 14.8882 13.8002 14.728 13.6016 14.728H5.01723C4.81862 14.728 4.65857 14.8882 4.65857 15.0868C4.65857 15.2854 4.81862 15.4454 5.01723 15.4454Z" fill="#3486FF"/>
  <path d="M2.69961 12.333C2.84189 12.4752 2.84189 12.6975 2.69961 12.8398C2.62847 12.911 2.53359 12.9465 2.45059 12.9465C2.36759 12.9465 2.26382 12.911 2.20157 12.8398L0.162231 10.8004L2.20157 8.76107C2.34385 8.61879 2.56623 8.61879 2.70851 8.76107C2.85079 8.90335 2.85079 9.12566 2.70851 9.26794L1.17003 10.8063L2.70851 12.3448L2.69961 12.333Z" fill="#3486FF"/>
  <path d="M19.5745 19.2717C19.5034 19.3429 19.4115 19.3785 19.3255 19.3785C19.2395 19.3785 19.1388 19.3429 19.0766 19.2717C18.9343 19.1295 18.9343 18.9071 19.0766 18.7649L20.615 17.2265L19.0766 15.688C18.9343 15.5457 18.9343 15.3234 19.0766 15.1811C19.2188 15.0388 19.4411 15.0388 19.5834 15.1811L21.6228 17.2205L19.5834 19.2599L19.5745 19.2717Z" fill="#3486FF"/>
</svg>