<svg xmlns="http://www.w3.org/2000/svg" width="21" height="20" viewBox="0 0 21 20" fill="none">
  <path d="M13.5207 7.2417L14.4115 8.13257L7.54685 14.9972C7.30045 15.2436 6.90246 15.2436 6.65606 14.9972C6.40965 14.7508 6.40965 14.3527 6.65606 14.1063L13.5207 7.2417Z" fill="#4895FF"/>
  <path d="M15.9313 5.72588C16.1777 5.97229 16.1777 6.37035 15.9313 6.61675L13.8243 8.72381L12.9335 7.83294L15.0405 5.72588C15.2869 5.47948 15.6849 5.47948 15.9313 5.72588Z" fill="#80D4FF"/>
  <path d="M18.5651 5.99795L19.0927 7.42268C19.0927 7.42268 19.1116 7.45739 19.1337 7.46371L20.5585 7.99125C20.6217 8.0102 20.6217 8.10186 20.5585 8.12082L19.1337 8.64835C19.1337 8.64835 19.099 8.67043 19.0927 8.68938L18.5651 10.1141C18.5462 10.1773 18.4545 10.1773 18.4355 10.1141L17.908 8.68938C17.908 8.68938 17.8891 8.65467 17.867 8.64835L16.4422 8.12082C16.3822 8.10186 16.3822 8.0102 16.4422 7.99125L17.867 7.46371C17.867 7.46371 17.9017 7.44163 17.908 7.42268L18.4355 5.99795C18.4577 5.93477 18.5462 5.93477 18.5651 5.99795Z" fill="#80D4FF"/>
  <path d="M18.5404 0.873535L18.8563 1.7297C18.8563 1.7297 18.8689 1.75177 18.8847 1.75808L19.7408 2.07399C19.7755 2.08662 19.7755 2.14349 19.7408 2.15613L18.8847 2.47203C18.8847 2.47203 18.8658 2.4847 18.8563 2.50049L18.5404 3.35658C18.5278 3.39133 18.4708 3.39133 18.4582 3.35658L18.1423 2.50049C18.1423 2.50049 18.1297 2.48151 18.1139 2.47203L17.2578 2.15613C17.2231 2.14349 17.2231 2.08662 17.2578 2.07399L18.1139 1.75808C18.1139 1.75808 18.1328 1.7455 18.1423 1.7297L18.4582 0.873535C18.4708 0.838786 18.5278 0.838786 18.5404 0.873535Z" fill="#9DE5F9"/>
  <path d="M12.6608 1.72272L13.0777 2.85993C13.0777 2.85993 13.0998 2.8884 13.1124 2.89472L14.2497 3.31173C14.2971 3.33385 14.2971 3.40014 14.2497 3.42225L13.1124 3.83927C13.1124 3.83927 13.084 3.86134 13.0777 3.87397L12.6608 5.01126C12.6418 5.05865 12.5723 5.05865 12.5502 5.01126L12.1331 3.87397C12.1331 3.87397 12.1142 3.84559 12.0984 3.83927L10.9611 3.42225C10.9137 3.40014 10.9137 3.33385 10.9611 3.31173L12.0984 2.89472C12.0984 2.89472 12.1268 2.87257 12.1331 2.85993L12.5502 1.72272C12.5723 1.67218 12.6418 1.67218 12.6608 1.72272Z" fill="#80D4FF"/>
  <path d="M10.3457 7.10029C10.6932 7.10029 10.9775 6.81913 10.9775 6.46848C10.9775 6.12098 10.6963 5.83667 10.3457 5.83667C9.99818 5.83667 9.71387 6.11783 9.71387 6.46848C9.71703 6.81913 9.99818 7.10029 10.3457 7.10029Z" fill="#9DE5F9"/>
  <path d="M14.977 11.3095C15.3245 11.3095 15.6088 11.0284 15.6088 10.6777C15.6088 10.3302 15.3276 10.0459 14.977 10.0459C14.6263 10.0459 14.3452 10.3271 14.3452 10.6777C14.3483 11.0252 14.6295 11.3095 14.977 11.3095Z" fill="#9DE5F9"/>
  <path d="M15.1834 1.20853C15.414 1.20853 15.6003 1.02212 15.6003 0.791511C15.6003 0.560901 15.414 0.374573 15.1834 0.374573C14.9528 0.374573 14.7663 0.560901 14.7663 0.791511C14.7663 1.02212 14.9528 1.20853 15.1834 1.20853Z" fill="#9DE5F9"/>
  <path d="M16.4495 4.15263C16.6801 4.15263 16.8664 3.96623 16.8664 3.73562C16.8664 3.50501 16.6801 3.3186 16.4495 3.3186C16.2189 3.3186 16.0325 3.50501 16.0325 3.73562C16.0325 3.96623 16.2189 4.15263 16.4495 4.15263Z" fill="#9DE5F9"/>
  <path d="M1.61723 7.46343C1.52246 7.34654 1.3898 7.27074 1.24133 7.23599C1.04862 7.19492 0.849611 7.23595 0.694818 7.35916C0.558979 7.4634 0.467422 7.59926 0.435832 7.76985L0.359941 8.11105C0.0787855 9.44101 -0.00954434 10.7899 0.0915451 12.1388C0.202112 11.0142 0.495841 9.89902 0.976016 8.76808C1.16556 8.32581 1.38347 7.88674 1.61723 7.46343Z" fill="#DDF6FD"/>
  <path d="M1.42385 19.8506C1.42385 19.1114 1.21861 18.3216 0.972206 17.4118C0.7258 16.5083 0.450895 15.4879 0.349806 14.3222C0.213967 12.6037 0.501378 10.9326 1.23428 9.21725C1.4333 8.75287 1.65771 8.29163 1.90727 7.862L2.38745 7.04695C2.38745 7.04695 2.39363 7.03437 2.39995 7.02805C2.52315 6.82903 2.65275 6.62996 2.79807 6.42462C2.90232 6.27299 3.05715 6.17193 3.23722 6.13718C3.41728 6.10243 3.60047 6.13713 3.7521 6.2477C4.05221 6.45304 4.14379 6.85745 3.95109 7.17335C3.95109 7.17335 3.14877 8.48752 2.84866 9.14776C2.42535 10.0734 2.10311 11.0305 1.88197 12.013C1.86934 12.0888 1.91043 12.1583 1.98625 12.1772C2.01468 12.1772 2.03988 12.1772 2.06831 12.1709C2.10938 12.1583 2.13789 12.1173 2.15052 12.0762C2.36218 11.1158 2.68432 10.1713 3.095 9.26776C3.38879 8.617 3.75205 7.97259 4.16904 7.32814V7.30601C4.3807 6.99642 4.56718 6.73736 4.74409 6.49727L4.95572 6.21615C5.18317 5.92236 5.61281 5.85914 5.91608 6.09291C6.0614 6.20347 6.15611 6.3678 6.17507 6.54471C6.19402 6.73109 6.14658 6.90795 6.03917 7.05011L5.82754 7.33131C4.82612 8.63283 4.06797 10.1681 3.62886 11.7635C3.55936 12.0035 3.50571 12.2436 3.44252 12.5089C3.43621 12.5437 3.44254 12.5848 3.4615 12.6195C3.48045 12.6543 3.51514 12.6732 3.55621 12.6732H3.60989C3.67307 12.6859 3.73308 12.6511 3.75519 12.5974C3.81521 12.4458 3.88484 12.3036 3.96698 12.1741C4.54192 11.1884 5.60962 10.5787 6.74687 10.5851C7.1386 10.5851 7.51454 10.6609 7.87151 10.7968C8.1653 10.9073 8.44649 11.0716 8.6929 11.2611C8.98037 11.5012 9.02137 11.934 8.78128 12.2215C8.54751 12.509 8.1306 12.5563 7.84313 12.332C7.84313 12.332 7.84312 12.332 7.83681 12.332C7.62515 12.1678 7.37866 12.0509 7.11646 11.9972C6.99957 11.9688 6.87638 11.9561 6.73423 11.9561C6.24773 11.9561 5.78332 12.1425 5.43266 12.4837C5.08201 12.8248 4.89247 13.2861 4.88615 13.7726C4.88615 14.2591 5.07251 14.7235 5.41369 15.0741C5.75487 15.4248 6.21611 15.6143 6.7026 15.6206C7.03115 15.6206 7.35343 15.5385 7.63458 15.3805C8.14003 15.0931 8.47168 14.5939 8.5317 14.0095C8.54434 13.8642 8.60753 13.7347 8.7023 13.6336C8.85394 13.4693 9.06563 13.3872 9.29308 13.4156C9.66901 13.463 9.93758 13.8073 9.89651 14.1769C9.86176 14.4707 9.78588 14.7519 9.66899 15.0204C9.46365 15.5132 9.12877 15.9523 8.69598 16.2935C8.44958 16.4925 8.16207 16.6568 7.86827 16.7863C6.57306 17.3202 6.07404 17.9583 5.92241 19.3072C5.92241 19.3072 5.92241 19.3136 5.92241 19.3199C5.90345 19.5189 5.88122 19.7369 5.8749 19.9707H1.42077V19.8601L1.42385 19.8506Z" fill="#DDF6FD"/>
</svg>