<svg width="40" height="40" viewBox="0 0 40 40" fill="none" xmlns="http://www.w3.org/2000/svg">
<rect width="40" height="40" fill="#120B30"/>
<mask id="mask0_5081_13051" style="mask-type:alpha" maskUnits="userSpaceOnUse" x="0" y="0" width="40" height="40">
<rect width="40" height="40" fill="#7C61AA"/>
</mask>
<g mask="url(#mask0_5081_13051)">
<path d="M14.916 17.7167C15.4427 18.2418 16.1449 18.5044 17.0226 18.5044H26L24.9889 15.6163H17.8419C17.2957 15.6163 17.0226 15.3245 17.0226 14.7411V7.6358L14.1553 6.66016V15.6163C14.1553 16.4915 14.4089 17.1916 14.916 17.7167Z" fill="white"/>
<path d="M14.916 32.1561C15.4427 32.6813 16.1449 32.9438 17.0226 32.9438H26L24.9889 30.0557H17.8419C17.2957 30.0557 17.0226 29.7639 17.0226 29.1805V22.0752L14.1553 21.0996V30.0557C14.1553 30.9308 14.4089 31.631 14.916 32.1561Z" fill="white"/>
</g>
</svg>
