<svg xmlns="http://www.w3.org/2000/svg" width="17" height="19" viewBox="0 0 17 19" fill="none">
  <path d="M16.3653 5.73331V12.7373C16.3653 13.4898 15.9601 14.1813 15.3173 14.556L9.91889 17.6635L9.25172 18.0504C8.59976 18.4221 7.79849 18.4221 7.15567 18.0504L3.32006 15.8356L1.09921 14.553C0.447252 14.1813 0.0511475 13.4898 0.0511475 12.7342V5.73026C0.0511475 4.98387 0.447252 4.3014 1.09921 3.92972L7.15567 0.420115C7.79239 0.0484383 8.59976 0.0484383 9.25172 0.420115L15.3082 3.92972C15.9449 4.3014 16.3562 4.98691 16.3562 5.73026H16.3653V5.73331Z" fill="#4895FF"/>
  <path d="M5.48674 8.32895C6.48904 8.32895 7.3055 7.51547 7.3055 6.51011C7.3055 5.50476 6.49209 4.69135 5.48674 4.69135C4.48138 4.69135 3.66797 5.50476 3.66797 6.51011C3.66797 7.51547 4.48138 8.32895 5.48674 8.32895Z" fill="#80D4FF"/>
  <path d="M9.9275 17.6631L9.26025 18.05C8.60829 18.4216 7.80709 18.4216 7.16428 18.05L3.32867 15.8351L1.10774 14.5526C0.455784 14.1809 0.0597534 13.4893 0.0597534 12.7338V11.9508L1.42764 10.5921C1.80846 10.196 2.46047 10.196 2.85652 10.5921L9.93054 17.6661V17.6631H9.9275Z" fill="#46C3D4"/>
  <path d="M16.3658 12.4455V12.7319C16.3658 13.4844 15.9606 14.1759 15.3178 14.5506L9.91938 17.6581L9.25221 18.045C8.60025 18.4167 7.79898 18.4167 7.15616 18.045L3.32056 15.8302L10.8242 8.34483C11.2202 7.94878 11.8661 7.94878 12.2621 8.34483L16.3628 12.4455H16.3658Z" fill="#C3E5E8"/>
</svg>