<svg width="40" height="40" viewBox="0 0 40 40" fill="none" xmlns="http://www.w3.org/2000/svg">
<rect width="40" height="40" fill="white"/>
<mask id="mask0_4646_31704" style="mask-type:alpha" maskUnits="userSpaceOnUse" x="0" y="0" width="40" height="40">
<rect width="40" height="40" fill="#7C61AA"/>
</mask>
<g mask="url(#mask0_4646_31704)">
<path d="M20 38C29.9412 38 38 29.9411 38 20C38 10.0589 29.9412 2 20 2C10.0589 2 2 10.0589 2 20C2 29.9411 10.0589 38 20 38Z" fill="white"/>
<path d="M18.603 9.79185C20.6289 9.40224 22.9666 9.48012 24.6809 10.7269C25.8497 11.584 26.3173 13.0646 26.2393 14.5451C26.0835 16.649 25.3822 18.597 24.3692 20.3892C23.4341 22.0256 22.1095 23.5841 20.1614 24.0516C17.9017 24.5191 15.4861 22.8827 15.0965 20.623C14.551 18.3633 16.1095 15.9477 18.2913 15.4802C19.1484 15.3243 20.2393 15.1684 20.7848 15.9477C21.564 16.8048 20.9406 18.3633 19.7718 18.4412C19.1484 18.4412 18.3692 18.597 18.1354 19.2983C17.6679 20.2334 18.6809 21.4801 19.6939 21.0126C20.7848 20.3892 21.4082 19.2204 22.0315 18.2074C22.6549 16.8828 23.2004 15.4802 23.0445 13.9217C23.0445 13.2204 22.2653 12.9867 21.7198 12.9087C20.0056 12.597 18.1354 13.0646 16.577 13.9217C15.1744 14.7009 14.1614 16.0256 13.7718 17.5061C13.0705 19.6879 13.3043 22.1035 14.1614 24.1295C14.7848 25.4542 15.7978 26.7009 17.2004 27.1685C18.7588 27.5581 20.4731 27.2464 21.8757 26.4672C24.1354 25.2983 25.7718 23.2724 26.6289 20.9347C26.8627 20.1555 27.7198 19.61 28.4991 19.8438C29.3562 20.0775 29.9017 21.0906 29.5121 21.8698C28.4211 24.9087 26.2393 27.5581 23.4341 29.1165C21.4861 30.2074 19.2263 30.7529 17.0445 30.2854C15.1744 29.9737 13.4601 28.8048 12.3692 27.2464C10.577 24.8308 9.9536 21.636 10.2653 18.6749C10.4991 16.649 11.2004 14.623 12.603 13.0645C14.1614 11.3503 16.3432 10.2594 18.603 9.79185Z" fill="#303241"/>
</g>
</svg>
