<svg xmlns="http://www.w3.org/2000/svg" width="37" height="37" viewBox="0 0 37 37" fill="none">
  <path d="M18.3891 36.0144C28.1797 36.0144 36.1165 28.0776 36.1165 18.287C36.1165 8.49643 28.1797 0.559631 18.3891 0.559631C8.59856 0.559631 0.661743 8.49643 0.661743 18.287C0.661743 28.0776 8.59856 36.0144 18.3891 36.0144Z" fill="#10365E"/>
  <path d="M26.4162 13.7409V20.5302C26.4162 21.2603 26.0248 21.9302 25.4 22.2915L20.1688 25.3023L19.5215 25.6787C18.8892 26.04 18.1139 26.04 17.4892 25.6787L13.7708 23.5335L11.6181 22.2915C10.9859 21.9302 10.602 21.2603 10.602 20.5302V13.7409C10.602 13.0183 10.9859 12.3559 11.6181 11.9946L17.4892 8.59244C18.1064 8.23115 18.8892 8.23115 19.5215 8.59244L25.3925 11.9946C26.0097 12.3559 26.4086 13.0183 26.4086 13.7409H26.4162Z" fill="#E2F7FD"/>
  <path d="M15.872 16.2544C16.8447 16.2544 17.6333 15.4658 17.6333 14.4931C17.6333 13.5203 16.8447 12.7318 15.872 12.7318C14.8992 12.7318 14.1107 13.5203 14.1107 14.4931C14.1107 15.4658 14.8992 16.2544 15.872 16.2544Z" fill="#3486FF"/>
  <path d="M20.1764 25.3036L19.5291 25.6799C18.8968 26.0412 18.1215 26.0412 17.4968 25.6799L13.7785 23.5348L11.6258 22.2928C10.9935 21.9315 10.6096 21.2616 10.6096 20.5315V19.7713L11.9344 18.454C12.3032 18.0702 12.9355 18.0702 13.3193 18.454L20.1764 25.3111V25.3036Z" fill="#A9E8FA"/>
  <path d="M26.4172 20.2441V20.5226C26.4172 21.2527 26.0258 21.9226 25.401 22.2839L20.1698 25.2947L19.5225 25.671C18.8902 26.0323 18.1149 26.0323 17.4902 25.671L13.7719 23.5258L21.0429 16.2698C21.4268 15.886 22.0515 15.886 22.4354 16.2698L26.4096 20.2441H26.4172Z" fill="#80D4FF"/>
  <path d="M15.1118 26.7615H26.4022C26.6101 26.7615 26.7786 26.593 26.7786 26.3852C26.7786 26.1773 26.6101 26.0088 26.4022 26.0088H15.1118C14.9039 26.0088 14.7354 26.1773 14.7354 26.3852C14.7354 26.593 14.9039 26.7615 15.1118 26.7615Z" fill="#3486FF"/>
  <path d="M10.3789 19.9874H20.164C20.3718 19.9874 20.5403 19.8189 20.5403 19.6111C20.5403 19.4032 20.3718 19.2347 20.164 19.2347H10.3789C10.1711 19.2347 10.0026 19.4032 10.0026 19.6111C10.0026 19.8189 10.1711 19.9874 10.3789 19.9874Z" fill="#3486FF"/>
  <path d="M16.3998 22.2442H24.6795C24.8874 22.2442 25.0558 22.0757 25.0558 21.8679C25.0558 21.66 24.8874 21.4915 24.6795 21.4915H16.3998C16.192 21.4915 16.0235 21.66 16.0235 21.8679C16.0235 22.0757 16.192 22.2442 16.3998 22.2442Z" fill="#3486FF"/>
  <path d="M12.3413 24.5029H21.3737C21.5816 24.5029 21.7501 24.3344 21.7501 24.1265C21.7501 23.9187 21.5816 23.7502 21.3737 23.7502H12.3413C12.1335 23.7502 11.965 23.9187 11.965 24.1265C11.965 24.3344 12.1335 24.5029 12.3413 24.5029Z" fill="#3486FF"/>
  <path d="M9.90322 21.2292C10.0538 21.3797 10.0538 21.613 9.90322 21.7636C9.82795 21.8388 9.7301 21.8765 9.63977 21.8765C9.54945 21.8765 9.44407 21.8388 9.37633 21.7636L7.23114 19.6184L9.37633 17.4732C9.52687 17.3227 9.7602 17.3227 9.91074 17.4732C10.0613 17.6237 10.0613 17.8571 9.91074 18.0076L8.29244 19.6259L9.91074 21.2442L9.90322 21.2292Z" fill="#3486FF"/>
  <path d="M27.6596 28.5308C27.5843 28.606 27.4864 28.6437 27.3961 28.6437C27.3058 28.6437 27.2004 28.606 27.1327 28.5308C26.9821 28.3802 26.9821 28.1469 27.1327 27.9963L28.751 26.378L27.1327 24.7597C26.9821 24.6092 26.9821 24.3759 27.1327 24.2253C27.2832 24.0748 27.5166 24.0748 27.6671 24.2253L29.8123 26.3705L27.6671 28.5157L27.6596 28.5308Z" fill="#3486FF"/>
</svg>