<svg xmlns="http://www.w3.org/2000/svg" width="18" height="19" viewBox="0 0 18 19" fill="none">
  <path d="M9.08287 18.4103C14.0096 18.4103 18.0035 14.4164 18.0035 9.48967C18.0035 4.56293 14.0096 0.569031 9.08287 0.569031C4.15614 0.569031 0.162231 4.56293 0.162231 9.48967C0.162231 14.4164 4.15614 18.4103 9.08287 18.4103Z" fill="#E2F7FD"/>
  <path d="M11.0845 6.45255C11.0845 5.34671 10.1877 4.44983 9.08182 4.44983C7.97598 4.44983 7.0791 5.34671 7.0791 6.45255C7.0791 7.55838 7.97598 8.45534 9.08182 8.45534C10.1877 8.45534 11.0845 7.55838 11.0845 6.45255Z" fill="#3486FF"/>
  <path d="M13.0918 13.5624V14.7647H5.07776V13.392C5.07776 11.0485 7.0901 9.17444 9.47537 9.4059C11.5585 9.60842 13.0918 11.4697 13.0918 13.5624Z" fill="#3486FF"/>
  <path d="M11.0845 6.45255C11.0845 5.34671 10.1877 4.44983 9.08182 4.44983C7.97598 4.44983 7.0791 5.34671 7.0791 6.45255C7.0791 7.55838 7.97598 8.45534 9.08182 8.45534C10.1877 8.45534 11.0845 7.55838 11.0845 6.45255Z" fill="#4895FF"/>
  <path d="M13.0918 13.5624V14.7647H5.07776V13.392C5.07776 11.0485 7.0901 9.17444 9.47537 9.4059C11.5585 9.60842 13.0918 11.4697 13.0918 13.5624Z" fill="#80D4FF"/>
</svg>