<svg width="40" height="40" viewBox="0 0 40 40" fill="none" xmlns="http://www.w3.org/2000/svg">
<rect width="40" height="40" fill="#EC4442"/>
<path d="M20 39C30.4934 39 39 30.4934 39 20C39 9.50658 30.4934 1 20 1C9.50657 1 1 9.50658 1 20C1 30.4934 9.50657 39 20 39Z" fill="#EC4442"/>
<path d="M8.73679 19.6713C8.73679 13.5024 13.7541 8.4851 19.923 8.4851C26.0918 8.4851 30.8624 13.4202 31.0269 19.589C31.0269 21.563 30.3688 23.2081 28.6416 24.8531C27.2433 26.1691 24.7758 26.4158 22.9663 25.3466C21.6502 24.6063 20.6632 23.0435 19.8407 21.892L18.2779 24.2773H14.9056L18.0312 19.589L14.9879 14.9829H18.4425L19.8407 17.3682L21.239 14.9829H24.6935L21.568 19.589C21.568 19.589 23.0485 21.892 23.871 22.7968C24.6935 23.7016 26.174 23.7016 27.1611 22.7145C28.2303 21.6453 28.4771 20.8228 28.4771 19.589C28.4771 14.8184 24.6935 10.9526 19.923 10.9526C15.1524 10.9526 11.2866 14.8184 11.2866 19.589C11.2866 24.3596 15.1524 28.2254 19.923 28.2254C20.581 28.2254 21.239 28.1431 21.8147 28.0609L22.3905 30.5284C21.4857 30.6929 20.8277 30.7751 19.923 30.7751C13.7541 30.8574 8.73679 25.8401 8.73679 19.6713Z" fill="white"/>
</svg>
