<svg width="12" height="12" viewBox="0 0 12 12" fill="none" xmlns="http://www.w3.org/2000/svg">
<g id="Group">
<g id="Group_2">
<path id="Vector" d="M8.53295 0.27832H3.09553C1.58898 0.27832 0.359497 1.5078 0.359497 3.01435V8.46043C0.359497 9.95832 1.58898 11.1878 3.09553 11.1878H8.54161C10.0482 11.1878 11.2776 9.95832 11.2776 8.45177V3.01435C11.269 1.5078 10.0395 0.27832 8.53295 0.27832ZM3.99599 9.10981H2.43749V4.60748H3.99599V9.10981ZM3.20808 3.91481C2.76651 3.91481 2.41152 3.55982 2.41152 3.11825C2.41152 2.67668 2.76651 2.32168 3.20808 2.32168C3.64966 2.32168 4.00465 2.67668 4.00465 3.11825C3.99599 3.55982 3.641 3.91481 3.20808 3.91481ZM9.19964 9.10981H9.19098H7.89224V6.92791C7.89224 6.39975 7.82297 5.7244 7.10433 5.7244C6.36837 5.7244 6.24716 6.29585 6.24716 6.89328V9.10981H4.94841V4.60748H6.16057V5.21356H6.19521C6.38569 4.86723 6.82726 4.59882 7.51993 4.59882C8.94855 4.59882 9.19964 5.42136 9.19964 6.64219V9.10981Z" fill="#868D94"/>
</g>
</g>
</svg>
