<svg width="12" height="12" viewBox="0 0 12 12" fill="none" xmlns="http://www.w3.org/2000/svg">
<g id="Group">
<g id="Group_2">
<path id="Vector" d="M9.14196 0.283203H3.70454C2.19799 0.283203 0.968506 1.51268 0.968506 3.01923V8.46531C0.968506 9.9632 2.19799 11.1927 3.70454 11.1927H9.15062C10.6572 11.1927 11.8866 9.9632 11.8866 8.45666V3.01923C11.878 1.51268 10.6485 0.283203 9.14196 0.283203ZM9.1333 4.36993C9.1333 4.43054 9.1333 4.49115 9.1333 4.55175C9.1333 6.37 7.73065 8.46531 5.15913 8.46531C4.37123 8.46531 3.63527 8.2402 3.02053 7.85057C3.13309 7.85923 3.23699 7.86789 3.34954 7.86789C4.00758 7.86789 4.605 7.65143 5.08121 7.27913C4.46647 7.27047 3.95563 6.87218 3.7738 6.32671C3.86039 6.34403 3.94697 6.35269 4.03355 6.35269C4.16343 6.35269 4.2933 6.33537 4.40586 6.30074C3.78246 6.17086 3.30625 5.61673 3.30625 4.95004V4.93272C3.47942 5.03662 3.70454 5.09723 3.92965 5.10589C3.55734 4.86345 3.30625 4.4392 3.30625 3.96299C3.30625 3.7119 3.37552 3.47812 3.49674 3.27032C4.1894 4.10152 5.21108 4.647 6.3713 4.7076C6.34532 4.6037 6.33666 4.4998 6.33666 4.39591C6.33666 3.63397 6.96006 3.01923 7.73065 3.01923C8.12894 3.01923 8.49259 3.18374 8.75234 3.45215C9.07269 3.39154 9.36708 3.27898 9.63548 3.11447C9.53158 3.43483 9.30647 3.70324 9.02074 3.87641C9.30647 3.84177 9.57488 3.77251 9.82597 3.65995C9.63549 3.93701 9.40171 4.17945 9.1333 4.36993Z" fill="#868D94"/>
</g>
</g>
</svg>
