<svg width="30" height="30" viewBox="0 0 30 30" fill="none" xmlns="http://www.w3.org/2000/svg">
<g clip-path="url(#clip0_188_15011)">
<path d="M1.5 6.00012H27V23.0551C27 24.9901 25.425 26.5651 23.49 26.5651H5.01C3.075 26.5651 1.5 24.9901 1.5 23.0551V6.00012Z" fill="#D3F7F5"/>
<path d="M16.815 13.5005H27.78C28.995 13.5005 29.985 14.4905 29.985 15.7055V18.1355C29.985 19.3505 28.995 20.3405 27.78 20.3405H16.815C14.985 20.3405 13.5 18.8555 13.5 17.0255V16.8005C13.5 14.9705 14.985 13.4855 16.815 13.4855V13.5005Z" fill="#FF1C4F"/>
<path d="M16.9356 18.6457C17.88 18.6457 18.6456 17.8801 18.6456 16.9357C18.6456 15.9913 17.88 15.2257 16.9356 15.2257C15.9912 15.2257 15.2256 15.9913 15.2256 16.9357C15.2256 17.8801 15.9912 18.6457 16.9356 18.6457Z" fill="#D3F7F5"/>
<path d="M4.065 3H23.565C25.455 3 27 4.53 27 6.435V8.145H4.065C2.64 8.145 1.5 6.99 1.5 5.58C1.5 4.155 2.655 3.015 4.065 3.015V3Z" fill="#2CC9DB"/>
</g>
<defs>
<clipPath id="clip0_188_15011">
<rect width="30" height="30" fill="white"/>
</clipPath>
</defs>
</svg>
