<svg xmlns="http://www.w3.org/2000/svg" width="19" height="19" viewBox="0 0 19 19" fill="none">
  <path d="M9.34084 3.00847L9.46667 3C9.93613 3 10.3241 3.34919 10.3855 3.80225L10.394 3.9282L10.393 4.85517L14.7209 4.85579C16.2573 4.85579 17.5028 6.1025 17.5028 7.6404V13.2153C17.5028 14.7532 16.2573 15.9999 14.7209 15.9999H4.21158C2.67518 15.9999 1.42969 14.7532 1.42969 13.2153V7.6404C1.42969 6.1025 2.67518 4.85579 4.21158 4.85579L8.5384 4.85517L8.53938 3.9282C8.53938 3.45829 8.88823 3.06994 9.34084 3.00847ZM6.68349 8.5686C5.83043 8.5686 5.13888 9.26083 5.13888 10.1147C5.13888 10.9686 5.83043 11.6609 6.68349 11.6609C7.53656 11.6609 8.22811 10.9686 8.22811 10.1147C8.22811 9.26083 7.53656 8.5686 6.68349 8.5686ZM12.2383 8.5686C11.3852 8.5686 10.6937 9.26083 10.6937 10.1147C10.6937 10.9686 11.3852 11.6609 12.2383 11.6609C13.0914 11.6609 13.7829 10.9686 13.7829 10.1147C13.7829 9.26083 13.0914 8.5686 12.2383 8.5686Z" fill="white"/>
  <path d="M9.34084 3.00847L9.46667 3C9.93613 3 10.3241 3.34919 10.3855 3.80225L10.394 3.9282L10.393 4.85517L14.7209 4.85579C16.2573 4.85579 17.5028 6.1025 17.5028 7.6404V13.2153C17.5028 14.7532 16.2573 15.9999 14.7209 15.9999H4.21158C2.67518 15.9999 1.42969 14.7532 1.42969 13.2153V7.6404C1.42969 6.1025 2.67518 4.85579 4.21158 4.85579L8.5384 4.85517L8.53938 3.9282C8.53938 3.45829 8.88823 3.06994 9.34084 3.00847ZM6.68349 8.5686C5.83043 8.5686 5.13888 9.26083 5.13888 10.1147C5.13888 10.9686 5.83043 11.6609 6.68349 11.6609C7.53656 11.6609 8.22811 10.9686 8.22811 10.1147C8.22811 9.26083 7.53656 8.5686 6.68349 8.5686ZM12.2383 8.5686C11.3852 8.5686 10.6937 9.26083 10.6937 10.1147C10.6937 10.9686 11.3852 11.6609 12.2383 11.6609C13.0914 11.6609 13.7829 10.9686 13.7829 10.1147C13.7829 9.26083 13.0914 8.5686 12.2383 8.5686Z" fill="white"/>
</svg>