<svg width="18" height="19" viewBox="0 0 18 19" fill="none" xmlns="http://www.w3.org/2000/svg">
<g id="pause-circle-svgrepo-com">
<path id="Subtract" fill-rule="evenodd" clip-rule="evenodd" d="M16.5 9.5C16.5 13.6421 13.1421 17 9 17C4.85786 17 1.5 13.6421 1.5 9.5C1.5 5.35786 4.85786 2 9 2C13.1421 2 16.5 5.35786 16.5 9.5ZM5.78882 6.53571C6.17775 6.11436 6.83462 6.08809 7.25597 6.47703L8.99921 8.08617L10.7424 6.47703C11.1638 6.08809 11.8207 6.11436 12.2096 6.53571C12.5985 6.95706 12.5723 7.61393 12.1509 8.00287L10.5299 9.49915L12.1509 10.9954C12.5722 11.3843 12.5985 12.0412 12.2096 12.4626C11.8206 12.8839 11.1637 12.9102 10.7424 12.5212L8.99921 10.9121L7.25601 12.5212C6.83466 12.9102 6.17779 12.8839 5.78886 12.4626C5.39992 12.0412 5.42619 11.3843 5.84754 10.9954L7.46847 9.49915L5.8475 8.00287C5.42615 7.61393 5.39988 6.95706 5.78882 6.53571Z" fill="#8B8EA0"/>
</g>
</svg>
