<svg xmlns="http://www.w3.org/2000/svg" width="16" height="16" fill="none" viewBox="0 0 16 16">
  <path fill="#8B8EA0" d="M5.3333 5c-1.6568 0-3 1.3431-3 3s1.3432 3 3 3h1A.6667.6667 0 0 1 7 11.6667v.6666A.6667.6667 0 0 1 6.3333 13h-1c-2.7614 0-5-2.2386-5-5s2.2386-5 5-5h1A.6667.6667 0 0 1 7 3.6667v.6666A.6667.6667 0 0 1 6.3333 5h-1Z"/>
  <path fill="#8B8EA0" d="M4.3333 7.6667A.6667.6667 0 0 1 5 7h6a.6667.6667 0 0 1 .6667.6667v.6666A.6667.6667 0 0 1 11 9H5a.6667.6667 0 0 1-.6667-.6667v-.6666Z"/>
  <path fill="#8B8EA0" d="M13.6667 8c0-1.6569-1.3432-3-3-3h-1A.6667.6667 0 0 1 9 4.3333v-.6666A.6667.6667 0 0 1 9.6667 3h1c2.7614 0 5 2.2386 5 5s-2.2386 5-5 5h-1A.6667.6667 0 0 1 9 12.3333v-.6666A.6667.6667 0 0 1 9.6667 11h1c1.6568 0 3-1.3431 3-3Z"/>
</svg>