<svg xmlns="http://www.w3.org/2000/svg" width="19" height="19" viewBox="0 0 19 19" fill="none">
  <path d="M15.9123 15.0768V14.9564C15.9123 14.647 15.7318 14.3805 15.4825 14.2344H15.5083V6.45542L16.1014 4.72771H13.7892V3H5.20221V4.72771H2.89L3.48309 6.45542V14.2344H3.50888C3.25101 14.3805 3.0791 14.6384 3.0791 14.9564V15.0768C2.81264 15.1885 2.62354 15.455 2.62354 15.773V15.902H7.78088V15.773C7.78088 15.4636 7.59178 15.1971 7.32531 15.0768V14.9564C7.32531 14.647 7.14481 14.3805 6.89553 14.2344H6.92992V10.3406C6.92992 8.95673 8.04734 7.83071 9.42263 7.83071H9.57735C10.9526 7.83071 12.0701 8.95673 12.0701 10.3406V14.2344H12.1045C11.8466 14.3805 11.6747 14.6384 11.6747 14.9564V15.0768C11.4082 15.1885 11.2191 15.455 11.2191 15.773V15.902H16.3764V15.773C16.3764 15.4636 16.1873 15.1971 15.9209 15.0768H15.9123Z" fill="white"/>
</svg>