<svg width="40" height="30" viewBox="0 0 40 30" fill="none" xmlns="http://www.w3.org/2000/svg">
<g filter="url(#filter0_b_4522_2641)">
<rect width="40" height="30" rx="15" fill="white" fill-opacity="0.05"/>
</g>
<path fill-rule="evenodd" clip-rule="evenodd" d="M13.2087 9.6333C11.4366 9.6333 10 11.0699 10 12.842V17.0912C10 18.8634 11.4366 20.3 13.2087 20.3H26.7913C28.5634 20.3 30 18.8634 30 17.0912V12.842C30 11.0699 28.5634 9.6333 26.7913 9.6333H13.2087ZM15.7735 14.0688H17.0178C16.978 13.7317 16.8871 13.4325 16.7451 13.1711C16.6049 12.9098 16.4231 12.6891 16.1996 12.5092C15.9761 12.3274 15.7195 12.1891 15.4297 12.0944C15.1418 11.9997 14.8293 11.9524 14.4922 11.9524C13.9809 11.9524 13.5206 12.0698 13.1115 12.3046C12.7024 12.5376 12.3786 12.8766 12.1399 13.3217C11.9013 13.7668 11.782 14.3065 11.782 14.941C11.782 15.5736 11.8994 16.1124 12.1343 16.5575C12.371 17.0026 12.693 17.3425 13.1002 17.5774C13.5093 17.8122 13.9733 17.9296 14.4922 17.9296C14.8653 17.9296 15.1996 17.8738 15.4951 17.762C15.7924 17.6484 16.0481 17.495 16.2621 17.3018C16.478 17.1067 16.6494 16.8861 16.7763 16.6399C16.9051 16.3918 16.9856 16.1342 17.0178 15.8671L15.7735 15.8615C15.7451 16.0168 15.6939 16.155 15.6201 16.2762C15.5481 16.3974 15.4572 16.5007 15.3473 16.5859C15.2375 16.6692 15.1115 16.7327 14.9695 16.7762C14.8293 16.8198 14.6769 16.8416 14.5121 16.8416C14.2185 16.8416 13.96 16.7696 13.7365 16.6257C13.5131 16.4817 13.3388 16.2687 13.2138 15.9865C13.0907 15.7043 13.0291 15.3558 13.0291 14.941C13.0291 14.5376 13.0907 14.1948 13.2138 13.9126C13.3369 13.6285 13.5102 13.4126 13.7337 13.2649C13.9572 13.1152 14.2195 13.0404 14.5206 13.0404C14.6873 13.0404 14.8416 13.0641 14.9837 13.1115C15.1276 13.1588 15.2545 13.227 15.3644 13.316C15.4742 13.405 15.5642 13.513 15.6343 13.6399C15.7043 13.7649 15.7507 13.9079 15.7735 14.0688ZM21.0969 13.1711C21.2692 13.298 21.3667 13.476 21.3895 13.7052H22.5684C22.5628 13.3586 22.47 13.0537 22.29 12.7904C22.1101 12.5272 21.8582 12.3217 21.5344 12.174C21.2124 12.0262 20.8355 11.9524 20.4037 11.9524C19.9794 11.9524 19.6006 12.0262 19.2673 12.174C18.934 12.3217 18.6717 12.5272 18.4804 12.7904C18.291 13.0537 18.1972 13.3615 18.1991 13.7137C18.1972 14.1437 18.3383 14.4855 18.6224 14.7393C18.9065 14.9931 19.2938 15.1796 19.7844 15.299L20.4179 15.4581C20.63 15.5092 20.809 15.566 20.9548 15.6285C21.1025 15.691 21.2143 15.7668 21.29 15.8558C21.3677 15.9448 21.4065 16.0546 21.4065 16.1853C21.4065 16.3255 21.3639 16.4495 21.2787 16.5575C21.1934 16.6654 21.0732 16.7497 20.9179 16.8103C20.7645 16.8709 20.5836 16.9012 20.3753 16.9012C20.1631 16.9012 19.9728 16.869 19.8042 16.8046C19.6376 16.7384 19.5041 16.6408 19.4037 16.512C19.3052 16.3813 19.2493 16.2185 19.2361 16.0234H18.0457C18.0552 16.442 18.1565 16.7933 18.3497 17.0774C18.5448 17.3596 18.8156 17.5726 19.1622 17.7166C19.5107 17.8605 19.9198 17.9325 20.3895 17.9325C20.863 17.9325 21.2673 17.8615 21.6025 17.7194C21.9397 17.5755 22.1972 17.3738 22.3753 17.1143C22.5552 16.8529 22.6461 16.5442 22.648 16.1882C22.6461 15.9457 22.6016 15.7308 22.5145 15.5433C22.4292 15.3558 22.309 15.1929 22.1537 15.0546C21.9984 14.9164 21.8147 14.7999 21.6025 14.7052C21.3904 14.6105 21.1575 14.5348 20.9037 14.4779L20.3809 14.3529C20.2541 14.3245 20.1347 14.2904 20.023 14.2507C19.9113 14.209 19.8128 14.1607 19.7275 14.1058C19.6423 14.049 19.5751 13.9817 19.5258 13.9041C19.4785 13.8264 19.4567 13.7355 19.4605 13.6313C19.4605 13.5063 19.4965 13.3946 19.5684 13.2961C19.6423 13.1976 19.7484 13.1209 19.8866 13.066C20.0249 13.0092 20.1944 12.9808 20.3952 12.9808C20.6906 12.9808 20.9245 13.0442 21.0969 13.1711ZM26.2661 16.4524L24.8599 12.0319H23.4934L25.5019 17.8501H27.0872L29.0928 12.0319H27.7292L26.3201 16.4524H26.2661Z" fill="white"/>
<defs>
<filter id="filter0_b_4522_2641" x="-66.631" y="-66.631" width="173.262" height="163.262" filterUnits="userSpaceOnUse" color-interpolation-filters="sRGB">
<feFlood flood-opacity="0" result="BackgroundImageFix"/>
<feGaussianBlur in="BackgroundImageFix" stdDeviation="33.3155"/>
<feComposite in2="SourceAlpha" operator="in" result="effect1_backgroundBlur_4522_2641"/>
<feBlend mode="normal" in="SourceGraphic" in2="effect1_backgroundBlur_4522_2641" result="shape"/>
</filter>
</defs>
</svg>
