<svg
    xmlns="http://www.w3.org/2000/svg"
    width="16"
    height="16"
    fill="none"
    viewBox="0 0 16 16"
>
    <g clip-path="url(#a)">
        <path
            fill="#8B8EA0"
            d="M1.3333 3.9987c0-1.0033.52-2.0533 1.3333-2.6667 0 .5634.46 1.3334 1.3333 1.3334 1.1047 0 2 .8953 2 2 0 .2573-.0533.5013-.1413.7266.4933.396.984.7934 1.46 1.2067L5.9333 7.9854c-.4134-.4774-.8094-.9694-1.2047-1.4614-.2267.088-.4707.1414-.7287.1414-1.4733 0-2.6666-1.1934-2.6666-2.6667ZM9.4345 8.564l.8933-.8933c.4047.2027.8554.328 1.3387.328 1.6567 0 3-1.3433 3-3 0-.4833-.1253-.9333-.3287-1.338l-2.338 2.338-1.3333-1.3333 2.338-2.338c-.4047-.2034-.8547-.3287-1.338-.3287-1.6567 0-3 1.3433-3 3 0 .4833.1253.9333.3286 1.338L2 13.332l1.3334 1.3334L7.8986 10.1c1.2567 1.2854 2.5827 2.502 3.9847 3.6334l.95.7653 1-1-.7667-.95c-1.13-1.402-2.3467-2.728-3.632-3.9847Z"
        />
    </g>
    <defs>
        <clipPath id="a">
            <path fill="#fff" d="M0 0h16v16H0z" />
        </clipPath>
    </defs>
</svg>