<svg xmlns="http://www.w3.org/2000/svg" width="20" height="21" viewBox="0 0 20 21" fill="none">
  <path d="M16.7499 16.3706V16.2439C16.7499 15.9182 16.5599 15.6377 16.2975 15.4839H16.3246V7.29549L16.9489 5.47685H14.515V3.6582H5.47611V5.47685H3.04221L3.66652 7.29549V15.4839H3.69366C3.42222 15.6377 3.24126 15.9092 3.24126 16.2439V16.3706C2.96077 16.4882 2.76172 16.7687 2.76172 17.1035V17.2392H8.1905V17.1035C8.1905 16.7778 7.99145 16.4973 7.71096 16.3706V16.2439C7.71096 15.9182 7.52095 15.6377 7.25856 15.4839H7.29475V11.3852C7.29475 9.92845 8.47099 8.74316 9.91866 8.74316H10.0815C11.5292 8.74316 12.7054 9.92845 12.7054 11.3852V15.4839H12.7416C12.4702 15.6377 12.2892 15.9092 12.2892 16.2439V16.3706C12.0087 16.4882 11.8097 16.7687 11.8097 17.1035V17.2392H17.2385V17.1035C17.2385 16.7778 17.0394 16.4973 16.7589 16.3706H16.7499Z" fill="white"/>
</svg>