<svg xmlns="http://www.w3.org/2000/svg" width="16" height="17" viewBox="0 0 16 17" fill="none">
  <rect x="1.33301" y="1.83594" width="13.3333" height="13.3333" rx="2.66667" fill="#10212E"/>
  <path d="M11.8525 12.0071V11.9348C11.8525 11.7488 11.7441 11.5887 11.5943 11.5009H11.6098V6.8264L11.9662 5.7882H10.5768V4.75H5.41674V5.7882H4.02731L4.38371 6.8264V11.5009H4.3992C4.24425 11.5887 4.14094 11.7436 4.14094 11.9348V12.0071C3.98082 12.0742 3.86719 12.2343 3.86719 12.4255V12.5029H6.96629V12.4255C6.96629 12.2395 6.85266 12.0794 6.69254 12.0071V11.9348C6.69254 11.7488 6.58407 11.5887 6.43428 11.5009H6.45494V9.16106C6.45494 8.32947 7.12641 7.65283 7.95284 7.65283H8.04582C8.87224 7.65283 9.54372 8.32947 9.54372 9.16106V11.5009H9.56438C9.40942 11.5887 9.30612 11.7436 9.30612 11.9348V12.0071C9.146 12.0742 9.03236 12.2343 9.03236 12.4255V12.5029H12.1315V12.4255C12.1315 12.2395 12.0178 12.0794 11.8577 12.0071H11.8525Z" fill="white"/>
</svg>