<svg width="14" height="14" viewBox="0 0 14 14" fill="none" xmlns="http://www.w3.org/2000/svg">
<g id="file-arrow-up-alt-1-svgrepo-com">
<path id="Vector" d="M7.58268 1.75H4.78268C4.12929 1.75 3.80259 1.75 3.55303 1.87716C3.3335 1.98901 3.15502 2.16749 3.04318 2.38701C2.91602 2.63657 2.91602 2.96327 2.91602 3.61667V10.3833C2.91602 11.0367 2.91602 11.3635 3.04318 11.613C3.15502 11.8325 3.3335 12.011 3.55303 12.1228C3.80259 12.25 4.12929 12.25 4.78268 12.25H8.74935M7.58268 1.75L11.0827 5.25M7.58268 1.75V4.31667C7.58268 4.64336 7.58268 4.80671 7.64627 4.93149C7.70221 5.04125 7.7914 5.13049 7.90118 5.18642C8.02596 5.25 8.18929 5.25 8.51602 5.25H11.0827M11.0827 5.25V6.41667M11.0839 8.74997V12.2335M11.0839 12.2335V12.25M11.0839 12.2335L11.1004 12.25L12.267 11.0833M11.0839 12.2335L9.93369 11.0833" stroke="#8B8EA0" stroke-width="1.13537" stroke-linecap="round" stroke-linejoin="round"/>
</g>
</svg>
