<svg width="12" height="12" viewBox="0 0 12 12" fill="none" xmlns="http://www.w3.org/2000/svg">
<g id="icon-tiny-line-dust" clip-path="url(#clip0_708_49428)">
<g id="Group 1056765">
<path id="Vector" d="M9.49188 6H8.99021V1.5C8.99021 0.67 8.31797 0 7.48519 0C6.65242 0 5.98017 0.67 5.98017 1.5V6H5.4785C4.09389 6 2.97014 7.12 2.97014 8.5V10.5C2.97014 10.78 2.74941 11 2.46847 11C2.18753 11 1.9668 11.22 1.9668 11.5C1.9668 11.78 2.18753 12 2.46847 12H10.4952C11.328 12 12.0002 11.33 12.0002 10.5V8.5C12.0002 7.12 10.8765 6 9.49188 6ZM6.98352 1.5C6.98352 1.22 7.20425 1 7.48519 1C7.76613 1 7.98686 1.22 7.98686 1.5V6H6.98352V1.5ZM5.4785 7H9.49188C10.1441 7 10.7059 7.42 10.9066 8H4.05375C4.26446 7.42 4.81629 7 5.46847 7H5.4785ZM10.9969 10.5C10.9969 10.78 10.7762 11 10.4952 11H9.92332C9.98352 10.84 10.0136 10.68 10.0136 10.5V10C10.0136 9.72 9.79288 9.5 9.51195 9.5C9.23101 9.5 9.01027 9.72 9.01027 10V10.5C9.01027 10.78 8.78954 11 8.5086 11H7.89656C7.95676 10.84 7.98686 10.68 7.98686 10.5V10C7.98686 9.72 7.76613 9.5 7.48519 9.5C7.20425 9.5 6.98352 9.72 6.98352 10V10.5C6.98352 10.78 6.76278 11 6.48185 11H5.88987C5.95007 10.84 5.98017 10.68 5.98017 10.5V10C5.98017 9.72 5.75944 9.5 5.4785 9.5C5.19757 9.5 4.97683 9.72 4.97683 10V10.5C4.97683 10.78 4.75609 11 4.47516 11H3.88318C3.94339 10.84 3.97349 10.67 3.97349 10.5V9H10.9969V10.5Z" fill="#8B8EA0"/>
<path id="Vector_2" d="M0.501672 11C0.778738 11 1.00334 10.7761 1.00334 10.5C1.00334 10.2239 0.778738 10 0.501672 10C0.224606 10 0 10.2239 0 10.5C0 10.7761 0.224606 11 0.501672 11Z" fill="#8B8EA0"/>
<path id="Vector_3" d="M0.501672 9C0.778738 9 1.00334 8.77614 1.00334 8.5C1.00334 8.22386 0.778738 8 0.501672 8C0.224606 8 0 8.22386 0 8.5C0 8.77614 0.224606 9 0.501672 9Z" fill="#8B8EA0"/>
</g>
</g>
<defs>
<clipPath id="clip0_708_49428">
<rect width="12" height="12" fill="white"/>
</clipPath>
</defs>
</svg>
