<svg xmlns="http://www.w3.org/2000/svg" width="16" height="16" fill="none" viewBox="0 0 16 16">
  <path fill="#868D94" fill-rule="evenodd" d="M2 3.8002C2 2.806 2.806 2 3.8002 2h8.4009c.9942 0 1.8001.806 1.8001 1.8002v.703c0 .4774-.1896.9353-.5272 1.273L9.9766 9.2734a.6002.6002 0 0 0-.1758.4243v1.4061c0 .4774-.1897.9353-.5273 1.2729l-1.3213 1.3214c-.6465.6464-1.7518.1886-1.7518-.7256V9.6978a.6001.6001 0 0 0-.1757-.4243L2.5273 5.7761A1.8002 1.8002 0 0 1 2 4.5032v-.703Z" clip-rule="evenodd"/>
</svg>