<svg xmlns="http://www.w3.org/2000/svg" width="16" height="16" viewBox="0 0 16 16" fill="none">
  <path d="M9.79132 2.98867C9.87524 2.56941 9.60334 2.16154 9.18404 2.07768C8.76474 1.99383 8.3569 2.26574 8.27308 2.68501L9.79132 2.98867ZM6.20858 13.0075C6.12466 13.4268 6.39655 13.8347 6.81585 13.9185C7.23515 14.0024 7.64299 13.7305 7.72681 13.3112L6.20858 13.0075ZM3.32738 11.6028C3.63184 11.903 4.12202 11.8995 4.42223 11.5951C4.72242 11.2906 4.71897 10.8005 4.4145 10.5002L3.32738 11.6028ZM0.774188 7.9981L0.230626 7.44677C0.0830757 7.59232 0 7.79092 0 7.9981C0 8.20527 0.0830757 8.40387 0.230626 8.54942L0.774188 7.9981ZM4.4145 5.49598C4.71897 5.19577 4.72242 4.7056 4.42223 4.40113C4.12202 4.09667 3.63184 4.09321 3.32738 4.39341L4.4145 5.49598ZM11.5894 10.453C11.2827 10.751 11.2758 11.2411 11.5738 11.5477C11.8718 11.8544 12.3619 11.8613 12.6685 11.5633L11.5894 10.453ZM15.2257 7.9981L15.7653 8.55324C15.9139 8.40883 15.9984 8.21084 15.9999 8.00357C16.0013 7.79639 15.9197 7.59717 15.7731 7.45069L15.2257 7.9981ZM12.6764 4.35391C12.374 4.05157 11.8839 4.05157 11.5815 4.35391C11.2792 4.65625 11.2792 5.14644 11.5815 5.44878L12.6764 4.35391ZM8.27308 2.68501L6.20858 13.0075L7.72681 13.3112L9.79132 2.98867L8.27308 2.68501ZM4.4145 10.5002L1.31775 7.44677L0.230626 8.54942L3.32738 11.6028L4.4145 10.5002ZM1.31775 8.54942L4.4145 5.49598L3.32738 4.39341L0.230626 7.44677L1.31775 8.54942ZM12.6685 11.5633L15.7653 8.55324L14.6861 7.44295L11.5894 10.453L12.6685 11.5633ZM15.7731 7.45069L12.6764 4.35391L11.5815 5.44878L14.6783 8.5455L15.7731 7.45069Z" fill="#82B6FF"/>
</svg>