<svg
              xmlns="http://www.w3.org/2000/svg"
              width="16"
              height="17"
              viewBox="0 0 16 17"
              fill="none"
            >
              <path
                d="M1.5 14C1.5 14.5523 1.94771 15 2.49999 15H13.5C14.0523 15 14.5 14.5523 14.5 14V3C14.5 2.44771 14.0523 2 13.5 2H2.49999C1.94771 2 1.5 2.44771 1.5 2.99999V14ZM12.6875 2.92857C13.2398 2.92857 13.6875 3.37628 13.6875 3.92857V13.0714C13.6875 13.6237 13.2398 14.0714 12.6875 14.0714H3.3125C2.76021 14.0714 2.3125 13.6237 2.3125 13.0714V3.92857C2.3125 3.37628 2.76021 2.92857 3.3125 2.92857H12.6875Z"
                fill="#82B6FF"
              />
              <path
                d="M11.1287 11.3436V11.2849C11.1287 11.1338 11.0406 11.0037 10.9189 10.9324H10.9315V7.13434L11.2211 6.2908H10.0921V5.44727H5.89964V6.2908H4.77072L5.0603 7.13434V10.9324H5.07289C4.94698 11.0037 4.86305 11.1296 4.86305 11.2849V11.3436C4.73295 11.3982 4.64062 11.5283 4.64062 11.6836V11.7465H7.15865V11.6836C7.15865 11.5325 7.06632 11.4024 6.93622 11.3436V11.2849C6.93622 11.1338 6.84809 11.0037 6.72639 10.9324H6.74317V9.03125C6.74317 8.35558 7.28875 7.80581 7.96022 7.80581H8.03576C8.70723 7.80581 9.2528 8.35558 9.2528 9.03125V10.9324H9.26959C9.14369 11.0037 9.05976 11.1296 9.05976 11.2849V11.3436C8.92966 11.3982 8.83733 11.5283 8.83733 11.6836V11.7465H11.3554V11.6836C11.3554 11.5325 11.263 11.4024 11.1329 11.3436H11.1287Z"
                fill="#82B6FF"
              />
            </svg>