<svg xmlns="http://www.w3.org/2000/svg" width="25" height="25" viewBox="0 0 25 25" fill="none">
  <g clip-path="url(#clip0_4690_503)">
    <path d="M20.3125 4.6875H4.6875C3.82456 4.6875 3.125 5.38706 3.125 6.25C3.125 7.11295 3.82456 7.8125 4.6875 7.8125H20.3125C21.1754 7.8125 21.875 7.11295 21.875 6.25C21.875 5.38706 21.1754 4.6875 20.3125 4.6875Z" fill="#868D94"/>
    <path d="M20.3125 10.9375H4.6875C3.82456 10.9375 3.125 11.6371 3.125 12.5C3.125 13.3629 3.82456 14.0625 4.6875 14.0625H20.3125C21.1754 14.0625 21.875 13.3629 21.875 12.5C21.875 11.6371 21.1754 10.9375 20.3125 10.9375Z" fill="#868D94"/>
    <path d="M20.3125 17.1875H4.6875C3.82456 17.1875 3.125 17.8871 3.125 18.75C3.125 19.6129 3.82456 20.3125 4.6875 20.3125H20.3125C21.1754 20.3125 21.875 19.6129 21.875 18.75C21.875 17.8871 21.1754 17.1875 20.3125 17.1875Z" fill="#868D94"/>
  </g>
  <defs>
    <clipPath id="clip0_4690_503">
      <rect width="25" height="25" fill="white"/>
    </clipPath>
  </defs>
</svg>