<svg xmlns="http://www.w3.org/2000/svg" width="16" height="16" viewBox="0 0 16 16" fill="none">
  <path d="M4.33398 8H1.66732C1.57891 8 1.49413 8.03512 1.43162 8.09763C1.3691 8.16014 1.33398 8.24493 1.33398 8.33333V13.3333H4.66732V8.33333C4.66732 8.24493 4.6322 8.16014 4.56969 8.09763C4.50717 8.03512 4.42239 8 4.33398 8Z" fill="white"/>
  <path d="M9.33398 2.66602H6.66732C6.57891 2.66602 6.49413 2.70113 6.43162 2.76365C6.3691 2.82616 6.33398 2.91094 6.33398 2.99935V13.3327H9.66732V2.99935C9.66732 2.91094 9.6322 2.82616 9.56969 2.76365C9.50717 2.70113 9.42239 2.66602 9.33398 2.66602Z" fill="white"/>
  <path d="M14.334 5.33398H11.6673C11.5789 5.33398 11.4941 5.3691 11.4316 5.43162C11.3691 5.49413 11.334 5.57891 11.334 5.66732V13.334H14.6673V5.66732C14.6673 5.57891 14.6322 5.49413 14.5697 5.43162C14.5072 5.3691 14.4224 5.33398 14.334 5.33398Z" fill="white"/>
</svg>