<svg width="20" height="20" viewBox="0 0 20 20" fill="none" xmlns="http://www.w3.org/2000/svg">
<g id="tile-svgrepo-com" opacity="0.5">
<path id="Vector" fill-rule="evenodd" clip-rule="evenodd" d="M5.33329 11.5C4.41282 11.5 3.66663 12.2462 3.66663 13.1667V15.6667C3.66663 16.5872 4.41282 17.3333 5.33329 17.3333H15.3333C16.2538 17.3333 17 16.5872 17 15.6667V13.1667C17 12.2462 16.2538 11.5 15.3333 11.5H5.33329ZM5.33329 13.1667H15.3333V15.6667H5.33329V13.1667ZM5.33329 4C4.41282 4 3.66663 4.74619 3.66663 5.66667V8.16667C3.66663 9.08717 4.41282 9.83333 5.33329 9.83333H15.3333C16.2538 9.83333 17 9.08717 17 8.16667V5.66667C17 4.74619 16.2538 4 15.3333 4H5.33329ZM5.33329 5.66667L15.3333 5.66667V8.16667H5.33329V5.66667Z" fill="#8B8EA0"/>
</g>
</svg>
