<svg width="1913" height="427" viewBox="0 0 1913 427" fill="none" xmlns="http://www.w3.org/2000/svg">
<g clip-path="url(#clip0_2297_6299)">
<path d="M168.18 37.6797C167.657 32.7796 165.45 28.9643 161.56 26.2337C157.707 23.5031 152.695 22.1378 146.523 22.1378C142.184 22.1378 138.462 22.7924 135.357 24.1016C132.253 25.4107 129.877 27.1875 128.232 29.4318C126.586 31.6761 125.744 34.2384 125.707 37.1186C125.707 39.5125 126.249 41.5885 127.334 43.3466C128.456 45.1046 129.971 46.6009 131.879 47.8352C133.786 49.0322 135.9 50.0421 138.219 50.8651C140.538 51.688 142.876 52.38 145.232 52.9411L156.005 55.6342C160.344 56.6442 164.515 58.0095 168.517 59.7301C172.557 61.4508 176.166 63.6203 179.346 66.2386C182.563 68.857 185.106 72.0178 186.977 75.7209C188.847 79.424 189.782 83.763 189.782 88.7379C189.782 95.4709 188.061 101.4 184.62 106.524C181.179 111.611 176.204 115.595 169.695 118.475C163.224 121.318 155.388 122.739 146.186 122.739C137.246 122.739 129.485 121.355 122.901 118.587C116.355 115.819 111.231 111.78 107.528 106.468C103.862 101.156 101.879 94.6854 101.58 87.0547H122.06C122.359 91.0571 123.593 94.3861 125.763 97.0419C127.932 99.6977 130.756 101.68 134.235 102.989C137.751 104.299 141.679 104.953 146.018 104.953C150.544 104.953 154.509 104.28 157.913 102.933C161.354 101.549 164.047 99.6416 165.992 97.2102C167.937 94.7415 168.929 91.8613 168.966 88.5696C168.929 85.5772 168.049 83.1084 166.329 81.1634C164.608 79.1809 162.196 77.535 159.091 76.2259C156.024 74.8793 152.433 73.6823 148.318 72.6349L135.245 69.2685C125.781 66.8371 118.3 63.1527 112.802 58.2152C107.341 53.2403 104.61 46.6383 104.61 38.4091C104.61 31.6387 106.443 25.71 110.109 20.6229C113.812 15.5357 118.843 11.5895 125.202 8.78408C131.561 5.94128 138.761 4.51988 146.803 4.51988C154.958 4.51988 162.102 5.94128 168.237 8.78408C174.408 11.5895 179.252 15.4983 182.768 20.5106C186.285 25.4856 188.099 31.2086 188.211 37.6797H168.18ZM208.442 121V34.8182H228.753V121H208.442ZM218.654 22.5866C215.437 22.5866 212.669 21.5206 210.35 19.3885C208.03 17.219 206.871 14.6193 206.871 11.5895C206.871 8.52225 208.03 5.92258 210.35 3.79048C212.669 1.62097 215.437 0.536218 218.654 0.536218C221.908 0.536218 224.676 1.62097 226.958 3.79048C229.277 5.92258 230.436 8.52225 230.436 11.5895C230.436 14.6193 229.277 17.219 226.958 19.3885C224.676 21.5206 221.908 22.5866 218.654 22.5866ZM288.119 155.114C280.825 155.114 274.56 154.122 269.323 152.14C264.086 150.195 259.878 147.576 256.699 144.285C253.519 140.993 251.312 137.346 250.078 133.344L268.369 128.911C269.192 130.594 270.389 132.259 271.96 133.905C273.531 135.588 275.645 136.972 278.3 138.057C280.994 139.179 284.379 139.74 288.456 139.74C294.216 139.74 298.986 138.337 302.763 135.532C306.541 132.764 308.43 128.201 308.43 121.842V105.514H307.42C306.373 107.609 304.839 109.76 302.82 111.967C300.837 114.174 298.2 116.025 294.908 117.521C291.654 119.018 287.558 119.766 282.621 119.766C276 119.766 269.996 118.213 264.61 115.109C259.261 111.967 254.997 107.291 251.817 101.082C248.675 94.835 247.104 87.0173 247.104 77.6286C247.104 68.165 248.675 60.179 251.817 53.6705C254.997 47.1245 259.28 42.1683 264.666 38.8018C270.053 35.398 276.056 33.696 282.677 33.696C287.727 33.696 291.879 34.5563 295.133 36.277C298.424 37.9602 301.043 39.9988 302.988 42.3928C304.933 44.7493 306.411 46.9749 307.42 49.0696H308.543V34.8182H328.573V122.403C328.573 129.772 326.815 135.869 323.299 140.694C319.783 145.519 314.976 149.129 308.879 151.523C302.782 153.917 295.862 155.114 288.119 155.114ZM288.288 103.831C292.589 103.831 296.255 102.784 299.285 100.689C302.315 98.5942 304.615 95.5831 306.186 91.6555C307.757 87.728 308.543 83.0149 308.543 77.5163C308.543 72.0926 307.757 67.3421 306.186 63.2649C304.652 59.1877 302.371 56.027 299.341 53.7827C296.348 51.5009 292.664 50.3601 288.288 50.3601C283.762 50.3601 279.984 51.5383 276.954 53.8949C273.924 56.2514 271.642 59.487 270.109 63.6016C268.575 67.6787 267.808 72.317 267.808 77.5163C267.808 82.7905 268.575 87.41 270.109 91.375C271.68 95.3026 273.98 98.3698 277.01 100.577C280.077 102.746 283.836 103.831 288.288 103.831ZM370.7 70.5028V121H350.389V34.8182H369.803V49.4624H370.812C372.795 44.6371 375.956 40.803 380.295 37.9602C384.671 35.1174 390.076 33.696 396.51 33.696C402.457 33.696 407.638 34.9678 412.052 37.5114C416.503 40.0549 419.944 43.7393 422.376 48.5646C424.844 53.3899 426.06 59.2438 426.023 66.1264V121H405.712V69.2685C405.712 63.508 404.215 59.0007 401.223 55.7464C398.268 52.4922 394.172 50.8651 388.935 50.8651C385.382 50.8651 382.221 51.6506 379.453 53.2216C376.723 54.7552 374.572 56.9808 373.001 59.8984C371.467 62.816 370.7 66.3508 370.7 70.5028ZM487.862 121V34.8182H508.173V121H487.862ZM498.074 22.5866C494.857 22.5866 492.089 21.5206 489.77 19.3885C487.45 17.219 486.291 14.6193 486.291 11.5895C486.291 8.52225 487.45 5.92258 489.77 3.79048C492.089 1.62097 494.857 0.536218 498.074 0.536218C501.328 0.536218 504.096 1.62097 506.377 3.79048C508.697 5.92258 509.856 8.52225 509.856 11.5895C509.856 14.6193 508.697 17.219 506.377 19.3885C504.096 21.5206 501.328 22.5866 498.074 22.5866ZM550.37 70.5028V121H530.059V34.8182H549.472V49.4624H550.482C552.465 44.6371 555.626 40.803 559.965 37.9602C564.341 35.1174 569.746 33.696 576.18 33.696C582.127 33.696 587.308 34.9678 591.722 37.5114C596.173 40.0549 599.614 43.7393 602.046 48.5646C604.514 53.3899 605.73 59.2438 605.693 66.1264V121H585.382V69.2685C585.382 63.508 583.885 59.0007 580.893 55.7464C577.938 52.4922 573.842 50.8651 568.605 50.8651C565.052 50.8651 561.891 51.6506 559.123 53.2216C556.392 54.7552 554.242 56.9808 552.671 59.8984C551.137 62.816 550.37 66.3508 550.37 70.5028ZM710.567 34.8182V50.5284H661.023V34.8182H710.567ZM673.255 14.1705H693.566V95.0781C693.566 97.8087 693.977 99.9034 694.8 101.362C695.661 102.784 696.783 103.756 698.167 104.28C699.551 104.804 701.084 105.065 702.768 105.065C704.039 105.065 705.199 104.972 706.246 104.785C707.331 104.598 708.154 104.429 708.715 104.28L712.138 120.158C711.053 120.532 709.501 120.944 707.481 121.393C705.498 121.842 703.067 122.103 700.187 122.178C695.099 122.328 690.517 121.561 686.44 119.878C682.363 118.157 679.127 115.501 676.733 111.911C674.377 108.32 673.217 103.831 673.255 98.4446V14.1705ZM765.22 122.683C756.804 122.683 749.51 120.832 743.338 117.129C737.166 113.425 732.378 108.245 728.974 101.587C725.608 94.9285 723.924 87.1482 723.924 78.2457C723.924 69.3433 725.608 61.5443 728.974 54.8487C732.378 48.1532 737.166 42.9538 743.338 39.2507C749.51 35.5476 756.804 33.696 765.22 33.696C773.636 33.696 780.93 35.5476 787.102 39.2507C793.274 42.9538 798.043 48.1532 801.409 54.8487C804.813 61.5443 806.515 69.3433 806.515 78.2457C806.515 87.1482 804.813 94.9285 801.409 101.587C798.043 108.245 793.274 113.425 787.102 117.129C780.93 120.832 773.636 122.683 765.22 122.683ZM765.332 106.412C769.895 106.412 773.711 105.159 776.778 102.653C779.845 100.109 782.127 96.7053 783.623 92.4411C785.157 88.1768 785.924 83.4264 785.924 78.1896C785.924 72.9155 785.157 68.1463 783.623 63.8821C782.127 59.5805 779.845 56.1579 776.778 53.6143C773.711 51.0708 769.895 49.799 765.332 49.799C760.656 49.799 756.766 51.0708 753.662 53.6143C750.594 56.1579 748.294 59.5805 746.76 63.8821C745.264 68.1463 744.516 72.9155 744.516 78.1896C744.516 83.4264 745.264 88.1768 746.76 92.4411C748.294 96.7053 750.594 100.109 753.662 102.653C756.766 105.159 760.656 106.412 765.332 106.412ZM919.876 84.7543V34.8182H940.187V121H920.493V105.683H919.595C917.65 110.508 914.452 114.454 910.001 117.521C905.587 120.589 900.144 122.122 893.673 122.122C888.025 122.122 883.031 120.869 878.692 118.363C874.391 115.819 871.024 112.135 868.593 107.31C866.162 102.447 864.946 96.5743 864.946 89.6918V34.8182H885.257V86.5497C885.257 92.0109 886.753 96.3499 889.746 99.5668C892.738 102.784 896.666 104.392 901.528 104.392C904.521 104.392 907.42 103.663 910.225 102.204C913.03 100.745 915.331 98.5755 917.126 95.6953C918.959 92.7777 919.876 89.1307 919.876 84.7543ZM1030.19 57.598L1011.67 59.6179C1011.15 57.7476 1010.23 55.9896 1008.92 54.3438C1007.65 52.6979 1005.93 51.37 1003.76 50.3601C1001.59 49.3501 998.936 48.8452 995.794 48.8452C991.567 48.8452 988.013 49.7616 985.133 51.5945C982.29 53.4273 980.888 55.8026 980.925 58.7202C980.888 61.2263 981.804 63.2649 983.674 64.8359C985.582 66.407 988.724 67.6974 993.101 68.7074L1007.8 71.8494C1015.96 73.6075 1022.01 76.3942 1025.98 80.2095C1029.98 84.0249 1032 89.0185 1032.04 95.1903C1032 100.614 1030.41 105.402 1027.27 109.554C1024.17 113.669 1019.85 116.885 1014.31 119.205C1008.77 121.524 1002.41 122.683 995.233 122.683C984.684 122.683 976.193 120.476 969.76 116.062C963.326 111.611 959.492 105.421 958.257 97.4908L978.064 95.5831C978.961 99.4732 980.869 102.41 983.787 104.392C986.704 106.375 990.501 107.366 995.176 107.366C1000 107.366 1003.87 106.375 1006.79 104.392C1009.75 102.41 1011.22 99.9595 1011.22 97.0419C1011.22 94.5732 1010.27 92.5346 1008.36 90.9261C1006.49 89.3177 1003.57 88.0833 999.609 87.223L984.909 84.1371C976.642 82.4164 970.526 79.5175 966.561 75.4403C962.596 71.3258 960.633 66.1264 960.67 59.8423C960.633 54.5308 962.073 49.9299 964.99 46.0398C967.945 42.1122 972.041 39.0824 977.278 36.9503C982.552 34.7808 988.631 33.696 995.513 33.696C1005.61 33.696 1013.56 35.8468 1019.36 40.1484C1025.19 44.45 1028.8 50.2666 1030.19 57.598ZM1087.94 122.683C1079.3 122.683 1071.84 120.888 1065.55 117.297C1059.31 113.669 1054.5 108.544 1051.13 101.923C1047.77 95.2652 1046.08 87.4287 1046.08 78.4141C1046.08 69.549 1047.77 61.7687 1051.13 55.0732C1054.54 48.3402 1059.29 43.1035 1065.39 39.3629C1071.48 35.585 1078.65 33.696 1086.88 33.696C1092.19 33.696 1097.2 34.5563 1101.91 36.277C1106.66 37.9602 1110.85 40.5786 1114.48 44.1321C1118.15 47.6856 1121.03 52.2116 1123.12 57.7102C1125.22 63.1714 1126.26 69.6799 1126.26 77.2358V83.4638H1055.62V69.7734H1106.79C1106.76 65.8833 1105.91 62.4233 1104.27 59.3935C1102.62 56.3262 1100.32 53.9136 1097.37 52.1555C1094.45 50.3975 1091.05 49.5185 1087.16 49.5185C1083 49.5185 1079.36 50.5284 1076.21 52.5483C1073.07 54.5308 1070.62 57.1491 1068.86 60.4034C1067.14 63.6203 1066.26 67.1551 1066.23 71.0078V82.9588C1066.23 87.9711 1067.14 92.2727 1068.98 95.8636C1070.81 99.4171 1073.37 102.148 1076.66 104.055C1079.96 105.926 1083.81 106.861 1088.22 106.861C1091.18 106.861 1093.85 106.449 1096.25 105.626C1098.64 104.766 1100.71 103.513 1102.47 101.867C1104.23 100.221 1105.56 98.1828 1106.46 95.7514L1125.42 97.8835C1124.22 102.896 1121.94 107.272 1118.58 111.013C1115.25 114.716 1110.98 117.596 1105.78 119.653C1100.58 121.673 1094.64 122.683 1087.94 122.683ZM1200.29 121H1178.07L1218.53 6.09091H1244.22L1284.73 121H1262.52L1231.82 29.6562H1230.93L1200.29 121ZM1201.02 75.9453H1261.62V92.6655H1201.02V75.9453ZM1300.59 121V34.8182H1320.9V121H1300.59ZM1310.8 22.5866C1307.58 22.5866 1304.82 21.5206 1302.5 19.3885C1300.18 17.219 1299.02 14.6193 1299.02 11.5895C1299.02 8.52225 1300.18 5.92258 1302.5 3.79048C1304.82 1.62097 1307.58 0.536218 1310.8 0.536218C1314.05 0.536218 1316.82 1.62097 1319.1 3.79048C1321.42 5.92258 1322.58 8.52225 1322.58 11.5895C1322.58 14.6193 1321.42 17.219 1319.1 19.3885C1316.82 21.5206 1314.05 22.5866 1310.8 22.5866ZM1342.79 121V34.8182H1362.48V49.1818H1363.38C1364.95 44.2069 1367.64 40.3729 1371.46 37.6797C1375.31 34.9491 1379.7 33.5838 1384.64 33.5838C1385.76 33.5838 1387.02 33.6399 1388.4 33.7521C1389.82 33.8269 1391 33.9579 1391.94 34.1449V52.8288C1391.08 52.5296 1389.71 52.2678 1387.84 52.0433C1386.01 51.7815 1384.23 51.6506 1382.51 51.6506C1378.81 51.6506 1375.48 52.4548 1372.52 54.0632C1369.61 55.6342 1367.3 57.8224 1365.62 60.6278C1363.94 63.4332 1363.1 66.6688 1363.1 70.3345V121H1342.79ZM1474.55 57.598L1456.03 59.6179C1455.51 57.7476 1454.59 55.9896 1453.28 54.3438C1452.01 52.6979 1450.29 51.37 1448.12 50.3601C1445.95 49.3501 1443.29 48.8452 1440.15 48.8452C1435.92 48.8452 1432.37 49.7616 1429.49 51.5945C1426.65 53.4273 1425.25 55.8026 1425.28 58.7202C1425.25 61.2263 1426.16 63.2649 1428.03 64.8359C1429.94 66.407 1433.08 67.6974 1437.46 68.7074L1452.16 71.8494C1460.31 73.6075 1466.37 76.3942 1470.34 80.2095C1474.34 84.0249 1476.36 89.0185 1476.4 95.1903C1476.36 100.614 1474.77 105.402 1471.63 109.554C1468.52 113.669 1464.2 116.885 1458.67 119.205C1453.13 121.524 1446.77 122.683 1439.59 122.683C1429.04 122.683 1420.55 120.476 1414.12 116.062C1407.68 111.611 1403.85 105.421 1402.61 97.4908L1422.42 95.5831C1423.32 99.4732 1425.23 102.41 1428.14 104.392C1431.06 106.375 1434.86 107.366 1439.53 107.366C1444.36 107.366 1448.23 106.375 1451.15 104.392C1454.1 102.41 1455.58 99.9595 1455.58 97.0419C1455.58 94.5732 1454.63 92.5346 1452.72 90.9261C1450.85 89.3177 1447.93 88.0833 1443.97 87.223L1429.27 84.1371C1421 82.4164 1414.88 79.5175 1410.92 75.4403C1406.95 71.3258 1404.99 66.1264 1405.03 59.8423C1404.99 54.5308 1406.43 49.9299 1409.35 46.0398C1412.3 42.1122 1416.4 39.0824 1421.64 36.9503C1426.91 34.7808 1432.99 33.696 1439.87 33.696C1449.97 33.696 1457.92 35.8468 1463.72 40.1484C1469.55 44.45 1473.16 50.2666 1474.55 57.598ZM1537.18 34.8182V50.5284H1487.64V34.8182H1537.18ZM1499.87 14.1705H1520.18V95.0781C1520.18 97.8087 1520.59 99.9034 1521.41 101.362C1522.27 102.784 1523.4 103.756 1524.78 104.28C1526.16 104.804 1527.7 105.065 1529.38 105.065C1530.65 105.065 1531.81 104.972 1532.86 104.785C1533.94 104.598 1534.77 104.429 1535.33 104.28L1538.75 120.158C1537.67 120.532 1536.11 120.944 1534.09 121.393C1532.11 121.842 1529.68 122.103 1526.8 122.178C1521.71 122.328 1517.13 121.561 1513.05 119.878C1508.98 118.157 1505.74 115.501 1503.35 111.911C1500.99 108.32 1499.83 103.831 1499.87 98.4446V14.1705ZM1579.97 122.739C1574.51 122.739 1569.59 121.767 1565.21 119.822C1560.87 117.839 1557.43 114.922 1554.89 111.069C1552.38 107.216 1551.13 102.466 1551.13 96.8175C1551.13 91.9548 1552.02 87.9337 1553.82 84.7543C1555.62 81.5748 1558.07 79.0312 1561.17 77.1236C1564.27 75.2159 1567.77 73.7758 1571.66 72.8033C1575.59 71.7933 1579.65 71.0639 1583.84 70.6151C1588.89 70.0914 1592.98 69.6238 1596.13 69.2124C1599.27 68.7635 1601.55 68.0902 1602.97 67.1925C1604.43 66.2573 1605.16 64.8172 1605.16 62.8722V62.5355C1605.16 58.3087 1603.91 55.0357 1601.4 52.7166C1598.89 50.3975 1595.28 49.2379 1590.57 49.2379C1585.6 49.2379 1581.65 50.3227 1578.73 52.4922C1575.85 54.6617 1573.91 57.224 1572.9 60.179L1553.93 57.4858C1555.43 52.2491 1557.9 47.8726 1561.34 44.3565C1564.78 40.803 1568.99 38.1472 1573.96 36.3892C1578.94 34.5938 1584.44 33.696 1590.46 33.696C1594.61 33.696 1598.74 34.1823 1602.86 35.1548C1606.97 36.1274 1610.73 37.7358 1614.14 39.9801C1617.54 42.187 1620.27 45.1982 1622.33 49.0135C1624.42 52.8288 1625.47 57.598 1625.47 63.321V121H1605.94V109.161H1605.27C1604.04 111.555 1602.3 113.799 1600.05 115.894C1597.85 117.951 1595.06 119.616 1591.69 120.888C1588.36 122.122 1584.45 122.739 1579.97 122.739ZM1585.24 107.815C1589.32 107.815 1592.85 107.01 1595.84 105.402C1598.84 103.756 1601.14 101.587 1602.75 98.8935C1604.39 96.2003 1605.21 93.264 1605.21 90.0845V79.929C1604.58 80.4527 1603.49 80.9389 1601.96 81.3878C1600.46 81.8366 1598.78 82.2294 1596.91 82.5661C1595.04 82.9027 1593.19 83.2019 1591.36 83.4638C1589.52 83.7256 1587.93 83.95 1586.59 84.1371C1583.56 84.5485 1580.85 85.2218 1578.45 86.157C1576.06 87.0921 1574.17 88.4013 1572.78 90.0845C1571.4 91.7303 1570.71 93.8625 1570.71 96.4808C1570.71 100.221 1572.07 103.045 1574.8 104.953C1577.53 106.861 1581.01 107.815 1585.24 107.815ZM1684.49 122.683C1675.88 122.683 1668.49 120.794 1662.32 117.016C1656.19 113.238 1651.46 108.02 1648.13 101.362C1644.84 94.6667 1643.19 86.9612 1643.19 78.2457C1643.19 69.4929 1644.87 61.7687 1648.24 55.0732C1651.61 48.3402 1656.36 43.1035 1662.49 39.3629C1668.66 35.585 1675.96 33.696 1684.37 33.696C1691.37 33.696 1697.56 34.9865 1702.94 37.5675C1708.37 40.111 1712.69 43.7206 1715.91 48.3963C1719.12 53.0346 1720.96 58.4583 1721.4 64.6676H1701.99C1701.21 60.5156 1699.34 57.0556 1696.38 54.2876C1693.46 51.4822 1689.55 50.0795 1684.65 50.0795C1680.5 50.0795 1676.85 51.2017 1673.71 53.446C1670.57 55.6529 1668.12 58.8324 1666.36 62.9844C1664.64 67.1364 1663.78 72.1113 1663.78 77.9091C1663.78 83.7817 1664.64 88.8314 1666.36 93.0582C1668.08 97.2476 1670.5 100.483 1673.6 102.765C1676.74 105.009 1680.43 106.131 1684.65 106.131C1687.65 106.131 1690.32 105.57 1692.68 104.448C1695.07 103.289 1697.07 101.624 1698.68 99.4545C1700.29 97.285 1701.39 94.648 1701.99 91.5433H1721.4C1720.92 97.6404 1719.12 103.045 1716.02 107.759C1712.91 112.434 1708.69 116.1 1703.34 118.756C1697.99 121.374 1691.7 122.683 1684.49 122.683ZM1757.6 93.956L1757.54 69.4368H1760.8L1791.77 34.8182H1815.5L1777.4 77.2358H1773.2L1757.6 93.956ZM1739.08 121V6.09091H1759.39V121H1739.08ZM1793.17 121L1765.12 81.7805L1778.81 67.473L1817.47 121H1793.17ZM336.983 391.683C328.38 391.683 320.993 389.794 314.821 386.016C308.686 382.238 303.955 377.02 300.626 370.362C297.334 363.667 295.688 355.961 295.688 347.246C295.688 338.493 297.371 330.769 300.738 324.073C304.104 317.34 308.855 312.103 314.989 308.363C321.161 304.585 328.455 302.696 336.871 302.696C343.866 302.696 350.057 303.987 355.443 306.567C360.867 309.111 365.187 312.721 368.404 317.396C371.621 322.035 373.454 327.458 373.903 333.668H354.489C353.704 329.516 351.833 326.056 348.878 323.288C345.961 320.482 342.052 319.08 337.152 319.08C333 319.08 329.353 320.202 326.211 322.446C323.069 324.653 320.619 327.832 318.861 331.984C317.14 336.136 316.28 341.111 316.28 346.909C316.28 352.782 317.14 357.831 318.861 362.058C320.581 366.248 322.994 369.483 326.099 371.765C329.241 374.009 332.925 375.131 337.152 375.131C340.144 375.131 342.819 374.57 345.175 373.448C347.569 372.289 349.57 370.624 351.179 368.455C352.787 366.285 353.891 363.648 354.489 360.543H373.903C373.416 366.64 371.621 372.045 368.516 376.759C365.412 381.434 361.185 385.1 355.836 387.756C350.487 390.374 344.203 391.683 336.983 391.683ZM429.173 391.683C420.757 391.683 413.463 389.832 407.291 386.129C401.119 382.425 396.331 377.245 392.927 370.587C389.561 363.929 387.877 356.148 387.877 347.246C387.877 338.343 389.561 330.544 392.927 323.849C396.331 317.153 401.119 311.954 407.291 308.251C413.463 304.548 420.757 302.696 429.173 302.696C437.589 302.696 444.883 304.548 451.055 308.251C457.227 311.954 461.996 317.153 465.363 323.849C468.766 330.544 470.468 338.343 470.468 347.246C470.468 356.148 468.766 363.929 465.363 370.587C461.996 377.245 457.227 382.425 451.055 386.129C444.883 389.832 437.589 391.683 429.173 391.683ZM429.285 375.412C433.849 375.412 437.664 374.159 440.731 371.653C443.798 369.109 446.08 365.705 447.576 361.441C449.11 357.177 449.877 352.426 449.877 347.19C449.877 341.915 449.11 337.146 447.576 332.882C446.08 328.58 443.798 325.158 440.731 322.614C437.664 320.071 433.849 318.799 429.285 318.799C424.609 318.799 420.719 320.071 417.615 322.614C414.547 325.158 412.247 328.58 410.713 332.882C409.217 337.146 408.469 341.915 408.469 347.19C408.469 352.426 409.217 357.177 410.713 361.441C412.247 365.705 414.547 369.109 417.615 371.653C420.719 374.159 424.609 375.412 429.285 375.412ZM488.708 390V303.818H508.121V318.462H509.131C510.926 313.525 513.9 309.672 518.052 306.904C522.204 304.099 527.16 302.696 532.921 302.696C538.756 302.696 543.675 304.117 547.677 306.96C551.717 309.766 554.56 313.6 556.205 318.462H557.103C559.011 313.674 562.228 309.859 566.754 307.016C571.317 304.136 576.722 302.696 582.969 302.696C590.899 302.696 597.37 305.202 602.382 310.214C607.395 315.227 609.901 322.54 609.901 332.153V390H589.534V335.295C589.534 329.946 588.112 326.037 585.269 323.568C582.427 321.062 578.948 319.809 574.833 319.809C569.933 319.809 566.099 321.343 563.331 324.41C560.601 327.44 559.235 331.386 559.235 336.249V390H539.317V334.453C539.317 330.002 537.97 326.448 535.277 323.793C532.621 321.137 529.143 319.809 524.841 319.809C521.923 319.809 519.268 320.557 516.874 322.053C514.48 323.512 512.572 325.588 511.151 328.281C509.729 330.937 509.019 334.042 509.019 337.595V390H488.708ZM631.506 422.318V303.818H651.481V318.07H652.659C653.706 315.975 655.184 313.749 657.092 311.393C658.999 308.999 661.58 306.96 664.835 305.277C668.089 303.556 672.241 302.696 677.29 302.696C683.949 302.696 689.952 304.398 695.301 307.802C700.688 311.168 704.952 316.162 708.094 322.783C711.273 329.366 712.863 337.446 712.863 347.021C712.863 356.485 711.311 364.527 708.206 371.148C705.101 377.768 700.875 382.818 695.526 386.297C690.177 389.776 684.117 391.515 677.347 391.515C672.409 391.515 668.313 390.692 665.059 389.046C661.805 387.4 659.186 385.418 657.204 383.099C655.259 380.742 653.744 378.517 652.659 376.422H651.817V422.318H631.506ZM651.425 346.909C651.425 352.482 652.21 357.364 653.781 361.553C655.39 365.743 657.69 369.016 660.683 371.372C663.712 373.691 667.378 374.851 671.68 374.851C676.168 374.851 679.928 373.654 682.957 371.26C685.987 368.829 688.269 365.518 689.803 361.329C691.374 357.102 692.159 352.295 692.159 346.909C692.159 341.56 691.392 336.81 689.859 332.658C688.325 328.506 686.043 325.251 683.013 322.895C679.984 320.538 676.206 319.36 671.68 319.36C667.341 319.36 663.656 320.501 660.626 322.783C657.597 325.064 655.296 328.263 653.725 332.377C652.192 336.492 651.425 341.336 651.425 346.909ZM768.849 391.683C760.433 391.683 753.138 389.832 746.967 386.129C740.795 382.425 736.007 377.245 732.603 370.587C729.237 363.929 727.553 356.148 727.553 347.246C727.553 338.343 729.237 330.544 732.603 323.849C736.007 317.153 740.795 311.954 746.967 308.251C753.138 304.548 760.433 302.696 768.849 302.696C777.265 302.696 784.559 304.548 790.731 308.251C796.903 311.954 801.672 317.153 805.038 323.849C808.442 330.544 810.144 338.343 810.144 347.246C810.144 356.148 808.442 363.929 805.038 370.587C801.672 377.245 796.903 382.425 790.731 386.129C784.559 389.832 777.265 391.683 768.849 391.683ZM768.961 375.412C773.524 375.412 777.34 374.159 780.407 371.653C783.474 369.109 785.756 365.705 787.252 361.441C788.786 357.177 789.553 352.426 789.553 347.19C789.553 341.915 788.786 337.146 787.252 332.882C785.756 328.58 783.474 325.158 780.407 322.614C777.34 320.071 773.524 318.799 768.961 318.799C764.285 318.799 760.395 320.071 757.29 322.614C754.223 325.158 751.923 328.58 750.389 332.882C748.893 337.146 748.145 341.915 748.145 347.19C748.145 352.426 748.893 357.177 750.389 361.441C751.923 365.705 754.223 369.109 757.29 371.653C760.395 374.159 764.285 375.412 768.961 375.412ZM896.498 326.598L877.983 328.618C877.459 326.748 876.543 324.99 875.233 323.344C873.962 321.698 872.241 320.37 870.072 319.36C867.902 318.35 865.246 317.845 862.104 317.845C857.877 317.845 854.324 318.762 851.444 320.594C848.601 322.427 847.198 324.803 847.236 327.72C847.198 330.226 848.115 332.265 849.985 333.836C851.893 335.407 855.035 336.697 859.411 337.707L874.111 340.849C882.266 342.607 888.325 345.394 892.29 349.21C896.293 353.025 898.313 358.018 898.35 364.19C898.313 369.614 896.723 374.402 893.581 378.554C890.476 382.669 886.156 385.885 880.62 388.205C875.084 390.524 868.725 391.683 861.543 391.683C850.995 391.683 842.504 389.476 836.07 385.062C829.636 380.611 825.802 374.421 824.568 366.491L844.374 364.583C845.272 368.473 847.18 371.41 850.097 373.392C853.015 375.375 856.811 376.366 861.487 376.366C866.312 376.366 870.184 375.375 873.101 373.392C876.056 371.41 877.534 368.96 877.534 366.042C877.534 363.573 876.58 361.535 874.672 359.926C872.802 358.318 869.885 357.083 865.92 356.223L851.219 353.137C842.953 351.416 836.837 348.518 832.872 344.44C828.907 340.326 826.943 335.126 826.981 328.842C826.943 323.531 828.383 318.93 831.301 315.04C834.256 311.112 838.352 308.082 843.589 305.95C848.863 303.781 854.941 302.696 861.824 302.696C871.923 302.696 879.872 304.847 885.67 309.148C891.505 313.45 895.114 319.267 896.498 326.598ZM940.898 391.739C935.437 391.739 930.518 390.767 926.142 388.822C921.802 386.839 918.361 383.922 915.818 380.069C913.311 376.216 912.058 371.466 912.058 365.817C912.058 360.955 912.956 356.934 914.752 353.754C916.547 350.575 918.997 348.031 922.102 346.124C925.206 344.216 928.704 342.776 932.594 341.803C936.521 340.793 940.58 340.064 944.769 339.615C949.819 339.091 953.915 338.624 957.057 338.212C960.199 337.763 962.481 337.09 963.902 336.192C965.361 335.257 966.09 333.817 966.09 331.872V331.536C966.09 327.309 964.837 324.036 962.331 321.717C959.825 319.397 956.215 318.238 951.502 318.238C946.527 318.238 942.581 319.323 939.664 321.492C936.783 323.662 934.838 326.224 933.828 329.179L914.864 326.486C916.36 321.249 918.829 316.873 922.27 313.357C925.711 309.803 929.919 307.147 934.894 305.389C939.869 303.594 945.368 302.696 951.39 302.696C955.542 302.696 959.675 303.182 963.79 304.155C967.905 305.127 971.664 306.736 975.068 308.98C978.472 311.187 981.202 314.198 983.259 318.013C985.354 321.829 986.401 326.598 986.401 332.321V390H966.876V378.161H966.203C964.968 380.555 963.229 382.799 960.985 384.894C958.778 386.951 955.991 388.616 952.624 389.888C949.295 391.122 945.387 391.739 940.898 391.739ZM946.172 376.815C950.249 376.815 953.784 376.01 956.776 374.402C959.769 372.756 962.069 370.587 963.678 367.893C965.324 365.2 966.146 362.264 966.146 359.085V348.929C965.511 349.453 964.426 349.939 962.892 350.388C961.396 350.837 959.713 351.229 957.843 351.566C955.972 351.903 954.121 352.202 952.288 352.464C950.455 352.726 948.865 352.95 947.519 353.137C944.489 353.549 941.777 354.222 939.383 355.157C936.989 356.092 935.1 357.401 933.716 359.085C932.332 360.73 931.64 362.862 931.64 365.481C931.64 369.221 933.005 372.045 935.736 373.953C938.467 375.861 941.945 376.815 946.172 376.815ZM1008.72 390V275.091H1029.03V318.07H1029.88C1030.92 315.975 1032.4 313.749 1034.31 311.393C1036.22 308.999 1038.8 306.96 1042.05 305.277C1045.3 303.556 1049.46 302.696 1054.51 302.696C1061.16 302.696 1067.17 304.398 1072.52 307.802C1077.9 311.168 1082.17 316.162 1085.31 322.783C1088.49 329.366 1090.08 337.446 1090.08 347.021C1090.08 356.485 1088.53 364.527 1085.42 371.148C1082.32 377.768 1078.09 382.818 1072.74 386.297C1067.39 389.776 1061.33 391.515 1054.56 391.515C1049.63 391.515 1045.53 390.692 1042.28 389.046C1039.02 387.4 1036.4 385.418 1034.42 383.099C1032.47 380.742 1030.96 378.517 1029.88 376.422H1028.7V390H1008.72ZM1028.64 346.909C1028.64 352.482 1029.43 357.364 1031 361.553C1032.61 365.743 1034.91 369.016 1037.9 371.372C1040.93 373.691 1044.59 374.851 1048.9 374.851C1053.38 374.851 1057.14 373.654 1060.17 371.26C1063.2 368.829 1065.49 365.518 1067.02 361.329C1068.59 357.102 1069.38 352.295 1069.38 346.909C1069.38 341.56 1068.61 336.81 1067.07 332.658C1065.54 328.506 1063.26 325.251 1060.23 322.895C1057.2 320.538 1053.42 319.36 1048.9 319.36C1044.56 319.36 1040.87 320.501 1037.84 322.783C1034.81 325.064 1032.51 328.263 1030.94 332.377C1029.41 336.492 1028.64 341.336 1028.64 346.909ZM1128.66 275.091V390H1108.35V275.091H1128.66ZM1188.7 391.683C1180.06 391.683 1172.59 389.888 1166.31 386.297C1160.06 382.669 1155.26 377.544 1151.89 370.923C1148.52 364.265 1146.84 356.429 1146.84 347.414C1146.84 338.549 1148.52 330.769 1151.89 324.073C1155.29 317.34 1160.04 312.103 1166.14 308.363C1172.24 304.585 1179.4 302.696 1187.63 302.696C1192.94 302.696 1197.95 303.556 1202.67 305.277C1207.42 306.96 1211.61 309.579 1215.24 313.132C1218.9 316.686 1221.78 321.212 1223.88 326.71C1225.97 332.171 1227.02 338.68 1227.02 346.236V352.464H1156.38V338.773H1207.55C1207.51 334.883 1206.67 331.423 1205.02 328.393C1203.38 325.326 1201.08 322.914 1198.12 321.156C1195.21 319.397 1191.8 318.518 1187.91 318.518C1183.76 318.518 1180.11 319.528 1176.97 321.548C1173.83 323.531 1171.38 326.149 1169.62 329.403C1167.9 332.62 1167.02 336.155 1166.98 340.008V351.959C1166.98 356.971 1167.9 361.273 1169.73 364.864C1171.57 368.417 1174.13 371.148 1177.42 373.055C1180.71 374.926 1184.56 375.861 1188.98 375.861C1191.93 375.861 1194.61 375.449 1197 374.626C1199.39 373.766 1201.47 372.513 1203.23 370.867C1204.99 369.221 1206.31 367.183 1207.21 364.751L1226.18 366.884C1224.98 371.896 1222.7 376.272 1219.33 380.013C1216 383.716 1211.74 386.596 1206.54 388.653C1201.34 390.673 1195.39 391.683 1188.7 391.683ZM1301.05 390H1278.83L1319.28 275.091H1344.98L1385.49 390H1363.27L1332.58 298.656H1331.68L1301.05 390ZM1301.78 344.945H1362.37V361.665H1301.78V344.945ZM1401.62 390V275.091H1444.72C1453.54 275.091 1460.95 276.737 1466.93 280.028C1472.96 283.32 1477.5 287.846 1480.57 293.607C1483.67 299.33 1485.23 305.838 1485.23 313.132C1485.23 320.501 1483.67 327.047 1480.57 332.77C1477.46 338.493 1472.88 343 1466.82 346.292C1460.76 349.546 1453.3 351.173 1444.44 351.173H1415.88V334.06H1441.63C1446.79 334.06 1451.02 333.163 1454.31 331.367C1457.6 329.572 1460.03 327.103 1461.6 323.961C1463.21 320.819 1464.02 317.209 1464.02 313.132C1464.02 309.055 1463.21 305.464 1461.6 302.359C1460.03 299.255 1457.58 296.842 1454.25 295.121C1450.96 293.363 1446.72 292.484 1441.52 292.484H1422.44V390H1401.62ZM1525.12 275.091V390H1504.31V275.091H1525.12ZM1615.88 326.598L1597.37 328.618C1596.84 326.748 1595.93 324.99 1594.62 323.344C1593.34 321.698 1591.62 320.37 1589.45 319.36C1587.28 318.35 1584.63 317.845 1581.49 317.845C1577.26 317.845 1573.71 318.762 1570.83 320.594C1567.98 322.427 1566.58 324.803 1566.62 327.72C1566.58 330.226 1567.5 332.265 1569.37 333.836C1571.28 335.407 1574.42 336.697 1578.79 337.707L1593.49 340.849C1601.65 342.607 1607.71 345.394 1611.67 349.21C1615.68 353.025 1617.7 358.018 1617.73 364.19C1617.7 369.614 1616.11 374.402 1612.96 378.554C1609.86 382.669 1605.54 385.885 1600 388.205C1594.47 390.524 1588.11 391.683 1580.93 391.683C1570.38 391.683 1561.89 389.476 1555.45 385.062C1549.02 380.611 1545.19 374.421 1543.95 366.491L1563.76 364.583C1564.65 368.473 1566.56 371.41 1569.48 373.392C1572.4 375.375 1576.19 376.366 1580.87 376.366C1585.7 376.366 1589.57 375.375 1592.48 373.392C1595.44 371.41 1596.92 368.96 1596.92 366.042C1596.92 363.573 1595.96 361.535 1594.06 359.926C1592.18 358.318 1589.27 357.083 1585.3 356.223L1570.6 353.137C1562.34 351.416 1556.22 348.518 1552.25 344.44C1548.29 340.326 1546.33 335.126 1546.36 328.842C1546.33 323.531 1547.77 318.93 1550.68 315.04C1553.64 311.112 1557.73 308.082 1562.97 305.95C1568.25 303.781 1574.32 302.696 1581.21 302.696C1591.31 302.696 1599.25 304.847 1605.05 309.148C1610.89 313.45 1614.5 319.267 1615.88 326.598Z" fill="white"/>
</g>
<defs>
<clipPath id="clip0_2297_6299">
<rect width="1913" height="427" fill="white"/>
</clipPath>
</defs>
</svg>
