<svg xmlns="http://www.w3.org/2000/svg" width="56" height="63" viewBox="0 0 56 63" fill="none">
  <path d="M27.6605 23.1162C14.3571 23.1162 0 26.6067 0 34.378V51.2377C0 59.009 14.3571 62.4994 27.6605 62.4994C40.9638 62.4994 55.3209 58.9431 55.3209 51.2377V34.378C55.3209 26.6067 40.9638 23.1162 27.6605 23.1162ZM27.6605 28.78C42.0834 28.78 49.6571 32.9291 49.6571 34.378C49.6571 35.8269 42.0834 39.9759 27.6605 39.9759C13.2375 39.9759 5.66381 35.8269 5.66381 34.378C5.66381 32.9291 13.2375 28.78 27.6605 28.78Z" fill="#868D94"/>
  <path d="M27.66 16.2011C29.2406 16.2011 30.4919 14.9498 30.4919 13.3692V2.8319C30.4919 1.25131 29.2406 0 27.66 0C26.0794 0 24.8281 1.25131 24.8281 2.8319V13.3692C24.8281 14.884 26.0794 16.2011 27.66 16.2011Z" fill="#868D94"/>
  <path d="M12.5788 16.8607C13.0398 17.9802 14.0935 18.6388 15.2131 18.6388C15.6083 18.6388 15.9376 18.573 16.3327 18.4413C17.7816 17.8485 18.4402 16.2021 17.8474 14.7532L13.8301 4.87446C13.2374 3.42557 11.5909 2.76699 10.142 3.35972C8.69315 3.95244 8.03457 5.5989 8.62729 7.04778L12.5788 16.8607Z" fill="#868D94"/>
  <path d="M38.9877 18.4399C39.317 18.5716 39.7122 18.6375 40.0415 18.6375C41.1611 18.6375 42.2148 17.9789 42.6758 16.8593L46.759 7.17813C47.3517 5.72925 46.6931 4.08279 45.2443 3.49007C43.7954 2.83149 42.0831 3.55593 41.4903 5.00481L37.473 14.7518C36.8803 16.2007 37.5389 17.8472 38.9877 18.4399Z" fill="#868D94"/>
</svg>