<svg width="18" height="19" viewBox="0 0 18 19" fill="none" xmlns="http://www.w3.org/2000/svg">
<g id="pause-circle-svgrepo-com">
<path id="Vector" fill-rule="evenodd" clip-rule="evenodd" d="M8.99902 17C13.1411 17 16.499 13.6421 16.499 9.5C16.499 5.35786 13.1411 2 8.99902 2C4.85689 2 1.49902 5.35786 1.49902 9.5C1.49902 13.6421 4.85689 17 8.99902 17ZM6.05611 6.96299C5.99902 7.10082 5.99902 7.27554 5.99902 7.625V11.375C5.99902 11.7244 5.99902 11.8992 6.05611 12.037C6.13223 12.2208 6.27824 12.3668 6.46201 12.4429C6.59984 12.5 6.77457 12.5 7.12402 12.5C7.47348 12.5 7.6482 12.5 7.78605 12.4429C7.9698 12.3668 8.11582 12.2208 8.19195 12.037C8.24902 11.8992 8.24902 11.7244 8.24902 11.375V7.625C8.24902 7.27554 8.24902 7.10082 8.19195 6.96299C8.11582 6.77922 7.9698 6.63321 7.78605 6.55709C7.6482 6.5 7.47348 6.5 7.12402 6.5C6.77457 6.5 6.59984 6.5 6.46201 6.55709C6.27824 6.63321 6.13223 6.77922 6.05611 6.96299ZM9.8061 6.96299C9.74902 7.10082 9.74902 7.27554 9.74902 7.625V11.375C9.74902 11.7244 9.74902 11.8992 9.8061 12.037C9.88222 12.2208 10.0282 12.3668 10.212 12.4429C10.3498 12.5 10.5246 12.5 10.874 12.5C11.2234 12.5 11.3982 12.5 11.536 12.4429C11.7198 12.3668 11.8658 12.2208 11.9419 12.037C11.999 11.8992 11.999 11.7244 11.999 11.375V7.625C11.999 7.27554 11.999 7.10082 11.9419 6.96299C11.8658 6.77922 11.7198 6.63321 11.536 6.55709C11.3982 6.5 11.2234 6.5 10.874 6.5C10.5246 6.5 10.3498 6.5 10.212 6.55709C10.0282 6.63321 9.88222 6.77922 9.8061 6.96299Z" fill="#8B8EA0"/>
</g>
</svg>
