<svg width="40" height="30" viewBox="0 0 40 30" fill="none" xmlns="http://www.w3.org/2000/svg">
<g filter="url(#filter0_b_4522_2641)">
<rect width="40" height="30" rx="15" fill="url(#paint0_linear_4522_2641)" fill-opacity="0.3"/>
</g>
<path fill-rule="evenodd" clip-rule="evenodd" d="M13.2087 9.63281C11.4366 9.63281 10 11.0694 10 12.8416V17.0907C10 18.8629 11.4366 20.2995 13.2087 20.2995H26.7913C28.5634 20.2995 30 18.8629 30 17.0907V12.8416C30 11.0694 28.5634 9.63281 26.7913 9.63281H13.2087ZM15.0799 13.1711C15.2523 13.298 15.3498 13.476 15.3725 13.7052H16.5515C16.5458 13.3586 16.453 13.0537 16.2731 12.7904C16.0932 12.5272 15.8413 12.3217 15.5174 12.174C15.1955 12.0262 14.8186 11.9524 14.3867 11.9524C13.9625 11.9524 13.5837 12.0262 13.2504 12.174C12.9171 12.3217 12.6547 12.5272 12.4635 12.7904C12.2741 13.0537 12.1803 13.3615 12.1822 13.7137C12.1803 14.1437 12.3214 14.4855 12.6055 14.7393C12.8896 14.9931 13.2769 15.1796 13.7674 15.299L14.401 15.4581C14.6131 15.5092 14.7921 15.566 14.9379 15.6285C15.0856 15.691 15.1974 15.7668 15.2731 15.8558C15.3508 15.9448 15.3896 16.0546 15.3896 16.1853C15.3896 16.3255 15.347 16.4495 15.2617 16.5575C15.1765 16.6654 15.0563 16.7497 14.901 16.8103C14.7475 16.8709 14.5667 16.9012 14.3583 16.9012C14.1462 16.9012 13.9559 16.869 13.7873 16.8046C13.6207 16.7384 13.4871 16.6408 13.3867 16.512C13.2883 16.3813 13.2324 16.2185 13.2191 16.0234H12.0288C12.0383 16.442 12.1396 16.7933 12.3328 17.0774C12.5278 17.3596 12.7987 17.5726 13.1453 17.7166C13.4938 17.8605 13.9028 17.9325 14.3725 17.9325C14.846 17.9325 15.2504 17.8615 15.5856 17.7194C15.9227 17.5755 16.1803 17.3738 16.3583 17.1143C16.5383 16.8529 16.6292 16.5442 16.6311 16.1882C16.6292 15.9457 16.5847 15.7308 16.4975 15.5433C16.4123 15.3558 16.2921 15.1929 16.1367 15.0546C15.9814 14.9164 15.7977 14.7999 15.5856 14.7052C15.3735 14.6105 15.1405 14.5348 14.8867 14.4779L14.364 14.3529C14.2371 14.3245 14.1178 14.2904 14.0061 14.2507C13.8943 14.209 13.7958 14.1607 13.7106 14.1058C13.6254 14.049 13.5582 13.9817 13.5089 13.9041C13.4616 13.8264 13.4398 13.7355 13.4436 13.6313C13.4436 13.5063 13.4796 13.3946 13.5515 13.2961C13.6254 13.1976 13.7314 13.1209 13.8697 13.066C14.008 13.0092 14.1775 12.9808 14.3782 12.9808C14.6737 12.9808 14.9076 13.0442 15.0799 13.1711ZM17.7918 17.8501H19.8543C20.4452 17.8501 20.9528 17.7336 21.377 17.5007C21.8032 17.2677 22.1299 16.9334 22.3572 16.4978C22.5863 16.0622 22.7009 15.5414 22.7009 14.9353C22.7009 14.3312 22.5863 13.8122 22.3572 13.3785C22.1299 12.9448 21.8051 12.6124 21.3827 12.3813C20.9604 12.1484 20.4566 12.0319 19.8714 12.0319H17.7918V17.8501ZM19.8032 16.7961H19.0219V13.0859H19.806C20.1697 13.0859 20.4755 13.1503 20.7236 13.2791C20.9717 13.4079 21.1583 13.6086 21.2833 13.8813C21.4102 14.1541 21.4736 14.5054 21.4736 14.9353C21.4736 15.369 21.4102 15.7232 21.2833 15.9978C21.1583 16.2706 20.9708 16.4723 20.7208 16.6029C20.4727 16.7317 20.1668 16.7961 19.8032 16.7961ZM23.9455 12.0319V17.8501H25.1756V16.1967L25.7807 15.4581L27.3744 17.8501H28.846L26.6614 14.637L28.8205 12.0319H27.346L25.2523 14.5973H25.1756V12.0319H23.9455Z" fill="white"/>
<defs>
<filter id="filter0_b_4522_2641" x="-66.631" y="-66.631" width="173.262" height="163.262" filterUnits="userSpaceOnUse" color-interpolation-filters="sRGB">
<feFlood flood-opacity="0" result="BackgroundImageFix"/>
<feGaussianBlur in="BackgroundImageFix" stdDeviation="33.3155"/>
<feComposite in2="SourceAlpha" operator="in" result="effect1_backgroundBlur_4522_2641"/>
<feBlend mode="normal" in="SourceGraphic" in2="effect1_backgroundBlur_4522_2641" result="shape"/>
</filter>
<linearGradient id="paint0_linear_4522_2641" x1="-4.15556" y1="-2.31818" x2="49.8813" y2="26.0442" gradientUnits="userSpaceOnUse">
<stop offset="0.00554471" stop-color="white" stop-opacity="0.4"/>
<stop offset="1" stop-color="white" stop-opacity="0.01"/>
</linearGradient>
</defs>
</svg>
