<svg xmlns="http://www.w3.org/2000/svg" width="16" height="17" viewBox="0 0 16 17" fill="none">
  <path fill-rule="evenodd" clip-rule="evenodd" d="M9.20167 4.05816C9.20167 2.83086 10.2011 1.83594 11.434 1.83594C12.6669 1.83594 13.6663 2.83086 13.6663 4.05816C13.6663 5.28546 12.6669 6.28038 11.434 6.28038C10.8115 6.28038 10.2489 6.02658 9.84441 5.61825L6.75414 7.72227C6.78267 7.86427 6.79767 8.01094 6.79767 8.16074C6.79767 8.4574 6.73901 8.741 6.63273 9.0002L10.0212 11.2265C10.4058 10.9133 10.8979 10.7248 11.434 10.7248C12.6669 10.7248 13.6663 11.7197 13.6663 12.9471C13.6663 14.1743 12.6669 15.1693 11.434 15.1693C10.2011 15.1693 9.20167 14.1743 9.20167 12.9471C9.20167 12.6256 9.27047 12.3196 9.39414 12.0433L6.03305 9.83507C5.64098 10.1758 5.12741 10.3829 4.56533 10.3829C3.33245 10.3829 2.33301 9.388 2.33301 8.16074C2.33301 6.93342 3.33245 5.9385 4.56533 5.9385C5.27427 5.9385 5.90536 6.26744 6.31397 6.77939L9.30894 4.74022C9.23927 4.525 9.20167 4.29567 9.20167 4.05816Z" fill="white"/>
</svg>