<svg xmlns="http://www.w3.org/2000/svg" width="17" height="20" viewBox="0 0 17 20" fill="none">
  <path d="M2.89341 4.37547C2.01341 5.35172 2.09591 6.16297 2.31591 7.34547C2.39841 7.75797 2.70091 8.36297 3.07216 8.96797L7.95341 0.855469C7.95341 0.855469 4.00716 3.60547 2.89341 4.37547Z" fill="white"/>
  <path d="M0.817438 7.63297C0.776187 7.39922 0.734938 7.16547 0.707438 6.91797C0.0336876 8.18297 -0.158813 10.0667 0.129937 11.5517C0.487437 13.353 1.39494 14.4805 2.27494 15.223C2.78369 15.6492 7.96744 19.293 7.96744 19.293C7.96744 19.293 1.10619 9.10422 0.817438 7.63297Z" fill="white"/>
  <path d="M13.5913 15.7741C14.4713 14.7979 14.3888 13.9866 14.1688 12.8041C14.0863 12.3916 13.7838 11.7866 13.4125 11.1816L8.53125 19.2941C8.53125 19.2941 12.4775 16.5441 13.5913 15.7741Z" fill="white"/>
  <path d="M15.6676 12.5155C15.7088 12.7492 15.7501 12.983 15.7776 13.2305C16.4513 11.9655 16.6438 10.0817 16.3551 8.59672C15.9976 6.79547 15.0901 5.66797 14.2101 4.92547C13.7013 4.49922 8.51758 0.855469 8.51758 0.855469C8.51758 0.855469 15.3788 11.0442 15.6676 12.5155Z" fill="white"/>
</svg>