<svg xmlns="http://www.w3.org/2000/svg" width="18" height="19" viewBox="0 0 18 19" fill="none">
  <path fill-rule="evenodd" clip-rule="evenodd" d="M9.02143 17.1483C9.27771 16.3803 9.88029 15.7777 10.6474 15.5223L12 15.0714L10.6474 14.6214C9.88029 14.3651 9.27771 13.7626 9.02143 12.9946L8.57143 11.6429L8.12057 12.9946C7.86429 13.7626 7.26171 14.3651 6.49457 14.6214L5.14286 15.0714L6.49457 15.5223C7.26171 15.7777 7.86429 16.3803 8.12057 17.1483L8.57143 18.5L9.02143 17.1483ZM3.87857 12.0054C4.13486 11.2374 4.73743 10.6349 5.50457 10.3794L6.85714 9.92857L5.50457 9.47857C4.73743 9.22229 4.13486 8.61971 3.87857 7.85171L3.42857 6.5L2.97771 7.85171C2.72143 8.61971 2.11886 9.22229 1.35171 9.47857L0 9.92857L1.35171 10.3794C2.11886 10.6349 2.72143 11.2374 2.97771 12.0054L3.42857 13.3571L3.87857 12.0054ZM12 12.5L11.1326 9.89771C10.734 8.70286 9.79629 7.766 8.60229 7.36743L6 6.5L8.60229 5.63257C9.79629 5.23486 10.734 4.29714 11.1326 3.10229L12 0.5L12.8666 3.10229C13.2651 4.29714 14.2029 5.23486 15.3969 5.63257L18 6.5L15.3969 7.36743C14.2029 7.766 13.2651 8.70286 12.8666 9.89771L12 12.5Z" fill="#FFDE2E"/>
</svg>