<svg xmlns="http://www.w3.org/2000/svg" width="16" height="16" viewBox="0 0 16 16" fill="none">
  <g clip-path="url(#clip0_4600_74760)">
    <path d="M4.51446 7.41016C5.89273 7.41016 7.01134 6.29016 7.01134 4.91016C7.01134 3.53016 5.89273 2.41016 4.51446 2.41016C3.13618 2.41016 2.01758 3.53016 2.01758 4.91016C2.01758 6.29016 3.13618 7.41016 4.51446 7.41016Z" fill="#10212E"/>
    <path d="M11.0063 8.41016C12.1049 8.41016 13.0038 7.51016 13.0038 6.41016C13.0038 5.31016 12.1049 4.41016 11.0063 4.41016C9.90767 4.41016 9.00879 5.31016 9.00879 6.41016C9.00879 7.51016 9.90767 8.41016 11.0063 8.41016Z" fill="#10212E"/>
    <path d="M15.9405 12.6404C15.7308 12.2204 15.4811 11.8304 15.2114 11.4904C14.2227 10.2204 12.8544 9.44043 11.3463 9.44043C10.5373 9.44043 9.77823 9.68043 9.0791 10.0804C9.25888 10.2704 9.42866 10.4604 9.59845 10.6804C9.92804 11.1004 10.2277 11.5704 10.4674 12.0504C10.6771 12.4804 10.7171 12.9704 10.5972 13.4204H15.6109C15.9205 13.4204 16.1003 12.9804 15.9405 12.6404Z" fill="#10212E"/>
    <path d="M8.54977 11.4797C7.56101 10.2097 6.19272 9.42969 4.6846 9.42969C2.75701 9.42969 1.03916 10.7197 0.0803583 12.6597C-0.0794419 12.9897 0.110321 13.4097 0.419934 13.4097H8.95926C9.26887 13.4097 9.44865 12.9697 9.28885 12.6297C9.07911 12.2097 8.82942 11.8197 8.55976 11.4797H8.54977Z" fill="#10212E"/>
  </g>
  <defs>
    <clipPath id="clip0_4600_74760">
      <rect width="16" height="16" fill="white"/>
    </clipPath>
  </defs>
</svg>