<svg xmlns="http://www.w3.org/2000/svg" width="19" height="20" viewBox="0 0 19 20" fill="none">
  <g clip-path="url(#clip0_4523_38325)">
    <path d="M5.36092 9.55396C6.99762 9.55396 8.32596 8.22395 8.32596 6.5852C8.32596 4.94645 6.99762 3.61646 5.36092 3.61646C3.72421 3.61646 2.39587 4.94645 2.39587 6.5852C2.39587 8.22395 3.72421 9.55396 5.36092 9.55396Z" fill="#fff"/>
    <path d="M13.07 10.7415C14.3747 10.7415 15.4421 9.67271 15.4421 8.36646C15.4421 7.06021 14.3747 5.99146 13.07 5.99146C11.7654 5.99146 10.698 7.06021 10.698 8.36646C10.698 9.67271 11.7654 10.7415 13.07 10.7415Z" fill="#fff"/>
    <path d="M18.9294 15.7646C18.6804 15.2659 18.3839 14.8027 18.0636 14.399C16.8895 12.8908 15.2646 11.9646 13.4738 11.9646C12.5131 11.9646 11.6117 12.2496 10.7815 12.7246C10.995 12.9502 11.1966 13.1759 11.3982 13.4371C11.7896 13.9359 12.1454 14.494 12.4301 15.064C12.6791 15.5746 12.7266 16.1565 12.5842 16.6909H18.538C18.9057 16.6909 19.1192 16.1684 18.9294 15.7646Z" fill="#fff"/>
    <path d="M10.1529 14.387C8.97876 12.8789 7.35391 11.9526 5.56303 11.9526C3.27401 11.9526 1.23406 13.4845 0.0954865 15.7883C-0.0942762 16.1801 0.131067 16.6789 0.498732 16.6789H10.6392C11.0068 16.6789 11.2203 16.1564 11.0306 15.7526C10.7815 15.2539 10.485 14.7908 10.1648 14.387H10.1529Z" fill="#fff"/>
  </g>
  <defs>
    <clipPath id="clip0_4523_38325">
      <rect width="19" height="19" fill="white" transform="translate(0 0.754639)"/>
    </clipPath>
  </defs>
</svg>