<svg width="30" height="30" viewBox="0 0 30 30" fill="none" xmlns="http://www.w3.org/2000/svg">
<g clip-path="url(#clip0_453_4782)">
<path d="M20.4199 9.5C22.6291 9.5 24.4199 7.70914 24.4199 5.5C24.4199 3.29086 22.6291 1.5 20.4199 1.5C18.2108 1.5 16.4199 3.29086 16.4199 5.5C16.4199 7.70914 18.2108 9.5 20.4199 9.5Z" fill="#30BDCD"/>
<path d="M19.8899 11.02C15.6399 11.3 12.4199 15.02 12.4199 19.28V23.26C12.4199 24.23 13.1999 25.01 14.1699 25.01C15.1399 25.01 15.9199 24.23 15.9199 23.26V17.51C15.9199 17.23 16.1399 17.01 16.4199 17.01C16.6999 17.01 16.9199 17.23 16.9199 17.51V28.01H23.9199V17.51C23.9199 17.23 24.1399 17.01 24.4199 17.01C24.6999 17.01 24.9199 17.23 24.9199 17.51V23.26C24.9199 24.23 25.6999 25.01 26.6699 25.01C27.6399 25.01 28.4199 24.23 28.4199 23.26V19.01C28.4199 14.42 24.5499 10.73 19.8899 11.03V11.02Z" fill="#FF1C4F"/>
<path d="M10.4199 12.5C12.6291 12.5 14.4199 10.7091 14.4199 8.5C14.4199 6.29086 12.6291 4.5 10.4199 4.5C8.21078 4.5 6.41992 6.29086 6.41992 8.5C6.41992 10.7091 8.21078 12.5 10.4199 12.5Z" fill="#30BDCD"/>
<path d="M9.88992 14.02C5.63992 14.3 2.41992 18.02 2.41992 22.28V26.26C2.41992 27.23 3.19992 28.01 4.16992 28.01C5.13992 28.01 5.91992 27.23 5.91992 26.26V20.51C5.91992 20.23 6.13992 20.01 6.41992 20.01C6.69992 20.01 6.91992 20.23 6.91992 20.51V28.01H13.9199V20.51C13.9199 20.23 14.1399 20.01 14.4199 20.01C14.6999 20.01 14.9199 20.23 14.9199 20.51V26.26C14.9199 27.23 15.6999 28.01 16.6699 28.01C17.6399 28.01 18.4199 27.23 18.4199 26.26V22.01C18.4199 17.42 14.5499 13.73 9.88992 14.03V14.02Z" fill="#92EAE5"/>
</g>
<defs>
<clipPath id="clip0_453_4782">
<rect width="30" height="30" fill="white"/>
</clipPath>
</defs>
</svg>
