<svg width="30" height="30" viewBox="0 0 30 30" fill="none" xmlns="http://www.w3.org/2000/svg">
<g clip-path="url(#clip0_453_4762)">
<path d="M5.47 6H25.19C26.19 6 27 6.81 27 7.81V11H5.47C4.11 11 3 9.89 3 8.53V8.47C3 7.11 4.11 6 5.47 6Z" fill="#9C9C9C"/>
<path fill-rule="evenodd" clip-rule="evenodd" d="M24 7.16994V14.8999C24 15.7399 23.55 16.4899 22.84 16.9099L16.89 20.3399L16.16 20.7599C15.44 21.1699 14.55 21.1699 13.85 20.7599L9.62 18.3199L7.16 16.9099C6.44 16.4999 6 15.7399 6 14.8999V7.16994C6 6.34994 6.44 5.58994 7.16 5.17994L13.85 1.30994C14.56 0.899941 15.44 0.899941 16.16 1.30994L22.85 5.17994C23.56 5.58994 24.01 6.34994 24.01 7.16994H24Z" fill="#666666"/>
<path d="M11.99 10.0299C13.1001 10.0299 14 9.12998 14 8.01989C14 6.9098 13.1001 6.00989 11.99 6.00989C10.8799 6.00989 9.97998 6.9098 9.97998 8.01989C9.97998 9.12998 10.8799 10.0299 11.99 10.0299Z" fill="#DFDFDF"/>
<path fill-rule="evenodd" clip-rule="evenodd" d="M16.89 20.34L16.16 20.76C15.44 21.17 14.55 21.17 13.85 20.76L9.62 18.32L7.16 16.91C6.44 16.5 6 15.74 6 14.9V14.04L7.5 12.54C7.92 12.1 8.64 12.1 9.08 12.54L16.88 20.34H16.89Z" fill="#9C9C9C"/>
<path d="M24.0001 14.58V14.9C24.0001 15.74 23.5501 16.49 22.8401 16.91L16.8901 20.34L16.1601 20.76C15.4401 21.17 14.5501 21.17 13.8501 20.76L9.62012 18.32L17.9001 10.05C18.3401 9.60997 19.0401 9.60997 19.4801 10.05L24.0101 14.58H24.0001Z" fill="#CFCFCF"/>
<path d="M3 8.37V8.47C3 8.47 3 8.4 3.01 8.37H3Z" fill="#D2D2D2"/>
<path d="M3 8.53003V25.12C3 26.91 4.45 28.36 6.24 28.36H23.76C25.55 28.36 27 26.91 27 25.12V11H5.47C4.11 11 3 9.89003 3 8.53003Z" fill="#ECECEC"/>
<path d="M20 16H27.57C28.35 16 28.99 16.64 28.99 17.42V20.58C28.99 21.36 28.35 22 27.57 22H20C18.34 22 17 20.66 17 19C17 17.34 18.34 16 20 16Z" fill="#666666"/>
<path d="M19.9199 20.5C20.7483 20.5 21.4199 19.8284 21.4199 19C21.4199 18.1716 20.7483 17.5 19.9199 17.5C19.0915 17.5 18.4199 18.1716 18.4199 19C18.4199 19.8284 19.0915 20.5 19.9199 20.5Z" fill="#DFDFDF"/>
<path d="M9.79989 15.9601C8.43989 16.1901 7.57989 17.0101 7.57989 18.2601C7.57989 19.7201 8.45989 20.3501 10.0799 20.5901C11.5599 20.8101 11.9499 21.0501 11.9499 21.6501C11.9499 22.1601 11.4699 22.4301 10.5899 22.4301C9.83989 22.4301 9.42989 22.2401 9.21989 21.6901C9.14989 21.5101 8.95989 21.4201 8.76989 21.4501L7.87989 21.6201C7.62989 21.6701 7.48989 21.9301 7.56989 22.1701C7.90989 23.2001 8.60989 23.7601 9.78989 23.9101V24.2501C9.78989 24.6801 10.1399 25.0201 10.5699 25.0201C10.9999 25.0201 11.3399 24.6701 11.3399 24.2501V23.9101C12.8299 23.7001 13.6999 22.8701 13.6999 21.5601C13.6999 20.0801 12.9299 19.4101 11.1599 19.1001C9.67989 18.8301 9.34989 18.6401 9.34989 18.1201C9.34989 17.6501 9.74989 17.4101 10.5299 17.4101C11.1899 17.4101 11.5699 17.6001 11.7599 18.1101C11.8199 18.2901 12.0199 18.3801 12.2099 18.3401L13.0999 18.1801C13.3299 18.1401 13.4999 17.9001 13.4299 17.6701C13.1199 16.6701 12.4499 16.1101 11.3799 15.9401V15.6001C11.3799 15.1701 11.0299 14.8101 10.5899 14.8101C10.1499 14.8101 9.79989 15.1601 9.79989 15.6001V15.9501V15.9601Z" fill="#949494"/>
</g>
<defs>
<clipPath id="clip0_453_4762">
<rect width="30" height="30" fill="white"/>
</clipPath>
</defs>
</svg>
