<svg xmlns="http://www.w3.org/2000/svg" width="20" height="20" viewBox="0 0 20 20" fill="none">
  <g clip-path="url(#clip0_4523_38335)">
    <path d="M12.6423 17.3796C15.2667 17.3796 17.3923 15.254 17.3923 12.6296C17.3923 10.0053 15.2667 7.87964 12.6423 7.87964C10.018 7.87964 7.89233 10.0053 7.89233 12.6296C7.89233 15.254 10.018 17.3796 12.6423 17.3796Z" fill="white"/>
    <path d="M12.298 6.11026C11.5973 4.36464 9.89921 3.12964 7.89233 3.12964C5.26796 3.12964 3.14233 5.25526 3.14233 7.87964C3.14233 9.87464 4.37733 11.5846 6.12296 12.2853C6.30108 8.96026 8.96108 6.28839 12.2861 6.12214L12.298 6.11026Z" fill="white"/>
  </g>
  <defs>
    <clipPath id="clip0_4523_38335">
      <rect width="19" height="19" fill="white" transform="translate(0.767334 0.754639)"/>
    </clipPath>
  </defs>
</svg>