<svg xmlns="http://www.w3.org/2000/svg" width="12" height="12" fill="none" viewBox="0 0 12 12">
  <g fill="#868D94" clip-path="url(#a)">
    <path d="M4.52 8H4.5C2.57 8 1 6.43 1 4.5S2.57 1 4.5 1 8 2.57 8 4.5c0 .34-.06.65-.15.96h1.04c.07-.31.11-.63.11-.96C9 2.02 6.98 0 4.5 0S0 2.02 0 4.5 2.02 9 4.5 9h.02V8Z"/>
    <path d="m11.8704 6.811-1.5-1.5c-.17-.17-.44-.17-.61 0-.17.17-.17.44 0 .61l.76.76h-3.19c-.24 0-.43.19-.43.43s.19.43.43.43h3.19l-.76.76c-.17.17-.17.44 0 .61.08.08.2.13.31.13.11 0 .22-.04.31-.13l1.5-1.5c.17-.17.17-.44 0-.61l-.01.01Zm-2.3 2.831h-3.19l.76-.76c.17-.17.17-.44 0-.61-.17-.17-.44-.17-.61 0l-1.5 1.5c-.08.08-.13.19-.13.31s.05.22.13.31l1.5 1.5c.08.08.2.13.31.13.11 0 .22-.04.31-.13.17-.17.17-.44 0-.61l-.76-.76h3.19c.24 0 .43-.19.43-.43s-.19-.43-.43-.43l-.01-.02Z"/>
  </g>
  <defs>
    <clipPath id="a">
      <path fill="#fff" d="M0 0h12v12H0z"/>
    </clipPath>
  </defs>
</svg>