<svg xmlns="http://www.w3.org/2000/svg" width="19" height="20" fill="none" viewBox="0 0 19 20">
  <path fill="white" d="M4.6914 16.7876a5.7459 5.7459 0 0 0 2.406 1.1962c.0846.0278.1416-.0831.0846-.1385-1.896-1.809-.8542-3.7667-.0847-4.6495.5486-.6301 1.33-1.668 1.273-3.0597 0-.1394.1425-.251.255-.167 1.0758.5565 1.8113 1.7812 2.0092 2.7826.3119-.3056.4251-.779.4251-1.1962a.1886.1886 0 0 1 .3111-.1393c1.0189.9183 2.7732 4.0351-.057 6.4837-.0562.0562 0 .1679.057.1402a6.938 6.938 0 0 0 2.3774-1.1416c4.613-3.5625 1.6126-9.88-.3404-11.9669-.2541-.251-.707-.0839-.707.278-.0285.752-.2549 1.5864-.8486 2.143-.4529-1.8921-1.9618-4.0415-4.1128-5.0992-.2826-.1393-.6222.0831-.5937.3895.0554 2.5888-1.6332 4.237-3.105 6.38-1.3022 1.9199-2.1509 5.4547.6508 7.7647Z"/>
</svg>