<svg xmlns="http://www.w3.org/2000/svg" width="12" height="12" fill="none" viewBox="0 0 12 12">
  <g fill="#868D94" clip-path="url(#a)">
    <path d="M6 6c1.66 0 3-1.34 3-3S7.66 0 6 0 3 1.34 3 3s1.34 3 3 3Zm0-4.88c1.04 0 1.88.84 1.88 1.88S7.04 4.88 6 4.88 4.12 4.04 4.12 3 4.96 1.12 6 1.12Zm5.959 10.17c-.29-.65-.74-1.29-1.29-1.84-1.24-1.26-2.9-1.95-4.67-1.95-2.55 0-4.88 1.49-5.95 3.79-.12.25 0 .55.24.66.25.12.55 0 .66-.24.91-1.95 2.89-3.2 5.05-3.2 1.5 0 2.91.59 3.96 1.65.47.47.84 1 1.08 1.54.08.19.27.3.46.3.07 0 .14-.01.2-.04.25-.11.37-.41.25-.66l.01-.01Z"/>
  </g>
  <defs>
    <clipPath id="a">
      <path fill="#fff" d="M0 0h12v12H0z"/>
    </clipPath>
  </defs>
</svg>