<svg xmlns="http://www.w3.org/2000/svg" width="12" height="13" fill="none" viewBox="0 0 12 13">
  <g stroke="#868D94" clip-path="url(#a)">
    <path stroke-linecap="round" stroke-linejoin="round" stroke-width=".8438" d="M2.625 4.25h2.25"/>
    <path stroke-width=".8438" d="M10.9687 4.8125H9.5048c-1.0036 0-1.8173.7555-1.8173 1.6875s.8137 1.6875 1.8173 1.6875h1.4639c.0469 0 .0703 0 .0901-.0012.3034-.0185.545-.2428.5649-.5245.0013-.0184.0013-.0402.0013-.0837V5.422c0-.0435 0-.0653-.0013-.0837-.0199-.2817-.2615-.506-.5649-.5245-.0198-.0012-.0432-.0012-.0901-.0012Z"/>
    <path stroke-width=".8438" d="M11.0428 4.8125c-.0437-1.0532-.1847-1.6989-.6393-2.1535C9.7445 2 8.6838 2 6.5625 2H4.875c-2.1213 0-3.182 0-3.841.659C.375 3.318.375 4.3787.375 6.5s0 3.182.659 3.841C1.693 11 2.7537 11 4.875 11h1.6875c2.1213 0 3.182 0 3.841-.659.4546-.4546.5956-1.1003.6393-2.1535"/>
    <path stroke-linecap="round" stroke-linejoin="round" d="M8.996 6.5h.005"/>
  </g>
  <defs>
    <clipPath id="a">
      <path fill="#fff" d="M0 0h12v12H0z" transform="translate(0 .5)"/>
    </clipPath>
  </defs>
</svg>